<svg width="81" height="84" viewBox="0 0 81 84" fill="none" xmlns="http://www.w3.org/2000/svg">
<g clip-path="url(#clip0_18_754)">
<path d="M70.1823 70.5072L70.1362 70.4468" stroke="#F6DDA0" stroke-width="2"/>
<path d="M70.1362 70.4468L69.9796 69.3377" stroke="#FFE5A7" stroke-width="2"/>
<path d="M69.9796 69.3377C69.9946 69.227 69.9819 69.0736 69.94 68.8784" stroke="#F6DDA0" stroke-width="2"/>
<path d="M69.94 68.8783L69.8854 67.6913" stroke="#FFE5A7" stroke-width="2"/>
<path d="M69.8854 67.6914C69.9113 67.5306 69.9105 67.3805 69.8839 67.241" stroke="#F6DDA0" stroke-width="2"/>
<path d="M69.8839 67.241L69.9345 66.0959" stroke="#FFE5A7" stroke-width="2"/>
<path d="M69.9344 66.0959L69.9811 65.6357" stroke="#F6DDA0" stroke-width="2"/>
<path d="M69.9811 65.6357L70.1465 64.4462" stroke="#FFE5A7" stroke-width="2"/>
<path d="M70.1465 64.4462L70.239 64.0041" stroke="#F6DDA0" stroke-width="2"/>
<path d="M70.239 64.0041L70.4842 62.9803" stroke="#FFE5A7" stroke-width="2"/>
<path d="M70.4843 62.9803C70.7777 61.9 71.1756 60.8131 71.6787 59.7196" stroke="#EFD699" stroke-width="2"/>
<path d="M71.6787 59.7196L72.6461 59.7294C72.6682 59.7294 72.6864 59.7122 72.6864 59.6892C72.6864 59.6859 72.6864 59.6826 72.6856 59.6794L63.5455 16.4981C63.5407 16.4752 63.5273 16.4637 63.5043 16.4637H27.0345" stroke="#90CD89" stroke-width="2"/>
<path d="M27.0345 16.4628C25.6953 16.4456 24.3435 16.4464 22.979 16.4653C22.5329 16.4719 22.0915 16.5203 21.6548 16.6113C19.7532 17.0075 17.9038 18.4718 17.7369 20.6235C17.7092 20.9852 17.695 21.1673 17.6942 21.1698C16.2656 34.052 14.8355 46.9342 13.4045 59.8155C13.38 60.0346 13.3294 60.2651 13.2527 60.5071C13.1063 60.9673 12.9932 61.4152 12.9133 61.8516C12.4126 64.6053 12.4529 67.565 12.8872 70.3418C13.0422 71.3319 13.2716 72.3032 13.5762 73.2547C13.5801 73.2654 13.5762 73.2859 13.5659 73.3179" stroke="#FF9358" stroke-width="2"/>
<path d="M27.0345 16.4629L24.5642 59.695" stroke="#909692" stroke-width="2"/>
<path d="M24.5642 59.695C24.5381 59.7089 24.5104 59.7163 24.4819 59.7163C22.6491 59.7171 20.8164 59.7187 18.9828 59.7196C18.5707 59.7196 18.2456 59.7557 18.0075 59.827C16.6801 60.2265 15.7697 61.5751 15.3093 62.872C14.9779 63.8031 14.811 64.6218 14.6694 65.6201C14.629 65.9055 14.618 66.2698 14.58 66.6299C14.5112 67.2943 14.5903 68.2328 14.6377 69.049C14.6781 69.7487 14.8395 70.5772 15.1211 71.5329C15.5126 72.8593 16.2767 74.299 17.5289 74.9396" stroke="#EF9EA2" stroke-width="2"/>
<path d="M17.5289 74.9397C17.9695 75.1365 18.3959 75.235 18.8072 75.2341C19.5879 75.2325 20.3726 75.2325 21.1613 75.235C21.1897 75.235 21.204 75.2202 21.2048 75.1898V74.2391" stroke="#FFADB0" stroke-width="2"/>
<path d="M21.2048 74.2391V73.8051" stroke="#F6A6A9" stroke-width="2"/>
<path d="M21.204 73.8051L21.2055 72.5952" stroke="#FFADB0" stroke-width="2"/>
<path d="M21.2056 72.5952V72.1662" stroke="#F6A6A9" stroke-width="2"/>
<path d="M21.2048 72.1662V70.9513" stroke="#FFADB0" stroke-width="2"/>
<path d="M21.2055 70.9513L21.204 70.5313" stroke="#F6A6A9" stroke-width="2"/>
<path d="M21.204 70.5313L21.2055 69.323" stroke="#FFADB0" stroke-width="2"/>
<path d="M21.2056 69.323L21.2071 68.8997" stroke="#F6A6A9" stroke-width="2"/>
<path d="M21.2072 68.8997L21.214 67.7545" stroke="#FFADB0" stroke-width="2"/>
<path d="M21.2142 67.7545L29.4677 67.7606" stroke="#F6A6A9" stroke-width="2"/>
<path d="M29.4676 67.7611L29.4653 68.921" stroke="#FFADB0" stroke-width="2"/>
<path d="M29.4653 68.921V69.4198" stroke="#F6A6A9" stroke-width="2"/>
<path d="M29.4653 69.4198V70.5173" stroke="#FFADB0" stroke-width="2"/>
<path d="M29.4653 70.5173V71.0235" stroke="#F6A6A9" stroke-width="2"/>
<path d="M29.4661 71.0235V72.1498" stroke="#FFADB0" stroke-width="2"/>
<path d="M29.4653 72.1498V72.7191" stroke="#F6A6A9" stroke-width="2"/>
<path d="M29.4661 72.7191V73.7879" stroke="#FFADB0" stroke-width="2"/>
<path d="M29.4661 73.7879L29.4676 74.2949" stroke="#F6A6A9" stroke-width="2"/>
<path d="M29.4677 74.2949V75.2538" stroke="#FFADB0" stroke-width="2"/>
<path d="M29.4676 75.2538L29.4661 77.6008" stroke="#909692" stroke-width="2"/>
<path d="M29.4661 77.6007V82.4094" stroke="#FF9358" stroke-width="2"/>
<path d="M27.7386 81.8377C27.7148 81.8459 27.7037 81.836 27.7045 81.8089C27.7053 81.7794 27.6974 81.7532 27.6792 81.7294L25.3275 78.7328C25.3165 78.7188 25.2967 78.7164 25.2832 78.7279C25.2817 78.7295 25.2801 78.7311 25.2785 78.7328L24.0287 80.348" stroke="#FF9358" stroke-width="2"/>
<path d="M21.1652 78.8747C21.1795 78.8706 21.1921 78.8616 21.2024 78.8468C21.2095 78.8353 21.2135 78.8205 21.2135 78.8025C21.2056 78.385 21.204 77.9822 21.2095 77.5934" stroke="#FF9358" stroke-width="2"/>
<path d="M21.2095 77.5934C21.196 77.5794 21.185 77.5679 21.1747 77.5589C21.1549 77.5409 21.1296 77.531 21.1027 77.5302L17.3375 77.4334" stroke="#909692" stroke-width="2"/>
<path d="M71.6787 59.7196L24.5642 59.695" stroke="#80D9D3" stroke-width="2"/>
<path d="M55.5008 50.491C55.5008 50.4763 55.4897 50.4648 55.4755 50.4648H39.6141C39.5998 50.4648 39.5887 50.4763 39.5887 50.491V51.6182C39.5887 51.6329 39.5998 51.6444 39.6141 51.6444H55.4755C55.4897 51.6444 55.5008 51.6329 55.5008 51.6182V50.491Z" stroke="#86E0DA" stroke-width="2"/>
<path d="M54.2217 53.0316C54.2217 53.0119 54.2067 52.9963 54.1877 52.9963H40.9034C40.8844 52.9963 40.8694 53.0119 40.8694 53.0316V53.847C40.8694 53.8666 40.8844 53.8822 40.9034 53.8822H54.1877C54.2067 53.8822 54.2217 53.8666 54.2217 53.847V53.0316Z" stroke="#86E0DA" stroke-width="2"/>
<path d="M70.4843 62.9803C54.1854 62.9795 37.892 62.9787 21.6035 62.9795C20.519 62.9795 19.8933 63.1862 19.073 63.9647" stroke="#EFF0F1" stroke-width="2"/>
<path d="M19.073 63.9647L18.6759 64.4495" stroke="#E6E9EA" stroke-width="2"/>
<path d="M18.6759 64.4495C18.3982 64.7965 18.1688 65.1886 17.9877 65.6275" stroke="#EFF0F1" stroke-width="2"/>
<path d="M17.9877 65.6275L17.8097 66.0655" stroke="#E6E9EA" stroke-width="2"/>
<path d="M17.8097 66.0655C17.6618 66.4158 17.5463 66.789 17.4617 67.1844" stroke="#EFF0F1" stroke-width="2"/>
<path d="M17.4617 67.1844L17.3264 67.7127" stroke="#E6E9EA" stroke-width="2"/>
<path d="M17.3264 67.7127L17.1389 68.9022" stroke="#EFF0F1" stroke-width="2"/>
<path d="M17.1389 68.9022L17.0994 69.3533" stroke="#E6E9EA" stroke-width="2"/>
<path d="M17.0994 69.3533L17.0338 70.5198" stroke="#EFF0F1" stroke-width="2"/>
<path d="M17.0338 70.5198L17.036 71.0645" stroke="#E6E9EA" stroke-width="2"/>
<path d="M17.0361 71.0645L17.0994 72.1727" stroke="#EFF0F1" stroke-width="2"/>
<path d="M17.0994 72.1727L17.1603 72.6108" stroke="#E6E9EA" stroke-width="2"/>
<path d="M17.1603 72.6108C17.1785 72.9922 17.2378 73.3687 17.3383 73.7395" stroke="#EFF0F1" stroke-width="2"/>
<path d="M17.3383 73.7395L17.4411 74.2473" stroke="#E6E9EA" stroke-width="2"/>
<path d="M17.4411 74.2473C17.5004 74.4598 17.5542 74.6632 17.6041 74.856C17.6128 74.8896 17.5882 74.9175 17.5289 74.9397" stroke="#EFF0F1" stroke-width="2"/>
<path d="M70.2391 64.0041C69.9812 63.9819 69.6529 63.9778 69.2534 63.9926C68.9679 64.0032 68.5352 63.9967 67.9554 63.9721C67.8913 63.9696 67.8241 63.9901 67.7703 63.9909C67.3218 63.9967 66.8741 63.9909 66.4256 63.9721C66.3117 63.968 66.1756 63.9901 66.0301 63.9901C65.4052 63.9868 64.959 63.9729 64.6062 63.9819C64.1577 63.9934 63.71 63.9901 63.2615 63.9721C63.1468 63.968 63.0115 63.9901 62.866 63.9901C62.2427 63.9868 61.7958 63.9729 61.4422 63.9819C60.9937 63.9934 60.5459 63.9901 60.0974 63.9721C59.9827 63.968 59.8475 63.9901 59.7019 63.9901C59.0786 63.9868 58.6325 63.9729 58.2781 63.9819C57.8296 63.9934 57.3819 63.9901 56.9334 63.9721C56.8187 63.968 56.6834 63.9901 56.5379 63.9901C55.9146 63.9868 55.4684 63.9729 55.114 63.9819C54.6655 63.9934 54.2178 63.9901 53.7693 63.9721C53.6546 63.968 53.5194 63.9901 53.3738 63.9901C52.7505 63.9868 52.3044 63.9729 51.95 63.9819C51.4841 63.9926 51.019 63.9893 50.553 63.9713C50.4874 63.9688 50.4202 63.9909 50.3679 63.9909C49.9194 63.9967 49.4717 63.9909 49.0232 63.9721C48.9085 63.968 48.7733 63.9901 48.6277 63.9901C48.0028 63.9868 47.5559 63.9729 47.2039 63.9819C46.7554 63.9934 46.3077 63.9901 45.8592 63.9721C45.7445 63.968 45.6092 63.9901 45.4637 63.9901C44.8388 63.9868 44.3926 63.9729 44.0398 63.9819C43.5913 63.9934 43.1436 63.9901 42.6951 63.9721C42.5804 63.968 42.4451 63.9901 42.2996 63.9901C41.6747 63.9868 41.2286 63.9729 40.8758 63.9819C40.4273 63.9934 39.9795 63.9901 39.531 63.9721C39.4163 63.968 39.2811 63.9901 39.1355 63.9901C38.5106 63.9868 38.0645 63.9729 37.7117 63.9819C37.2632 63.9934 36.8155 63.9901 36.367 63.9721C36.2523 63.968 36.117 63.9901 35.9715 63.9901C35.3466 63.9868 34.9004 63.9729 34.5476 63.9819C34.0991 63.9934 33.6514 63.9901 33.2029 63.9721C33.0882 63.968 32.9529 63.9901 32.8074 63.9901C32.1817 63.9868 31.7356 63.9729 31.3836 63.9811C30.9177 63.9926 30.4525 63.9893 29.9866 63.9713C29.921 63.9688 29.8538 63.9909 29.8015 63.9909C29.353 63.9967 28.9053 63.9909 28.4568 63.9721C28.3421 63.968 28.2069 63.9901 28.0613 63.9901C27.438 63.9868 26.9911 63.9729 26.6375 63.9819C26.189 63.9934 25.7413 63.9901 25.2928 63.9721C25.1788 63.968 25.0428 63.9901 24.8972 63.9893C24.2739 63.9868 23.8278 63.9729 23.4734 63.9819C22.9917 63.9942 22.5108 63.9959 22.0298 63.9885C21.9642 63.9885 21.8985 63.9868 21.8321 63.986C21.2617 63.9786 20.6922 63.9803 20.1219 63.9926C19.777 64 19.4274 63.9901 19.073 63.9647" stroke="#F6F8F8" stroke-width="2"/>
<path d="M70.1465 64.4462C69.4235 64.4643 68.7053 64.4643 67.9926 64.447C67.8359 64.4438 67.6698 64.4872 67.4982 64.4774C67.1011 64.4528 66.7103 64.4585 66.314 64.447C66.2365 64.4446 66.1503 64.4807 66.0894 64.4774C65.652 64.4569 65.2145 64.447 64.7763 64.4495C64.6418 64.4503 64.4876 64.4897 64.3341 64.4782C63.9149 64.447 63.5115 64.4618 63.093 64.4626C62.5512 64.4635 61.9532 64.4019 61.4192 64.4684C61.2143 64.4946 60.9296 64.4544 60.8038 64.4561C60.5119 64.4602 60.2208 64.4618 59.929 64.4626C59.3871 64.4635 58.7891 64.4019 58.2552 64.4684C58.0503 64.4946 57.7655 64.4544 57.6397 64.4561C57.3479 64.4602 57.0568 64.4618 56.7649 64.4626C56.223 64.4635 55.625 64.4019 55.0911 64.4684C54.8862 64.4946 54.6015 64.4544 54.4757 64.4561C54.1838 64.4602 53.8927 64.4618 53.6008 64.4626C53.0582 64.4635 52.4618 64.4027 51.927 64.4684C51.723 64.4938 51.4311 64.4544 51.3116 64.4552C51.0506 64.4569 50.7896 64.4552 50.5293 64.4487C50.4004 64.4454 50.2627 64.4913 50.1204 64.479C49.6956 64.4421 49.183 64.4159 48.7606 64.4676C48.5589 64.4922 48.2686 64.4544 48.1507 64.4552C47.8921 64.4561 47.6326 64.4544 47.374 64.4495C47.2355 64.4462 47.0868 64.4897 46.9318 64.4782C46.5141 64.447 46.0118 64.4126 45.5973 64.4667C45.3964 64.493 45.1077 64.4544 44.989 64.4544C44.7296 64.4561 44.4701 64.4544 44.2099 64.4495C44.0715 64.4462 43.9227 64.4897 43.7677 64.4782C43.3991 64.4511 43.0384 64.4577 42.6698 64.4495C42.5155 64.4454 42.3486 64.4864 42.1786 64.4758C41.7997 64.4528 41.4263 64.4569 41.0466 64.4495C40.9074 64.4462 40.7587 64.4897 40.6036 64.4782C40.235 64.4511 39.8743 64.4577 39.5057 64.4495C39.3515 64.4454 39.1846 64.4864 39.0145 64.4758C38.6356 64.4528 38.2622 64.4569 37.8826 64.4495C37.7433 64.4462 37.5946 64.4897 37.4396 64.4782C37.071 64.4511 36.7103 64.4577 36.3417 64.4495C36.1874 64.4454 36.0205 64.4864 35.8504 64.4758C35.4715 64.4528 35.0982 64.4569 34.7185 64.4495C34.5793 64.4462 34.4306 64.4897 34.2755 64.4782C33.808 64.4438 33.3524 64.4675 32.8865 64.4593C32.4601 64.452 32.0338 64.4487 31.6066 64.4479C31.5536 64.4479 31.4714 64.4544 31.3598 64.4684C31.1565 64.493 30.8702 64.4544 30.7476 64.4552C30.4889 64.4561 30.2303 64.4544 29.9716 64.4495C29.8324 64.4462 29.6845 64.4905 29.5294 64.479C29.1331 64.4495 28.7424 64.4577 28.3461 64.447C28.2678 64.4446 28.1831 64.4807 28.1206 64.4774C27.6832 64.4569 27.2458 64.447 26.8075 64.4495C26.6731 64.4503 26.5188 64.4897 26.3654 64.4782C25.9461 64.447 25.5427 64.4618 25.1243 64.4626C24.584 64.4643 23.9844 64.4003 23.4528 64.4692C23.2575 64.4938 22.9822 64.4552 22.8667 64.4561C22.608 64.4561 22.3486 64.4544 22.0891 64.4495C21.9404 64.447 21.7783 64.4864 21.6122 64.4758C21.2325 64.4511 20.8591 64.4569 20.4802 64.4487C20.3402 64.4454 20.1923 64.4946 20.0372 64.4815C19.5848 64.4446 19.1379 64.4585 18.6759 64.4495" stroke="#F6F8F8" stroke-width="2"/>
<path d="M69.9811 65.6351L17.9877 65.6275" stroke="#F6F8F8" stroke-width="2"/>
<path d="M69.9345 66.0959C69.622 66.0557 69.2748 66.0983 69.0011 66.0893C68.6111 66.077 68.2203 66.0811 67.8304 66.1016C67.3834 66.1254 66.9484 66.0606 66.4572 66.0795C66.1479 66.0909 65.8623 66.0909 65.6013 66.0803C65.0088 66.0549 64.656 66.1205 64.1513 66.0852C63.9038 66.068 63.6222 66.0663 63.3065 66.0795C63.0344 66.0901 62.7536 66.0909 62.4641 66.0811C61.9824 66.0647 61.4753 66.1016 61.0221 66.0852C60.451 66.0647 60.0831 66.0631 59.9194 66.0811C59.7715 66.0975 59.6505 66.1024 59.5563 66.095C59.1268 66.0639 58.6878 66.0713 58.2583 66.0934C57.8367 66.1147 57.4317 66.0606 56.9792 66.0795C56.7071 66.0901 56.4263 66.0909 56.136 66.0811C55.6543 66.0647 55.1599 66.0983 54.6948 66.0885C54.3269 66.0803 53.9599 66.0844 53.5921 66.1016C53.5059 66.1057 53.3571 66.1 53.1459 66.0852C52.8628 66.0655 52.3692 66.068 51.9048 66.0959C51.5109 66.1197 51.1455 66.0581 50.7065 66.0778C50.4272 66.0901 50.1622 66.0934 49.9099 66.0877C49.41 66.0762 48.8927 66.1188 48.3998 66.0852C48.1214 66.0663 47.6247 66.0688 47.169 66.0967C46.7569 66.1213 46.3772 66.0573 45.9074 66.0778C45.3948 66.1008 44.864 66.0631 44.3388 66.0819C43.7202 66.1049 43.1293 66.0729 42.5179 66.1008C42.0171 66.1246 41.5054 66.0557 40.8409 66.0967C40.4288 66.1213 40.0491 66.0573 39.5792 66.0778C39.0667 66.1008 38.5359 66.0631 38.0106 66.0819C37.3921 66.1049 36.8012 66.0729 36.1897 66.1008C35.6898 66.1246 35.1796 66.0557 34.5144 66.0959C34.0983 66.1221 33.7146 66.0565 33.2385 66.0786C32.733 66.1008 32.1927 66.0606 31.6667 66.0827C31.4207 66.0934 31.1858 66.0942 30.9611 66.0852C30.6898 66.0745 30.4193 66.0729 30.148 66.0811C29.826 66.0909 29.5555 66.0918 29.3364 66.0844C28.7471 66.0639 28.3381 66.1229 27.873 66.0909C27.4601 66.0622 27.0108 66.0606 26.5987 66.0983C26.5156 66.1057 26.4096 66.1041 26.2823 66.0918C26.0189 66.0663 25.7111 66.0622 25.3584 66.0786C25.0744 66.0918 24.7675 66.0918 24.436 66.0786C24.1948 66.0696 23.9543 66.0713 23.7138 66.0827C23.4647 66.0951 23.225 66.0959 22.994 66.0868C22.4933 66.0672 21.9894 66.1197 21.4935 66.0836C21.2411 66.0655 20.7546 66.0532 20.2705 66.0967C20.1954 66.1041 20.1028 66.1024 19.9929 66.0926C19.5033 66.0491 18.9203 66.1033 18.4077 66.0893C18.2123 66.0836 18.013 66.0754 17.8097 66.0647" stroke="#F6F8F8" stroke-width="2"/>
<path d="M69.8838 67.241L17.4862 67.2533C17.4727 67.2533 17.4648 67.2468 17.4624 67.2328C17.4585 67.2123 17.4577 67.1967 17.4624 67.1844" stroke="#F6F8F8" stroke-width="2"/>
<path d="M69.8854 67.6913C69.2511 67.7553 68.7408 67.702 68.161 67.7176C67.7774 67.7283 67.4507 67.7283 67.181 67.7176C66.6621 67.6971 66.2745 67.7635 65.9153 67.7356C65.5048 67.7045 65.0215 67.6831 64.6133 67.734C64.4061 67.7603 64.1229 67.7184 63.9955 67.7184C63.7432 67.7176 63.4901 67.7168 63.237 67.7168C63.1001 67.716 62.9387 67.7512 62.7829 67.7406C62.3566 67.711 61.8733 67.6807 61.4493 67.734C61.242 67.7603 60.9588 67.7184 60.8315 67.7184C60.5792 67.7176 60.326 67.7168 60.0729 67.7168C59.9361 67.716 59.7747 67.7512 59.6189 67.7406C59.1925 67.711 58.7092 67.6807 58.2852 67.734C58.078 67.7603 57.794 67.7184 57.6674 67.7184C57.3392 67.7168 57.0014 67.6995 56.6755 67.7348C56.492 67.7545 56.2404 67.7192 56.1249 67.7184C55.8425 67.716 55.5609 67.716 55.2786 67.7176C55.1528 67.7184 55.0057 67.757 54.8593 67.7438C54.486 67.7102 54.1189 67.716 53.744 67.7168C53.6087 67.7168 53.4458 67.7504 53.2907 67.7397C52.8636 67.711 52.3811 67.6815 51.9563 67.734C51.7498 67.7603 51.4682 67.7184 51.3417 67.7184C51.0719 67.7168 50.8022 67.7168 50.5325 67.7176C50.4067 67.7184 50.2588 67.757 50.1124 67.7438C49.6805 67.7061 49.1775 67.6815 48.7479 67.7365C48.5897 67.757 48.3651 67.7209 48.2702 67.7201C47.9221 67.7184 47.5559 67.6913 47.2102 67.734C47.0037 67.7594 46.7229 67.7184 46.5956 67.7184C46.2649 67.716 45.9113 67.6938 45.5831 67.7365C45.4257 67.757 45.205 67.7209 45.1085 67.7201C44.7596 67.7184 44.3926 67.6913 44.0461 67.734C43.8397 67.7594 43.5589 67.7184 43.4315 67.7184C43.1009 67.716 42.7473 67.6938 42.419 67.7365C42.2616 67.757 42.0409 67.7209 41.9444 67.7201C41.5956 67.7184 41.2285 67.6913 40.8821 67.734C40.6756 67.7594 40.3948 67.7184 40.2674 67.7184C39.9368 67.716 39.5832 67.6938 39.2549 67.7365C39.0975 67.757 38.8768 67.7209 38.7803 67.7201C38.4315 67.7184 38.0645 67.6913 37.718 67.734C37.5115 67.7594 37.2307 67.7184 37.1034 67.7184C36.7712 67.716 36.4192 67.6954 36.0885 67.7365C35.9224 67.757 35.6819 67.7192 35.5823 67.7192C35.2437 67.7192 34.8901 67.6922 34.5539 67.734C34.3475 67.7603 34.0667 67.7184 33.9393 67.7184C33.6087 67.716 33.2551 67.6938 32.9268 67.7365C32.7694 67.757 32.5471 67.7209 32.4522 67.7201C32.2078 67.7192 31.9634 67.7168 31.7189 67.7143C31.7174 67.7143 31.5861 67.7217 31.3258 67.7373C31.2095 67.7447 31.0774 67.7397 30.9295 67.7242C30.5941 67.6889 30.1069 67.7012 29.4677 67.7611" stroke="#F6F8F8" stroke-width="2"/>
<path d="M21.2143 67.7545C20.9793 67.7168 20.7404 67.7037 20.4976 67.7152C20.1899 67.7299 19.9581 67.7324 19.8039 67.7225C19.3221 67.693 18.9717 67.6947 18.751 67.7266C18.6395 67.7422 18.5422 67.7472 18.4576 67.7398C18.0834 67.7078 17.7108 67.7193 17.3264 67.7127" stroke="#F6F8F8" stroke-width="2"/>
<path d="M69.94 68.8784C69.4172 68.8849 68.8927 68.8825 68.3667 68.8718C67.9435 68.8628 67.4649 68.8972 67.0117 68.8857C66.6541 68.8767 66.3164 68.8767 65.9976 68.8849C65.5088 68.8964 65.0286 68.862 64.5358 68.8808C64.304 68.8898 64.0731 68.8915 63.8413 68.8857C63.4909 68.8775 63.1436 68.8775 62.8003 68.8857C62.3273 68.8972 61.8606 68.8628 61.3876 68.8808C61.1526 68.8898 60.9185 68.8915 60.6836 68.8857C60.3331 68.8775 59.9819 68.8775 59.6299 68.8857C59.1593 68.8964 58.6942 68.8628 58.2235 68.8808C57.9886 68.8898 57.7544 68.8915 57.5195 68.8857C57.1691 68.8775 56.8179 68.8775 56.4659 68.8857C56.2309 68.8915 55.9968 68.8898 55.7619 68.8808C55.2406 68.8611 54.724 68.8997 54.2028 68.8808C53.7005 68.8628 53.2061 68.898 52.7054 68.8841C52.0765 68.8669 51.4461 68.9153 50.8671 68.8767C50.6171 68.8603 50.3402 68.8874 50.1781 68.8866C49.8561 68.8833 49.5761 68.8857 49.2154 68.871C48.7835 68.8537 48.4173 68.9038 47.9015 68.8833C47.3913 68.8636 46.8345 68.9005 46.2981 68.8816C46.0442 68.8726 45.7911 68.8718 45.5388 68.8808C45.0033 68.9005 44.4725 68.8644 43.9362 68.8825C43.4236 68.8997 42.9158 68.8603 42.4032 68.88C41.8178 68.903 41.2333 68.8726 40.6455 68.8857C40.1749 68.8964 39.7106 68.862 39.2391 68.88C38.6538 68.903 38.0684 68.8726 37.4815 68.8857C37.0108 68.8964 36.5457 68.862 36.0743 68.88C35.5103 68.9013 34.9502 68.8702 34.3807 68.8825C33.3769 68.9046 32.3715 68.8414 31.2839 68.8825C30.606 68.9087 30.0183 68.8103 29.4653 68.921" stroke="#F6F8F8" stroke-width="2"/>
<path d="M21.2071 68.8997L17.1389 68.902" stroke="#F6F8F8" stroke-width="2"/>
<path d="M69.9796 69.3377C69.3159 69.3648 68.6515 69.3664 67.9878 69.341C67.8573 69.3361 67.7125 69.3796 67.5654 69.3714C67.1596 69.3509 66.753 69.341 66.3464 69.3427C66.2476 69.3427 66.1463 69.3796 66.0292 69.3738C65.5491 69.3492 65.0539 69.3197 64.5738 69.3689C64.5105 69.3755 64.4527 69.3771 64.4013 69.3738C63.9955 69.35 63.589 69.3402 63.1824 69.3427C63.0819 69.3435 62.9822 69.3796 62.8652 69.3738C62.385 69.3492 61.8899 69.3197 61.4097 69.3689C61.3464 69.3755 61.2887 69.3771 61.2373 69.3738C60.8315 69.35 60.4249 69.3402 60.0183 69.3427C59.9179 69.3435 59.8182 69.3796 59.7011 69.3738C59.221 69.3492 58.7258 69.3197 58.2456 69.3689C58.1824 69.3755 58.1246 69.3771 58.0732 69.3738C57.6674 69.35 57.2608 69.3402 56.8542 69.3427C56.7538 69.3435 56.6541 69.3796 56.5371 69.3738C56.0569 69.3492 55.5617 69.3197 55.0816 69.3689C55.0183 69.3755 54.9606 69.3771 54.9091 69.3738C54.5033 69.35 54.0968 69.3402 53.6902 69.3427C53.5897 69.3435 53.4901 69.3796 53.373 69.3738C52.8921 69.3492 52.3977 69.3197 51.9175 69.3689C51.8542 69.3755 51.7965 69.3771 51.7451 69.3738C51.2831 69.3484 50.803 69.3172 50.3418 69.3673C50.273 69.3747 50.2113 69.3771 50.1567 69.3738C49.7557 69.35 49.3538 69.3402 48.952 69.3443C48.8626 69.3443 48.7677 69.3812 48.687 69.3771C48.1918 69.3492 47.6729 69.3148 47.1778 69.3681C47.1089 69.3755 47.0472 69.3771 46.9927 69.3738C46.5916 69.35 46.1898 69.3402 45.7879 69.3443C45.6986 69.3443 45.6036 69.3812 45.5229 69.3771C45.0278 69.3492 44.5089 69.3148 44.0137 69.3681C43.9449 69.3755 43.8832 69.3771 43.8286 69.3738C43.4276 69.35 43.0257 69.3402 42.6239 69.3443C42.5345 69.3443 42.4388 69.3812 42.3589 69.3771C41.9175 69.3525 41.4761 69.341 41.0339 69.3427C40.9287 69.3427 40.8156 69.3812 40.6906 69.3738C40.2848 69.3517 39.8783 69.3418 39.4717 69.3427C39.3594 69.3435 39.2375 69.3796 39.1023 69.373C38.6356 69.3484 38.1515 69.3172 37.6856 69.3673C37.6167 69.3747 37.555 69.3771 37.5005 69.3738C37.0994 69.35 36.6976 69.3402 36.2958 69.3443C36.2064 69.3443 36.1114 69.3812 36.0308 69.3771C35.5356 69.3492 35.0167 69.3148 34.5215 69.3681C34.4527 69.3755 34.3918 69.3771 34.3372 69.3738C33.9203 69.35 33.5027 69.3451 33.0842 69.3582C32.5495 69.3747 32.0187 69.3435 31.4824 69.3591C31.3986 69.3615 31.325 69.3812 31.2443 69.3763C30.731 69.3459 30.3093 69.3377 29.9795 69.3517C29.8964 69.355 29.7256 69.3779 29.4653 69.4198" stroke="#F6F8F8" stroke-width="2"/>
<path d="M21.2055 69.323C21.0869 69.3418 20.8867 69.3443 20.6059 69.3303C20.4572 69.323 20.265 69.3878 20.0775 69.3755C19.6717 69.3492 19.266 69.3386 18.8586 69.3443C18.7898 69.3443 18.7289 69.3689 18.649 69.3656C18.1435 69.3418 17.627 69.3377 17.0994 69.3533" stroke="#F6F8F8" stroke-width="2"/>
<path d="M21.204 70.5313C20.9611 70.5009 20.7223 70.4903 20.4889 70.5009C20.1337 70.5157 19.8521 70.5067 19.5326 70.5165C19.3396 70.5223 19.1284 70.4796 18.9219 70.4895C18.6395 70.5034 18.4956 70.5108 18.4916 70.5108C18.0051 70.5083 17.5194 70.5108 17.0338 70.5198" stroke="#F6F8F8" stroke-width="2"/>
<path d="M70.1362 70.4468C70.1085 70.5133 70.0516 70.5395 69.9653 70.5239C69.781 70.4919 69.5967 70.4862 69.4116 70.5067C69.1704 70.5338 68.6823 70.5272 67.9482 70.4862C67.8984 70.4837 67.8351 70.5165 67.7766 70.5157C67.3953 70.5083 67.0046 70.5321 66.6257 70.4936C66.4342 70.4747 66.1914 70.5083 66.0633 70.5116C65.6844 70.5223 65.4921 70.528 65.4866 70.5272C65.2042 70.51 64.9226 70.5042 64.6402 70.51C64.1087 70.5215 63.5779 70.4903 63.0439 70.4993C62.7426 70.5042 62.442 70.5083 62.1414 70.5116C61.961 70.5133 61.734 70.4821 61.4817 70.5091C61.1281 70.5469 60.5546 70.4878 59.8799 70.4993C59.5785 70.5042 59.2779 70.5083 58.9773 70.5116C58.797 70.5133 58.57 70.4821 58.3176 70.5091C57.964 70.5469 57.3906 70.4878 56.7158 70.4993C56.4144 70.5042 56.1139 70.5083 55.8133 70.5116C55.6329 70.5133 55.4059 70.4821 55.1536 70.5091C54.8 70.5469 54.2265 70.4878 53.5518 70.4993C53.2409 70.5042 52.9292 70.5083 52.6184 70.5116C52.4815 70.5133 52.3122 70.4763 52.158 70.4878C51.7206 70.5198 51.2475 70.5387 50.8109 70.4936C50.5918 70.4714 50.3031 70.5141 50.1512 70.5116C49.8474 70.5083 49.5366 70.528 49.2344 70.4944C49.0303 70.4722 48.7487 70.5108 48.6253 70.5108C48.2899 70.5108 47.9585 70.5157 47.6231 70.496C47.51 70.4895 47.3708 70.4944 47.2039 70.5116C47.0021 70.5329 46.5347 70.5247 45.8014 70.4862C45.7484 70.4837 45.6835 70.5133 45.6416 70.5124C45.2461 70.51 44.8522 70.5182 44.4559 70.496C44.3435 70.4895 44.2051 70.4952 44.0398 70.5124C43.8397 70.5329 43.3722 70.5247 42.6373 70.4862C42.5843 70.4837 42.5195 70.5133 42.4775 70.5124C42.082 70.51 41.6881 70.5182 41.2918 70.496C41.1795 70.4895 41.0411 70.4952 40.8757 70.5124C40.6756 70.5329 40.2081 70.5247 39.4733 70.4862C39.4203 70.4837 39.3554 70.5133 39.3135 70.5124C38.918 70.51 38.524 70.5182 38.1277 70.496C38.0154 70.4895 37.877 70.4952 37.7117 70.5124C37.5115 70.5329 37.0441 70.5247 36.3092 70.4862C36.2562 70.4837 36.1913 70.5133 36.1494 70.5124C35.8417 70.51 35.5332 70.51 35.2247 70.5116C35.0784 70.5124 34.8972 70.4747 34.7295 70.4886C34.2763 70.5247 33.8294 70.5116 33.3753 70.496C33.2464 70.4919 33.0961 70.4968 32.926 70.5108C32.5519 70.5411 32.0243 70.4722 31.4231 70.4968C30.9983 70.5141 30.5743 70.5124 30.1511 70.4919C29.932 70.4813 29.6971 70.5206 29.4653 70.5174" stroke="#F6F8F8" stroke-width="2"/>
<path d="M70.2382 70.9751L67.1841 71.0128C67.1778 71.0128 67.173 71.0095 67.1707 71.0038C67.158 70.9734 66.8954 70.9652 66.382 70.9775C66.2721 70.98 66.1313 71.0112 66.0016 71.0005C65.5111 70.9619 65.0326 70.9701 64.7249 70.9759C64.6465 70.9775 64.5579 71.0112 64.4607 71.0046C63.7788 70.9578 63.32 70.9505 63.0835 70.9824C62.972 70.998 62.8778 71.003 62.8027 70.9964C62.3028 70.9537 61.8384 70.9701 61.5608 70.9759C61.4825 70.9775 61.3939 71.0112 61.2966 71.0046C60.6147 70.9578 60.1559 70.9505 59.9194 70.9824C59.8079 70.998 59.7138 71.003 59.6386 70.9964C59.1387 70.9537 58.6744 70.9701 58.3967 70.9759C58.3184 70.9775 58.2298 71.0112 58.1325 71.0046C57.4507 70.9578 56.9919 70.9505 56.7554 70.9824C56.6438 70.998 56.5497 71.003 56.4746 70.9964C55.9754 70.9537 55.5103 70.9701 55.2327 70.9759C55.1544 70.9775 55.0658 71.0112 54.9685 71.0046C54.5105 70.9742 54.0517 70.9734 53.5921 71.0013C53.1744 71.0267 52.7465 70.9587 52.2925 70.9775C51.9958 70.9898 51.6889 70.9907 51.3701 70.98C50.905 70.9644 50.4154 70.9997 49.9803 70.9882C49.6552 70.9792 49.3293 70.9751 49.0042 70.9759C48.884 70.9759 48.74 71.0112 48.6032 71.0005C48.1895 70.9693 47.7766 70.9775 47.3621 70.9783C47.26 70.9783 47.1683 71.0103 47.0718 71.0046C46.3978 70.9611 45.9541 70.9529 45.7405 70.9783C45.2002 71.044 44.637 70.9373 44.088 70.9923C43.8325 71.0177 43.475 70.9783 43.3231 70.9783C43.1167 70.9783 42.9102 70.9783 42.7038 70.9759C42.5717 70.9742 42.419 71.0095 42.2719 70.9997C41.836 70.971 41.359 70.948 40.924 70.9923C40.6685 71.0177 40.3109 70.9783 40.1591 70.9783C39.9526 70.9783 39.7462 70.9783 39.5397 70.9759C39.4076 70.9742 39.2549 71.0095 39.1078 70.9997C38.6712 70.971 38.195 70.948 37.7591 70.9923C37.5044 71.0177 37.1508 70.9783 36.9982 70.9783C36.7822 70.9783 36.5655 70.9783 36.3495 70.9759C36.2261 70.9751 36.083 71.0112 35.9453 71.0005C35.5332 70.9685 35.1187 70.9759 34.7058 70.9726C34.6069 70.9718 34.5025 71.0112 34.3894 71.0038C33.9417 70.9751 33.494 70.9734 33.0455 70.9989C32.6065 71.0243 32.1746 70.9595 31.7 70.9783C31.4152 70.989 31.1122 70.9898 30.7911 70.98C30.3505 70.9677 29.9091 70.9816 29.4661 71.0235" stroke="#F6F8F8" stroke-width="2"/>
<path d="M21.2056 70.9513C21.0118 70.9767 20.8188 70.9841 20.6266 70.9751C20.5403 70.971 20.4415 70.9767 20.3283 70.9915C20.1005 71.0218 19.7849 70.9784 19.6417 70.9784C19.4163 70.9784 19.1909 70.9775 18.9654 70.9751C18.8191 70.9751 18.653 71.012 18.4884 71.0013C18.0913 70.9759 17.7006 70.9808 17.3035 70.9743C17.1579 70.9718 17.0686 71.0022 17.0361 71.0645" stroke="#F6F8F8" stroke-width="2"/>
<path d="M21.2047 72.1662C20.617 72.0882 19.9454 72.1448 19.3941 72.1457C19.2596 72.1465 19.0967 72.1079 18.9432 72.1202C18.5778 72.1498 18.2234 72.1473 17.8572 72.1465C17.6309 72.1457 17.3778 72.0907 17.0994 72.1727" stroke="#F6F8F8" stroke-width="2"/>
<path d="M70.5206 72.1465C70.3221 72.1514 70.1243 72.1489 69.9266 72.1391C69.3689 72.1112 68.7828 72.1768 68.2646 72.135C68.1349 72.1243 68.0234 72.1227 67.9293 72.1284C67.5812 72.1514 67.2379 72.1465 66.8899 72.1456C66.7388 72.1456 66.5529 72.1096 66.3773 72.1219C65.9288 72.1522 65.4605 72.1719 65.012 72.1243C64.8301 72.1054 64.5785 72.1465 64.4614 72.1465C64.2162 72.1465 63.971 72.1465 63.7258 72.1456C63.5747 72.1456 63.3888 72.1096 63.2132 72.1219C62.7647 72.1522 62.2964 72.1719 61.8479 72.1243C61.666 72.1054 61.4145 72.1465 61.2974 72.1465C61.0522 72.1465 60.807 72.1465 60.5617 72.1456C60.4107 72.1456 60.2248 72.1096 60.0492 72.1219C59.6007 72.1522 59.1324 72.1719 58.6839 72.1243C58.5019 72.1054 58.2504 72.1465 58.1333 72.1465C57.8881 72.1465 57.6429 72.1465 57.3977 72.1456C57.2466 72.1456 57.0607 72.1096 56.8851 72.1219C56.4366 72.1522 55.9683 72.1719 55.5198 72.1243C55.3379 72.1054 55.0863 72.1465 54.9693 72.1465C54.724 72.1465 54.4788 72.1465 54.2336 72.1456C54.0825 72.1456 53.8966 72.1096 53.721 72.1219C53.2725 72.1522 52.8042 72.1719 52.3557 72.1243C52.1738 72.1054 51.9231 72.1465 51.8044 72.1465C51.5695 72.1465 51.3345 72.1465 51.0996 72.1465C50.9351 72.1465 50.7334 72.1112 50.5443 72.1235C50.0919 72.1522 49.6315 72.167 49.179 72.1235C48.9939 72.1063 48.7432 72.1481 48.6182 72.1473C48.1721 72.1448 47.7069 72.1071 47.2632 72.1415C47.0876 72.1555 46.7459 72.1555 46.2388 72.1415C46.1186 72.1383 45.9438 72.1096 45.7879 72.1227C45.22 72.1703 44.66 72.0981 44.0991 72.1415C43.9235 72.1555 43.5818 72.1555 43.0748 72.1415C42.9545 72.1383 42.7797 72.1096 42.6239 72.1227C42.0559 72.1703 41.4959 72.0981 40.9351 72.1415C40.7595 72.1555 40.4177 72.1555 39.9107 72.1415C39.7905 72.1383 39.6156 72.1096 39.4598 72.1227C38.8919 72.1703 38.3318 72.0981 37.771 72.1415C37.5954 72.1555 37.2537 72.1555 36.7466 72.1415C36.6264 72.1383 36.4516 72.1096 36.2958 72.1227C35.7278 72.1703 35.1678 72.0981 34.6069 72.1415C34.4321 72.1555 34.0904 72.1555 33.5826 72.1415C32.93 72.1243 32.4008 72.1653 31.8052 72.1292C31.6897 72.1219 31.5489 72.1268 31.3835 72.144C31.1534 72.1678 30.7594 72.1629 30.2033 72.1276C29.9668 72.1128 29.7161 72.1555 29.4653 72.1497" stroke="#F6F8F8" stroke-width="2"/>
<path d="M21.2056 72.5952C20.8567 72.6362 20.5308 72.5935 20.1859 72.6469C20.1678 72.6493 20.1527 72.6559 20.1409 72.6657C20.1045 72.6936 20.1037 72.7125 20.1377 72.7232C20.1606 72.7297 20.1733 72.7543 20.167 72.7781C20.1654 72.7839 20.1622 72.7896 20.1583 72.7945C19.8846 73.1202 19.5864 73.4188 19.2644 73.6919C19.2446 73.7092 19.2415 73.7403 19.2581 73.7617C19.2668 73.7723 19.2794 73.7789 19.2937 73.7789L21.204 73.8051" stroke="#F6F8F8" stroke-width="2"/>
<path d="M21.2048 74.2391L17.4411 74.2467" stroke="#F6F8F8" stroke-width="2"/>
<path d="M17.3383 73.7395L18.8705 73.7732C18.9235 73.774 18.9685 73.7338 18.9757 73.6796C18.9828 73.6312 19.0128 73.5796 19.0658 73.523C19.3435 73.2318 19.6267 72.9545 19.917 72.6912C19.9312 72.6772 19.9328 72.6543 19.9201 72.6395C19.9138 72.6321 19.9043 72.6272 19.8948 72.6272L17.1603 72.6108" stroke="#F6F8F8" stroke-width="2"/>
<path d="M70.6527 72.61C70.292 72.6223 69.9329 72.6206 69.5762 72.605C69.4496 72.5993 69.3135 72.6411 69.1545 72.6305C68.5431 72.5911 67.8343 72.6329 67.2079 72.6198C66.8717 72.6132 66.5292 72.5944 66.193 72.6231C66.1416 72.6272 66.0743 72.6288 65.9905 72.6272C65.5689 72.6182 65.1465 72.6141 64.7249 72.6141C64.6481 72.6141 64.5864 72.637 64.5129 72.6346C64.0303 72.6173 63.517 72.5796 63.0352 72.6223C62.983 72.6272 62.9134 72.6288 62.8264 72.6272C62.4048 72.6182 61.9824 72.6141 61.5608 72.6141C61.4841 72.6141 61.4224 72.637 61.3488 72.6346C60.8639 72.6165 60.3379 72.5739 59.8562 72.628C59.796 72.6354 59.7248 72.6354 59.6426 72.6296C59.0414 72.5886 58.3366 72.6329 57.7228 72.6198C57.3834 72.6132 57.0386 72.5944 56.7 72.6231C56.6486 72.6272 56.5813 72.6288 56.4983 72.6272C56.0767 72.6182 55.6543 72.6141 55.2327 72.6141C55.1559 72.6141 55.0942 72.637 55.0207 72.6346C54.5382 72.6173 54.0248 72.5796 53.5431 72.6223C53.4909 72.6272 53.4212 72.6288 53.3342 72.6272C52.9126 72.6182 52.4902 72.6141 52.0686 72.6141C51.9919 72.6141 51.9302 72.6378 51.8566 72.6346C51.3456 72.6157 50.8386 72.6272 50.3284 72.6198C49.883 72.6132 49.4369 72.6091 48.99 72.6083C48.8761 72.6083 48.7281 72.6403 48.5684 72.6296C48.2512 72.6083 47.8786 72.6034 47.4522 72.6149C47.139 72.6231 46.8677 72.6247 46.6391 72.6206C46.3013 72.6132 45.9525 72.5911 45.6171 72.628C45.557 72.6346 45.4858 72.6354 45.4043 72.6296C45.0887 72.6083 44.7161 72.6034 44.2882 72.6149C43.9757 72.6231 43.7044 72.6247 43.475 72.6206C43.1372 72.6132 42.7884 72.5911 42.453 72.628C42.3929 72.6346 42.3217 72.6354 42.2402 72.6296C41.9246 72.6083 41.5521 72.6034 41.1241 72.6149C40.8117 72.6231 40.5403 72.6247 40.3109 72.6206C39.9732 72.6132 39.6243 72.5911 39.289 72.628C39.2288 72.6346 39.1576 72.6354 39.0762 72.6296C38.7613 72.6083 38.3904 72.6034 37.9632 72.6149C37.646 72.6231 37.3723 72.6247 37.1429 72.6206C36.8091 72.6132 36.4682 72.5952 36.1352 72.6231C36.0838 72.6272 36.0157 72.6288 35.9319 72.6272C35.3473 72.6149 34.9249 72.6083 34.6663 72.6091C34.5951 72.6091 34.5318 72.6378 34.4543 72.6346C33.971 72.6173 33.4592 72.5812 32.9767 72.6231C32.9244 72.6272 32.8548 72.6288 32.7678 72.6272C32.1643 72.6149 31.7427 72.6091 31.5022 72.61C31.4239 72.61 31.3519 72.6419 31.2649 72.637C30.7238 72.6083 30.2564 72.6042 29.8616 72.6239C29.7224 72.6305 29.5903 72.6625 29.4661 72.7191" stroke="#F6F8F8" stroke-width="2"/>
<path d="M71.0395 73.7543C70.4605 73.7978 70.0856 73.8076 69.9155 73.7822C69.7526 73.7584 69.6165 73.751 69.5073 73.7609C69.1506 73.7937 68.7938 73.7855 68.4363 73.7814C68.2915 73.7797 68.1207 73.7379 67.949 73.7543C67.5812 73.7904 67.2292 73.783 66.8614 73.7814C66.7182 73.7814 66.5474 73.7387 66.3828 73.7535C66.0079 73.7871 65.648 73.7847 65.2722 73.7814C65.1259 73.7806 64.9574 73.7363 64.785 73.7535C64.4172 73.7904 64.0651 73.783 63.6973 73.7814C63.5542 73.7814 63.3833 73.7387 63.2188 73.7535C62.8438 73.7871 62.4839 73.7847 62.1082 73.7814C61.9618 73.7806 61.7934 73.7363 61.6209 73.7535C61.2531 73.7904 60.9011 73.783 60.5333 73.7814C60.3901 73.7814 60.2192 73.7387 60.0547 73.7535C59.6798 73.7871 59.3198 73.7847 58.9441 73.7814C58.7978 73.7806 58.6293 73.7363 58.4568 73.7535C58.089 73.7904 57.737 73.783 57.3692 73.7814C57.226 73.7814 57.0552 73.7387 56.8906 73.7535C56.5157 73.7871 56.1558 73.7847 55.78 73.7814C55.6337 73.7806 55.4652 73.7363 55.2928 73.7535C54.925 73.7904 54.573 73.783 54.2051 73.7814C54.062 73.7814 53.8911 73.7387 53.7266 73.7535C53.3516 73.7871 52.9917 73.7847 52.616 73.7814C52.4696 73.7806 52.3012 73.7363 52.1287 73.7535C51.7609 73.7904 51.4089 73.783 51.0411 73.7814C50.8971 73.7814 50.7294 73.7363 50.5625 73.7527C50.1899 73.7888 49.8332 73.7838 49.459 73.7822C49.3175 73.7814 49.145 73.7387 48.9805 73.7535C48.6055 73.7871 48.2456 73.7847 47.8699 73.7814C47.7236 73.7806 47.5551 73.7363 47.3826 73.7535C47.0148 73.7904 46.6628 73.783 46.295 73.7814C46.1518 73.7814 45.981 73.7387 45.8164 73.7535C45.4415 73.7871 45.0816 73.7847 44.7058 73.7814C44.5595 73.7806 44.391 73.7363 44.2186 73.7535C43.8507 73.7904 43.4987 73.783 43.1309 73.7814C42.9877 73.7814 42.8169 73.7387 42.6524 73.7535C42.2774 73.7871 41.9175 73.7847 41.5418 73.7814C41.3954 73.7806 41.2269 73.7363 41.0545 73.7535C40.6867 73.7904 40.3347 73.783 39.9669 73.7814C39.8237 73.7814 39.6528 73.7387 39.4883 73.7535C39.1134 73.7871 38.7534 73.7847 38.3777 73.7814C38.2314 73.7806 38.0629 73.7363 37.8904 73.7535C37.5226 73.7904 37.1706 73.783 36.8028 73.7814C36.6596 73.7814 36.4888 73.7387 36.3242 73.7535C35.9493 73.7871 35.5894 73.7847 35.2136 73.7814C35.0673 73.7806 34.8988 73.7363 34.7264 73.7535C34.3586 73.7904 34.0066 73.783 33.6387 73.7814C33.4964 73.7814 33.3247 73.7387 33.1602 73.7535C32.7085 73.7937 32.2545 73.8027 31.802 73.7576C31.7015 73.7469 31.5813 73.7535 31.4429 73.7765C31.2079 73.8142 30.8211 73.8093 30.2817 73.7625C30.0096 73.7387 29.7461 73.7863 29.4661 73.7879" stroke="#F6F8F8" stroke-width="2"/>
<path d="M71.2191 74.2145C71.1313 74.2333 70.9707 74.2424 70.7366 74.2424C57.173 74.2424 43.6103 74.2424 30.0467 74.2424C29.9755 74.2424 29.8798 74.2522 29.7588 74.2711C29.6663 74.2858 29.569 74.294 29.4677 74.2949" stroke="#F6F8F8" stroke-width="2"/>
<path d="M71.5687 75.0488C71.5964 75.089 71.6162 75.1365 71.6281 75.1923C71.6336 75.2194 71.6233 75.2333 71.5956 75.2333L29.4677 75.2538" stroke="#90E8E1" stroke-width="2"/>
<path d="M61.8978 77.6344C61.8709 77.6122 61.8511 77.6016 61.8376 77.6016C51.0506 77.6016 40.2603 77.6016 29.4661 77.6007" stroke="#90CD89" stroke-width="2"/>
<path d="M21.2095 77.5934L19.1094 77.6196" stroke="#90CD89" stroke-width="2"/>
<path d="M39.8158 0H41.1929C49.2423 0.196055 56.5378 2.58316 63.0795 7.16133C69.2012 11.445 74.206 17.4833 77.3139 24.52C79.5089 29.4902 80.7208 34.7222 80.9478 40.2158C80.962 40.5612 80.9794 40.9065 81 41.2511V42.758C80.7643 53.1193 77.0062 62.8466 70.2279 70.4698C70.2129 70.4878 70.1971 70.5001 70.1813 70.5059L70.1362 70.4468L69.9796 69.3377C69.9946 69.227 69.9819 69.0736 69.94 68.8784L69.8854 67.6914C69.9123 67.5306 69.9115 67.3805 69.8839 67.241L69.9345 66.0959L69.9812 65.6357L70.1465 64.4462L70.239 64.0041L70.4842 62.9803C70.7777 61.9 71.1756 60.813 71.6787 59.7196L72.6461 59.7294C72.6682 59.7294 72.6864 59.7122 72.6864 59.6892C72.6864 59.6859 72.6864 59.6827 72.6856 59.6794L63.5455 16.4981C63.5407 16.4752 63.5273 16.4637 63.5043 16.4637H27.0345C25.6954 16.4456 24.3435 16.4464 22.979 16.4653C22.5329 16.4719 22.0915 16.5203 21.6548 16.6113C19.7532 17.0075 17.9038 18.4718 17.7369 20.6235C17.7093 20.9852 17.695 21.1673 17.6942 21.1698C16.2657 34.052 14.8355 46.9342 13.4046 59.8155C13.38 60.0346 13.3294 60.2651 13.2527 60.5071C13.1063 60.9673 12.9932 61.4152 12.9133 61.8516C12.4126 64.6054 12.453 67.565 12.8872 70.3418C13.0423 71.3319 13.2717 72.3032 13.5762 73.2547C13.5802 73.2654 13.5762 73.2859 13.5659 73.3179C5.61067 65.9064 0.744346 55.6959 0.0893848 44.6037C0.0537891 44.0065 0.0245215 43.4085 0 42.8105V41.1797C0.221484 32.0037 3.2052 23.3002 8.65134 16.1077C11.0014 13.0044 13.8238 10.1784 16.953 7.86762C23.7534 2.84484 31.3741 0.222305 39.8158 0Z" fill="#FFCA4F"/>
<path d="M27.0345 16.4628L24.5642 59.695C24.5381 59.7089 24.5104 59.7163 24.4819 59.7163C22.6491 59.7171 20.8163 59.7187 18.9828 59.7196C18.5707 59.7196 18.2455 59.7557 18.0074 59.827C16.6801 60.2265 15.7697 61.5751 15.3093 62.872C14.9779 63.8031 14.811 64.6218 14.6694 65.6201C14.629 65.9055 14.6179 66.2698 14.58 66.6299C14.5112 67.2943 14.5903 68.2328 14.6377 69.049C14.6781 69.7487 14.8394 70.5772 15.121 71.5329C15.5126 72.8593 16.2767 74.299 17.5289 74.9396C17.9695 75.1365 18.3958 75.235 18.8072 75.2341C19.5879 75.2325 20.3726 75.2325 21.1612 75.235C21.1897 75.235 21.2039 75.2202 21.2047 75.1898V73.8051V72.5952V72.1662V70.9513L21.2032 70.5313L21.2047 69.323L21.2063 68.8997L21.2134 67.7545L29.4669 67.7611L29.4645 68.921V71.0235V72.1498V72.7191L29.4653 73.7879L29.4669 74.2949V75.2538L29.4653 77.6007V82.4094L29.459 83.9336C29.459 83.9746 29.4455 83.9795 29.4202 83.9475L27.7377 81.8377C27.714 81.8459 27.7029 81.836 27.7037 81.8089C27.7045 81.7794 27.6966 81.7532 27.6784 81.7294L25.3267 78.7328C25.3156 78.7188 25.2959 78.7164 25.2824 78.7278C25.2808 78.7295 25.2793 78.7311 25.2777 78.7328L24.0279 80.348L21.2514 83.945C21.2229 83.982 21.2087 83.9762 21.2087 83.9295C21.2087 82.2708 21.2087 80.6055 21.2087 78.9346C21.2087 78.9141 21.1937 78.8944 21.1644 78.8747C21.1786 78.8706 21.1913 78.8616 21.2016 78.8468C21.2087 78.8353 21.2126 78.8205 21.2126 78.8025C21.2047 78.385 21.2032 77.9822 21.2087 77.5934C21.1952 77.5794 21.1842 77.5679 21.1739 77.5589C21.1541 77.5409 21.1288 77.531 21.1019 77.5302L17.3367 77.4334C15.3813 77.1291 14.2367 75.2752 13.6624 73.4647C13.6537 73.4377 13.6213 73.3884 13.5651 73.3179C13.5754 73.2859 13.5793 73.2654 13.5754 73.2547C13.2708 72.3032 13.0415 71.3319 12.8864 70.3418C12.4521 67.565 12.4118 64.6053 12.9125 61.8516C12.9924 61.4152 13.1055 60.9673 13.2519 60.5071C13.3286 60.2651 13.3792 60.0346 13.4037 59.8155C14.8347 46.9342 16.2648 34.052 17.6934 21.1698C17.6934 21.1673 17.7084 20.9852 17.7361 20.6235C17.903 18.4718 19.7524 17.0075 21.654 16.6113C22.0907 16.5203 22.5321 16.4719 22.9782 16.4653C24.3427 16.4464 25.6945 16.4456 27.0337 16.4628H27.0345Z" fill="#FF5B61"/>
<path d="M27.0345 16.4629H63.5043C63.5273 16.4629 63.5407 16.4752 63.5455 16.4981L72.6856 59.6794C72.6904 59.7015 72.6769 59.7237 72.6556 59.7286C72.6524 59.7286 72.6493 59.7294 72.6461 59.7294L71.6787 59.7196L24.5642 59.695L27.0345 16.4629ZM55.5008 50.4911C55.5008 50.4763 55.4898 50.4648 55.4755 50.4648H39.6141C39.5998 50.4648 39.5888 50.4763 39.5888 50.4911V51.6182C39.5888 51.6329 39.5998 51.6444 39.6141 51.6444H55.4755C55.4898 51.6444 55.5008 51.6329 55.5008 51.6182V50.4911ZM54.2218 53.0316C54.2218 53.0119 54.2067 52.9963 54.1877 52.9963H40.9034C40.8844 52.9963 40.8694 53.0119 40.8694 53.0316V53.847C40.8694 53.8666 40.8844 53.8822 40.9034 53.8822H54.1877C54.2067 53.8822 54.2218 53.8666 54.2218 53.847V53.0316Z" fill="#20D0C2"/>
<path d="M55.4755 50.4648H39.6141C39.6001 50.4648 39.5887 50.4766 39.5887 50.491V51.6182C39.5887 51.6327 39.6001 51.6444 39.6141 51.6444H55.4755C55.4895 51.6444 55.5008 51.6327 55.5008 51.6182V50.491C55.5008 50.4766 55.4895 50.4648 55.4755 50.4648Z" fill="#ECF0F1"/>
<path d="M54.1877 52.9963H40.9034C40.8846 52.9963 40.8694 53.0121 40.8694 53.0316V53.847C40.8694 53.8664 40.8846 53.8822 40.9034 53.8822H54.1877C54.2065 53.8822 54.2217 53.8664 54.2217 53.847V53.0316C54.2217 53.0121 54.2065 52.9963 54.1877 52.9963Z" fill="#ECF0F1"/>
<path d="M24.5642 59.695L71.6787 59.7196C71.1756 60.813 70.7777 61.9 70.4842 62.9803C54.1854 62.9795 37.892 62.9787 21.6034 62.9795C20.5189 62.9795 19.8932 63.1862 19.073 63.9647L18.6759 64.4495C18.3982 64.7965 18.1688 65.1886 17.9877 65.6275L17.8097 66.0655C17.6618 66.4158 17.5463 66.789 17.4617 67.1844L17.3264 67.7127L17.1389 68.9021L17.0994 69.3533L17.0337 70.5198L17.0361 71.0645L17.0994 72.1727L17.1603 72.6108C17.1785 72.9922 17.2378 73.3687 17.3383 73.7395L17.4411 74.2473C17.5004 74.4598 17.5542 74.6632 17.6041 74.856C17.6128 74.8896 17.5882 74.9175 17.5289 74.9396C16.2767 74.299 15.5126 72.8593 15.1211 71.5329C14.8395 70.5772 14.6781 69.7487 14.6377 69.049C14.5903 68.2328 14.5112 67.2943 14.58 66.6299C14.618 66.2698 14.629 65.9055 14.6694 65.6201C14.811 64.6218 14.9779 63.8031 15.3093 62.872C15.7697 61.5751 16.6801 60.2265 18.0075 59.827C18.2456 59.7557 18.5707 59.7196 18.9828 59.7196C20.8164 59.7187 22.6491 59.7171 24.4819 59.7163C24.5104 59.7163 24.5381 59.7089 24.5642 59.695Z" fill="#DFE1E3"/>
<path d="M70.4843 62.9803L70.2391 64.0041C69.9812 63.9819 69.6529 63.9778 69.2534 63.9926C68.9679 64.0032 68.5352 63.9967 67.9554 63.9721C67.8913 63.9696 67.8241 63.9901 67.7703 63.9909C67.3218 63.9967 66.8741 63.9909 66.4256 63.9721C66.3117 63.968 66.1756 63.9901 66.0301 63.9901C65.4052 63.9868 64.959 63.9729 64.6062 63.9819C64.1577 63.9934 63.71 63.9901 63.2615 63.9721C63.1468 63.968 63.0115 63.9901 62.866 63.9901C62.2427 63.9868 61.7957 63.9729 61.4422 63.9819C60.9937 63.9934 60.5459 63.9901 60.0974 63.9721C59.9827 63.968 59.8475 63.9901 59.7019 63.9901C59.0786 63.9868 58.6325 63.9729 58.2781 63.9819C57.8296 63.9934 57.3819 63.9901 56.9334 63.9721C56.8187 63.968 56.6834 63.9901 56.5379 63.9901C55.9145 63.9868 55.4684 63.9729 55.114 63.9819C54.6655 63.9934 54.2178 63.9901 53.7693 63.9721C53.6546 63.968 53.5194 63.9901 53.3738 63.9901C52.7505 63.9868 52.3044 63.9729 51.95 63.9819C51.4841 63.9926 51.019 63.9893 50.553 63.9713C50.4874 63.9688 50.4202 63.9909 50.3679 63.9909C49.9194 63.9967 49.4717 63.9909 49.0232 63.9721C48.9085 63.968 48.7733 63.9901 48.6277 63.9901C48.0028 63.9868 47.5559 63.9729 47.2039 63.9819C46.7554 63.9934 46.3077 63.9901 45.8592 63.9721C45.7445 63.968 45.6092 63.9901 45.4637 63.9901C44.8387 63.9868 44.3926 63.9729 44.0398 63.9819C43.5913 63.9934 43.1436 63.9901 42.6951 63.9721C42.5804 63.968 42.4451 63.9901 42.2996 63.9901C41.6747 63.9868 41.2286 63.9729 40.8758 63.9819C40.4273 63.9934 39.9795 63.9901 39.531 63.9721C39.4163 63.968 39.2811 63.9901 39.1355 63.9901C38.5106 63.9868 38.0645 63.9729 37.7117 63.9819C37.2632 63.9934 36.8155 63.9901 36.367 63.9721C36.2523 63.968 36.117 63.9901 35.9715 63.9901C35.3466 63.9868 34.9004 63.9729 34.5476 63.9819C34.0991 63.9934 33.6514 63.9901 33.2029 63.9721C33.0882 63.968 32.9529 63.9901 32.8074 63.9901C32.1817 63.9868 31.7356 63.9729 31.3836 63.9811C30.9177 63.9926 30.4525 63.9893 29.9866 63.9713C29.921 63.9688 29.8537 63.9909 29.8015 63.9909C29.353 63.9967 28.9053 63.9909 28.4568 63.9721C28.3421 63.968 28.2069 63.9901 28.0613 63.9901C27.438 63.9868 26.9911 63.9729 26.6375 63.9819C26.189 63.9934 25.7413 63.9901 25.2928 63.9721C25.1788 63.968 25.0428 63.9901 24.8972 63.9893C24.2739 63.9868 23.8278 63.9729 23.4734 63.9819C22.9917 63.9942 22.5108 63.9959 22.0298 63.9885C21.9642 63.9885 21.8985 63.9868 21.8321 63.986C21.2617 63.9786 20.6922 63.9803 20.1219 63.9926C19.777 64 19.4274 63.9901 19.073 63.9647C19.8933 63.1862 20.519 62.9795 21.6035 62.9795C37.892 62.9795 54.1854 62.9795 70.4843 62.9803Z" fill="white"/>
<path d="M19.073 63.9647C19.4274 63.9901 19.777 64 20.1219 63.9926C20.6922 63.9803 21.2617 63.9786 21.8321 63.986C21.8985 63.9868 21.9642 63.9877 22.0298 63.9885C22.5107 63.9959 22.9917 63.9942 23.4734 63.9819C23.8278 63.9729 24.2739 63.9868 24.8972 63.9893C25.0428 63.9901 25.1788 63.968 25.2927 63.9721C25.7413 63.9901 26.189 63.9934 26.6375 63.9819C26.9911 63.9729 27.438 63.9868 28.0613 63.9901C28.2068 63.9901 28.3421 63.968 28.4568 63.9721C28.9053 63.9909 29.353 63.9967 29.8015 63.9909C29.8537 63.9909 29.921 63.9688 29.9866 63.9713C30.4525 63.9893 30.9177 63.9926 31.3836 63.9811C31.7356 63.9729 32.1817 63.9868 32.8074 63.9901C32.9529 63.9901 33.0882 63.968 33.2029 63.9721C33.6514 63.9901 34.0991 63.9934 34.5476 63.9819C34.9004 63.9729 35.3466 63.9868 35.9715 63.9901C36.117 63.9901 36.2523 63.968 36.367 63.9721C36.8155 63.9901 37.2632 63.9934 37.7117 63.9819C38.0645 63.9729 38.5106 63.9868 39.1355 63.9901C39.2811 63.9901 39.4163 63.968 39.531 63.9721C39.9795 63.9901 40.4272 63.9934 40.8758 63.9819C41.2285 63.9729 41.6747 63.9868 42.2996 63.9901C42.4451 63.9901 42.5804 63.968 42.6951 63.9721C43.1436 63.9901 43.5913 63.9934 44.0398 63.9819C44.3926 63.9729 44.8387 63.9868 45.4636 63.9901C45.6092 63.9901 45.7445 63.968 45.8592 63.9721C46.3077 63.9901 46.7554 63.9934 47.2039 63.9819C47.5559 63.9729 48.0028 63.9868 48.6277 63.9901C48.7733 63.9901 48.9085 63.968 49.0232 63.9721C49.4717 63.9909 49.9194 63.9967 50.3679 63.9909C50.4201 63.9909 50.4874 63.9688 50.553 63.9713C51.0189 63.9893 51.4841 63.9926 51.95 63.9819C52.3043 63.9729 52.7505 63.9868 53.3738 63.9901C53.5193 63.9901 53.6546 63.968 53.7693 63.9721C54.2178 63.9901 54.6655 63.9934 55.114 63.9819C55.4684 63.9729 55.9145 63.9868 56.5379 63.9901C56.6834 63.9901 56.8187 63.968 56.9334 63.9721C57.3819 63.9901 57.8296 63.9934 58.2781 63.9819C58.6325 63.9729 59.0786 63.9868 59.7019 63.9901C59.8475 63.9901 59.9827 63.968 60.0974 63.9721C60.5459 63.9901 60.9937 63.9934 61.4422 63.9819C61.7957 63.9729 62.2427 63.9868 62.866 63.9901C63.0115 63.9901 63.1468 63.968 63.2615 63.9721C63.71 63.9901 64.1577 63.9934 64.6062 63.9819C64.959 63.9729 65.4051 63.9868 66.0301 63.9901C66.1756 63.9901 66.3117 63.968 66.4256 63.9721C66.8741 63.9909 67.3218 63.9967 67.7703 63.9909C67.8241 63.9901 67.8913 63.9696 67.9554 63.9721C68.5352 63.9967 68.9679 64.0032 69.2534 63.9926C69.6529 63.9778 69.9812 63.9819 70.239 64.0041L70.1465 64.4462C69.4235 64.4643 68.7053 64.4643 67.9926 64.447C67.8359 64.4438 67.6698 64.4872 67.4982 64.4774C67.1011 64.4528 66.7103 64.4585 66.314 64.447C66.2365 64.4446 66.1503 64.4807 66.0894 64.4774C65.6519 64.4569 65.2145 64.447 64.7763 64.4495C64.6418 64.4503 64.4876 64.4897 64.3341 64.4782C63.9149 64.447 63.5115 64.4618 63.093 64.4626C62.5512 64.4634 61.9532 64.4019 61.4192 64.4684C61.2143 64.4946 60.9296 64.4544 60.8038 64.4561C60.5119 64.4602 60.2208 64.4618 59.9289 64.4626C59.3871 64.4634 58.7891 64.4019 58.2552 64.4684C58.0503 64.4946 57.7655 64.4544 57.6397 64.4561C57.3479 64.4602 57.0568 64.4618 56.7649 64.4626C56.223 64.4634 55.625 64.4019 55.0911 64.4684C54.8862 64.4946 54.6015 64.4544 54.4757 64.4561C54.1838 64.4602 53.8927 64.4618 53.6008 64.4626C53.0582 64.4634 52.4618 64.4027 51.927 64.4684C51.723 64.4938 51.4311 64.4544 51.3116 64.4552C51.0506 64.4569 50.7896 64.4552 50.5293 64.4487C50.4004 64.4454 50.2627 64.4913 50.1204 64.479C49.6956 64.4421 49.183 64.4159 48.7606 64.4675C48.5589 64.4922 48.2686 64.4544 48.1507 64.4552C47.8921 64.4561 47.6326 64.4544 47.3739 64.4495C47.2355 64.4462 47.0868 64.4897 46.9318 64.4782C46.5141 64.447 46.0118 64.4126 45.5973 64.4667C45.3964 64.493 45.1077 64.4544 44.989 64.4544C44.7296 64.4561 44.4701 64.4544 44.2099 64.4495C44.0715 64.4462 43.9227 64.4897 43.7677 64.4782C43.3991 64.4511 43.0384 64.4577 42.6698 64.4495C42.5155 64.4454 42.3486 64.4864 42.1786 64.4757C41.7997 64.4528 41.4263 64.4569 41.0466 64.4495C40.9074 64.4462 40.7587 64.4897 40.6036 64.4782C40.235 64.4511 39.8743 64.4577 39.5057 64.4495C39.3515 64.4454 39.1846 64.4864 39.0145 64.4757C38.6356 64.4528 38.2622 64.4569 37.8826 64.4495C37.7433 64.4462 37.5946 64.4897 37.4396 64.4782C37.071 64.4511 36.7103 64.4577 36.3417 64.4495C36.1874 64.4454 36.0205 64.4864 35.8504 64.4757C35.4715 64.4528 35.0982 64.4569 34.7185 64.4495C34.5793 64.4462 34.4306 64.4897 34.2755 64.4782C33.808 64.4438 33.3524 64.4675 32.8865 64.4593C32.4601 64.452 32.0338 64.4487 31.6066 64.4479C31.5536 64.4479 31.4714 64.4544 31.3598 64.4684C31.1565 64.493 30.8702 64.4544 30.7476 64.4552C30.4889 64.4561 30.2303 64.4544 29.9716 64.4495C29.8324 64.4462 29.6845 64.4905 29.5294 64.479C29.1331 64.4495 28.7424 64.4577 28.3461 64.447C28.2678 64.4446 28.1831 64.4807 28.1206 64.4774C27.6832 64.4569 27.2458 64.447 26.8075 64.4495C26.6731 64.4503 26.5188 64.4897 26.3654 64.4782C25.9461 64.447 25.5427 64.4618 25.1243 64.4626C24.584 64.4643 23.9844 64.4003 23.4528 64.4692C23.2575 64.4938 22.9822 64.4552 22.8667 64.4561C22.608 64.4561 22.3486 64.4544 22.0891 64.4495C21.9404 64.447 21.7783 64.4864 21.6122 64.4757C21.2325 64.4511 20.8591 64.4569 20.4802 64.4487C20.3402 64.4454 20.1923 64.4946 20.0372 64.4815C19.5848 64.4446 19.1379 64.4585 18.6759 64.4495L19.073 63.9647Z" fill="#ECF0F1"/>
<path d="M70.1465 64.4462L69.9811 65.6357L17.9877 65.6275C18.1688 65.1886 18.3982 64.7965 18.6759 64.4495C19.1378 64.4585 19.5847 64.4446 20.0372 64.4815C20.1922 64.4946 20.3402 64.4454 20.4802 64.4487C20.8591 64.4569 21.2324 64.4511 21.6121 64.4758C21.7782 64.4864 21.9404 64.447 22.0891 64.4495C22.3485 64.4544 22.608 64.4569 22.8667 64.4561C22.9821 64.4552 23.2574 64.4938 23.4528 64.4692C23.9844 64.4003 24.584 64.4643 25.1242 64.4626C25.5427 64.4618 25.9461 64.447 26.3653 64.4782C26.5188 64.4897 26.673 64.4503 26.8075 64.4495C27.2457 64.447 27.6832 64.4569 28.1206 64.4774C28.1831 64.4807 28.2677 64.4446 28.346 64.447C28.7423 64.4577 29.1331 64.4495 29.5294 64.479C29.6844 64.4905 29.8323 64.4462 29.9716 64.4495C30.2302 64.4544 30.4889 64.4561 30.7475 64.4552C30.8702 64.4544 31.1565 64.493 31.3598 64.4684C31.4713 64.4544 31.5536 64.4479 31.6066 64.4479C32.0337 64.4479 32.4601 64.452 32.8865 64.4593C33.3524 64.4675 33.808 64.4438 34.2755 64.4782C34.4305 64.4897 34.5792 64.4462 34.7184 64.4495C35.0981 64.4569 35.4715 64.4528 35.8504 64.4758C36.0205 64.4864 36.1874 64.4454 36.3416 64.4495C36.7102 64.4577 37.0709 64.4511 37.4395 64.4782C37.5946 64.4897 37.7433 64.4462 37.8825 64.4495C38.2622 64.4569 38.6356 64.4528 39.0145 64.4758C39.1845 64.4864 39.3514 64.4454 39.5057 64.4495C39.8743 64.4577 40.235 64.4511 40.6036 64.4782C40.7586 64.4897 40.9073 64.4462 41.0466 64.4495C41.4263 64.4569 41.7996 64.4528 42.1785 64.4758C42.3486 64.4864 42.5155 64.4454 42.6697 64.4495C43.0383 64.4577 43.3991 64.4511 43.7677 64.4782C43.9227 64.4897 44.0714 64.4462 44.2098 64.4495C44.4701 64.4544 44.7295 64.4561 44.989 64.4544C45.1076 64.4544 45.3964 64.493 45.5973 64.4667C46.0118 64.4126 46.5141 64.447 46.9317 64.4782C47.0868 64.4897 47.2355 64.4462 47.3739 64.4495C47.6326 64.4544 47.892 64.4561 48.1507 64.4552C48.2685 64.4544 48.5588 64.4922 48.7606 64.4676C49.183 64.4159 49.6955 64.4421 50.1203 64.479C50.2627 64.4913 50.4003 64.4454 50.5293 64.4487C50.7895 64.4544 51.0505 64.4569 51.3116 64.4552C51.431 64.4544 51.7229 64.4938 51.927 64.4684C52.4617 64.4027 53.0581 64.4635 53.6008 64.4626C53.8927 64.4626 54.1838 64.4602 54.4756 64.4561C54.6014 64.4544 54.8862 64.4946 55.0911 64.4684C55.625 64.4019 56.223 64.4635 56.7648 64.4626C57.0567 64.4626 57.3478 64.4602 57.6397 64.4561C57.7655 64.4544 58.0502 64.4946 58.2551 64.4684C58.7891 64.4019 59.3871 64.4635 59.9289 64.4626C60.2208 64.4626 60.5119 64.4602 60.8038 64.4561C60.9295 64.4544 61.2143 64.4946 61.4192 64.4684C61.9531 64.4019 62.5511 64.4635 63.093 64.4626C63.5114 64.4618 63.9148 64.447 64.3341 64.4782C64.4875 64.4897 64.6418 64.4503 64.7762 64.4495C65.2145 64.447 65.6519 64.4569 66.0893 64.4774C66.1502 64.4807 66.2365 64.4446 66.314 64.447C66.7103 64.4585 67.101 64.4528 67.4981 64.4774C67.6698 64.4872 67.8359 64.4438 67.9925 64.447C68.7052 64.4643 69.4235 64.4643 70.1465 64.4462Z" fill="white"/>
<path d="M69.9811 65.6357L69.9345 66.0959C69.622 66.0557 69.2747 66.0983 69.0011 66.0893C68.6111 66.077 68.2203 66.0811 67.8304 66.1016C67.3834 66.1254 66.9484 66.0606 66.4571 66.0795C66.1479 66.0909 65.8623 66.0909 65.6013 66.0803C65.0088 66.0548 64.656 66.1205 64.1513 66.0852C63.9037 66.068 63.6222 66.0663 63.3065 66.0795C63.0344 66.0901 62.7536 66.0909 62.4641 66.0811C61.9824 66.0647 61.4753 66.1016 61.0221 66.0852C60.451 66.0647 60.0831 66.0631 59.9194 66.0811C59.7715 66.0975 59.6505 66.1024 59.5563 66.095C59.1268 66.0639 58.6878 66.0713 58.2583 66.0934C57.8367 66.1147 57.4317 66.0606 56.9792 66.0795C56.7071 66.0901 56.4263 66.0909 56.136 66.0811C55.6542 66.0647 55.1599 66.0983 54.6947 66.0885C54.3269 66.0803 53.9599 66.0844 53.5921 66.1016C53.5059 66.1057 53.3571 66.1 53.1459 66.0852C52.8628 66.0655 52.3692 66.068 51.9048 66.0959C51.5109 66.1197 51.1455 66.0581 50.7064 66.0778C50.4272 66.0901 50.1622 66.0934 49.9099 66.0877C49.41 66.0762 48.8926 66.1188 48.3998 66.0852C48.1214 66.0663 47.6247 66.0688 47.169 66.0967C46.7569 66.1213 46.3772 66.0573 45.9074 66.0778C45.3948 66.1008 44.864 66.0631 44.3388 66.0819C43.7202 66.1049 43.1293 66.0729 42.5179 66.1008C42.0171 66.1246 41.5054 66.0557 40.8409 66.0967C40.4288 66.1213 40.0491 66.0573 39.5792 66.0778C39.0667 66.1008 38.5359 66.0631 38.0106 66.0819C37.3921 66.1049 36.8012 66.0729 36.1897 66.1008C35.6898 66.1246 35.1796 66.0557 34.5144 66.0959C34.0983 66.1221 33.7146 66.0565 33.2385 66.0786C32.733 66.1008 32.1927 66.0606 31.6667 66.0827C31.4207 66.0934 31.1858 66.0942 30.9611 66.0852C30.6898 66.0745 30.4193 66.0729 30.148 66.0811C29.826 66.0909 29.5555 66.0918 29.3364 66.0844C28.7471 66.0639 28.3381 66.1229 27.873 66.0909C27.4601 66.0622 27.0108 66.0606 26.5987 66.0983C26.5156 66.1057 26.4096 66.1041 26.2823 66.0918C26.0189 66.0663 25.7111 66.0622 25.3584 66.0786C25.0744 66.0918 24.7675 66.0918 24.436 66.0786C24.1948 66.0696 23.9543 66.0713 23.7138 66.0827C23.4647 66.095 23.225 66.0959 22.994 66.0868C22.4933 66.0672 21.9894 66.1197 21.4935 66.0836C21.2411 66.0655 20.7546 66.0532 20.2705 66.0967C20.1954 66.1041 20.1028 66.1024 19.9929 66.0926C19.5033 66.0491 18.9203 66.1032 18.4077 66.0893C18.2123 66.0836 18.013 66.0754 17.8097 66.0647L17.9877 65.6266L69.9811 65.6348V65.6357Z" fill="#ECF0F1"/>
<path d="M17.8097 66.0655C18.013 66.0762 18.2123 66.0844 18.4077 66.0901C18.9203 66.104 19.5033 66.0499 19.9929 66.0934C20.1028 66.1032 20.1954 66.1049 20.2705 66.0975C20.7546 66.054 21.2411 66.0663 21.4935 66.0844C21.9894 66.1205 22.4933 66.068 22.994 66.0876C23.225 66.0967 23.4647 66.0958 23.7138 66.0835C23.9543 66.0721 24.1948 66.0704 24.436 66.0794C24.7675 66.0917 25.0744 66.0917 25.3584 66.0794C25.7111 66.063 26.0189 66.0671 26.2823 66.0926C26.4096 66.1049 26.5156 66.1065 26.5987 66.0991C27.0108 66.0614 27.4601 66.063 27.873 66.0917C28.3381 66.1237 28.7471 66.0647 29.3364 66.0852C29.5555 66.0926 29.826 66.0917 30.148 66.0819C30.4193 66.0737 30.6898 66.0753 30.9611 66.086C31.1858 66.095 31.4207 66.0942 31.6667 66.0835C32.1927 66.0614 32.733 66.1016 33.2385 66.0794C33.7146 66.0573 34.0983 66.1229 34.5144 66.0967C35.1796 66.0565 35.6898 66.1254 36.1897 66.1016C36.8012 66.0737 37.3921 66.1057 38.0107 66.0827C38.5359 66.0639 39.0667 66.1016 39.5792 66.0786C40.0491 66.0581 40.4288 66.1221 40.8409 66.0975C41.5054 66.0565 42.0171 66.1254 42.5179 66.1016C43.1293 66.0737 43.7202 66.1057 44.3388 66.0827C44.864 66.0639 45.3948 66.1016 45.9074 66.0786C46.3772 66.0581 46.7569 66.1221 47.169 66.0975C47.6247 66.0696 48.1214 66.0671 48.3998 66.086C48.8927 66.1196 49.41 66.077 49.9099 66.0885C50.1622 66.0942 50.4272 66.0909 50.7065 66.0786C51.1455 66.0589 51.5109 66.1205 51.9048 66.0967C52.3692 66.0688 52.8628 66.0663 53.1459 66.086C53.3571 66.1008 53.5059 66.1065 53.5921 66.1024C53.9599 66.0852 54.3269 66.0811 54.6948 66.0893C55.1599 66.0991 55.6543 66.0655 56.136 66.0819C56.4263 66.0917 56.7071 66.0909 56.9792 66.0803C57.4317 66.0614 57.8367 66.1155 58.2583 66.0942C58.6878 66.0721 59.1268 66.0647 59.5563 66.0958C59.6505 66.1032 59.7715 66.0983 59.9194 66.0819C60.0831 66.0639 60.451 66.0655 61.0221 66.086C61.4753 66.1024 61.9824 66.0655 62.4641 66.0819C62.7536 66.0917 63.0344 66.0909 63.3065 66.0803C63.6222 66.0671 63.9038 66.0688 64.1513 66.086C64.656 66.1213 65.0088 66.0556 65.6013 66.0811C65.8623 66.0917 66.1479 66.0917 66.4572 66.0803C66.9484 66.0614 67.3834 66.1262 67.8304 66.1024C68.2203 66.0819 68.6111 66.0778 69.0011 66.0901C69.2747 66.0991 69.622 66.0565 69.9345 66.0967L69.8838 67.2418L17.4862 67.2541C17.4727 67.2541 17.4648 67.2476 17.4624 67.2336C17.4585 67.2131 17.4577 67.1975 17.4624 67.1852C17.5471 66.7898 17.6626 66.4166 17.8105 66.0663L17.8097 66.0655Z" fill="white"/>
<path d="M17.4617 67.1844C17.4577 67.1967 17.4585 67.2123 17.4617 67.2328C17.4641 67.2468 17.472 67.2533 17.4854 67.2533L69.8831 67.241C69.9108 67.3805 69.9115 67.5306 69.8847 67.6914C69.2503 67.7554 68.7401 67.702 68.1602 67.7176C67.7766 67.7283 67.4499 67.7283 67.1802 67.7176C66.6613 67.6971 66.2737 67.7636 65.9145 67.7357C65.504 67.7045 65.0207 67.6832 64.6125 67.734C64.4053 67.7603 64.1221 67.7184 63.9948 67.7184C63.7424 67.7176 63.4893 67.7168 63.2362 67.7168C63.0993 67.716 62.938 67.7513 62.7821 67.7406C62.3558 67.7111 61.8725 67.6807 61.4485 67.734C61.2412 67.7603 60.958 67.7184 60.8307 67.7184C60.5784 67.7176 60.3252 67.7168 60.0721 67.7168C59.9353 67.716 59.7739 67.7513 59.6181 67.7406C59.1917 67.7111 58.7084 67.6807 58.2844 67.734C58.0772 67.7603 57.7932 67.7184 57.6666 67.7184C57.3384 67.7168 57.0006 67.6996 56.6747 67.7348C56.4912 67.7545 56.2396 67.7193 56.1241 67.7184C55.8418 67.716 55.5602 67.716 55.2778 67.7176C55.152 67.7184 55.0049 67.757 54.8585 67.7439C54.4852 67.7102 54.1181 67.716 53.7432 67.7168C53.6079 67.7168 53.445 67.7504 53.2899 67.7398C52.8628 67.7111 52.3803 67.6815 51.9555 67.734C51.749 67.7603 51.4674 67.7184 51.3409 67.7184C51.0711 67.7168 50.8014 67.7168 50.5317 67.7176C50.4059 67.7184 50.258 67.757 50.1116 67.7439C49.6797 67.7061 49.1767 67.6815 48.7471 67.7365C48.5889 67.757 48.3643 67.7209 48.2694 67.7201C47.9213 67.7184 47.5551 67.6914 47.2094 67.734C47.0029 67.7595 46.7221 67.7184 46.5948 67.7184C46.2641 67.716 45.9106 67.6938 45.5823 67.7365C45.4249 67.757 45.2042 67.7209 45.1077 67.7201C44.7588 67.7184 44.3918 67.6914 44.0453 67.734C43.8389 67.7595 43.5581 67.7184 43.4307 67.7184C43.1001 67.716 42.7465 67.6938 42.4182 67.7365C42.2608 67.757 42.0401 67.7209 41.9436 67.7201C41.5948 67.7184 41.2277 67.6914 40.8813 67.734C40.6748 67.7595 40.394 67.7184 40.2667 67.7184C39.936 67.716 39.5824 67.6938 39.2542 67.7365C39.0967 67.757 38.8761 67.7209 38.7795 67.7201C38.4307 67.7184 38.0637 67.6914 37.7172 67.734C37.5108 67.7595 37.2299 67.7184 37.1026 67.7184C36.7704 67.716 36.4184 67.6955 36.0877 67.7365C35.9216 67.757 35.6811 67.7193 35.5815 67.7193C35.2429 67.7193 34.8893 67.6922 34.5532 67.734C34.3467 67.7603 34.0659 67.7184 33.9385 67.7184C33.6079 67.716 33.2543 67.6938 32.926 67.7365C32.7686 67.757 32.5463 67.7209 32.4514 67.7201C32.207 67.7193 31.9626 67.7168 31.7182 67.7143C31.7166 67.7143 31.5853 67.7217 31.325 67.7373C31.2087 67.7447 31.0766 67.7398 30.9287 67.7242C30.5933 67.6889 30.1061 67.7012 29.4669 67.7611L21.2135 67.7545C20.9785 67.7168 20.7396 67.7037 20.4968 67.7152C20.1891 67.7299 19.9573 67.7324 19.8031 67.7225C19.3214 67.693 18.9709 67.6947 18.7502 67.7266C18.6387 67.7422 18.5414 67.7472 18.4568 67.7398C18.0826 67.7078 17.7101 67.7193 17.3256 67.7127L17.4609 67.1844H17.4617Z" fill="#ECF0F1"/>
<path d="M69.8854 67.6913L69.94 68.8783C69.4172 68.8849 68.8927 68.8824 68.3667 68.8718C67.9435 68.8628 67.4649 68.8972 67.0117 68.8857C66.6541 68.8767 66.3164 68.8767 65.9976 68.8849C65.5088 68.8964 65.0286 68.8619 64.5358 68.8808C64.304 68.8898 64.0731 68.8915 63.8413 68.8857C63.4909 68.8775 63.1436 68.8775 62.8003 68.8857C62.3273 68.8972 61.8606 68.8628 61.3876 68.8808C61.1526 68.8898 60.9185 68.8915 60.6836 68.8857C60.3331 68.8775 59.9819 68.8775 59.6299 68.8857C59.1593 68.8964 58.6942 68.8628 58.2235 68.8808C57.9886 68.8898 57.7544 68.8915 57.5195 68.8857C57.1691 68.8775 56.8179 68.8775 56.4659 68.8857C56.2309 68.8915 55.9968 68.8898 55.7619 68.8808C55.2406 68.8611 54.724 68.8997 54.2028 68.8808C53.7005 68.8628 53.2061 68.898 52.7054 68.8841C52.0765 68.8669 51.4461 68.9153 50.8671 68.8767C50.6171 68.8603 50.3402 68.8874 50.1781 68.8865C49.8561 68.8833 49.5761 68.8857 49.2154 68.871C48.7835 68.8537 48.4173 68.9038 47.9015 68.8833C47.3913 68.8636 46.8345 68.9005 46.2981 68.8816C46.0442 68.8726 45.7911 68.8718 45.5388 68.8808C45.0033 68.9005 44.4725 68.8644 43.9362 68.8824C43.4236 68.8997 42.9158 68.8603 42.4032 68.88C41.8178 68.9029 41.2333 68.8726 40.6455 68.8857C40.1749 68.8964 39.7106 68.8619 39.2391 68.88C38.6538 68.9029 38.0684 68.8726 37.4815 68.8857C37.0108 68.8964 36.5457 68.8619 36.0743 68.88C35.5103 68.9013 34.9502 68.8701 34.3807 68.8824C33.3769 68.9046 32.3715 68.8414 31.2839 68.8824C30.606 68.9087 30.0183 68.8103 29.4653 68.921L29.4677 67.7611C30.1068 67.7012 30.5941 67.6889 30.9295 67.7242C31.0774 67.7397 31.2095 67.7447 31.3258 67.7373C31.586 67.7217 31.7174 67.7143 31.7189 67.7143C31.9634 67.7168 32.2078 67.7192 32.4522 67.7201C32.5471 67.7209 32.7694 67.757 32.9268 67.7365C33.2551 67.6938 33.6087 67.716 33.9393 67.7184C34.0667 67.7184 34.3475 67.7603 34.5539 67.734C34.8901 67.6922 35.2437 67.7192 35.5823 67.7192C35.6819 67.7192 35.9224 67.757 36.0885 67.7365C36.4192 67.6954 36.7712 67.716 37.1034 67.7184C37.2307 67.7184 37.5115 67.7594 37.718 67.734C38.0645 67.6913 38.4315 67.7184 38.7803 67.7201C38.8768 67.7209 39.0975 67.757 39.2549 67.7365C39.5832 67.6938 39.9368 67.716 40.2674 67.7184C40.3948 67.7184 40.6756 67.7594 40.8821 67.734C41.2285 67.6913 41.5956 67.7184 41.9444 67.7201C42.0409 67.7209 42.2616 67.757 42.419 67.7365C42.7473 67.6938 43.1009 67.716 43.4315 67.7184C43.5589 67.7184 43.8397 67.7594 44.0461 67.734C44.3926 67.6913 44.7596 67.7184 45.1085 67.7201C45.205 67.7209 45.4257 67.757 45.5831 67.7365C45.9113 67.6938 46.2649 67.716 46.5956 67.7184C46.7229 67.7184 47.0037 67.7594 47.2102 67.734C47.5559 67.6913 47.9221 67.7184 48.2701 67.7201C48.3651 67.7209 48.5897 67.757 48.7479 67.7365C49.1774 67.6815 49.6805 67.7061 50.1124 67.7438C50.2588 67.757 50.4067 67.7184 50.5325 67.7176C50.8022 67.7168 51.0719 67.7168 51.3417 67.7184C51.4682 67.7184 51.7498 67.7603 51.9563 67.734C52.3811 67.6815 52.8636 67.711 53.2907 67.7397C53.4458 67.7504 53.6087 67.7168 53.744 67.7168C54.1189 67.716 54.4859 67.7102 54.8593 67.7438C55.0056 67.757 55.1528 67.7184 55.2785 67.7176C55.5609 67.716 55.8425 67.716 56.1249 67.7184C56.2404 67.7192 56.492 67.7545 56.6755 67.7348C57.0014 67.6995 57.3391 67.7168 57.6674 67.7184C57.794 67.7184 58.078 67.7603 58.2852 67.734C58.7092 67.6807 59.1925 67.711 59.6188 67.7406C59.7747 67.7512 59.936 67.716 60.0729 67.7168C60.326 67.7168 60.5791 67.7168 60.8315 67.7184C60.9588 67.7184 61.242 67.7603 61.4493 67.734C61.8732 67.6807 62.3566 67.711 62.7829 67.7406C62.9387 67.7512 63.1001 67.716 63.237 67.7168C63.4901 67.7168 63.7432 67.7168 63.9955 67.7184C64.1229 67.7184 64.4061 67.7603 64.6133 67.734C65.0215 67.6831 65.5048 67.7045 65.9153 67.7356C66.2745 67.7635 66.662 67.6971 67.181 67.7176C67.4507 67.7283 67.7774 67.7283 68.161 67.7176C68.7408 67.702 69.251 67.7553 69.8854 67.6913Z" fill="white"/>
<path d="M17.3264 67.7127C17.7108 67.7193 18.0834 67.7078 18.4575 67.7398C18.5422 67.7472 18.6395 67.7422 18.751 67.7266C18.9717 67.6947 19.3221 67.693 19.8038 67.7225C19.9581 67.7324 20.1899 67.7299 20.4976 67.7152C20.7404 67.7037 20.9793 67.7168 21.2142 67.7545L21.2071 68.8997L17.1389 68.9022L17.3264 67.7127Z" fill="white"/>
<path d="M69.94 68.8784C69.9819 69.0736 69.9946 69.227 69.9796 69.3377C69.3159 69.3648 68.6515 69.3664 67.9878 69.341C67.8573 69.3361 67.7125 69.3796 67.5654 69.3714C67.1596 69.3509 66.753 69.341 66.3464 69.3427C66.2476 69.3427 66.1463 69.3796 66.0292 69.3738C65.5491 69.3492 65.0539 69.3197 64.5738 69.3689C64.5105 69.3755 64.4527 69.3771 64.4013 69.3738C63.9955 69.35 63.589 69.3402 63.1824 69.3427C63.0819 69.3435 62.9822 69.3796 62.8652 69.3738C62.385 69.3492 61.8899 69.3197 61.4097 69.3689C61.3464 69.3755 61.2887 69.3771 61.2373 69.3738C60.8315 69.35 60.4249 69.3402 60.0183 69.3427C59.9179 69.3435 59.8182 69.3796 59.7011 69.3738C59.221 69.3492 58.7258 69.3197 58.2456 69.3689C58.1824 69.3755 58.1246 69.3771 58.0732 69.3738C57.6674 69.35 57.2608 69.3402 56.8542 69.3427C56.7538 69.3435 56.6541 69.3796 56.5371 69.3738C56.0569 69.3492 55.5617 69.3197 55.0816 69.3689C55.0183 69.3755 54.9606 69.3771 54.9091 69.3738C54.5033 69.35 54.0968 69.3402 53.6902 69.3427C53.5897 69.3435 53.4901 69.3796 53.373 69.3738C52.8921 69.3492 52.3977 69.3197 51.9175 69.3689C51.8542 69.3755 51.7965 69.3771 51.7451 69.3738C51.2831 69.3484 50.803 69.3172 50.3418 69.3673C50.273 69.3746 50.2113 69.3771 50.1567 69.3738C49.7557 69.35 49.3538 69.3402 48.952 69.3443C48.8626 69.3443 48.7677 69.3812 48.687 69.3771C48.1918 69.3492 47.6729 69.3148 47.1778 69.3681C47.1089 69.3755 47.0472 69.3771 46.9927 69.3738C46.5916 69.35 46.1898 69.3402 45.7879 69.3443C45.6986 69.3443 45.6036 69.3812 45.5229 69.3771C45.0278 69.3492 44.5089 69.3148 44.0137 69.3681C43.9449 69.3755 43.8832 69.3771 43.8286 69.3738C43.4276 69.35 43.0257 69.3402 42.6239 69.3443C42.5345 69.3443 42.4388 69.3812 42.3589 69.3771C41.9175 69.3525 41.4761 69.341 41.0339 69.3427C40.9287 69.3427 40.8156 69.3812 40.6906 69.3738C40.2848 69.3517 39.8783 69.3418 39.4717 69.3427C39.3594 69.3435 39.2375 69.3796 39.1023 69.373C38.6356 69.3484 38.1515 69.3172 37.6856 69.3673C37.6167 69.3746 37.555 69.3771 37.5005 69.3738C37.0994 69.35 36.6976 69.3402 36.2958 69.3443C36.2064 69.3443 36.1114 69.3812 36.0308 69.3771C35.5356 69.3492 35.0167 69.3148 34.5215 69.3681C34.4527 69.3755 34.3918 69.3771 34.3372 69.3738C33.9203 69.35 33.5027 69.3451 33.0842 69.3582C32.5495 69.3746 32.0187 69.3435 31.4824 69.3591C31.3986 69.3615 31.325 69.3812 31.2443 69.3763C30.731 69.3459 30.3093 69.3377 29.9795 69.3517C29.8964 69.355 29.7256 69.3779 29.4653 69.4198V68.921C30.0183 68.8103 30.606 68.9087 31.2839 68.8825C32.3715 68.8414 33.3769 68.9046 34.3807 68.8825C34.9502 68.8702 35.5103 68.9013 36.0743 68.88C36.5457 68.862 37.0108 68.8964 37.4815 68.8857C38.0684 68.8726 38.6538 68.903 39.2391 68.88C39.7106 68.862 40.1749 68.8964 40.6455 68.8857C41.2333 68.8726 41.8178 68.903 42.4032 68.88C42.9158 68.8603 43.4236 68.8997 43.9362 68.8825C44.4725 68.8644 45.0033 68.9005 45.5388 68.8808C45.7911 68.8718 46.0442 68.8726 46.2981 68.8816C46.8345 68.9005 47.3913 68.8636 47.9015 68.8833C48.4173 68.9038 48.7835 68.8537 49.2154 68.871C49.5761 68.8857 49.8561 68.8833 50.1781 68.8866C50.3402 68.8874 50.6171 68.8603 50.8671 68.8767C51.4461 68.9153 52.0765 68.8669 52.7054 68.8841C53.2061 68.898 53.7005 68.8628 54.2028 68.8808C54.724 68.8997 55.2406 68.8611 55.7619 68.8808C55.9968 68.8898 56.2309 68.8915 56.4659 68.8857C56.8179 68.8775 57.1691 68.8775 57.5195 68.8857C57.7544 68.8915 57.9886 68.8898 58.2235 68.8808C58.6942 68.8628 59.1593 68.8964 59.6299 68.8857C59.9819 68.8775 60.3331 68.8775 60.6836 68.8857C60.9185 68.8915 61.1526 68.8898 61.3876 68.8808C61.8606 68.8628 62.3273 68.8972 62.8003 68.8857C63.1436 68.8775 63.4909 68.8775 63.8413 68.8857C64.0731 68.8915 64.304 68.8898 64.5358 68.8808C65.0286 68.862 65.5088 68.8964 65.9976 68.8849C66.3164 68.8767 66.6541 68.8767 67.0117 68.8857C67.4649 68.8972 67.9435 68.8628 68.3667 68.8718C68.8927 68.8825 69.4172 68.8849 69.94 68.8784Z" fill="#ECF0F1"/>
<path d="M21.2071 68.8997L21.2055 69.323C21.0869 69.3418 20.8867 69.3443 20.6059 69.3304C20.4572 69.323 20.265 69.3878 20.0775 69.3755C19.6717 69.3492 19.266 69.3386 18.8586 69.3443C18.7898 69.3443 18.7289 69.3689 18.649 69.3656C18.1435 69.3418 17.627 69.3377 17.0994 69.3533L17.1389 68.9022L21.2071 68.8997Z" fill="#ECF0F1"/>
<path d="M21.2056 69.323L21.204 70.5313C20.9611 70.5009 20.7223 70.4903 20.4889 70.5009C20.1337 70.5157 19.8521 70.5067 19.5326 70.5165C19.3396 70.5223 19.1284 70.4796 18.9219 70.4894C18.6395 70.5034 18.4956 70.5108 18.4916 70.5108C18.0051 70.5083 17.5194 70.5108 17.0338 70.5198L17.0994 69.3533C17.627 69.3377 18.1435 69.3418 18.649 69.3656C18.7289 69.3689 18.7898 69.3451 18.8586 69.3443C19.266 69.3386 19.6718 69.3492 20.0776 69.3755C20.2651 69.3878 20.4573 69.323 20.606 69.3303C20.8868 69.3443 21.0869 69.3418 21.2056 69.323Z" fill="white"/>
<path d="M69.9796 69.3377L70.1362 70.4468C70.1085 70.5132 70.0516 70.5395 69.9653 70.5239C69.781 70.4919 69.5967 70.4862 69.4116 70.5067C69.1704 70.5338 68.6823 70.5272 67.9482 70.4862C67.8984 70.4837 67.8351 70.5165 67.7766 70.5157C67.3953 70.5083 67.0046 70.5321 66.6257 70.4936C66.4342 70.4747 66.1914 70.5083 66.0633 70.5116C65.6844 70.5223 65.4921 70.528 65.4866 70.5272C65.2042 70.51 64.9226 70.5042 64.6402 70.51C64.1087 70.5214 63.5779 70.4903 63.0439 70.4993C62.7426 70.5042 62.442 70.5083 62.1414 70.5116C61.961 70.5132 61.734 70.4821 61.4817 70.5091C61.1281 70.5469 60.5546 70.4878 59.8799 70.4993C59.5785 70.5042 59.2779 70.5083 58.9773 70.5116C58.797 70.5132 58.57 70.4821 58.3176 70.5091C57.964 70.5469 57.3906 70.4878 56.7158 70.4993C56.4144 70.5042 56.1139 70.5083 55.8133 70.5116C55.6329 70.5132 55.4059 70.4821 55.1536 70.5091C54.8 70.5469 54.2265 70.4878 53.5518 70.4993C53.2409 70.5042 52.9292 70.5083 52.6184 70.5116C52.4815 70.5132 52.3122 70.4763 52.158 70.4878C51.7206 70.5198 51.2475 70.5387 50.8109 70.4936C50.5918 70.4714 50.3031 70.5141 50.1512 70.5116C49.8474 70.5083 49.5366 70.528 49.2344 70.4944C49.0303 70.4722 48.7487 70.5108 48.6253 70.5108C48.2899 70.5108 47.9585 70.5157 47.6231 70.496C47.51 70.4895 47.3708 70.4944 47.2039 70.5116C47.0021 70.5329 46.5347 70.5247 45.8014 70.4862C45.7484 70.4837 45.6835 70.5132 45.6416 70.5124C45.2461 70.51 44.8522 70.5182 44.4559 70.496C44.3435 70.4895 44.2051 70.4952 44.0398 70.5124C43.8397 70.5329 43.3722 70.5247 42.6373 70.4862C42.5843 70.4837 42.5195 70.5132 42.4775 70.5124C42.082 70.51 41.6881 70.5182 41.2918 70.496C41.1795 70.4895 41.0411 70.4952 40.8757 70.5124C40.6756 70.5329 40.2081 70.5247 39.4733 70.4862C39.4203 70.4837 39.3554 70.5132 39.3135 70.5124C38.918 70.51 38.524 70.5182 38.1277 70.496C38.0154 70.4895 37.877 70.4952 37.7117 70.5124C37.5115 70.5329 37.0441 70.5247 36.3092 70.4862C36.2562 70.4837 36.1913 70.5132 36.1494 70.5124C35.8417 70.51 35.5332 70.51 35.2247 70.5116C35.0784 70.5124 34.8972 70.4747 34.7295 70.4886C34.2763 70.5247 33.8294 70.5116 33.3753 70.496C33.2464 70.4919 33.0961 70.4968 32.926 70.5108C32.5519 70.5411 32.0243 70.4722 31.4231 70.4968C30.9983 70.5141 30.5743 70.5124 30.1511 70.4919C29.932 70.4813 29.6971 70.5206 29.4653 70.5173V69.4198C29.7256 69.3779 29.8964 69.355 29.9795 69.3517C30.3093 69.3377 30.731 69.3459 31.2443 69.3763C31.325 69.3812 31.3986 69.3615 31.4824 69.3591C32.0187 69.3435 32.5495 69.3747 33.0842 69.3582C33.5027 69.3451 33.9203 69.35 34.3372 69.3738C34.3918 69.3771 34.4527 69.3755 34.5215 69.3681C35.0167 69.3148 35.5356 69.3492 36.0308 69.3771C36.1114 69.3812 36.2064 69.3451 36.2958 69.3443C36.6976 69.3402 37.0994 69.35 37.5005 69.3738C37.555 69.3771 37.6167 69.3747 37.6856 69.3673C38.1515 69.3172 38.6356 69.3484 39.1023 69.373C39.2375 69.3796 39.3594 69.3435 39.4717 69.3427C39.8783 69.3418 40.2848 69.3517 40.6906 69.3738C40.8156 69.3812 40.9287 69.3427 41.0339 69.3427C41.4761 69.341 41.9175 69.3525 42.3589 69.3771C42.4388 69.3812 42.5345 69.3451 42.6239 69.3443C43.0257 69.3402 43.4276 69.35 43.8286 69.3738C43.8832 69.3771 43.9449 69.3755 44.0137 69.3681C44.5089 69.3148 45.0278 69.3492 45.5229 69.3771C45.6036 69.3812 45.6986 69.3451 45.7879 69.3443C46.1898 69.3402 46.5916 69.35 46.9927 69.3738C47.0472 69.3771 47.1089 69.3755 47.1778 69.3681C47.6729 69.3148 48.1918 69.3492 48.687 69.3771C48.7677 69.3812 48.8626 69.3451 48.952 69.3443C49.3538 69.3402 49.7557 69.35 50.1567 69.3738C50.2113 69.3771 50.273 69.3747 50.3418 69.3673C50.803 69.3172 51.2831 69.3484 51.7451 69.3738C51.7965 69.3771 51.8542 69.3755 51.9175 69.3689C52.3977 69.3197 52.8921 69.3492 53.373 69.3738C53.4901 69.3796 53.5897 69.3435 53.6902 69.3427C54.0968 69.3402 54.5033 69.35 54.9091 69.3738C54.9606 69.3771 55.0183 69.3755 55.0816 69.3689C55.5617 69.3197 56.0569 69.3492 56.5371 69.3738C56.6541 69.3796 56.7538 69.3435 56.8542 69.3427C57.2608 69.3402 57.6674 69.35 58.0732 69.3738C58.1246 69.3771 58.1824 69.3755 58.2456 69.3689C58.7258 69.3197 59.221 69.3492 59.7011 69.3738C59.8182 69.3796 59.9179 69.3435 60.0183 69.3427C60.4249 69.3402 60.8315 69.35 61.2373 69.3738C61.2887 69.3771 61.3464 69.3755 61.4097 69.3689C61.8899 69.3197 62.385 69.3492 62.8652 69.3738C62.9822 69.3796 63.0819 69.3435 63.1824 69.3427C63.589 69.3402 63.9955 69.35 64.4013 69.3738C64.4527 69.3771 64.5105 69.3755 64.5738 69.3689C65.0539 69.3197 65.5491 69.3492 66.0292 69.3738C66.1463 69.3796 66.2476 69.3427 66.3464 69.3427C66.753 69.341 67.1596 69.3509 67.5654 69.3714C67.7125 69.3796 67.8573 69.3361 67.9878 69.341C68.6515 69.3664 69.3159 69.3648 69.9796 69.3377Z" fill="white"/>
<path d="M70.1362 70.4468L70.1813 70.5059C70.1615 70.5395 70.156 70.5666 70.1631 70.5879C70.209 70.7167 70.2343 70.8463 70.2382 70.9751L67.1841 71.0128C67.1778 71.0128 67.173 71.0095 67.1707 71.0038C67.158 70.9734 66.8954 70.9652 66.382 70.9775C66.2721 70.98 66.1313 71.0112 66.0016 71.0005C65.5111 70.962 65.0326 70.9702 64.7249 70.9759C64.6465 70.9775 64.5579 71.0112 64.4607 71.0046C63.7788 70.9579 63.32 70.9505 63.0835 70.9825C62.972 70.9981 62.8778 71.003 62.8027 70.9964C62.3028 70.9538 61.8384 70.9702 61.5608 70.9759C61.4825 70.9775 61.3939 71.0112 61.2966 71.0046C60.6147 70.9579 60.1559 70.9505 59.9194 70.9825C59.8079 70.9981 59.7138 71.003 59.6386 70.9964C59.1387 70.9538 58.6744 70.9702 58.3967 70.9759C58.3184 70.9775 58.2298 71.0112 58.1325 71.0046C57.4507 70.9579 56.9919 70.9505 56.7554 70.9825C56.6438 70.9981 56.5497 71.003 56.4746 70.9964C55.9754 70.9538 55.5103 70.9702 55.2327 70.9759C55.1544 70.9775 55.0658 71.0112 54.9685 71.0046C54.5105 70.9743 54.0517 70.9734 53.5921 71.0013C53.1744 71.0268 52.7465 70.9587 52.2925 70.9775C51.9958 70.9899 51.6889 70.9907 51.3701 70.98C50.905 70.9644 50.4154 70.9997 49.9803 70.9882C49.6552 70.9792 49.3293 70.9751 49.0042 70.9759C48.884 70.9759 48.74 71.0112 48.6032 71.0005C48.1895 70.9693 47.7766 70.9775 47.3621 70.9784C47.26 70.9784 47.1683 71.0104 47.0718 71.0046C46.3978 70.9611 45.9541 70.9529 45.7405 70.9784C45.2002 71.044 44.637 70.9374 44.088 70.9923C43.8325 71.0177 43.475 70.9784 43.3231 70.9784C43.1167 70.9784 42.9102 70.9784 42.7038 70.9759C42.5717 70.9743 42.419 71.0095 42.2719 70.9997C41.836 70.971 41.359 70.948 40.924 70.9923C40.6685 71.0177 40.3109 70.9784 40.1591 70.9784C39.9526 70.9784 39.7462 70.9784 39.5397 70.9759C39.4076 70.9743 39.2549 71.0095 39.1078 70.9997C38.6712 70.971 38.195 70.948 37.7591 70.9923C37.5044 71.0177 37.1508 70.9784 36.9982 70.9784C36.7822 70.9784 36.5655 70.9784 36.3495 70.9759C36.2261 70.9751 36.083 71.0112 35.9453 71.0005C35.5332 70.9685 35.1187 70.9759 34.7058 70.9726C34.6069 70.9718 34.5025 71.0112 34.3894 71.0038C33.9417 70.9751 33.494 70.9734 33.0455 70.9989C32.6065 71.0243 32.1746 70.9595 31.7 70.9784C31.4152 70.989 31.1122 70.9899 30.7911 70.98C30.3505 70.9677 29.9091 70.9816 29.4661 71.0235V70.5174C29.6971 70.5206 29.932 70.4813 30.1511 70.4919C30.5743 70.5124 30.9983 70.5141 31.4231 70.4968C32.0243 70.4722 32.5519 70.5411 32.926 70.5108C33.0961 70.4968 33.2464 70.4919 33.3753 70.496C33.8294 70.5116 34.2763 70.5247 34.7295 70.4886C34.8972 70.4747 35.0784 70.5124 35.2247 70.5116C35.5332 70.51 35.8417 70.51 36.1494 70.5124C36.1913 70.5133 36.2562 70.4837 36.3092 70.4862C37.0441 70.5247 37.5115 70.5329 37.7117 70.5124C37.877 70.4952 38.0154 70.4895 38.1277 70.496C38.524 70.5182 38.918 70.51 39.3135 70.5124C39.3554 70.5133 39.4203 70.4837 39.4733 70.4862C40.2081 70.5247 40.6756 70.5329 40.8757 70.5124C41.0411 70.4952 41.1795 70.4895 41.2918 70.496C41.6881 70.5182 42.082 70.51 42.4775 70.5124C42.5195 70.5133 42.5843 70.4837 42.6373 70.4862C43.3722 70.5247 43.8397 70.5329 44.0398 70.5124C44.2051 70.4952 44.3435 70.4895 44.4559 70.496C44.8522 70.5182 45.2461 70.51 45.6416 70.5124C45.6835 70.5133 45.7484 70.4837 45.8014 70.4862C46.5347 70.5247 47.0022 70.5329 47.2039 70.5116C47.3708 70.4944 47.51 70.4895 47.6231 70.496C47.9585 70.5157 48.2899 70.5108 48.6253 70.5108C48.7487 70.5108 49.0303 70.4722 49.2344 70.4944C49.5366 70.528 49.8474 70.5083 50.1512 70.5116C50.3031 70.5141 50.5918 70.4714 50.8109 70.4936C51.2475 70.5387 51.7206 70.5198 52.158 70.4878C52.3122 70.4763 52.4815 70.5133 52.6184 70.5116C52.9292 70.5083 53.2409 70.5042 53.5518 70.4993C54.2265 70.4878 54.8 70.5469 55.1536 70.5091C55.4059 70.4821 55.6329 70.5133 55.8133 70.5116C56.1139 70.5083 56.4144 70.5042 56.7158 70.4993C57.3906 70.4878 57.964 70.5469 58.3176 70.5091C58.57 70.4821 58.797 70.5133 58.9773 70.5116C59.2779 70.5083 59.5785 70.5042 59.8799 70.4993C60.5546 70.4878 61.1281 70.5469 61.4817 70.5091C61.734 70.4821 61.961 70.5133 62.1414 70.5116C62.442 70.5083 62.7426 70.5042 63.0439 70.4993C63.5779 70.4903 64.1087 70.5215 64.6402 70.51C64.9226 70.5042 65.2042 70.51 65.4866 70.5272C65.4921 70.5272 65.6844 70.5223 66.0633 70.5116C66.1914 70.5083 66.4342 70.4747 66.6257 70.4936C67.0046 70.5321 67.3953 70.5083 67.7766 70.5157C67.8351 70.5165 67.8984 70.4837 67.9482 70.4862C68.6823 70.5272 69.1704 70.5338 69.4116 70.5067C69.5967 70.4862 69.781 70.4919 69.9653 70.5239C70.0516 70.5395 70.1085 70.5133 70.1362 70.4468Z" fill="#ECF0F1"/>
<path d="M21.204 70.5313L21.2056 70.9513C21.0118 70.9767 20.8188 70.9841 20.6265 70.9751C20.5403 70.971 20.4414 70.9767 20.3283 70.9915C20.1005 71.0218 19.7849 70.9784 19.6417 70.9784C19.4163 70.9784 19.1909 70.9775 18.9654 70.9751C18.8191 70.9751 18.653 71.012 18.4884 71.0013C18.0913 70.9759 17.7006 70.9808 17.3035 70.9743C17.1579 70.9718 17.0686 71.0022 17.0361 71.0645L17.0338 70.5198C17.5194 70.5108 18.0051 70.5083 18.4916 70.5108C18.4956 70.5108 18.6395 70.5034 18.9219 70.4895C19.1284 70.4796 19.3396 70.5223 19.5326 70.5165C19.8521 70.5067 20.1337 70.5157 20.4889 70.5009C20.7223 70.4903 20.9611 70.5009 21.204 70.5313Z" fill="#ECF0F1"/>
<path d="M21.2056 70.9513V72.1662C20.6171 72.0882 19.9455 72.1448 19.3942 72.1457C19.2597 72.1465 19.0967 72.1079 18.9433 72.1202C18.5778 72.1498 18.2234 72.1473 17.8572 72.1465C17.631 72.1457 17.3779 72.0907 17.0994 72.1727L17.0361 71.0645C17.0686 71.0022 17.1579 70.9718 17.3035 70.9743C17.7006 70.9808 18.0913 70.9759 18.4884 71.0013C18.653 71.012 18.8191 70.9743 18.9654 70.9751C19.1909 70.9775 19.4163 70.9784 19.6417 70.9784C19.7849 70.9784 20.1005 71.0218 20.3283 70.9915C20.4415 70.9767 20.5403 70.971 20.6266 70.9751C20.8188 70.9841 21.0118 70.9767 21.2056 70.9513Z" fill="white"/>
<path d="M70.2382 70.9751L70.5206 72.1465C70.3221 72.1514 70.1243 72.1489 69.9266 72.1391C69.3689 72.1112 68.7828 72.1768 68.2646 72.135C68.1349 72.1243 68.0234 72.1227 67.9293 72.1284C67.5812 72.1514 67.2379 72.1465 66.8899 72.1456C66.7388 72.1456 66.5529 72.1096 66.3773 72.1219C65.9288 72.1522 65.4605 72.1719 65.012 72.1243C64.8301 72.1055 64.5785 72.1465 64.4614 72.1465C64.2162 72.1465 63.971 72.1465 63.7258 72.1456C63.5747 72.1456 63.3888 72.1096 63.2132 72.1219C62.7647 72.1522 62.2964 72.1719 61.8479 72.1243C61.666 72.1055 61.4145 72.1465 61.2974 72.1465C61.0522 72.1465 60.807 72.1465 60.5617 72.1456C60.4107 72.1456 60.2248 72.1096 60.0492 72.1219C59.6007 72.1522 59.1324 72.1719 58.6839 72.1243C58.5019 72.1055 58.2504 72.1465 58.1333 72.1465C57.8881 72.1465 57.6429 72.1465 57.3977 72.1456C57.2466 72.1456 57.0607 72.1096 56.8851 72.1219C56.4366 72.1522 55.9683 72.1719 55.5198 72.1243C55.3379 72.1055 55.0863 72.1465 54.9693 72.1465C54.724 72.1465 54.4788 72.1465 54.2336 72.1456C54.0825 72.1456 53.8966 72.1096 53.721 72.1219C53.2725 72.1522 52.8042 72.1719 52.3557 72.1243C52.1738 72.1055 51.9231 72.1465 51.8044 72.1465C51.5695 72.1465 51.3345 72.1465 51.0996 72.1465C50.9351 72.1465 50.7334 72.1112 50.5443 72.1235C50.0919 72.1522 49.6315 72.167 49.179 72.1235C48.9939 72.1063 48.7432 72.1481 48.6182 72.1473C48.1721 72.1448 47.7069 72.1071 47.2632 72.1415C47.0876 72.1555 46.7459 72.1555 46.2388 72.1415C46.1186 72.1383 45.9438 72.1096 45.7879 72.1227C45.22 72.1703 44.66 72.0981 44.0991 72.1415C43.9235 72.1555 43.5818 72.1555 43.0748 72.1415C42.9545 72.1383 42.7797 72.1096 42.6239 72.1227C42.0559 72.1703 41.4959 72.0981 40.9351 72.1415C40.7595 72.1555 40.4177 72.1555 39.9107 72.1415C39.7905 72.1383 39.6156 72.1096 39.4598 72.1227C38.8919 72.1703 38.3318 72.0981 37.771 72.1415C37.5954 72.1555 37.2537 72.1555 36.7466 72.1415C36.6264 72.1383 36.4516 72.1096 36.2958 72.1227C35.7278 72.1703 35.1678 72.0981 34.6069 72.1415C34.4321 72.1555 34.0904 72.1555 33.5826 72.1415C32.93 72.1243 32.4008 72.1653 31.8052 72.1292C31.6897 72.1219 31.5489 72.1268 31.3835 72.144C31.1534 72.1678 30.7594 72.1629 30.2033 72.1276C29.9668 72.1128 29.7161 72.1555 29.4653 72.1497V71.0235C29.9091 70.9816 30.3505 70.9677 30.7911 70.98C31.1122 70.9898 31.4152 70.989 31.7 70.9783C32.1746 70.9595 32.6065 71.0243 33.0455 70.9989C33.494 70.9734 33.9417 70.9751 34.3894 71.0038C34.5025 71.0112 34.6069 70.9718 34.7058 70.9726C35.1187 70.9759 35.5332 70.9685 35.9453 71.0005C36.083 71.0112 36.2261 70.9751 36.3495 70.9759C36.5655 70.9783 36.7822 70.9792 36.9982 70.9783C37.1508 70.9783 37.5044 71.0177 37.7591 70.9923C38.195 70.948 38.6712 70.971 39.1078 70.9997C39.2549 71.0095 39.4076 70.9742 39.5397 70.9759C39.7462 70.9783 39.9526 70.9792 40.1591 70.9783C40.3109 70.9783 40.6685 71.0177 40.924 70.9923C41.359 70.948 41.836 70.971 42.2719 70.9997C42.419 71.0095 42.5717 70.9742 42.7038 70.9759C42.9102 70.9783 43.1167 70.9792 43.3231 70.9783C43.475 70.9783 43.8325 71.0177 44.088 70.9923C44.637 70.9373 45.2002 71.044 45.7405 70.9783C45.9541 70.9529 46.3978 70.9611 47.0718 71.0046C47.1683 71.0103 47.26 70.9783 47.3621 70.9783C47.7766 70.9775 48.1895 70.9693 48.6032 71.0005C48.74 71.0112 48.884 70.9759 49.0042 70.9759C49.3293 70.9759 49.6552 70.9792 49.9803 70.9882C50.4154 70.9997 50.905 70.9644 51.3701 70.98C51.6889 70.9907 51.9958 70.9898 52.2925 70.9775C52.7465 70.9587 53.1744 71.0267 53.5921 71.0013C54.0517 70.9734 54.5105 70.9742 54.9685 71.0046C55.0658 71.0112 55.1544 70.9775 55.2327 70.9759C55.5103 70.9701 55.9754 70.9537 56.4746 70.9964C56.5497 71.003 56.6438 70.998 56.7554 70.9824C56.9919 70.9505 57.4507 70.9578 58.1325 71.0046C58.2298 71.0112 58.3184 70.9775 58.3967 70.9759C58.6744 70.9701 59.1387 70.9537 59.6386 70.9964C59.7138 71.003 59.8079 70.998 59.9194 70.9824C60.1559 70.9505 60.6147 70.9578 61.2966 71.0046C61.3939 71.0112 61.4825 70.9775 61.5608 70.9759C61.8384 70.9701 62.3028 70.9537 62.8027 70.9964C62.8778 71.003 62.972 70.998 63.0835 70.9824C63.32 70.9505 63.7788 70.9578 64.4607 71.0046C64.5579 71.0112 64.6465 70.9775 64.7249 70.9759C65.0326 70.9701 65.5111 70.9619 66.0016 71.0005C66.1313 71.0112 66.2721 70.98 66.382 70.9775C66.8954 70.9652 67.158 70.9734 67.1707 71.0038C67.173 71.0095 67.1778 71.0128 67.1841 71.0128L70.2382 70.9751Z" fill="white"/>
<path d="M21.2047 72.1662V72.5952C20.8567 72.6362 20.5308 72.5935 20.1859 72.6469C20.1677 72.6493 20.1527 72.6559 20.1408 72.6657C20.1044 72.6936 20.1036 72.7125 20.1377 72.7232C20.1606 72.7297 20.1733 72.7543 20.1669 72.7781C20.1653 72.7839 20.1622 72.7896 20.1582 72.7945C19.8845 73.1202 19.5863 73.4188 19.2644 73.6919C19.2446 73.7092 19.2414 73.7403 19.258 73.7617C19.2667 73.7723 19.2794 73.7789 19.2936 73.7789L21.2039 73.8051V74.2391L17.4411 74.2473L17.3383 73.7395L18.8704 73.7732C18.9234 73.774 18.9685 73.7338 18.9757 73.6796C18.9828 73.6312 19.0128 73.5796 19.0658 73.523C19.3435 73.2317 19.6267 72.9545 19.917 72.6912C19.9312 72.6772 19.9328 72.6542 19.9201 72.6395C19.9138 72.6321 19.9043 72.6272 19.8948 72.6272L17.1603 72.6108L17.0994 72.1727C17.3778 72.0907 17.6309 72.1457 17.8572 72.1465C18.2234 72.1473 18.5778 72.1498 18.9432 72.1202C19.0967 72.1079 19.2596 72.1465 19.3941 72.1457C19.9454 72.1448 20.617 72.0882 21.2047 72.1662Z" fill="#ECF0F1"/>
<path d="M70.5206 72.1465L70.6527 72.6099C70.292 72.6222 69.9329 72.6206 69.5762 72.605C69.4496 72.5993 69.3135 72.6411 69.1545 72.6305C68.5431 72.5911 67.8343 72.6329 67.2079 72.6198C66.8717 72.6132 66.5292 72.5944 66.193 72.6231C66.1416 72.6272 66.0743 72.6288 65.9905 72.6272C65.5689 72.6181 65.1465 72.614 64.7249 72.614C64.6481 72.614 64.5864 72.637 64.5129 72.6346C64.0303 72.6173 63.517 72.5796 63.0352 72.6222C62.983 72.6272 62.9134 72.6288 62.8264 72.6272C62.4048 72.6181 61.9824 72.614 61.5608 72.614C61.4841 72.614 61.4224 72.637 61.3488 72.6346C60.8639 72.6165 60.3379 72.5738 59.8562 72.628C59.796 72.6354 59.7248 72.6354 59.6426 72.6296C59.0414 72.5886 58.3366 72.6329 57.7228 72.6198C57.3834 72.6132 57.0386 72.5944 56.7 72.6231C56.6486 72.6272 56.5813 72.6288 56.4983 72.6272C56.0767 72.6181 55.6543 72.614 55.2327 72.614C55.1559 72.614 55.0942 72.637 55.0207 72.6346C54.5382 72.6173 54.0248 72.5796 53.5431 72.6222C53.4909 72.6272 53.4212 72.6288 53.3342 72.6272C52.9126 72.6181 52.4902 72.614 52.0686 72.614C51.9919 72.614 51.9302 72.6378 51.8566 72.6346C51.3456 72.6157 50.8386 72.6272 50.3284 72.6198C49.883 72.6132 49.4369 72.6091 48.99 72.6083C48.8761 72.6083 48.7281 72.6403 48.5684 72.6296C48.2512 72.6083 47.8786 72.6034 47.4522 72.6149C47.139 72.6231 46.8677 72.6247 46.6391 72.6206C46.3013 72.6132 45.9525 72.5911 45.6171 72.628C45.557 72.6346 45.4858 72.6354 45.4043 72.6296C45.0887 72.6083 44.7161 72.6034 44.2882 72.6149C43.9757 72.6231 43.7044 72.6247 43.475 72.6206C43.1372 72.6132 42.7884 72.5911 42.453 72.628C42.3929 72.6346 42.3217 72.6354 42.2402 72.6296C41.9246 72.6083 41.5521 72.6034 41.1241 72.6149C40.8117 72.6231 40.5403 72.6247 40.3109 72.6206C39.9732 72.6132 39.6243 72.5911 39.289 72.628C39.2288 72.6346 39.1576 72.6354 39.0762 72.6296C38.7613 72.6083 38.3904 72.6034 37.9632 72.6149C37.646 72.6231 37.3723 72.6247 37.1429 72.6206C36.8091 72.6132 36.4682 72.5952 36.1352 72.6231C36.0838 72.6272 36.0157 72.6288 35.9319 72.6272C35.3473 72.6149 34.9249 72.6083 34.6663 72.6091C34.5951 72.6091 34.5318 72.6378 34.4543 72.6346C33.971 72.6173 33.4592 72.5812 32.9767 72.6231C32.9244 72.6272 32.8548 72.6288 32.7678 72.6272C32.1643 72.6149 31.7427 72.6091 31.5022 72.6099C31.4239 72.6099 31.3519 72.6419 31.2649 72.637C30.7238 72.6083 30.2564 72.6042 29.8616 72.6239C29.7224 72.6304 29.5903 72.6624 29.4661 72.719V72.1497C29.7161 72.1555 29.9668 72.1128 30.2034 72.1276C30.7594 72.1629 31.1534 72.1678 31.3835 72.144C31.5489 72.1268 31.6897 72.1219 31.8052 72.1292C32.4008 72.1653 32.93 72.1243 33.5826 72.1415C34.0904 72.1555 34.4321 72.1555 34.6069 72.1415C35.1678 72.0981 35.7278 72.1703 36.2958 72.1227C36.4516 72.1096 36.6264 72.1383 36.7466 72.1415C37.2537 72.1555 37.5954 72.1555 37.771 72.1415C38.3318 72.0981 38.8919 72.1703 39.4598 72.1227C39.6156 72.1096 39.7905 72.1383 39.9107 72.1415C40.4177 72.1555 40.7595 72.1555 40.9351 72.1415C41.4959 72.0981 42.0559 72.1703 42.6239 72.1227C42.7797 72.1096 42.9545 72.1383 43.0748 72.1415C43.5818 72.1555 43.9235 72.1555 44.0991 72.1415C44.66 72.0981 45.22 72.1703 45.7879 72.1227C45.9438 72.1096 46.1186 72.1383 46.2388 72.1415C46.7459 72.1555 47.0876 72.1555 47.2632 72.1415C47.7069 72.1071 48.1721 72.1448 48.6182 72.1473C48.7432 72.1481 48.9939 72.1063 49.179 72.1235C49.6315 72.167 50.0919 72.1522 50.5443 72.1235C50.7334 72.1112 50.9351 72.1465 51.0996 72.1465C51.3345 72.1465 51.5695 72.1465 51.8044 72.1465C51.9231 72.1465 52.1738 72.1054 52.3557 72.1243C52.8043 72.1719 53.2725 72.1522 53.721 72.1219C53.8966 72.1096 54.0825 72.1456 54.2336 72.1456C54.4788 72.1456 54.724 72.1465 54.9693 72.1465C55.0863 72.1465 55.3379 72.1054 55.5198 72.1243C55.9683 72.1719 56.4366 72.1522 56.8851 72.1219C57.0607 72.1096 57.2466 72.1456 57.3977 72.1456C57.6429 72.1456 57.8881 72.1465 58.1333 72.1465C58.2504 72.1465 58.5019 72.1054 58.6839 72.1243C59.1324 72.1719 59.6007 72.1522 60.0492 72.1219C60.2248 72.1096 60.4107 72.1456 60.5617 72.1456C60.807 72.1456 61.0522 72.1465 61.2974 72.1465C61.4145 72.1465 61.666 72.1054 61.8479 72.1243C62.2964 72.1719 62.7647 72.1522 63.2132 72.1219C63.3888 72.1096 63.5747 72.1456 63.7258 72.1456C63.971 72.1456 64.2162 72.1465 64.4614 72.1465C64.5785 72.1465 64.8301 72.1054 65.012 72.1243C65.4605 72.1719 65.9288 72.1522 66.3773 72.1219C66.5529 72.1096 66.7388 72.1456 66.8899 72.1456C67.2379 72.1465 67.5812 72.1514 67.9293 72.1284C68.0234 72.1227 68.1349 72.1243 68.2647 72.135C68.7828 72.1768 69.3689 72.1112 69.9266 72.1391C70.1243 72.1489 70.3221 72.1514 70.5206 72.1465Z" fill="#ECF0F1"/>
<path d="M17.3383 73.7395C17.2378 73.3687 17.1785 72.9922 17.1603 72.6108L19.8948 72.6272C19.9138 72.6272 19.9296 72.6436 19.9288 72.6641C19.9288 72.6739 19.9241 72.6838 19.917 72.6912C19.6267 72.9545 19.3435 73.2318 19.0658 73.523C19.0128 73.5796 18.9828 73.6312 18.9757 73.6796C18.9685 73.7338 18.9235 73.774 18.8705 73.7732L17.3383 73.7395Z" fill="white"/>
<path d="M21.2055 72.5952L21.2039 73.8051L19.2936 73.7789C19.2675 73.7789 19.247 73.7559 19.2478 73.7289C19.2478 73.7149 19.2541 73.7018 19.2644 73.6919C19.5863 73.4188 19.8845 73.1202 20.1582 72.7945C20.1733 72.7757 20.1717 72.7478 20.1535 72.7322C20.1487 72.7281 20.1432 72.7248 20.1377 72.7232C20.1036 72.7125 20.1044 72.6936 20.1408 72.6657C20.1527 72.6559 20.1677 72.6493 20.1859 72.6469C20.5308 72.5935 20.8567 72.6362 21.2055 72.5952Z" fill="white"/>
<path d="M70.6527 72.61L71.0395 73.7543C70.4605 73.7978 70.0856 73.8076 69.9155 73.7822C69.7526 73.7584 69.6165 73.751 69.5073 73.7609C69.1506 73.7937 68.7938 73.7855 68.4363 73.7814C68.2915 73.7797 68.1207 73.7379 67.949 73.7543C67.5812 73.7904 67.2292 73.783 66.8614 73.7814C66.7182 73.7814 66.5474 73.7387 66.3828 73.7535C66.0079 73.7871 65.648 73.7846 65.2722 73.7814C65.1259 73.7805 64.9574 73.7362 64.785 73.7535C64.4172 73.7904 64.0651 73.783 63.6973 73.7814C63.5542 73.7814 63.3833 73.7387 63.2188 73.7535C62.8438 73.7871 62.4839 73.7846 62.1082 73.7814C61.9618 73.7805 61.7934 73.7362 61.6209 73.7535C61.2531 73.7904 60.9011 73.783 60.5333 73.7814C60.3901 73.7814 60.2192 73.7387 60.0547 73.7535C59.6798 73.7871 59.3198 73.7846 58.9441 73.7814C58.7978 73.7805 58.6293 73.7362 58.4568 73.7535C58.089 73.7904 57.737 73.783 57.3692 73.7814C57.226 73.7814 57.0552 73.7387 56.8906 73.7535C56.5157 73.7871 56.1558 73.7846 55.78 73.7814C55.6337 73.7805 55.4652 73.7362 55.2928 73.7535C54.925 73.7904 54.573 73.783 54.2051 73.7814C54.062 73.7814 53.8911 73.7387 53.7266 73.7535C53.3516 73.7871 52.9917 73.7846 52.616 73.7814C52.4696 73.7805 52.3012 73.7362 52.1287 73.7535C51.7609 73.7904 51.4089 73.783 51.0411 73.7814C50.8971 73.7814 50.7294 73.7362 50.5625 73.7527C50.1899 73.7887 49.8332 73.7838 49.459 73.7822C49.3175 73.7814 49.145 73.7387 48.9805 73.7535C48.6055 73.7871 48.2456 73.7846 47.8699 73.7814C47.7236 73.7805 47.5551 73.7362 47.3826 73.7535C47.0148 73.7904 46.6628 73.783 46.295 73.7814C46.1518 73.7814 45.981 73.7387 45.8164 73.7535C45.4415 73.7871 45.0816 73.7846 44.7058 73.7814C44.5595 73.7805 44.391 73.7362 44.2186 73.7535C43.8507 73.7904 43.4987 73.783 43.1309 73.7814C42.9877 73.7814 42.8169 73.7387 42.6524 73.7535C42.2774 73.7871 41.9175 73.7846 41.5418 73.7814C41.3954 73.7805 41.2269 73.7362 41.0545 73.7535C40.6867 73.7904 40.3347 73.783 39.9669 73.7814C39.8237 73.7814 39.6528 73.7387 39.4883 73.7535C39.1134 73.7871 38.7534 73.7846 38.3777 73.7814C38.2314 73.7805 38.0629 73.7362 37.8904 73.7535C37.5226 73.7904 37.1706 73.783 36.8028 73.7814C36.6596 73.7814 36.4888 73.7387 36.3242 73.7535C35.9493 73.7871 35.5894 73.7846 35.2136 73.7814C35.0673 73.7805 34.8988 73.7362 34.7264 73.7535C34.3586 73.7904 34.0066 73.783 33.6387 73.7814C33.4964 73.7814 33.3247 73.7387 33.1602 73.7535C32.7085 73.7937 32.2545 73.8027 31.802 73.7576C31.7015 73.7469 31.5813 73.7535 31.4429 73.7764C31.2079 73.8142 30.8211 73.8093 30.2817 73.7625C30.0096 73.7387 29.7461 73.7863 29.4661 73.7879V72.7191C29.5903 72.6625 29.7224 72.6305 29.8616 72.6239C30.2564 72.6042 30.7238 72.6083 31.2649 72.637C31.3519 72.6419 31.4239 72.61 31.5022 72.61C31.7427 72.6091 32.1643 72.6149 32.7678 72.6272C32.8548 72.6288 32.9244 72.6272 32.9767 72.6231C33.4592 72.5812 33.971 72.6173 34.4543 72.6346C34.5318 72.6378 34.5951 72.6091 34.6663 72.6091C34.9249 72.6091 35.3473 72.6149 35.9319 72.6272C36.0157 72.6288 36.0838 72.6272 36.1352 72.6231C36.4682 72.5952 36.8091 72.6132 37.1429 72.6206C37.3723 72.6247 37.646 72.6231 37.9632 72.6149C38.3904 72.6034 38.7613 72.6083 39.0762 72.6296C39.1576 72.6354 39.2288 72.6346 39.289 72.628C39.6243 72.5911 39.9732 72.6132 40.3109 72.6206C40.5403 72.6247 40.8117 72.6231 41.1241 72.6149C41.5521 72.6034 41.9246 72.6083 42.2402 72.6296C42.3217 72.6354 42.3929 72.6346 42.453 72.628C42.7884 72.5911 43.1372 72.6132 43.475 72.6206C43.7044 72.6247 43.9757 72.6231 44.2882 72.6149C44.7161 72.6034 45.0887 72.6083 45.4043 72.6296C45.4858 72.6354 45.557 72.6346 45.6171 72.628C45.9525 72.5911 46.3013 72.6132 46.6391 72.6206C46.8677 72.6247 47.139 72.6231 47.4522 72.6149C47.8786 72.6034 48.2512 72.6083 48.5684 72.6296C48.7281 72.6403 48.8761 72.6083 48.99 72.6083C49.4369 72.6091 49.883 72.6132 50.3284 72.6198C50.8386 72.6272 51.3456 72.6157 51.8566 72.6346C51.9302 72.6378 51.9919 72.6141 52.0686 72.6141C52.4902 72.6141 52.9126 72.6182 53.3342 72.6272C53.4212 72.6288 53.4909 72.6272 53.5431 72.6223C54.0248 72.5796 54.5382 72.6173 55.0207 72.6346C55.0942 72.637 55.1559 72.6141 55.2327 72.6141C55.6543 72.6141 56.0767 72.6182 56.4983 72.6272C56.5813 72.6288 56.6486 72.6272 56.7 72.6231C57.0386 72.5944 57.3834 72.6132 57.7228 72.6198C58.3366 72.6329 59.0414 72.5886 59.6426 72.6296C59.7248 72.6354 59.796 72.6354 59.8562 72.628C60.3379 72.5739 60.8639 72.6165 61.3488 72.6346C61.4224 72.637 61.4841 72.6141 61.5608 72.6141C61.9824 72.6141 62.4048 72.6182 62.8264 72.6272C62.9134 72.6288 62.983 72.6272 63.0352 72.6223C63.517 72.5796 64.0303 72.6173 64.5129 72.6346C64.5864 72.637 64.6481 72.6141 64.7249 72.6141C65.1465 72.6141 65.5689 72.6182 65.9905 72.6272C66.0743 72.6288 66.1416 72.6272 66.193 72.6231C66.5292 72.5944 66.8717 72.6132 67.2079 72.6198C67.8343 72.6329 68.5431 72.5911 69.1545 72.6305C69.3135 72.6411 69.4496 72.5993 69.5762 72.605C69.9329 72.6206 70.292 72.6223 70.6527 72.61Z" fill="white"/>
<path d="M71.0395 73.7543L71.2191 74.2145C71.1313 74.2334 70.9707 74.2424 70.7366 74.2424C57.173 74.2424 43.6103 74.2424 30.0467 74.2424C29.9755 74.2424 29.8798 74.2522 29.7588 74.2711C29.6663 74.2859 29.569 74.2941 29.4677 74.2949L29.4661 73.7879C29.7461 73.7863 30.0096 73.7387 30.2817 73.7625C30.8211 73.8093 31.2079 73.8142 31.4429 73.7765C31.5813 73.7535 31.7015 73.7469 31.802 73.7576C32.2545 73.8027 32.7085 73.7937 33.1602 73.7535C33.3247 73.7387 33.4963 73.7814 33.6387 73.7814C34.0066 73.783 34.3586 73.7904 34.7264 73.7535C34.8988 73.7363 35.0673 73.7806 35.2136 73.7814C35.5894 73.7847 35.9493 73.7871 36.3242 73.7535C36.4888 73.7387 36.6596 73.7814 36.8028 73.7814C37.1706 73.783 37.5226 73.7904 37.8904 73.7535C38.0629 73.7363 38.2314 73.7806 38.3777 73.7814C38.7534 73.7847 39.1133 73.7871 39.4883 73.7535C39.6528 73.7387 39.8237 73.7814 39.9669 73.7814C40.3347 73.783 40.6867 73.7904 41.0545 73.7535C41.2269 73.7363 41.3954 73.7806 41.5418 73.7814C41.9175 73.7847 42.2774 73.7871 42.6524 73.7535C42.8169 73.7387 42.9877 73.7814 43.1309 73.7814C43.4987 73.783 43.8507 73.7904 44.2186 73.7535C44.391 73.7363 44.5595 73.7806 44.7058 73.7814C45.0816 73.7847 45.4415 73.7871 45.8164 73.7535C45.9809 73.7387 46.1518 73.7814 46.295 73.7814C46.6628 73.783 47.0148 73.7904 47.3826 73.7535C47.5551 73.7363 47.7236 73.7806 47.8699 73.7814C48.2456 73.7847 48.6055 73.7871 48.9805 73.7535C49.145 73.7387 49.3175 73.7814 49.459 73.7822C49.8332 73.7838 50.1899 73.7888 50.5625 73.7527C50.7294 73.7363 50.8971 73.7814 51.0411 73.7814C51.4089 73.783 51.7609 73.7904 52.1287 73.7535C52.3012 73.7363 52.4696 73.7806 52.616 73.7814C52.9917 73.7847 53.3516 73.7871 53.7266 73.7535C53.8911 73.7387 54.062 73.7814 54.2051 73.7814C54.573 73.783 54.925 73.7904 55.2928 73.7535C55.4652 73.7363 55.6337 73.7806 55.78 73.7814C56.1558 73.7847 56.5157 73.7871 56.8906 73.7535C57.0552 73.7387 57.226 73.7814 57.3692 73.7814C57.737 73.783 58.089 73.7904 58.4568 73.7535C58.6293 73.7363 58.7978 73.7806 58.9441 73.7814C59.3198 73.7847 59.6798 73.7871 60.0547 73.7535C60.2192 73.7387 60.3901 73.7814 60.5333 73.7814C60.9011 73.783 61.2531 73.7904 61.6209 73.7535C61.7933 73.7363 61.9618 73.7806 62.1082 73.7814C62.4839 73.7847 62.8438 73.7871 63.2188 73.7535C63.3833 73.7387 63.5541 73.7814 63.6973 73.7814C64.0651 73.783 64.4171 73.7904 64.785 73.7535C64.9574 73.7363 65.1259 73.7806 65.2722 73.7814C65.648 73.7847 66.0079 73.7871 66.3828 73.7535C66.5474 73.7387 66.7182 73.7814 66.8614 73.7814C67.2292 73.783 67.5812 73.7904 67.949 73.7543C68.1207 73.7379 68.2915 73.7797 68.4363 73.7814C68.7938 73.7855 69.1506 73.7937 69.5073 73.7609C69.6165 73.751 69.7525 73.7584 69.9155 73.7822C70.0856 73.8076 70.4605 73.7978 71.0395 73.7543Z" fill="#ECF0F1"/>
<path d="M71.2191 74.2145L71.5687 75.0487C71.5964 75.0889 71.6162 75.1365 71.6281 75.1923C71.6336 75.2194 71.6233 75.2333 71.5956 75.2333L29.4677 75.2538V74.2949C29.569 74.294 29.6663 74.2858 29.7588 74.2711C29.8798 74.2522 29.9755 74.2424 30.0467 74.2424C43.6103 74.2424 57.173 74.2424 70.7366 74.2424C70.9707 74.2424 71.1313 74.2333 71.2191 74.2145Z" fill="white"/>
<path d="M21.2048 74.2391V75.1898C21.2048 75.2202 21.1897 75.235 21.1612 75.235C20.3726 75.2325 19.5879 75.2325 18.8072 75.2341C18.3959 75.2341 17.9695 75.1365 17.5289 74.9397C17.5882 74.9175 17.6128 74.8896 17.6041 74.856C17.5542 74.6632 17.5004 74.4598 17.4411 74.2473L21.2048 74.2391Z" fill="white"/>
<path d="M71.5687 75.0488L72.673 75.0512C72.703 75.0512 72.7181 75.0668 72.7181 75.0988L72.6943 77.5589C72.6943 77.5868 72.6801 77.6008 72.6532 77.6008C69.1071 77.6024 65.561 77.6024 62.0156 77.6016C61.9824 77.6016 61.9429 77.6122 61.8978 77.6344C61.8709 77.6122 61.8511 77.6016 61.8376 77.6016C51.0506 77.6016 40.2603 77.6016 29.4661 77.6008L29.4677 75.2538L71.5956 75.2333C71.6233 75.2333 71.6336 75.2194 71.6281 75.1923C71.6162 75.1365 71.5964 75.089 71.5687 75.0488Z" fill="#20D0C2"/>
<path d="M21.2095 77.5934L19.1093 77.6196C18.7937 77.6032 18.4457 77.5942 18.0652 77.5926C17.869 77.5917 17.6262 77.5384 17.3375 77.4334L21.1027 77.5302C21.1296 77.5302 21.1549 77.5409 21.1747 77.5589C21.185 77.5679 21.196 77.5794 21.2095 77.5934Z" fill="#20D0C2"/>
<path d="M29.4661 77.6007C40.2603 77.6016 51.0506 77.6024 61.8376 77.6016C61.8511 77.6016 61.8709 77.6122 61.8978 77.6344C55.5578 81.7121 48.6396 83.8335 41.1423 84H39.8284C36.3226 83.9286 32.8683 83.3987 29.4661 82.4094V77.6007Z" fill="#FFCA4F"/>
<path d="M21.2095 77.5934C21.204 77.9822 21.2056 78.385 21.2135 78.8025C21.2135 78.8205 21.2095 78.8353 21.2024 78.8468C21.1921 78.8616 21.1795 78.8706 21.1652 78.8747L19.1094 77.6196L21.2095 77.5934Z" fill="#FFCA4F"/>
<path d="M27.7386 81.8377C26.4429 81.407 25.2065 80.9099 24.0287 80.348L25.2785 78.7328C25.2896 78.7188 25.3093 78.7164 25.3228 78.7279C25.3244 78.7295 25.326 78.7311 25.3275 78.7328L27.6792 81.7294C27.6974 81.7532 27.7053 81.7794 27.7045 81.8089C27.7037 81.836 27.7148 81.8459 27.7386 81.8377Z" fill="#FFCA4F"/>
</g>
<defs>
<clipPath id="clip0_18_754">
<rect width="81" height="84" fill="white"/>
</clipPath>
</defs>
</svg>
