<svg width="81" height="84" viewBox="0 0 81 84" fill="none" xmlns="http://www.w3.org/2000/svg">
<g clip-path="url(#clip0_19_1973)">
<path d="M41.752 36.4149C41.8149 36.0411 41.8635 35.4745 41.9006 34.7179C41.9149 34.3767 41.7949 34.0296 41.5376 33.6736" stroke="#FBDAA1" stroke-width="2"/>
<path d="M1.68656 43.4048C1.67798 43.8884 1.65226 44.375 1.60938 44.8645C1.56936 45.3154 1.73515 45.6626 1.73801 46.1076" stroke="#FBDAA1" stroke-width="2"/>
<path d="M1.68945 78.1435L1.73233 80.9145" stroke="#D3E8C7" stroke-width="2"/>
<path d="M73.8564 26.6422L73.9879 23.9275" stroke="#D0EDFE" stroke-width="2"/>
<path d="M68.5367 5.61919C67.8421 6.38167 67.1046 6.23926 66.3128 5.64589C65.3037 4.89232 64.2203 3.98447 63.1255 3.56318C59.8839 2.31414 57.4684 3.56318 54.8014 5.73193" stroke="#A26B66" stroke-width="2"/>
<path d="M54.8013 5.73192L47.6092 11.1553C47.4891 11.2443 47.5006 11.3096 47.6435 11.3511C47.7893 11.3926 47.9694 11.4134 48.1895 11.4134C55.4902 11.3956 62.791 11.3719 70.0917 11.3452C71.278 11.3422 72.39 11.3481 73.4248 11.3659C73.8221 11.3719 73.8536 11.2621 73.522 11.0366L71.9298 9.94779" stroke="#A3575A" stroke-width="2"/>
<path d="M71.9298 9.94779C71.1208 9.19718 69.8316 8.66612 70.6463 7.2005" stroke="#A26B66" stroke-width="2"/>
<path d="M73.988 23.9275C73.0818 23.8207 72.633 23.2392 72.6359 22.1801C72.6445 20.4326 72.6616 18.6733 72.6873 16.9021" stroke="#7493A6" stroke-width="2"/>
<path d="M72.6873 16.9021L72.6731 14.2942C72.6731 14.2052 72.6302 14.1607 72.5444 14.1607L48.6755 14.1726C48.5955 14.1726 48.5554 14.2141 48.5554 14.2942L48.5411 41.8383C48.5411 41.9362 48.6126 42.0134 48.7069 42.0163C48.7069 42.0163 48.7098 42.0163 48.7127 42.0163L53.8409 41.9778" stroke="#3385A6" stroke-width="2"/>
<path d="M53.9181 39.2394C52.8118 39.0643 52.5717 38.373 52.5717 37.2634C52.5689 35.0027 52.5689 32.742 52.5717 30.4842C52.5774 28.802 53.2092 27.0961 54.4698 25.3664" stroke="#7493A6" stroke-width="2"/>
<path d="M54.4727 25.3664C55.8248 23.8563 57.4341 22.9455 59.3008 22.634C61.0416 22.3462 62.6138 22.5657 64.0231 23.2926C67.0789 24.8739 68.6111 27.5233 68.6225 31.2348C68.6339 34.7565 68.6482 38.284 68.6654 41.8235C68.6654 41.9273 68.7168 41.9807 68.8169 41.9807L72.5159 41.9985C72.6159 41.9985 72.6645 41.9481 72.6645 41.8442L72.6559 39.0139" stroke="#3385A6" stroke-width="2"/>
<path d="M72.6559 39.0139C72.6674 35.4062 72.6645 31.846 72.6474 28.3362C72.6445 27.4195 73.0476 26.8528 73.8565 26.6422" stroke="#7493A6" stroke-width="2"/>
<path d="M79.2763 64.2913C78.4416 64.1222 78.0243 63.6594 78.0243 62.8999C78.0243 56.892 78.0243 50.8842 78.0243 44.8734C78.0243 44.8051 77.9928 44.7725 77.9299 44.7725H48.4039" stroke="#A26B66" stroke-width="2"/>
<path d="M48.4038 44.7695H43.3585C43.2499 44.7695 43.1956 44.8259 43.1956 44.9386L43.2099 80.8255C43.2099 80.8789 43.2527 80.9234 43.3042 80.9234H77.8784C77.9613 80.9204 78.027 80.8522 78.027 80.7661L78.0328 76.7075" stroke="#A3575A" stroke-width="2"/>
<path d="M78.0328 76.7075C78.0156 74.0403 78.0156 71.388 78.0356 68.7534C78.0442 67.7744 78.3415 67.1335 79.302 66.9822" stroke="#A26B66" stroke-width="2"/>
<path d="M1.7323 80.9145C6.44034 80.9264 11.1627 80.9264 15.905 80.9145C16.4253 80.9145 17.0656 80.9798 17.3715 80.4902C25.2668 67.7744 33.1107 55.1149 40.9031 42.5088C41.1003 42.1914 41.4376 41.9985 41.8035 41.9956L45.7969 41.9807C45.8455 41.9807 45.8684 41.957 45.8684 41.9065L45.8627 39.3135C45.8627 39.2423 45.8284 39.2067 45.7598 39.2067H43.37" stroke="#778E70" stroke-width="2"/>
<path d="M43.37 39.2097C42.278 39.2156 40.0026 38.8092 39.3108 39.9306C31.8014 52.065 24.292 64.1993 16.7825 76.3367C15.9936 77.6094 15.8049 78.2028 14.3528 78.1553C12.9607 78.1108 10.1107 78.1138 5.79712 78.1553" stroke="#869A77" stroke-width="2"/>
<path d="M5.7972 78.1585L1.68945 78.1435" stroke="#778E70" stroke-width="2"/>
<path d="M1.73804 46.1076C2.58131 46.2618 3.00438 46.8671 3.00438 47.9203C2.99008 57.0611 2.98723 66.1901 2.99008 75.3131C2.99008 75.3546 3.01009 75.3754 3.05011 75.3754L5.61424 75.3517C5.6514 75.3517 5.66855 75.3339 5.66855 75.2953L5.63139 63.9531" stroke="#9F8049" stroke-width="2"/>
<path d="M5.63139 63.9531C5.6514 49.0299 5.66855 34.1275 5.67998 19.2488C5.68284 18.2431 5.60566 16.7597 4.19067 16.9762" stroke="#9E8F42" stroke-width="2"/>
<path d="M4.19062 16.9762C3.40737 17.0415 3.01289 17.5399 3.01003 18.4745C2.99288 22.7853 2.98717 30.597 2.99288 41.9095C2.99288 42.8263 2.55838 43.3247 1.68652 43.4048" stroke="#9F8049" stroke-width="2"/>
<path d="M41.5376 33.6736C40.8459 33.3917 40.5 32.8755 40.5028 32.119C40.5171 27.6123 40.5114 22.9307 40.4857 18.0769C40.4828 17.4806 40.014 17 39.4366 17.0029C39.4337 17.0029 39.4309 17.0029 39.428 17.0029H39.125C38.2474 17.0178 37.8072 17.4776 37.8101 18.3884L37.8501 37.2456C37.8501 37.302 37.8958 37.3495 37.9501 37.3495C37.973 37.3495 37.993 37.3406 38.0102 37.3257C39.0764 36.4298 40.2656 36.3823 41.752 36.4149" stroke="#9F8049" stroke-width="2"/>
<path d="M53.8723 39.5538L53.918 39.2393" stroke="#D0EDFE" stroke-width="2"/>
<path d="M43.37 39.2097L43.6987 39.2305C43.8416 39.2394 43.9474 39.3669 43.9388 39.5153C43.936 39.5805 43.9074 39.6428 43.8616 39.6873C43.0098 40.5329 42.1408 40.527 41.0745 40.6901C40.4828 40.7791 39.7196 41.7196 39.328 42.3575C38.0902 44.3601 37.2527 45.7041 36.8096 46.3835C36.1979 47.324 35.6176 48.3772 35.1459 49.11C33.062 52.3528 31.0096 55.6133 28.9829 58.8976C27.7794 60.8498 26.5073 62.8049 25.3839 64.8046C24.7036 66.0121 23.8975 66.9882 23.1057 68.4419C22.2653 69.9817 21.1847 71.4236 20.2957 72.9812C19.9527 73.5805 19.4639 74.1679 19.178 74.6723C18.3147 76.1883 17.4486 77.6688 16.5796 79.1136C16.4224 79.3777 16.1451 79.5379 15.8478 79.5438C13.2722 79.5883 10.671 79.5646 8.0468 79.4726C7.16351 79.44 6.41457 79.0038 5.79712 78.1583" stroke="#B7DE97" stroke-width="2"/>
<path d="M48.4039 44.7695C49.5016 46.965 51.1567 48.7718 53.6694 48.8252C59.0863 48.9379 64.5033 48.8756 69.9203 48.935C72.3443 48.9646 74.1681 51.1186 74.068 53.587C73.968 56.0198 74.0966 58.7344 74.0709 60.8616C74.0337 63.8018 74.0337 66.7389 74.0766 69.6791C74.1138 72.1979 73.9994 73.2749 75.5087 74.9244C76.3234 75.8115 77.1639 76.4049 78.0329 76.7075" stroke="#FF7871" stroke-width="2"/>
<path d="M72.6873 16.9021C71.6097 17.0652 70.8521 17.5162 70.4091 18.2579C70.1432 18.7059 70.0089 19.5158 70.0003 20.6877C69.9746 25.402 69.9603 30.1134 69.9631 34.8277C69.9631 36.6938 71.0351 38.2603 72.6559 39.0139" stroke="#61CDFD" stroke-width="2"/>
<path d="M54.4727 25.3664C52.5288 26.4731 51.2082 28.0336 50.5136 30.0422C50.0076 31.4959 49.8075 33.098 49.9076 34.8455C50.0762 37.75 51.4941 38.6223 53.8724 39.5538" stroke="#61CDFD" stroke-width="2"/>
<path d="M53.8723 39.5538C53.9895 40.3223 53.978 41.1292 53.8408 41.9778" stroke="#8FDFFE" stroke-width="2"/>
<path d="M4.1906 16.9762L3.99336 17.3026C3.93905 17.3946 3.9562 17.4687 4.04481 17.5251C4.09913 17.5577 4.11628 17.6171 4.10199 17.7001C4.08198 17.798 4.09341 17.893 4.13343 17.9849C4.32209 18.427 4.38212 18.961 4.31352 19.5841C4.18203 20.7886 4.20489 22.1415 4.38212 23.6457C4.53077 24.9125 4.34782 26.2179 4.35068 27.4432C4.35068 30.7334 4.29637 34.0237 4.18488 37.3109C4.17345 37.6491 4.30208 38.109 4.30494 38.5006C4.32209 41.8917 4.19632 45.3243 4.32781 48.7065C4.35354 49.3681 4.34782 50.0268 4.31352 50.6824C4.18488 52.9995 4.36783 55.3878 4.28493 57.4112C4.20775 59.2833 4.3421 61.0397 4.68799 62.6803C4.76517 63.0334 5.07961 63.4576 5.63131 63.9531" stroke="#F6C43C" stroke-width="2"/>
<path d="M71.9298 9.94779C67.2047 10.0576 64.0317 10.0902 62.408 10.0516C59.2179 9.97449 56.6823 8.53558 54.8014 5.73192" stroke="#FF7871" stroke-width="2"/>
<path d="M13.6953 22.5984C13.6953 22.5391 13.6467 22.4886 13.5896 22.4886L8.44988 22.4975C8.39271 22.4975 8.34412 22.548 8.34412 22.6073L8.34983 25.1884C8.34983 25.2478 8.39843 25.2982 8.4556 25.2982L13.5953 25.2893C13.6525 25.2893 13.701 25.2389 13.701 25.1795L13.6953 22.5984Z" stroke="#9F7145" stroke-width="2"/>
<path d="M27.1077 22.6547C27.1077 22.5806 27.0505 22.5212 26.9791 22.5212H16.4996C16.4281 22.5212 16.371 22.5806 16.371 22.6547V25.1588C16.371 25.2329 16.4281 25.2923 16.4996 25.2923H26.9791C27.0505 25.2923 27.1077 25.2329 27.1077 25.1588V22.6547Z" stroke="#9F7145" stroke-width="2"/>
<path d="M29.7889 23.0642L29.7975 25.1558C29.7975 25.2507 29.8461 25.2982 29.9347 25.2982L34.6456 25.2923C34.9772 25.2923 35.143 25.1172 35.143 24.776V22.9425C35.143 22.6013 34.9829 22.4441 34.6542 22.4649L33.3078 22.5509" stroke="#9F7145" stroke-width="2"/>
<path d="M33.3079 22.5509L29.9348 22.4975C29.8348 22.4975 29.7748 22.545 29.7519 22.6459C29.7262 22.7794 29.7376 22.9188 29.7891 23.0642" stroke="#9F8049" stroke-width="2"/>
<path d="M33.3078 22.5509C32.6132 23.5033 31.6584 23.9216 30.4407 23.8118C29.9776 23.7673 29.8861 23.4795 29.7889 23.0642" stroke="#F8A63F" stroke-width="2"/>
<path d="M40.5086 48.6383C40.5086 48.5879 40.4714 48.5493 40.4228 48.5493C40.3943 48.5493 40.3657 48.5641 40.3514 48.5879L37.8416 52.6227C37.8416 52.6227 37.8273 52.6524 37.8273 52.6702L37.8616 74.7553C37.8616 74.8028 37.8987 74.8414 37.9445 74.8443L40.4114 74.8948C40.46 74.8948 40.4972 74.8592 40.5 74.8087C40.5 74.8087 40.5 74.8087 40.5 74.8058L40.5086 48.6383Z" stroke="#9F8049" stroke-width="2"/>
<path d="M27.425 69.2815C27.3249 69.4299 27.3621 69.6375 27.505 69.7384C27.5593 69.777 27.6222 69.7977 27.688 69.7977L29.4603 69.7859C29.6347 69.7859 29.7747 69.6375 29.7747 69.4566L29.7833 67.2255C29.7833 67.0445 29.6432 66.8962 29.4689 66.8932C29.4203 66.8932 29.3717 66.9051 29.3288 66.9259L28.9057 67.1365C28.8543 67.1602 28.8114 67.1988 28.7799 67.2463L27.425 69.2815Z" stroke="#3974A2" stroke-width="2"/>
<path d="M17.5945 69.7651C17.623 69.7651 17.6488 69.7473 17.6659 69.7236L19.2753 67.1721C19.301 67.1306 19.2896 67.0712 19.2496 67.0445C19.2353 67.0356 19.221 67.0297 19.2038 67.0297L13.7526 66.9466C13.704 66.9466 13.6639 66.9882 13.6639 67.0386C13.6639 67.0386 13.6639 67.0386 13.6639 67.0416L13.7211 69.7473C13.7211 69.7978 13.764 69.8393 13.8126 69.8363L17.5945 69.7651Z" stroke="#3974A2" stroke-width="2"/>
<path d="M53.8895 18.335C53.8895 17.5726 53.2921 16.9525 52.5574 16.9525C51.8228 16.9525 51.2253 17.5726 51.2253 18.335C51.2253 19.0975 51.8228 19.7176 52.5574 19.7176C53.2921 19.7176 53.8895 19.0975 53.8895 18.335Z" stroke="#3385A6" stroke-width="2"/>
<path d="M69.9631 18.3469C69.9631 17.5815 69.3628 16.9584 68.6253 16.9584C67.8878 16.9584 67.2875 17.5815 67.2875 18.3469C67.2875 19.1124 67.8878 19.7354 68.6253 19.7354C69.3628 19.7354 69.9631 19.1124 69.9631 18.3469Z" stroke="#3385A6" stroke-width="2"/>
<path d="M48.5412 48.935C48.5412 48.1636 47.9409 47.5406 47.1976 47.5406C46.4544 47.5406 45.8541 48.1636 45.8541 48.935C45.8541 49.7063 46.4544 50.3294 47.1976 50.3294C47.9409 50.3294 48.5412 49.7063 48.5412 48.935Z" stroke="#A9535A" stroke-width="2"/>
<path d="M53.8981 56.7734L52.0771 58.6336" stroke="#FFB1B2" stroke-width="2"/>
<path d="M52.0771 58.6336C51.211 58.3606 50.5449 58.6484 50.0847 59.4969C46.44 66.2049 49.5359 74.9007 56.5908 77.4255C65.3665 80.5703 73.9336 72.9663 72.4815 63.5704C72.1127 61.1939 71.218 59.1676 69.7973 57.4913C66.993 54.1892 63.4027 52.783 59.0234 53.2784C57.2825 53.4742 55.8018 53.9816 54.5841 54.8034C53.8637 55.287 53.635 55.9426 53.898 56.7734" stroke="#A3575A" stroke-width="2"/>
<path d="M48.5411 76.7402C48.5411 75.9747 47.9408 75.3517 47.2033 75.3517C46.4658 75.3517 45.8655 75.9747 45.8655 76.7402C45.8655 77.5056 46.4658 78.1286 47.2033 78.1286C47.9408 78.1286 48.5411 77.5056 48.5411 76.7402Z" stroke="#A9535A" stroke-width="2"/>
<path d="M75.3372 76.752C75.3372 75.9895 74.7426 75.3724 74.0079 75.3724C73.2733 75.3724 72.6787 75.9895 72.6787 76.752C72.6787 77.5145 73.2733 78.1316 74.0079 78.1316C74.7426 78.1316 75.3372 77.5145 75.3372 76.752Z" stroke="#A9535A" stroke-width="2"/>
<path d="M75.3429 48.9261C75.3429 48.1636 74.7454 47.5435 74.0108 47.5435C73.2761 47.5435 72.6787 48.1636 72.6787 48.9261C72.6787 49.6886 73.2761 50.3086 74.0108 50.3086C74.7454 50.3086 75.3429 49.6886 75.3429 48.9261Z" stroke="#A96765" stroke-width="2"/>
<path d="M68.5367 5.61918C67.8421 6.38166 67.1046 6.23925 66.3128 5.64589C65.3037 4.89231 64.2203 3.98446 63.1255 3.56317C59.8839 2.31413 57.4684 3.56317 54.8014 5.73192L47.6093 11.1553C47.4892 11.2443 47.5006 11.3096 47.6436 11.3511C47.7893 11.3926 47.9694 11.4134 48.1895 11.4134C55.4903 11.3956 62.791 11.3719 70.0918 11.3452C71.2781 11.3422 72.3901 11.3481 73.4249 11.3659C73.8222 11.3719 73.8536 11.2621 73.5221 11.0366L71.9298 9.9478C71.1209 9.19719 69.8317 8.66612 70.6463 7.20051C71.2809 6.4143 71.9927 6.53297 72.7617 7.10557C74.7112 8.55635 76.6522 10.019 78.5874 11.4935C79.8395 12.4459 79.5222 14.1399 77.8985 14.1577C77.101 14.1666 76.3006 14.1696 75.5002 14.1666C75.4173 14.1666 75.3487 14.2349 75.3487 14.3209C75.3601 16.9199 75.3601 19.5129 75.3458 22.1C75.3401 23.171 74.8884 23.7792 73.988 23.9246C73.0818 23.8178 72.633 23.2363 72.6359 22.1771C72.6445 20.4296 72.6616 18.6703 72.6873 16.8991L72.6731 14.2912C72.6731 14.2022 72.6302 14.1577 72.5444 14.1577L48.6755 14.1696C48.5955 14.1696 48.5554 14.2111 48.5554 14.2912L48.5411 41.8353C48.5411 41.9332 48.6126 42.0104 48.7069 42.0133C48.7069 42.0133 48.7098 42.0133 48.7127 42.0133L53.8409 41.9748H65.8611C65.9211 41.9777 65.9526 41.9451 65.9526 41.8828C65.9612 38.5333 65.964 35.1807 65.9526 31.8193C65.9497 30.4724 65.8154 29.4547 65.5524 28.7635C64.3118 25.5207 60.3756 24.2331 57.5827 26.2654C55.9534 27.4492 55.153 29.1284 55.1844 31.3031C55.2159 33.3472 55.2302 35.3973 55.2302 37.4563C55.2302 38.5184 54.9329 39.0584 53.9152 39.2364C52.809 39.0613 52.5688 38.3701 52.5688 37.2605C52.566 34.9998 52.566 32.739 52.5688 30.4813C52.5746 28.7991 53.2063 27.0931 54.4669 25.3635C55.819 23.8534 57.4284 22.9425 59.295 22.631C61.0359 22.3432 62.6081 22.5628 64.0174 23.2897C67.0731 24.871 68.6053 27.5204 68.6168 31.2319C68.6282 34.7535 68.6425 38.2811 68.6596 41.8205C68.6596 41.9243 68.7111 41.9777 68.8111 41.9777L72.5101 41.9955C72.6102 41.9955 72.6588 41.9451 72.6588 41.8413L72.6502 39.0109C72.6616 35.4032 72.6588 31.843 72.6416 28.3333C72.6388 27.4165 73.0418 26.8499 73.8508 26.6392C74.8427 26.7312 75.3372 27.3216 75.3401 28.4045C75.3544 32.8844 75.3544 37.3673 75.3344 41.8561C75.3344 41.9243 75.3887 41.9807 75.4544 41.9807C76.695 41.9807 77.9557 41.9807 79.2392 41.9896C80.1853 41.9926 80.6599 42.4969 80.6656 43.4997C80.697 49.8161 80.7084 56.1355 80.697 62.4519C80.697 63.5348 80.2196 64.1489 79.2706 64.2883C78.4359 64.1192 78.0186 63.6564 78.0186 62.8969C78.0186 56.8891 78.0186 50.8812 78.0186 44.8704C78.0186 44.8022 77.9871 44.7695 77.9242 44.7695H48.3982H43.3529C43.2442 44.7695 43.1899 44.8259 43.1899 44.9386L43.2042 80.8255C43.2042 80.8789 43.2471 80.9234 43.2986 80.9234H77.8728C77.9557 80.9204 78.0214 80.8522 78.0214 80.7661L78.0271 76.7075C78.01 74.0403 78.01 71.388 78.03 68.7534C78.0386 67.7744 78.3359 67.1335 79.2963 66.9822C80.4455 67.1009 80.7113 67.807 80.7085 68.9374C80.7056 73.3431 80.7027 77.7489 80.6999 82.1487C80.6999 83.1485 80.2111 83.6499 79.2334 83.6529C66.8702 83.7033 54.5069 83.7152 42.1437 83.6914C40.6887 83.6914 40.4857 82.9883 40.4972 81.6117C40.5086 80.3419 40.5086 79.075 40.4943 77.8112C40.4943 77.7103 40.4429 77.6599 40.3485 77.6569C38.5705 77.6361 37.4271 77.6332 36.9211 77.645C34.943 77.6984 35.1317 76.4197 35.1374 74.7524C35.1602 68.9403 35.1574 63.1313 35.1288 57.3192C35.1288 57.2599 35.0802 57.2124 35.023 57.2154C34.9887 57.2154 34.9573 57.2332 34.9401 57.2629L30.7781 64.0124C30.698 64.143 30.7323 64.2112 30.881 64.2201C31.7643 64.2676 32.4046 64.5524 32.4246 65.6442C32.4561 67.4985 32.4646 69.3527 32.4503 71.207C32.4418 72.106 31.9558 72.5569 30.9982 72.5658C29.2002 72.5806 27.4021 72.5806 25.6041 72.5717C25.5098 72.5717 25.4354 72.6133 25.384 72.6964C23.5202 75.7166 21.6507 78.7279 19.7784 81.7304C18.775 83.3354 17.5916 83.6796 15.6849 83.6855C11.1741 83.7003 6.66332 83.7003 2.15538 83.6885C1.5465 83.6885 1.112 83.6024 0.854733 83.4393C-0.208649 82.7658 0.285881 80.9738 1.72659 80.9145C6.43463 80.9264 11.157 80.9264 15.8993 80.9145C16.4196 80.9145 17.0599 80.9798 17.3657 80.4902C25.2611 67.7744 33.1049 55.1149 40.8974 42.5088C41.0946 42.1914 41.4319 41.9985 41.7978 41.9955L45.7912 41.9807C45.8398 41.9807 45.8627 41.957 45.8627 41.9065L45.857 39.3135C45.857 39.2423 45.8227 39.2067 45.754 39.2067H43.3643C42.2723 39.2156 39.9969 38.8092 39.3052 39.9306C31.7957 52.065 24.2863 64.1993 16.7769 76.3367C15.9879 77.6094 15.7993 78.2028 14.3471 78.1553C12.955 78.1108 10.105 78.1138 5.79146 78.1553L1.68371 78.1405C0.48598 78.0901 0.300174 77.2623 0.300174 76.1527C0.305891 66.6915 0.300174 57.2273 0.280164 47.766C0.277305 46.7959 0.760401 46.2411 1.73231 46.1046C2.57558 46.2589 2.99865 46.8641 2.99865 47.9173C2.98436 57.0582 2.9815 66.1871 2.98436 75.3101C2.98436 75.3517 3.00437 75.3724 3.04439 75.3724L5.60851 75.3487C5.64567 75.3487 5.66282 75.3309 5.66282 75.2923L5.62566 63.9501C5.64567 49.0269 5.66282 34.1245 5.67426 19.2459C5.67711 18.2401 5.59993 16.7567 4.18495 16.9733C3.40171 17.0385 3.00723 17.537 3.00437 18.4715C2.98722 22.7823 2.9815 30.594 2.98722 41.9065C2.98722 42.8233 2.55271 43.3217 1.68086 43.4018C0.768977 43.2772 0.314467 42.7284 0.311608 41.7582C0.297315 34.4331 0.294457 27.108 0.305891 19.7829C0.305891 18.249 0.42595 17.1928 0.660352 16.6083C1.57795 14.309 4.39077 13.505 6.46322 14.8609C8.24124 16.0209 8.37845 17.5815 8.34415 19.587C8.34415 19.6642 8.40132 19.7265 8.47564 19.7295C8.47564 19.7295 8.47564 19.7295 8.4785 19.7295H13.4981C13.6125 19.7295 13.6839 19.6731 13.7125 19.5574C14.0927 17.9701 16.0194 17.9019 16.3652 19.5692C16.3853 19.6612 16.4653 19.7295 16.5568 19.7295H26.9219C27.0162 19.7295 27.0763 19.682 27.0963 19.5841C27.4279 18.0354 29.5089 17.8663 29.7061 19.4476C29.7261 19.6048 29.8548 19.7235 30.0091 19.7265L34.9944 19.7354C35.0945 19.7354 35.146 19.6849 35.146 19.5811C35.1402 18.8275 35.1059 18.0384 35.2689 17.356C35.9578 14.4752 39.0936 13.2796 41.4805 14.9321C43.2185 16.1336 43.1585 17.8396 43.1699 20.1685C43.1899 23.7436 43.1928 27.3156 43.1785 30.8907C43.1728 32.4572 43.3414 33.6172 41.532 33.6706C40.8402 33.3888 40.4943 32.8725 40.4972 32.116C40.5115 27.6094 40.5057 22.9277 40.48 18.074C40.4772 17.4776 40.0084 16.997 39.4309 17C39.4281 17 39.4252 17 39.4224 17H39.1193C38.2418 17.0148 37.8016 17.4747 37.8044 18.3855L37.8444 37.2427C37.8444 37.299 37.8902 37.3465 37.9445 37.3465C37.9673 37.3465 37.9874 37.3376 38.0045 37.3228C39.0707 36.4268 40.2599 36.3793 41.7464 36.412L45.6283 36.4238C45.7826 36.4238 45.8598 36.3467 45.8598 36.1865V14.3179C45.8627 14.2319 45.7941 14.1607 45.7083 14.1607C45.7083 14.1607 45.7083 14.1607 45.7055 14.1607C44.7821 14.1785 43.8588 14.1755 42.9327 14.1488C41.9064 14.1192 41.4148 12.4607 42.4038 11.7071C46.1657 8.8382 49.9333 5.97817 53.7065 3.12704C55.2244 1.97888 56.4393 1.23717 57.3483 0.89895C60.5699 -0.302618 63.6858 0.353052 66.4986 2.34973C67.7764 3.25462 69.2314 4.00819 68.531 5.61918H68.5367ZM13.6954 22.5984C13.6954 22.539 13.6468 22.4886 13.5896 22.4886L8.44991 22.4975C8.39274 22.4975 8.34415 22.5479 8.34415 22.6073L8.34986 25.1884C8.34986 25.2478 8.39846 25.2982 8.45563 25.2982L13.5953 25.2893C13.6525 25.2893 13.7011 25.2389 13.7011 25.1795L13.6954 22.5984ZM27.1077 22.6548C27.1077 22.5806 27.0505 22.5212 26.9791 22.5212H16.4996C16.4281 22.5212 16.371 22.5806 16.371 22.6548V25.1588C16.371 25.2329 16.4281 25.2923 16.4996 25.2923H26.9791C27.0505 25.2923 27.1077 25.2329 27.1077 25.1588V22.6548ZM29.789 23.0642L29.7976 25.1558C29.7976 25.2507 29.8462 25.2982 29.9348 25.2982L34.6457 25.2923C34.9773 25.2923 35.1431 25.1172 35.1431 24.776V22.9425C35.1431 22.6013 34.983 22.4441 34.6543 22.4649L33.3079 22.5509L29.9348 22.4975C29.8348 22.4975 29.7747 22.545 29.7519 22.6459C29.7261 22.7794 29.7376 22.9188 29.789 23.0642ZM11.0398 65.6472C11.0483 64.1637 12.5262 64.1163 13.5267 64.2557C13.6153 64.2676 13.6954 64.2023 13.7068 64.1103C13.7068 64.1044 13.7068 64.0985 13.7068 64.0925V28.2383C13.7068 28.1226 13.6525 28.0663 13.541 28.0663L8.51566 28.0574C8.42133 28.0574 8.34415 28.1375 8.34415 28.2354V75.2122C8.34415 75.3131 8.39274 75.3635 8.48707 75.3635H14.0498C14.127 75.3606 14.1842 75.3279 14.2271 75.2597L15.8021 72.7943C15.8421 72.729 15.825 72.643 15.765 72.6014C15.7421 72.5866 15.7164 72.5777 15.6878 72.5777C14.5386 72.5896 13.4438 72.5806 12.4004 72.551C11.2627 72.5183 11.0426 71.8211 11.034 70.7442C11.0226 69.0412 11.0226 67.3412 11.034 65.6472H11.0398ZM21.039 64.2349C21.0676 64.2349 21.0962 64.2201 21.1133 64.1934L27.0848 54.5512C27.0934 54.5364 27.0991 54.5186 27.0991 54.5008V28.1553C27.102 28.1048 27.062 28.0633 27.0134 28.0633H16.4796C16.431 28.0633 16.391 28.1048 16.391 28.1553V64.143C16.3881 64.1934 16.4281 64.2349 16.4767 64.2349H21.039ZM29.7862 49.8517C29.7862 49.9081 29.8319 49.9556 29.8891 49.9526C29.9205 49.9526 29.952 49.9348 29.9691 49.9081L35.1288 41.5743C35.1402 41.5565 35.146 41.5387 35.146 41.5179V28.1642C35.146 28.1078 35.1002 28.0603 35.0459 28.0603L29.8862 28.0781C29.8319 28.0781 29.7862 28.1256 29.7862 28.182V49.8517ZM40.5086 48.6383C40.5086 48.5879 40.4714 48.5493 40.4228 48.5493C40.3943 48.5493 40.3657 48.5641 40.3514 48.5879L37.8416 52.6227C37.8416 52.6227 37.8273 52.6524 37.8273 52.6702L37.8616 74.7553C37.8616 74.8028 37.8987 74.8414 37.9445 74.8443L40.4114 74.8948C40.46 74.8948 40.4972 74.8592 40.5 74.8087C40.5 74.8087 40.5 74.8087 40.5 74.8058L40.5086 48.6383ZM27.425 69.2815C27.3249 69.4299 27.3621 69.6375 27.505 69.7384C27.5593 69.777 27.6222 69.7978 27.688 69.7978L29.4603 69.7859C29.6347 69.7859 29.7747 69.6375 29.7747 69.4566L29.7833 67.2255C29.7833 67.0445 29.6432 66.8962 29.4689 66.8932C29.4203 66.8932 29.3717 66.9051 29.3288 66.9259L28.9057 67.1365C28.8543 67.1602 28.8114 67.1988 28.78 67.2463L27.425 69.2815ZM17.5944 69.7651C17.623 69.7651 17.6487 69.7473 17.6659 69.7236L19.2753 67.1721C19.301 67.1306 19.2895 67.0712 19.2495 67.0445C19.2352 67.0356 19.2209 67.0297 19.2038 67.0297L13.7525 66.9466C13.7039 66.9466 13.6639 66.9882 13.6639 67.0386C13.6639 67.0386 13.6639 67.0386 13.6639 67.0416L13.7211 69.7473C13.7211 69.7978 13.764 69.8393 13.8126 69.8363L17.5944 69.7651Z" fill="black"/>
<path d="M68.5367 5.61919L70.6464 7.20052C69.8317 8.66613 71.1209 9.1972 71.9298 9.9478C67.2047 10.0576 64.0317 10.0902 62.408 10.0516C59.2179 9.97451 56.6823 8.53559 54.8014 5.73193C57.4684 3.56318 59.8839 2.31414 63.1255 3.56318C64.2203 3.98447 65.3037 4.89232 66.3128 5.64589C67.1046 6.23926 67.8421 6.38167 68.5367 5.61919Z" fill="#FE8C7C"/>
<path d="M54.8013 5.73192C56.6822 8.53558 59.2178 9.97449 62.4079 10.0516C64.0316 10.0902 67.2046 10.0576 71.9298 9.94779L73.522 11.0366C73.8536 11.2621 73.8221 11.3719 73.4248 11.3659C72.39 11.3481 71.278 11.3422 70.0917 11.3452C62.791 11.3719 55.4902 11.3956 48.1895 11.4134C47.9694 11.4134 47.7893 11.3926 47.6435 11.3511C47.5006 11.3096 47.4891 11.2443 47.6092 11.1553L54.8013 5.73192Z" fill="#E15D5F"/>
<path d="M72.6873 16.9021C71.6097 17.0652 70.8522 17.5162 70.4091 18.2579C70.1432 18.7059 70.0089 19.5158 70.0003 20.6877C69.9746 25.402 69.9603 30.1134 69.9631 34.8277C69.9631 36.6938 71.0351 38.2603 72.6559 39.0139L72.6645 41.8442C72.6645 41.9481 72.6159 41.9985 72.5158 41.9985L68.8169 41.9807C68.7168 41.9807 68.6682 41.9273 68.6654 41.8235C68.6482 38.284 68.6339 34.7565 68.6225 31.2348C68.6111 27.5233 67.0789 24.8739 64.0231 23.2926C62.6138 22.5657 61.0416 22.3462 59.3007 22.634C57.4341 22.9455 55.8247 23.8563 54.4726 25.3664C52.5288 26.4731 51.2082 28.0336 50.5135 30.0422C50.0076 31.4959 49.8075 33.098 49.9075 34.8455C50.0762 37.75 51.494 38.6223 53.8723 39.5538C53.9895 40.3223 53.9781 41.1292 53.8409 41.9778L48.7127 42.0163C48.6183 42.0163 48.544 41.9421 48.5411 41.8442C48.5411 41.8442 48.5411 41.8413 48.5411 41.8383L48.5554 14.2942C48.5554 14.2141 48.5955 14.1726 48.6755 14.1726L72.5444 14.1607C72.6302 14.1607 72.6731 14.2052 72.6731 14.2942L72.6873 16.9021ZM53.8895 18.335C53.8895 17.5726 53.2921 16.9525 52.5574 16.9525C51.8228 16.9525 51.2253 17.5726 51.2253 18.335C51.2253 19.0975 51.8228 19.7176 52.5574 19.7176C53.2921 19.7176 53.8895 19.0975 53.8895 18.335ZM69.9631 18.3469C69.9631 17.5815 69.3629 16.9584 68.6253 16.9584C67.8878 16.9584 67.2875 17.5815 67.2875 18.3469C67.2875 19.1124 67.8878 19.7354 68.6253 19.7354C69.3629 19.7354 69.9631 19.1124 69.9631 18.3469Z" fill="#20BFFD"/>
<path d="M41.5376 33.6736C41.7949 34.0296 41.9149 34.3767 41.9006 34.7179C41.8635 35.4744 41.8149 36.0411 41.752 36.4149C40.2656 36.3823 39.0764 36.4298 38.0102 37.3257C37.9701 37.3613 37.9072 37.3554 37.8729 37.3109C37.8587 37.2931 37.8501 37.2694 37.8501 37.2456L37.8101 18.3884C37.8101 17.4776 38.2474 17.0178 39.125 17.0059H39.428C40.0054 16.994 40.4771 17.4717 40.4857 18.068C40.4857 18.071 40.4857 18.074 40.4857 18.0769C40.5114 22.9307 40.5171 27.6123 40.5028 32.119C40.5028 32.8755 40.8458 33.3917 41.5376 33.6736Z" fill="#F7B543"/>
<path d="M52.5574 19.7176C53.2931 19.7176 53.8895 19.0986 53.8895 18.335C53.8895 17.5715 53.2931 16.9525 52.5574 16.9525C51.8217 16.9525 51.2253 17.5715 51.2253 18.335C51.2253 19.0986 51.8217 19.7176 52.5574 19.7176Z" fill="black"/>
<path d="M72.6873 16.9021C72.6616 18.6733 72.6445 20.4326 72.6359 22.1801C72.633 23.2392 73.0818 23.8207 73.988 23.9275L73.8565 26.6422C73.0475 26.8528 72.6445 27.4195 72.6473 28.3362C72.6645 31.846 72.6673 35.4062 72.6559 39.0139C71.0351 38.2603 69.9631 36.6938 69.9631 34.8277C69.9631 30.1134 69.9746 25.402 70.0003 20.6877C70.0089 19.5158 70.1432 18.7059 70.4091 18.2579C70.8521 17.5162 71.6097 17.0652 72.6873 16.9021Z" fill="#A2DBFD"/>
<path d="M4.19065 16.9762L3.99341 17.3026C3.9391 17.3946 3.95625 17.4687 4.04487 17.5251C4.09918 17.5577 4.11633 17.6171 4.10204 17.7001C4.08203 17.798 4.09346 17.893 4.13348 17.985C4.32215 18.427 4.38218 18.961 4.31357 19.5841C4.18208 20.7886 4.20495 22.1415 4.38218 23.6457C4.53082 24.9125 4.34787 26.2179 4.35073 27.4432C4.35073 30.7334 4.29642 34.0237 4.18494 37.3109C4.1735 37.6491 4.30214 38.109 4.305 38.5006C4.32215 41.8917 4.19637 45.3243 4.32786 48.7065C4.35359 49.3681 4.34787 50.0268 4.31357 50.6824C4.18494 52.9995 4.36788 55.3878 4.28499 57.4112C4.2078 59.2833 4.34216 61.0397 4.68804 62.6803C4.76522 63.0334 5.07966 63.4576 5.63137 63.9531L5.66853 75.2953C5.66853 75.3339 5.65137 75.3517 5.61421 75.3517L3.05009 75.3754C3.01007 75.3754 2.99006 75.3546 2.99006 75.3131C2.9872 66.1901 2.99006 57.0611 3.00435 47.9203C3.00435 46.8671 2.58129 46.2619 1.73801 46.1076C1.73515 45.6626 1.56936 45.3154 1.60938 44.8645C1.65226 44.3749 1.67798 43.8884 1.68656 43.4048C2.55842 43.3247 2.99292 42.8263 2.99292 41.9095C2.9872 30.597 2.99292 22.7853 3.01007 18.4745C3.01293 17.5399 3.40741 17.0415 4.19065 16.9762Z" fill="#F7B543"/>
<path d="M4.1906 16.9762C5.60559 16.7597 5.68277 18.2431 5.67991 19.2488C5.66847 34.1275 5.65132 49.0299 5.63131 63.9531C5.07961 63.4576 4.76517 63.0334 4.68799 62.6803C4.3421 61.0397 4.20775 59.2833 4.28493 57.4112C4.36783 55.3878 4.18488 52.9995 4.31352 50.6824C4.34782 50.0268 4.35354 49.3681 4.32781 48.7065C4.19632 45.3243 4.32209 41.8917 4.30494 38.5006C4.30208 38.109 4.17345 37.6491 4.18488 37.3109C4.29637 34.0237 4.35068 30.7334 4.35068 27.4432C4.34782 26.2179 4.53077 24.9125 4.38212 23.6457C4.20489 22.1415 4.18203 20.7886 4.31352 19.5841C4.38212 18.961 4.32209 18.427 4.13343 17.985C4.09341 17.893 4.08198 17.798 4.10199 17.7001C4.11628 17.6171 4.09913 17.5577 4.04481 17.5251C3.9562 17.4687 3.93905 17.3946 3.99336 17.3026L4.1906 16.9762Z" fill="#F5D334"/>
<path d="M68.6253 19.7354C69.3641 19.7354 69.9631 19.1137 69.9631 18.3469C69.9631 17.5801 69.3641 16.9584 68.6253 16.9584C67.8864 16.9584 67.2875 17.5801 67.2875 18.3469C67.2875 19.1137 67.8864 19.7354 68.6253 19.7354Z" fill="black"/>
<path d="M13.5902 22.4907L8.45049 22.5C8.39208 22.5001 8.34481 22.5493 8.34491 22.6099L8.34925 25.1911C8.34935 25.2517 8.39679 25.3008 8.4552 25.3006L13.5949 25.2913C13.6533 25.2912 13.7006 25.242 13.7005 25.1814L13.6961 22.6002C13.696 22.5396 13.6486 22.4905 13.5902 22.4907Z" fill="#F8973B"/>
<path d="M26.9791 22.5212H16.4996C16.4286 22.5212 16.371 22.581 16.371 22.6547V25.1588C16.371 25.2325 16.4286 25.2923 16.4996 25.2923H26.9791C27.0501 25.2923 27.1077 25.2325 27.1077 25.1588V22.6547C27.1077 22.581 27.0501 22.5212 26.9791 22.5212Z" fill="#F8973B"/>
<path d="M33.3079 22.5509C32.6133 23.5033 31.6585 23.9216 30.4408 23.8118C29.9777 23.7673 29.8862 23.4795 29.7891 23.0642C29.7376 22.9188 29.7262 22.7794 29.7519 22.6459C29.7748 22.545 29.8348 22.4945 29.9348 22.4975L33.3079 22.5509Z" fill="#F7B543"/>
<path d="M29.7889 23.0642C29.8861 23.4795 29.9776 23.7673 30.4407 23.8118C31.6584 23.9216 32.6132 23.5033 33.3078 22.5509L34.6542 22.4649C34.9829 22.4441 35.1459 22.6013 35.1459 22.9425V24.776C35.1459 25.1172 34.9772 25.2893 34.6456 25.2923L29.9347 25.2982C29.8461 25.2982 29.8004 25.2507 29.7975 25.1558L29.7889 23.0642Z" fill="#F8973B"/>
<path d="M54.4726 25.3664C53.212 27.0961 52.5802 28.802 52.5745 30.4842C52.5688 32.742 52.5688 35.0027 52.5745 37.2634C52.5745 38.373 52.8147 39.0643 53.9209 39.2394L53.8752 39.5538C51.4969 38.6223 50.079 37.75 49.9104 34.8455C49.8103 33.098 50.0104 31.4959 50.5164 30.0422C51.211 28.0336 52.5317 26.4731 54.4755 25.3664H54.4726Z" fill="#A2DBFD"/>
<path d="M43.37 39.2097L43.6987 39.2305C43.8416 39.2394 43.9474 39.3669 43.9388 39.5153C43.936 39.5805 43.9074 39.6428 43.8616 39.6874C43.0098 40.5329 42.1408 40.527 41.0745 40.6901C40.4828 40.7791 39.7196 41.7196 39.328 42.3575C38.0902 44.3601 37.2527 45.7041 36.8096 46.3835C36.1979 47.324 35.6176 48.3772 35.1459 49.11C33.062 52.3528 31.0096 55.6133 28.9829 58.8976C27.7794 60.8498 26.5073 62.8049 25.3839 64.8046C24.7036 66.0121 23.8975 66.9882 23.1057 68.4419C22.2653 69.9817 21.1847 71.4236 20.2957 72.9812C19.9527 73.5805 19.4639 74.1679 19.178 74.6723C18.3147 76.1883 17.4486 77.6688 16.5796 79.1136C16.4224 79.3777 16.1451 79.5379 15.8478 79.5438C13.2722 79.5883 10.671 79.5646 8.0468 79.4726C7.16351 79.44 6.41457 79.0038 5.79712 78.1583C10.1107 78.1138 12.9607 78.1108 14.3528 78.1583C15.8049 78.2058 15.9936 77.6124 16.7825 76.3396C24.292 64.2023 31.8014 52.068 39.3108 39.9336C40.0026 38.8121 42.278 39.2186 43.37 39.2127V39.2097Z" fill="#C5E99E"/>
<path d="M1.73233 80.9145L1.68945 78.1435L5.7972 78.1583C6.41464 79.0038 7.16359 79.44 8.04688 79.4726C10.671 79.5646 13.2723 79.5883 15.8479 79.5438C16.1452 79.5379 16.4224 79.3777 16.5797 79.1136C17.4487 77.6688 18.3148 76.1883 19.1781 74.6723C19.4639 74.1679 19.9528 73.5805 20.2958 72.9812C21.1848 71.4236 22.2653 69.9817 23.1057 68.4419C23.8976 66.9882 24.7037 66.0121 25.384 64.8046C26.5074 62.8049 27.7795 60.8498 28.9829 58.8976C31.0096 55.6133 33.0621 52.3528 35.146 49.11C35.6176 48.3772 36.1979 47.324 36.8097 46.3835C37.2527 45.7041 38.0903 44.3601 39.328 42.3575C39.7197 41.7196 40.4829 40.7791 41.0746 40.6901C42.1409 40.527 43.0099 40.5329 43.8617 39.6873C43.9618 39.5835 43.9646 39.4144 43.8646 39.3106C43.8217 39.2631 43.7617 39.2364 43.6988 39.2305L43.37 39.2097H45.7598C45.8284 39.2097 45.8627 39.2423 45.8627 39.3135L45.8684 41.9065C45.8684 41.957 45.8455 41.9807 45.797 41.9807L41.8036 41.9955C41.4377 41.9955 41.1003 42.1914 40.9031 42.5088C33.1107 55.1149 25.2668 67.7744 17.3715 80.4902C17.0656 80.9798 16.4253 80.9145 15.905 80.9145C11.1627 80.9264 6.44037 80.9264 1.73233 80.9145Z" fill="#93B87E"/>
<path d="M48.4038 44.7695C49.5015 46.965 51.1566 48.7718 53.6693 48.8252C59.0863 48.9379 64.5032 48.8756 69.9202 48.935C72.3442 48.9646 74.168 51.1186 74.0679 53.587C73.9679 56.0198 74.0965 58.7344 74.0708 60.8616C74.0336 63.8018 74.0336 66.7389 74.0765 69.6791C74.1137 72.1979 73.9993 73.2749 75.5087 74.9244C76.3233 75.8115 77.1638 76.4049 78.0328 76.7075L78.027 80.7661C78.027 80.8522 77.9613 80.9204 77.8784 80.9204H43.3042C43.2527 80.9234 43.2099 80.8789 43.2099 80.8255L43.1956 44.9386C43.1956 44.8259 43.2499 44.7695 43.3585 44.7695H48.4038ZM48.5411 48.935C48.5411 48.1636 47.9408 47.5406 47.1975 47.5406C46.4543 47.5406 45.854 48.1636 45.854 48.935C45.854 49.7063 46.4543 50.3294 47.1975 50.3294C47.9408 50.3294 48.5411 49.7063 48.5411 48.935ZM53.898 56.7733L52.0771 58.6336C51.2109 58.3606 50.5449 58.6484 50.0847 59.4969C46.44 66.2049 49.5358 74.9007 56.5907 77.4255C65.3665 80.5703 73.9336 72.9663 72.4814 63.5704C72.1127 61.1939 71.218 59.1676 69.7973 57.4913C66.993 54.1892 63.4027 52.783 59.0234 53.2784C57.2825 53.4742 55.8018 53.9816 54.584 54.8034C53.8637 55.287 53.635 55.9426 53.898 56.7733ZM48.5411 76.7401C48.5411 75.9747 47.9408 75.3517 47.2033 75.3517C46.4657 75.3517 45.8654 75.9747 45.8654 76.7401C45.8654 77.5056 46.4657 78.1286 47.2033 78.1286C47.9408 78.1286 48.5411 77.5056 48.5411 76.7401ZM75.3371 76.752C75.3371 75.9895 74.7426 75.3724 74.0079 75.3724C73.2733 75.3724 72.6787 75.9895 72.6787 76.752C72.6787 77.5145 73.2733 78.1316 74.0079 78.1316C74.7426 78.1316 75.3371 77.5145 75.3371 76.752Z" fill="#E15D5F"/>
<path d="M79.2763 64.2913L79.3021 66.9822C78.3416 67.1335 78.0443 67.7744 78.0357 68.7534C78.0157 71.388 78.0157 74.0403 78.0329 76.7075C77.1639 76.4049 76.3234 75.8115 75.5087 74.9244C73.9994 73.2749 74.1138 72.1979 74.0766 69.6791C74.0337 66.7389 74.0337 63.8018 74.0709 60.8616C74.0966 58.7344 73.968 56.0198 74.068 53.587C74.1681 51.1186 72.3443 48.9646 69.9203 48.935C64.5033 48.8756 59.0863 48.9379 53.6694 48.8252C51.1567 48.7718 49.5016 46.965 48.4039 44.7695H77.9299C77.9928 44.7695 78.0243 44.8051 78.0243 44.8734C78.0243 50.8842 78.0243 56.892 78.0243 62.8999C78.0243 63.6594 78.4416 64.1222 79.2763 64.2913ZM75.343 48.9261C75.343 48.1636 74.7455 47.5435 74.0109 47.5435C73.2762 47.5435 72.6788 48.1636 72.6788 48.9261C72.6788 49.6885 73.2762 50.3086 74.0109 50.3086C74.7455 50.3086 75.343 49.6885 75.343 48.9261Z" fill="#FE8C7C"/>
<path d="M47.1976 50.3294C47.9397 50.3294 48.5412 49.7051 48.5412 48.935C48.5412 48.1649 47.9397 47.5406 47.1976 47.5406C46.4556 47.5406 45.8541 48.1649 45.8541 48.935C45.8541 49.7051 46.4556 50.3294 47.1976 50.3294Z" fill="black"/>
<path d="M74.0108 50.3086C74.7465 50.3086 75.3429 49.6896 75.3429 48.9261C75.3429 48.1625 74.7465 47.5435 74.0108 47.5435C73.2751 47.5435 72.6787 48.1625 72.6787 48.9261C72.6787 49.6896 73.2751 50.3086 74.0108 50.3086Z" fill="black"/>
<path d="M40.5086 48.6383L40.5 74.8058C40.5 74.8562 40.4629 74.8948 40.4143 74.8948C40.4143 74.8948 40.4143 74.8948 40.4114 74.8948L37.9445 74.8443C37.8987 74.8443 37.8616 74.8028 37.8616 74.7553L37.8273 52.6702C37.8273 52.6524 37.833 52.6376 37.8416 52.6227L40.3514 48.5879C40.3771 48.5463 40.4314 48.5344 40.4714 48.5641C40.4972 48.5819 40.5115 48.6086 40.5086 48.6383Z" fill="#F7B543"/>
<path d="M52.0771 58.6336C52.8146 59.4049 52.8689 59.9864 52.3658 60.9833C48.8384 67.9761 54.1153 76.2981 61.7705 75.325C69.237 74.3726 72.6358 65.1903 67.7248 59.2566C65.7639 56.8891 62.8567 55.7172 59.8324 55.907C58.7318 55.9782 57.8142 56.2126 57.0853 56.6102C55.8075 57.3074 55.0243 57.8889 53.898 56.7734C53.635 55.9426 53.8637 55.287 54.5841 54.8034C55.8018 53.9816 57.2825 53.4742 59.0234 53.2784C63.4027 52.783 66.993 54.1892 69.7973 57.4913C71.218 59.1676 72.1127 61.1939 72.4815 63.5704C73.9336 72.9663 65.3665 80.5703 56.5908 77.4255C49.5359 74.9007 46.44 66.2049 50.0847 59.4969C50.5449 58.6484 51.211 58.3606 52.0771 58.6336Z" fill="black"/>
<path d="M27.425 69.2815L28.7799 67.2463C28.8114 67.1988 28.8542 67.1602 28.9057 67.1365L29.3288 66.9259C29.486 66.8458 29.6775 66.917 29.7518 67.0801C29.7718 67.1246 29.7833 67.1751 29.7833 67.2255L29.7747 69.4566C29.7747 69.6375 29.6346 69.7829 29.4603 69.7859L27.688 69.7977C27.5136 69.7977 27.3707 69.6524 27.3678 69.4714C27.3678 69.4032 27.3878 69.3379 27.425 69.2815Z" fill="#2C9DF4"/>
<path d="M17.5945 69.7651L13.8126 69.8363C13.764 69.8363 13.724 69.7978 13.7211 69.7473L13.6639 67.0416C13.6639 66.9911 13.7011 66.9496 13.7497 66.9466C13.7497 66.9466 13.7497 66.9466 13.7526 66.9466L19.2038 67.0297C19.2524 67.0297 19.2924 67.0742 19.2896 67.1246C19.2896 67.1424 19.2839 67.1573 19.2753 67.1721L17.6659 69.7236C17.6488 69.7473 17.623 69.7651 17.5945 69.7651Z" fill="#2C9DF4"/>
<path d="M47.2033 78.1286C47.9421 78.1286 48.5411 77.507 48.5411 76.7402C48.5411 75.9733 47.9421 75.3517 47.2033 75.3517C46.4644 75.3517 45.8655 75.9733 45.8655 76.7402C45.8655 77.507 46.4644 78.1286 47.2033 78.1286Z" fill="black"/>
<path d="M74.0079 78.1316C74.742 78.1316 75.3372 77.5139 75.3372 76.752C75.3372 75.9901 74.742 75.3724 74.0079 75.3724C73.2738 75.3724 72.6787 75.9901 72.6787 76.752C72.6787 77.5139 73.2738 78.1316 74.0079 78.1316Z" fill="black"/>
</g>
<defs>
<clipPath id="clip0_19_1973">
<rect width="81" height="84" fill="white"/>
</clipPath>
</defs>
</svg>
