<svg width="231" height="207" viewBox="0 0 231 207" fill="none" xmlns="http://www.w3.org/2000/svg">
<g clip-path="url(#clip0_227_46)">
<path d="M117.587 59.3909C117.692 58.7813 117.773 57.8571 117.834 56.6232C117.858 56.0667 117.658 55.5006 117.229 54.9199" stroke="#FBDAA1" stroke-width="2"/>
<path d="M50.8109 70.7913C50.7966 71.58 50.7538 72.3735 50.6823 73.1719C50.6156 73.9074 50.8919 74.4736 50.8967 75.1994" stroke="#FBDAA1" stroke-width="2"/>
<path d="M50.8157 127.448L50.8871 131.968" stroke="#D3E8C7" stroke-width="2"/>
<path d="M180.171 109.245L180.127 104.856" stroke="#FEC5BD" stroke-width="2"/>
<path d="M171.094 43.4521L171.313 39.0247" stroke="#D0EDFE" stroke-width="2"/>
<path d="M165.744 11.7436L162.228 9.16455" stroke="#FEC5BD" stroke-width="2"/>
<path d="M162.228 9.16457C161.07 10.4081 159.841 10.1759 158.521 9.20811C156.839 7.97907 155.034 6.4984 153.209 5.8113C147.806 3.77418 143.781 5.8113 139.336 9.34844" stroke="#A26B66" stroke-width="2"/>
<path d="M139.336 9.34839L127.349 18.1937C127.149 18.3388 127.168 18.4453 127.406 18.513C127.649 18.5808 127.949 18.6146 128.316 18.6146C140.484 18.5856 152.652 18.5469 164.82 18.5033C166.797 18.4985 168.65 18.5082 170.375 18.5372C171.037 18.5469 171.089 18.3679 170.537 18.0001L167.883 16.2243" stroke="#A3575A" stroke-width="2"/>
<path d="M167.883 16.2243C166.535 15.0001 164.386 14.134 165.744 11.7437" stroke="#A26B66" stroke-width="2"/>
<path d="M171.313 39.0246C169.803 38.8504 169.055 37.902 169.06 36.1746C169.074 33.3245 169.103 30.4551 169.146 27.5664" stroke="#7493A6" stroke-width="2"/>
<path d="M169.146 27.5665L169.122 23.3132C169.122 23.168 169.05 23.0955 168.907 23.0955L129.126 23.1148C128.992 23.1148 128.926 23.1826 128.926 23.3132L128.902 68.2363C128.902 68.396 129.021 68.5218 129.178 68.5266C129.178 68.5266 129.183 68.5266 129.188 68.5266L137.735 68.4637" stroke="#3385A6" stroke-width="2"/>
<path d="M137.863 63.9974C136.02 63.7119 135.619 62.5845 135.619 60.7748C135.615 57.0877 135.615 53.4005 135.619 49.7182C135.629 46.9746 136.682 44.1923 138.783 41.3713" stroke="#7493A6" stroke-width="2"/>
<path d="M138.788 41.3715C141.041 38.9086 143.723 37.4231 146.835 36.915C149.736 36.4457 152.356 36.8037 154.705 37.9892C159.798 40.5683 162.352 44.8893 162.371 50.9426C162.39 56.6862 162.414 62.4395 162.442 68.2122C162.442 68.3815 162.528 68.4686 162.695 68.4686L168.86 68.4976C169.026 68.4976 169.107 68.4154 169.107 68.246L169.093 63.6298" stroke="#3385A6" stroke-width="2"/>
<path d="M169.093 63.6298C169.112 57.7459 169.107 51.9393 169.079 46.2151C169.074 44.7199 169.746 43.7957 171.094 43.4521" stroke="#7493A6" stroke-width="2"/>
<path d="M180.127 104.856C178.736 104.58 178.04 103.825 178.04 102.587C178.04 92.7881 178.04 82.9896 178.04 73.1862C178.04 73.075 177.988 73.0217 177.883 73.0217H128.673" stroke="#A26B66" stroke-width="2"/>
<path d="M128.673 73.0171H120.264C120.083 73.0171 119.993 73.109 119.993 73.2929L120.017 131.823C120.017 131.91 120.088 131.982 120.174 131.982H177.797C177.936 131.977 178.045 131.866 178.045 131.726L178.055 125.106" stroke="#A3575A" stroke-width="2"/>
<path d="M178.055 125.106C178.026 120.756 178.026 116.43 178.059 112.134C178.074 110.537 178.569 109.492 180.17 109.245" stroke="#A26B66" stroke-width="2"/>
<path d="M50.8871 131.968C58.7339 131.987 66.6044 131.987 74.5083 131.968C75.3754 131.968 76.4426 132.074 76.9524 131.276C90.1113 110.537 103.184 89.8898 116.172 69.3299C116.501 68.8121 117.063 68.4976 117.673 68.4928L124.328 68.4686C124.409 68.4686 124.447 68.4299 124.447 68.3476L124.438 64.1185C124.438 64.0024 124.381 63.9443 124.266 63.9443H120.283" stroke="#778E70" stroke-width="2"/>
<path d="M120.283 63.9491C118.463 63.9588 114.671 63.2959 113.518 65.125C101.002 84.9155 88.4867 104.706 75.971 124.501C74.656 126.577 74.3416 127.545 71.9213 127.468C69.6012 127.395 64.8512 127.4 57.6619 127.468" stroke="#869A77" stroke-width="2"/>
<path d="M57.6619 127.472L50.8157 127.448" stroke="#778E70" stroke-width="2"/>
<path d="M50.8967 75.1992C52.3021 75.4508 53.0072 76.4379 53.0072 78.1557C52.9834 93.0639 52.9786 107.953 52.9834 122.832C52.9834 122.9 53.0168 122.934 53.0835 122.934L57.357 122.895C57.4189 122.895 57.4475 122.866 57.4475 122.803L57.3856 104.304" stroke="#9F8049" stroke-width="2"/>
<path d="M57.3856 104.304C57.4189 79.9653 57.4475 55.6602 57.4666 31.3938C57.4713 29.7535 57.3427 27.3341 54.9844 27.6873" stroke="#9E8F42" stroke-width="2"/>
<path d="M54.9844 27.6875C53.679 27.794 53.0215 28.6069 53.0168 30.1311C52.9882 37.1618 52.9787 49.9023 52.9882 68.3525C52.9882 69.8477 52.264 70.6606 50.8109 70.7912" stroke="#9F8049" stroke-width="2"/>
<path d="M117.229 54.92C116.076 54.4603 115.5 53.6184 115.505 52.3845C115.529 45.0344 115.519 37.3988 115.476 29.4826C115.471 28.51 114.69 27.7261 113.728 27.731C113.723 27.731 113.718 27.731 113.713 27.731H113.208C111.746 27.7552 111.012 28.5052 111.017 29.9907L111.084 60.7459C111.084 60.8378 111.16 60.9152 111.25 60.9152C111.288 60.9152 111.322 60.9007 111.35 60.8765C113.127 59.4152 115.109 59.3378 117.587 59.391" stroke="#9F8049" stroke-width="2"/>
<path d="M137.787 64.5105L137.863 63.9976" stroke="#D0EDFE" stroke-width="2"/>
<path d="M120.283 63.9492L120.831 63.9831C121.069 63.9976 121.246 64.2057 121.231 64.4476C121.227 64.5541 121.179 64.6557 121.103 64.7283C119.683 66.1073 118.235 66.0976 116.458 66.3638C115.471 66.5089 114.199 68.0428 113.547 69.0832C111.484 72.3493 110.088 74.5413 109.349 75.6494C108.33 77.1832 107.363 78.901 106.577 80.0962C103.103 85.385 99.6827 90.7028 96.3048 96.0593C94.2991 99.2432 92.179 102.432 90.3066 105.693C89.1727 107.663 87.8292 109.255 86.5095 111.626C85.1088 114.137 83.3079 116.489 81.8262 119.029C81.2545 120.006 80.4398 120.964 79.9634 121.787C78.5246 124.26 77.081 126.674 75.6327 129.031C75.3707 129.461 74.9085 129.723 74.4131 129.732C70.1205 129.805 65.785 129.766 61.4114 129.616C59.9392 129.563 58.691 128.852 57.6619 127.473" stroke="#B7DE97" stroke-width="2"/>
<path d="M128.673 73.0171C130.503 76.5978 133.261 79.5446 137.449 79.6317C146.477 79.8156 155.505 79.7139 164.534 79.8107C168.574 79.8591 171.613 83.3721 171.447 87.3979C171.28 91.3657 171.494 95.7932 171.451 99.2626C171.39 104.058 171.39 108.848 171.461 113.643C171.523 117.751 171.332 119.508 173.848 122.198C175.206 123.645 176.606 124.613 178.055 125.106" stroke="#FF7871" stroke-width="2"/>
<path d="M169.146 27.5664C167.349 27.8325 166.087 28.568 165.348 29.7777C164.905 30.5084 164.681 31.8294 164.667 33.7407C164.624 41.4295 164.6 49.1134 164.605 56.8022C164.605 59.8458 166.392 62.4007 169.093 63.6297" stroke="#61CDFD" stroke-width="2"/>
<path d="M138.788 41.3713C135.548 43.1762 133.347 45.7214 132.189 48.9972C131.346 51.3682 131.012 53.9812 131.179 56.8312C131.46 61.5683 133.823 62.991 137.787 64.5103" stroke="#61CDFD" stroke-width="2"/>
<path d="M137.787 64.5105C137.983 65.7637 137.963 67.0799 137.735 68.4638" stroke="#8FDFFE" stroke-width="2"/>
<path d="M54.9844 27.6875L54.6557 28.2198C54.5651 28.3698 54.5937 28.4907 54.7414 28.5827C54.8319 28.6359 54.8605 28.7327 54.8367 28.8682C54.8034 29.0278 54.8224 29.1827 54.8891 29.3327C55.2036 30.0537 55.3036 30.9246 55.1893 31.9408C54.9701 33.9053 55.0082 36.1118 55.3036 38.565C55.5513 40.6312 55.2464 42.7603 55.2512 44.7587C55.2512 50.1249 55.1607 55.4911 54.9749 60.8524C54.9558 61.404 55.1702 62.154 55.175 62.7927C55.2036 68.3235 54.9939 73.9219 55.2131 79.4381C55.256 80.5171 55.2464 81.5914 55.1893 82.6607C54.9749 86.4398 55.2798 90.335 55.1416 93.635C55.013 96.6883 55.2369 99.5529 55.8134 102.229C55.942 102.805 56.4661 103.496 57.3856 104.305" stroke="#F6C43C" stroke-width="2"/>
<path d="M167.883 16.2243C160.008 16.4033 154.719 16.4565 152.013 16.3936C146.696 16.2678 142.47 13.921 139.336 9.34839" stroke="#FF7871" stroke-width="2"/>
<path d="M70.8256 36.8568C70.8256 36.76 70.7446 36.6777 70.6493 36.6777L62.0831 36.6923C61.9879 36.6923 61.9069 36.7745 61.9069 36.8713L61.9164 41.081C61.9164 41.1778 61.9974 41.26 62.0927 41.26L70.6588 41.2455C70.7541 41.2455 70.8351 41.1633 70.8351 41.0665L70.8256 36.8568Z" stroke="#9F7145" stroke-width="2"/>
<path d="M93.1795 36.9487C93.1795 36.8277 93.0842 36.731 92.9651 36.731H75.4993C75.3802 36.731 75.2849 36.8277 75.2849 36.9487V41.0326C75.2849 41.1536 75.3802 41.2504 75.4993 41.2504H92.9651C93.0842 41.2504 93.1795 41.1536 93.1795 41.0326V36.9487Z" stroke="#9F7145" stroke-width="2"/>
<path d="M97.6483 37.6166L97.6626 41.028C97.6626 41.1828 97.7436 41.2602 97.8913 41.2602L105.743 41.2505C106.295 41.2505 106.572 40.9651 106.572 40.4086V37.4182C106.572 36.8618 106.305 36.6053 105.757 36.6392L103.513 36.7795" stroke="#9F7145" stroke-width="2"/>
<path d="M103.513 36.7795L97.8913 36.6924C97.7246 36.6924 97.6245 36.7698 97.5864 36.9343C97.5435 37.1521 97.5626 37.3795 97.6483 37.6166" stroke="#9F8049" stroke-width="2"/>
<path d="M103.513 36.7795C102.355 38.3328 100.764 39.0151 98.7346 38.836C97.9628 38.7634 97.8103 38.2941 97.6483 37.6166" stroke="#F8A63F" stroke-width="2"/>
<path d="M115.514 79.3268C115.514 79.2445 115.452 79.1816 115.371 79.1816C115.324 79.1816 115.276 79.2058 115.252 79.2445L111.069 85.8253C111.069 85.8253 111.045 85.8737 111.045 85.9027L111.103 121.922C111.103 122 111.165 122.063 111.241 122.068L115.352 122.15C115.433 122.15 115.495 122.092 115.5 122.01C115.5 122.01 115.5 122.01 115.5 122.005L115.514 79.3268Z" stroke="#9F8049" stroke-width="2"/>
<path d="M93.7083 112.995C93.5415 113.237 93.6035 113.575 93.8417 113.74C93.9322 113.803 94.037 113.837 94.1466 113.837L97.1004 113.817C97.3911 113.817 97.6245 113.575 97.6245 113.28L97.6388 109.642C97.6388 109.346 97.4053 109.104 97.1147 109.1C97.0337 109.1 96.9527 109.119 96.8813 109.153L96.1762 109.496C96.0904 109.535 96.0189 109.598 95.9665 109.675L93.7083 112.995Z" stroke="#3974A2" stroke-width="2"/>
<path d="M77.324 113.784C77.3717 113.784 77.4145 113.755 77.4431 113.716L80.1254 109.555C80.1683 109.487 80.1492 109.39 80.0825 109.346C80.0587 109.332 80.0349 109.322 80.0063 109.322L70.9209 109.187C70.8399 109.187 70.7732 109.255 70.7732 109.337C70.7732 109.337 70.7732 109.337 70.7732 109.342L70.8684 113.755C70.8684 113.837 70.9399 113.905 71.0209 113.9L77.324 113.784Z" stroke="#3974A2" stroke-width="2"/>
<path d="M137.816 29.9035C137.816 28.66 136.82 27.6487 135.596 27.6487C134.371 27.6487 133.375 28.66 133.375 29.9035C133.375 31.1471 134.371 32.1584 135.596 32.1584C136.82 32.1584 137.816 31.1471 137.816 29.9035Z" stroke="#3385A6" stroke-width="2"/>
<path d="M164.605 29.923C164.605 28.6746 163.605 27.6584 162.376 27.6584C161.146 27.6584 160.146 28.6746 160.146 29.923C160.146 31.1714 161.146 32.1875 162.376 32.1875C163.605 32.1875 164.605 31.1714 164.605 29.923Z" stroke="#3385A6" stroke-width="2"/>
<path d="M128.902 79.8106C128.902 78.5525 127.901 77.5364 126.663 77.5364C125.424 77.5364 124.423 78.5525 124.423 79.8106C124.423 81.0687 125.424 82.0848 126.663 82.0848C127.901 82.0848 128.902 81.0687 128.902 79.8106Z" stroke="#A9535A" stroke-width="2"/>
<path d="M137.83 92.5947L134.795 95.6286" stroke="#FFB1B2" stroke-width="2"/>
<path d="M134.795 95.6285C133.352 95.1833 132.242 95.6527 131.475 97.0365C125.4 107.977 130.56 122.159 142.318 126.277C156.944 131.406 171.223 119.005 168.803 103.68C168.188 99.8043 166.697 96.4994 164.329 93.7655C159.655 88.38 153.671 86.0864 146.372 86.8945C143.471 87.2138 141.003 88.0413 138.974 89.3816C137.773 90.1703 137.392 91.2397 137.83 92.5946" stroke="#A3575A" stroke-width="2"/>
<path d="M128.902 125.16C128.902 123.911 127.901 122.895 126.672 122.895C125.443 122.895 124.443 123.911 124.443 125.16C124.443 126.408 125.443 127.424 126.672 127.424C127.901 127.424 128.902 126.408 128.902 125.16Z" stroke="#A9535A" stroke-width="2"/>
<path d="M173.562 125.179C173.562 123.935 172.571 122.929 171.347 122.929C170.122 122.929 169.131 123.935 169.131 125.179C169.131 126.423 170.122 127.429 171.347 127.429C172.571 127.429 173.562 126.423 173.562 125.179Z" stroke="#A9535A" stroke-width="2"/>
<path d="M173.572 79.7961C173.572 78.5526 172.576 77.5413 171.351 77.5413C170.127 77.5413 169.131 78.5526 169.131 79.7961C169.131 81.0397 170.127 82.051 171.351 82.051C172.576 82.051 173.572 81.0397 173.572 79.7961Z" stroke="#A96765" stroke-width="2"/>
<path d="M162.228 9.1646C161.07 10.4082 159.841 10.1759 158.521 9.20815C156.839 7.97911 155.034 6.49844 153.209 5.81134C147.806 3.77422 143.781 5.81134 139.336 9.34848L127.349 18.1937C127.149 18.3389 127.168 18.4454 127.406 18.5131C127.649 18.5808 127.949 18.6147 128.316 18.6147C140.484 18.5857 152.652 18.547 164.82 18.5034C166.797 18.4986 168.65 18.5083 170.375 18.5373C171.037 18.547 171.089 18.3679 170.537 18.0002L167.883 16.2244C166.535 15.0002 164.386 14.134 165.744 11.7437C166.802 10.4614 167.988 10.6549 169.269 11.5888C172.519 13.955 175.754 16.3405 178.979 18.7454C181.066 20.2986 180.537 23.0615 177.831 23.0906C176.502 23.1051 175.168 23.1099 173.834 23.1051C173.695 23.1051 173.581 23.2164 173.581 23.3567C173.6 27.5955 173.6 31.8245 173.576 36.044C173.567 37.7907 172.814 38.7827 171.313 39.0198C169.803 38.8456 169.055 37.8972 169.06 36.1698C169.074 33.3197 169.103 30.4503 169.146 27.5616L169.122 23.3083C169.122 23.1632 169.05 23.0906 168.907 23.0906L129.126 23.1099C128.992 23.1099 128.926 23.1777 128.926 23.3083L128.902 68.2314C128.902 68.3911 129.021 68.5169 129.178 68.5218C129.178 68.5218 129.183 68.5218 129.188 68.5218L137.735 68.4588H157.769C157.869 68.4637 157.921 68.4105 157.921 68.3088C157.935 62.8459 157.94 57.3781 157.921 51.8958C157.916 49.699 157.692 48.0393 157.254 46.9118C155.186 41.623 148.626 39.523 143.971 42.8376C141.256 44.7682 139.922 47.507 139.974 51.0538C140.026 54.3877 140.05 57.7313 140.05 61.0894C140.05 62.8217 139.555 63.7023 137.859 63.9927C136.015 63.7072 135.615 62.5797 135.615 60.77C135.61 57.0829 135.61 53.3958 135.615 49.7135C135.624 46.9699 136.677 44.1876 138.778 41.3666C141.032 38.9037 143.714 37.4182 146.825 36.9101C149.726 36.4407 152.347 36.7988 154.696 37.9843C159.789 40.5634 162.342 44.8844 162.361 50.9377C162.38 56.6813 162.404 62.4346 162.433 68.2072C162.433 68.3766 162.518 68.4637 162.685 68.4637L168.85 68.4927C169.017 68.4927 169.098 68.4105 169.098 68.2411L169.084 63.6249C169.103 57.741 169.098 51.9345 169.069 46.2102C169.065 44.715 169.736 43.7908 171.085 43.4473C172.738 43.5973 173.562 44.5602 173.567 46.3263C173.591 53.6329 173.591 60.9442 173.557 68.2653C173.557 68.3766 173.648 68.4685 173.757 68.4685C175.825 68.4685 177.926 68.4685 180.065 68.483C181.642 68.4879 182.433 69.3105 182.443 70.946C182.495 81.2477 182.514 91.5543 182.495 101.856C182.495 103.622 181.699 104.624 180.118 104.851C178.726 104.575 178.031 103.821 178.031 102.582C178.031 92.7833 178.031 82.9848 178.031 73.1815C178.031 73.0702 177.978 73.017 177.874 73.017H128.664H120.255C120.074 73.017 119.983 73.1089 119.983 73.2928L120.007 131.822C120.007 131.91 120.078 131.982 120.164 131.982H177.788C177.926 131.977 178.036 131.866 178.036 131.726L178.045 125.106C178.017 120.756 178.017 116.43 178.05 112.134C178.064 110.537 178.56 109.492 180.161 109.245C182.076 109.438 182.519 110.59 182.514 112.434C182.509 119.619 182.505 126.805 182.5 133.981C182.5 135.611 181.685 136.429 180.056 136.434C159.45 136.516 138.845 136.535 118.239 136.497C115.814 136.497 115.476 135.35 115.495 133.105C115.514 131.034 115.514 128.968 115.49 126.906C115.49 126.742 115.405 126.66 115.248 126.655C112.284 126.621 110.378 126.616 109.535 126.635C106.238 126.722 106.553 124.637 106.562 121.918C106.6 112.438 106.596 102.964 106.548 93.4849C106.548 93.3882 106.467 93.3108 106.372 93.3156C106.315 93.3156 106.262 93.3446 106.234 93.393L99.2968 104.401C99.1634 104.614 99.2205 104.725 99.4683 104.74C100.94 104.817 102.008 105.282 102.041 107.063C102.093 110.087 102.108 113.111 102.084 116.135C102.07 117.601 101.26 118.337 99.6636 118.351C96.6669 118.376 93.6702 118.376 90.6735 118.361C90.5162 118.361 90.3924 118.429 90.3066 118.564C87.2003 123.49 84.0845 128.401 80.9639 133.298C79.2917 135.916 77.3193 136.477 74.1415 136.487C66.6235 136.511 59.1055 136.511 51.5923 136.492C50.5775 136.492 49.8533 136.352 49.4245 136.085C47.6522 134.987 48.4764 132.064 50.8776 131.968C58.7244 131.987 66.5949 131.987 74.4988 131.968C75.3659 131.968 76.4331 132.074 76.9429 131.276C90.1018 110.537 103.175 89.8897 116.162 69.3298C116.491 68.8121 117.053 68.4976 117.663 68.4927L124.319 68.4685C124.4 68.4685 124.438 68.4298 124.438 68.3476L124.428 64.1185C124.428 64.0023 124.371 63.9443 124.257 63.9443H120.274C118.454 63.9588 114.662 63.2959 113.509 65.1249C100.993 84.9155 88.4771 104.706 75.9614 124.501C74.6465 126.577 74.3321 127.545 71.9118 127.468C69.5916 127.395 64.8417 127.4 57.6524 127.468L50.8062 127.443C48.8099 127.361 48.5003 126.011 48.5003 124.201C48.5098 108.771 48.5003 93.3349 48.4669 77.9041C48.4621 76.3218 49.2673 75.417 50.8872 75.1944C52.2926 75.446 52.9977 76.4331 52.9977 78.1509C52.9739 93.0591 52.9691 107.948 52.9739 122.827C52.9739 122.895 53.0072 122.929 53.0739 122.929L57.3475 122.89C57.4094 122.89 57.438 122.861 57.438 122.798L57.3761 104.3C57.4094 79.9606 57.438 55.6555 57.4571 31.3891C57.4618 29.7487 57.3332 27.3293 54.9749 27.6826C53.6695 27.789 53.012 28.6019 53.0072 30.1261C52.9787 37.1569 52.9691 49.8973 52.9787 68.3476C52.9787 69.8427 52.2545 70.6556 50.8014 70.7863C49.2816 70.5831 48.5241 69.6879 48.5193 68.1056C48.4955 56.1587 48.4907 44.2118 48.5098 32.2649C48.5098 29.7632 48.7099 28.0406 49.1006 27.0874C50.6299 23.3374 55.3179 22.026 58.772 24.2374C61.7354 26.1293 61.9641 28.6745 61.9069 31.9455C61.9069 32.0713 62.0022 32.1729 62.126 32.1778C62.126 32.1778 62.126 32.1778 62.1308 32.1778H70.4968C70.6874 32.1778 70.8065 32.0858 70.8542 31.8971C71.4878 29.3084 74.6989 29.1971 75.2754 31.9165C75.3087 32.0665 75.4421 32.1778 75.5946 32.1778H92.8698C93.027 32.1778 93.1271 32.1004 93.1604 31.9407C93.7131 29.4148 97.1814 29.139 97.5102 31.7181C97.5435 31.9746 97.7579 32.1681 98.0152 32.1729L106.324 32.1875C106.491 32.1875 106.577 32.1052 106.577 31.9358C106.567 30.7068 106.51 29.4197 106.781 28.3068C107.93 23.6083 113.156 21.6583 117.134 24.3535C120.031 26.3132 119.931 29.0955 119.95 32.8939C119.983 38.7246 119.988 44.5505 119.964 50.3812C119.955 52.9361 120.236 54.828 117.22 54.9151C116.067 54.4555 115.49 53.6135 115.495 52.3796C115.519 45.0295 115.51 37.394 115.467 29.4777C115.462 28.5052 114.681 27.7213 113.718 27.7261C113.713 27.7261 113.709 27.7261 113.704 27.7261H113.199C111.736 27.7503 111.003 28.5003 111.007 29.9858L111.074 60.741C111.074 60.833 111.15 60.9104 111.241 60.9104C111.279 60.9104 111.312 60.8959 111.341 60.8717C113.118 59.4104 115.1 59.3329 117.577 59.3862L124.047 59.4055C124.304 59.4055 124.433 59.2797 124.433 59.0184V23.3519C124.438 23.2115 124.323 23.0954 124.18 23.0954C124.18 23.0954 124.18 23.0954 124.176 23.0954C122.637 23.1244 121.098 23.1196 119.554 23.0761C117.844 23.0277 117.025 20.3228 118.673 19.0938C124.943 14.4147 131.222 9.75009 137.511 5.10004C140.041 3.22744 142.066 2.01775 143.581 1.46613C148.95 -0.493574 154.143 0.575794 158.831 3.83228C160.961 5.30811 163.386 6.53715 162.218 9.1646H162.228ZM70.8256 36.8569C70.8256 36.7601 70.7446 36.6778 70.6493 36.6778L62.0832 36.6923C61.9879 36.6923 61.9069 36.7746 61.9069 36.8714L61.9164 41.0811C61.9164 41.1779 61.9974 41.2601 62.0927 41.2601L70.6588 41.2456C70.7541 41.2456 70.8351 41.1634 70.8351 41.0666L70.8256 36.8569ZM93.1795 36.9488C93.1795 36.8278 93.0842 36.7311 92.9651 36.7311H75.4993C75.3802 36.7311 75.2849 36.8278 75.2849 36.9488V41.0327C75.2849 41.1537 75.3802 41.2505 75.4993 41.2505H92.9651C93.0842 41.2505 93.1795 41.1537 93.1795 41.0327V36.9488ZM97.6483 37.6166L97.6626 41.0279C97.6626 41.1827 97.7436 41.2601 97.8913 41.2601L105.743 41.2505C106.295 41.2505 106.572 40.965 106.572 40.4085V37.4182C106.572 36.8617 106.305 36.6053 105.757 36.6391L103.513 36.7794L97.8913 36.6923C97.7246 36.6923 97.6245 36.7698 97.5864 36.9343C97.5435 37.152 97.5626 37.3795 97.6483 37.6166ZM66.3996 107.067C66.4139 104.648 68.877 104.571 70.5445 104.798C70.6922 104.817 70.8256 104.711 70.8446 104.561C70.8446 104.551 70.8446 104.542 70.8446 104.532V46.0554C70.8446 45.8667 70.7541 45.7747 70.5683 45.7747L62.1927 45.7602C62.0355 45.7602 61.9069 45.8908 61.9069 46.0505V122.668C61.9069 122.832 61.9879 122.914 62.1451 122.914H71.4163C71.545 122.909 71.6403 122.856 71.7117 122.745L74.3368 118.724C74.4035 118.618 74.3749 118.477 74.2749 118.409C74.2368 118.385 74.1939 118.371 74.1463 118.371C72.231 118.39 70.4063 118.376 68.6674 118.327C66.7712 118.274 66.4043 117.137 66.39 115.38C66.371 112.603 66.371 109.83 66.39 107.067H66.3996ZM83.0649 104.764C83.1126 104.764 83.1602 104.74 83.1888 104.696L93.1414 88.9704C93.1556 88.9462 93.1652 88.9172 93.1652 88.8881V45.9199C93.1699 45.8376 93.1032 45.7699 93.0222 45.7699H75.466C75.385 45.7699 75.3183 45.8376 75.3183 45.9199V104.614C75.3135 104.696 75.3802 104.764 75.4612 104.764H83.0649ZM97.6436 81.3058C97.6436 81.3977 97.7198 81.4751 97.8151 81.4703C97.8675 81.4703 97.9199 81.4413 97.9485 81.3977L106.548 67.8056C106.567 67.7766 106.577 67.7476 106.577 67.7137V45.9344C106.577 45.8425 106.5 45.765 106.41 45.765L97.8103 45.7941C97.7198 45.7941 97.6436 45.8715 97.6436 45.9634V81.3058ZM115.514 79.3267C115.514 79.2445 115.452 79.1816 115.371 79.1816C115.324 79.1816 115.276 79.2058 115.252 79.2445L111.069 85.8252C111.069 85.8252 111.045 85.8736 111.045 85.9026L111.103 121.922C111.103 122 111.165 122.063 111.241 122.068L115.352 122.15C115.433 122.15 115.495 122.092 115.5 122.009C115.5 122.009 115.5 122.009 115.5 122.005L115.514 79.3267ZM93.7083 112.995C93.5416 113.237 93.6035 113.576 93.8417 113.74C93.9322 113.803 94.037 113.837 94.1466 113.837L97.1004 113.817C97.3911 113.817 97.6245 113.576 97.6245 113.28L97.6388 109.642C97.6388 109.346 97.4054 109.104 97.1147 109.1C97.0337 109.1 96.9528 109.119 96.8813 109.153L96.1762 109.496C96.0904 109.535 96.019 109.598 95.9666 109.675L93.7083 112.995ZM77.324 113.784C77.3717 113.784 77.4145 113.755 77.4431 113.716L80.1254 109.554C80.1683 109.487 80.1492 109.39 80.0825 109.346C80.0587 109.332 80.0349 109.322 80.0063 109.322L70.9209 109.187C70.8399 109.187 70.7732 109.254 70.7732 109.337C70.7732 109.337 70.7732 109.337 70.7732 109.342L70.8684 113.755C70.8684 113.837 70.9399 113.905 71.0209 113.9L77.324 113.784Z" fill="#231F20"/>
<path d="M162.228 9.16457L165.744 11.7436C164.386 14.134 166.535 15.0001 167.883 16.2243C160.008 16.4034 154.719 16.4566 152.013 16.3937C146.696 16.2679 142.47 13.9211 139.336 9.34844C143.781 5.8113 147.806 3.77418 153.209 5.8113C155.034 6.4984 156.839 7.97907 158.521 9.20811C159.841 10.1759 161.07 10.4081 162.228 9.16457Z" fill="#FE8C7C"/>
<path d="M139.336 9.34839C142.47 13.921 146.696 16.2678 152.013 16.3936C154.719 16.4565 160.008 16.4033 167.883 16.2243L170.537 18.0001C171.089 18.3679 171.037 18.5469 170.375 18.5372C168.65 18.5082 166.797 18.4985 164.82 18.5033C152.652 18.5469 140.484 18.5856 128.316 18.6146C127.949 18.6146 127.649 18.5808 127.406 18.513C127.168 18.4453 127.149 18.3388 127.349 18.1937L139.336 9.34839Z" fill="#E15D5F"/>
<path d="M169.146 27.5665C167.349 27.8326 166.087 28.5681 165.348 29.7778C164.905 30.5084 164.681 31.8294 164.667 33.7407C164.624 41.4295 164.6 49.1135 164.605 56.8023C164.605 59.8459 166.392 62.4008 169.093 63.6298L169.107 68.246C169.107 68.4153 169.026 68.4976 168.86 68.4976L162.695 68.4686C162.528 68.4686 162.447 68.3815 162.442 68.2121C162.414 62.4395 162.39 56.6862 162.371 50.9426C162.352 44.8893 159.798 40.5682 154.705 37.9892C152.356 36.8037 149.736 36.4456 146.835 36.915C143.723 37.423 141.041 38.9085 138.788 41.3715C135.548 43.1763 133.347 45.7215 132.189 48.9974C131.346 51.3684 131.012 53.9813 131.179 56.8313C131.46 61.5685 133.823 62.9911 137.787 64.5105C137.983 65.7637 137.963 67.0799 137.735 68.4637L129.188 68.5266C129.03 68.5266 128.907 68.4057 128.902 68.246C128.902 68.246 128.902 68.2412 128.902 68.2363L128.926 23.3132C128.926 23.1826 128.992 23.1148 129.126 23.1148L168.907 23.0955C169.05 23.0955 169.122 23.168 169.122 23.3132L169.146 27.5665ZM137.816 29.9036C137.816 28.66 136.82 27.6487 135.596 27.6487C134.371 27.6487 133.375 28.66 133.375 29.9036C133.375 31.1472 134.371 32.1585 135.596 32.1585C136.82 32.1585 137.816 31.1472 137.816 29.9036ZM164.605 29.923C164.605 28.6746 163.605 27.6584 162.376 27.6584C161.146 27.6584 160.146 28.6746 160.146 29.923C160.146 31.1714 161.146 32.1875 162.376 32.1875C163.605 32.1875 164.605 31.1714 164.605 29.923Z" fill="#20BFFD"/>
<path d="M117.229 54.9199C117.658 55.5005 117.858 56.0667 117.834 56.6231C117.773 57.857 117.692 58.7812 117.587 59.3909C115.109 59.3377 113.127 59.4151 111.35 60.8764C111.284 60.9345 111.179 60.9248 111.122 60.8522C111.098 60.8232 111.084 60.7845 111.084 60.7458L111.017 29.9906C111.017 28.5051 111.746 27.7551 113.208 27.7357H113.713C114.676 27.7163 115.462 28.4954 115.476 29.468C115.476 29.4728 115.476 29.4777 115.476 29.4825C115.519 37.3987 115.529 45.0343 115.505 52.3844C115.505 53.6183 116.076 54.4602 117.229 54.9199Z" fill="#F7B543"/>
<path d="M135.596 32.1584C136.822 32.1584 137.816 31.1489 137.816 29.9035C137.816 28.6582 136.822 27.6487 135.596 27.6487C134.369 27.6487 133.375 28.6582 133.375 29.9035C133.375 31.1489 134.369 32.1584 135.596 32.1584Z" fill="#464A4F"/>
<path d="M169.146 27.5664C169.103 30.4551 169.074 33.3245 169.06 36.1746C169.055 37.902 169.803 38.8504 171.313 39.0246L171.094 43.4521C169.746 43.7956 169.074 44.7198 169.079 46.215C169.107 51.9393 169.112 57.7458 169.093 63.6297C166.392 62.4007 164.605 59.8458 164.605 56.8022C164.605 49.1134 164.624 41.4295 164.667 33.7407C164.681 31.8294 164.905 30.5084 165.348 29.7777C166.087 28.568 167.349 27.8325 169.146 27.5664Z" fill="#A2DBFD"/>
<path d="M54.9844 27.6875L54.6557 28.2198C54.5652 28.3698 54.5937 28.4907 54.7414 28.5827C54.832 28.6359 54.8605 28.7327 54.8367 28.8682C54.8034 29.0278 54.8224 29.1827 54.8891 29.3327C55.2036 30.0537 55.3036 30.9246 55.1893 31.9408C54.9701 33.9053 55.0082 36.1118 55.3036 38.565C55.5514 40.6312 55.2464 42.7603 55.2512 44.7587C55.2512 50.1249 55.1607 55.4911 54.9749 60.8524C54.9558 61.404 55.1702 62.154 55.175 62.7928C55.2036 68.3235 54.9939 73.9219 55.2131 79.4381C55.256 80.5172 55.2464 81.5914 55.1893 82.6607C54.9749 86.4398 55.2798 90.335 55.1416 93.6351C55.013 96.6883 55.2369 99.5529 55.8134 102.229C55.942 102.805 56.4661 103.496 57.3856 104.305L57.4475 122.803C57.4475 122.866 57.4189 122.895 57.357 122.895L53.0835 122.934C53.0168 122.934 52.9834 122.9 52.9834 122.832C52.9787 107.953 52.9834 93.0641 53.0072 78.1558C53.0072 76.4381 52.3021 75.451 50.8967 75.1994C50.8919 74.4735 50.6156 73.9074 50.6823 73.1719C50.7538 72.3735 50.7966 71.58 50.8109 70.7912C52.264 70.6606 52.9882 69.8477 52.9882 68.3525C52.9787 49.9023 52.9882 37.1618 53.0168 30.1311C53.0215 28.6069 53.679 27.794 54.9844 27.6875Z" fill="#F7B543"/>
<path d="M54.9844 27.6873C57.3427 27.3341 57.4713 29.7535 57.4666 31.3938C57.4475 55.6602 57.4189 79.9653 57.3856 104.304C56.4661 103.496 55.942 102.804 55.8134 102.229C55.2369 99.5527 55.013 96.6881 55.1416 93.6349C55.2798 90.3348 54.9749 86.4396 55.1893 82.6605C55.2464 81.5912 55.256 80.517 55.2131 79.4379C54.9939 73.9217 55.2036 68.3233 55.175 62.7926C55.1702 62.1538 54.9558 61.4038 54.9749 60.8522C55.1607 55.4909 55.2512 50.1247 55.2512 44.7585C55.2464 42.7601 55.5513 40.631 55.3036 38.5649C55.0082 36.1116 54.9701 33.9051 55.1893 31.9406C55.3036 30.9245 55.2036 30.0535 54.8891 29.3325C54.8224 29.1825 54.8034 29.0277 54.8367 28.868C54.8605 28.7325 54.8319 28.6357 54.7414 28.5825C54.5937 28.4906 54.5651 28.3696 54.6557 28.2196L54.9844 27.6873Z" fill="#F5D334"/>
<path d="M162.376 32.1875C163.607 32.1875 164.605 31.1737 164.605 29.923C164.605 28.6723 163.607 27.6584 162.376 27.6584C161.144 27.6584 160.146 28.6723 160.146 29.923C160.146 31.1737 161.144 32.1875 162.376 32.1875Z" fill="#464A4F"/>
<path d="M70.6504 36.6813L62.0842 36.6965C61.9869 36.6966 61.9081 36.7769 61.9083 36.8758L61.9155 41.0855C61.9157 41.1844 61.9947 41.2644 62.0921 41.2643L70.6582 41.2491C70.7556 41.2489 70.8343 41.1686 70.8342 41.0697L70.8269 36.86C70.8268 36.7611 70.7477 36.6811 70.6504 36.6813Z" fill="#F8973B"/>
<path d="M92.9651 36.731H75.4993C75.3809 36.731 75.2849 36.8284 75.2849 36.9487V41.0326C75.2849 41.1529 75.3809 41.2504 75.4993 41.2504H92.9651C93.0835 41.2504 93.1795 41.1529 93.1795 41.0326V36.9487C93.1795 36.8284 93.0835 36.731 92.9651 36.731Z" fill="#F8973B"/>
<path d="M103.513 36.7794C102.355 38.3327 100.764 39.0149 98.7346 38.8359C97.9628 38.7633 97.8103 38.294 97.6483 37.6165C97.5626 37.3794 97.5435 37.152 97.5864 36.9343C97.6245 36.7698 97.7246 36.6875 97.8913 36.6923L103.513 36.7794Z" fill="#F7B543"/>
<path d="M97.6483 37.6166C97.8103 38.294 97.9628 38.7634 98.7346 38.836C100.764 39.015 102.355 38.3328 103.513 36.7795L105.757 36.6392C106.305 36.6053 106.577 36.8618 106.577 37.4182V40.4086C106.577 40.9651 106.295 41.2457 105.743 41.2505L97.8913 41.2602C97.7436 41.2602 97.6674 41.1828 97.6626 41.028L97.6483 37.6166Z" fill="#F8973B"/>
<path d="M138.788 41.3713C136.687 44.1923 135.634 46.9746 135.624 49.7182C135.615 53.4005 135.615 57.0877 135.624 60.7748C135.624 62.5845 136.024 63.7119 137.868 63.9974L137.792 64.5103C133.828 62.991 131.465 61.5683 131.184 56.8312C131.017 53.9812 131.351 51.3682 132.194 48.9972C133.352 45.7214 135.553 43.1762 138.792 41.3713H138.788Z" fill="#A2DBFD"/>
<path d="M120.283 63.9492L120.831 63.9831C121.069 63.9976 121.246 64.2056 121.231 64.4476C121.227 64.554 121.179 64.6556 121.103 64.7282C119.683 66.1073 118.235 66.0976 116.458 66.3637C115.471 66.5089 114.199 68.0428 113.547 69.0831C111.484 72.3493 110.088 74.5412 109.349 75.6493C108.33 77.1832 107.363 78.901 106.577 80.0961C103.103 85.3849 99.6827 90.7027 96.3048 96.0592C94.2991 99.2431 92.179 102.432 90.3066 105.693C89.1727 107.663 87.8292 109.255 86.5095 111.626C85.1088 114.137 83.3079 116.489 81.8262 119.029C81.2545 120.006 80.4398 120.964 79.9634 121.787C78.5246 124.26 77.081 126.674 75.6327 129.031C75.3707 129.461 74.9085 129.723 74.4131 129.732C70.1205 129.805 65.785 129.766 61.4114 129.616C59.9392 129.563 58.691 128.852 57.6619 127.473C64.8512 127.4 69.6012 127.395 71.9213 127.473C74.3416 127.55 74.656 126.582 75.971 124.506C88.4867 104.711 101.002 84.9204 113.518 65.1298C114.671 63.3008 118.463 63.9637 120.283 63.954V63.9492Z" fill="#C5E99E"/>
<path d="M50.8871 131.968L50.8157 127.448L57.6619 127.473C58.691 128.852 59.9392 129.563 61.4114 129.616C65.785 129.766 70.1204 129.805 74.413 129.732C74.9085 129.723 75.3707 129.461 75.6327 129.031C77.081 126.674 78.5246 124.26 79.9634 121.787C80.4398 120.964 81.2545 120.006 81.8262 119.029C83.3079 116.489 85.1088 114.137 86.5095 111.626C87.8292 109.255 89.1727 107.663 90.3066 105.693C92.179 102.432 94.2991 99.2432 96.3048 96.0593C99.6827 90.7028 103.103 85.385 106.577 80.0962C107.363 78.901 108.33 77.1832 109.349 75.6494C110.088 74.5413 111.484 72.3493 113.547 69.0832C114.199 68.0428 115.471 66.5089 116.458 66.3638C118.235 66.0976 119.683 66.1073 121.103 64.7283C121.27 64.5589 121.274 64.2831 121.108 64.1137C121.036 64.0363 120.936 63.9928 120.831 63.9831L120.283 63.9492H124.266C124.381 63.9492 124.438 64.0024 124.438 64.1186L124.447 68.3477C124.447 68.4299 124.409 68.4686 124.328 68.4686L117.673 68.4928C117.063 68.4928 116.5 68.8122 116.172 69.3299C103.184 89.8898 90.1113 110.537 76.9524 131.276C76.4426 132.074 75.3754 131.968 74.5083 131.968C66.6044 131.987 58.7339 131.987 50.8871 131.968Z" fill="#93B87E"/>
<path d="M128.673 73.0171C130.503 76.5978 133.261 79.5446 137.449 79.6317C146.477 79.8156 155.505 79.7139 164.534 79.8107C168.574 79.8591 171.613 83.3721 171.447 87.3979C171.28 91.3657 171.494 95.7932 171.451 99.2626C171.39 104.058 171.39 108.848 171.461 113.643C171.523 117.751 171.332 119.508 173.848 122.198C175.206 123.645 176.606 124.613 178.055 125.106L178.045 131.726C178.045 131.866 177.936 131.977 177.797 131.977H120.174C120.088 131.982 120.017 131.91 120.017 131.823L119.993 73.2929C119.993 73.109 120.083 73.0171 120.264 73.0171H128.673ZM128.902 79.8107C128.902 78.5526 127.901 77.5365 126.663 77.5365C125.424 77.5365 124.423 78.5526 124.423 79.8107C124.423 81.0688 125.424 82.0849 126.663 82.0849C127.901 82.0849 128.902 81.0688 128.902 79.8107ZM137.83 92.5947L134.795 95.6287C133.352 95.1835 132.242 95.6528 131.475 97.0367C125.4 107.977 130.56 122.16 142.318 126.277C156.944 131.406 171.223 119.005 168.803 103.68C168.188 99.8045 166.697 96.4996 164.329 93.7657C159.655 88.3802 153.671 86.0866 146.372 86.8947C143.471 87.214 141.003 88.0415 138.974 89.3818C137.773 90.1705 137.392 91.2399 137.83 92.5947ZM128.902 125.16C128.902 123.911 127.901 122.895 126.672 122.895C125.443 122.895 124.443 123.911 124.443 125.16C124.443 126.408 125.443 127.424 126.672 127.424C127.901 127.424 128.902 126.408 128.902 125.16ZM173.562 125.179C173.562 123.935 172.571 122.929 171.347 122.929C170.122 122.929 169.131 123.935 169.131 125.179C169.131 126.423 170.122 127.429 171.347 127.429C172.571 127.429 173.562 126.423 173.562 125.179Z" fill="#E15D5F"/>
<path d="M180.127 104.856L180.17 109.245C178.569 109.492 178.074 110.537 178.059 112.134C178.026 116.431 178.026 120.756 178.055 125.106C176.606 124.613 175.206 123.645 173.848 122.198C171.332 119.508 171.523 117.751 171.461 113.643C171.39 108.848 171.39 104.058 171.451 99.2626C171.494 95.7932 171.28 91.3657 171.447 87.3979C171.613 83.3721 168.574 79.8591 164.534 79.8107C155.505 79.7139 146.477 79.8156 137.449 79.6317C133.261 79.5446 130.503 76.5978 128.673 73.0171H177.883C177.988 73.0171 178.04 73.0752 178.04 73.1864C178.04 82.9898 178.04 92.7883 178.04 102.587C178.04 103.826 178.736 104.58 180.127 104.856ZM173.572 79.7962C173.572 78.5526 172.576 77.5413 171.351 77.5413C170.127 77.5413 169.131 78.5526 169.131 79.7962C169.131 81.0398 170.127 82.0511 171.351 82.0511C172.576 82.0511 173.572 81.0398 173.572 79.7962Z" fill="#FE8C7C"/>
<path d="M126.663 82.0848C127.899 82.0848 128.902 81.0666 128.902 79.8106C128.902 78.5546 127.899 77.5364 126.663 77.5364C125.426 77.5364 124.423 78.5546 124.423 79.8106C124.423 81.0666 125.426 82.0848 126.663 82.0848Z" fill="#53424E"/>
<path d="M171.351 82.051C172.578 82.051 173.572 81.0415 173.572 79.7961C173.572 78.5508 172.578 77.5413 171.351 77.5413C170.125 77.5413 169.131 78.5508 169.131 79.7961C169.131 81.0415 170.125 82.051 171.351 82.051Z" fill="#53424E"/>
<path d="M115.514 79.3268L115.5 122.005C115.5 122.087 115.438 122.15 115.357 122.15C115.357 122.15 115.357 122.15 115.352 122.15L111.241 122.068C111.165 122.068 111.103 122 111.103 121.922L111.045 85.9027C111.045 85.8737 111.055 85.8495 111.069 85.8253L115.252 79.2445C115.295 79.1768 115.386 79.1574 115.452 79.2058C115.495 79.2349 115.519 79.2784 115.514 79.3268Z" fill="#F7B543"/>
<path d="M134.795 95.6285C136.024 96.8865 136.115 97.8349 135.276 99.4608C129.397 110.866 138.192 124.438 150.951 122.851C163.395 121.298 169.06 106.322 160.875 96.6446C157.607 92.7833 152.761 90.872 147.721 91.1816C145.886 91.2978 144.357 91.68 143.142 92.3284C141.013 93.4655 139.707 94.4139 137.83 92.5946C137.392 91.2397 137.773 90.1703 138.974 89.3816C141.003 88.0413 143.471 87.2138 146.372 86.8945C153.671 86.0864 159.655 88.38 164.329 93.7655C166.697 96.4994 168.188 99.8043 168.803 103.68C171.223 119.005 156.944 131.406 142.318 126.277C130.56 122.159 125.4 107.977 131.475 97.0365C132.242 95.6527 133.352 95.1833 134.795 95.6285Z" fill="#464A4F"/>
<path d="M93.7083 112.995L95.9666 109.676C96.019 109.598 96.0904 109.535 96.1762 109.496L96.8813 109.153C97.1433 109.022 97.4625 109.138 97.5864 109.405C97.6197 109.477 97.6388 109.559 97.6388 109.642L97.6245 113.28C97.6245 113.576 97.3911 113.813 97.1004 113.818L94.1466 113.837C93.856 113.837 93.6178 113.6 93.613 113.305C93.613 113.193 93.6464 113.087 93.7083 112.995Z" fill="#2C9DF4"/>
<path d="M77.324 113.784L71.0209 113.9C70.9399 113.9 70.8732 113.837 70.8684 113.755L70.7732 109.342C70.7732 109.259 70.8351 109.192 70.9161 109.187C70.9161 109.187 70.9161 109.187 70.9209 109.187L80.0063 109.322C80.0873 109.322 80.154 109.395 80.1492 109.477C80.1492 109.506 80.1397 109.53 80.1254 109.555L77.4431 113.716C77.4145 113.755 77.3717 113.784 77.324 113.784Z" fill="#2C9DF4"/>
<path d="M126.672 127.424C127.904 127.424 128.902 126.41 128.902 125.16C128.902 123.909 127.904 122.895 126.672 122.895C125.441 122.895 124.443 123.909 124.443 125.16C124.443 126.41 125.441 127.424 126.672 127.424Z" fill="#53424E"/>
<path d="M171.347 127.429C172.57 127.429 173.562 126.422 173.562 125.179C173.562 123.936 172.57 122.929 171.347 122.929C170.123 122.929 169.131 123.936 169.131 125.179C169.131 126.422 170.123 127.429 171.347 127.429Z" fill="#53424E"/>
</g>
<g clip-path="url(#clip1_227_46)" filter="url(#filter0_i_227_46)">
<path d="M91.9939 159.868C92.3626 157.58 90.8204 155.424 88.5493 155.052C86.2783 154.681 84.1384 156.235 83.7698 158.523C83.4011 160.811 84.9433 162.967 87.2144 163.338C89.4854 163.709 91.6253 162.156 91.9939 159.868Z" fill="#E15D5F"/>
<path d="M75.6719 194.893C75.6719 195.33 75.3086 195.678 74.8751 195.672C74.8633 195.672 74.8516 195.672 74.8399 195.672L68.6057 195.312C68.1662 195.288 67.8088 194.94 67.7737 194.503C67.3577 189.763 67.8264 184.922 67.9787 180.182C68.2014 173.075 68.6174 165.909 69.2268 158.678C69.2736 158.146 69.1799 157.627 69.01 157.137C68.7873 156.482 69.133 155.767 69.7834 155.537C69.8889 155.502 70.0002 155.478 70.1115 155.472C72.1036 155.348 74.1075 155.602 76.1231 156.234C76.2813 156.281 76.375 156.387 76.3926 156.558C76.791 159.799 76.2344 162.951 76.1641 166.074C76.0586 170.602 75.795 175.106 75.795 179.521C75.795 184.728 75.7481 189.852 75.6719 194.893Z" fill="#E15D5F"/>
<path d="M135.916 166.912C137.411 166.588 138.922 166.546 140.446 166.782C140.639 166.812 140.791 166.906 140.903 167.06C141.811 168.288 141.196 172.467 140.961 173.795C140.92 174.014 140.733 174.167 140.522 174.167L136.086 174.155C135.465 174.155 135.143 174.468 135.12 175.1C134.985 179.191 134.768 184.315 136.778 187.791C137.557 189.149 138.612 190.147 139.614 191.369C139.748 191.54 139.754 191.711 139.631 191.888C138.6 193.358 137.493 194.657 136.315 195.784C135.553 196.51 134.563 196.729 133.596 196.31C125.018 192.579 126.313 182.402 126.483 174.917C126.495 174.338 126.044 173.86 125.469 173.848C125.452 173.848 125.434 173.848 125.417 173.848L120.923 173.967C120.208 173.984 119.786 173.636 119.651 172.928C119.311 171.139 120.003 168.058 120.39 166.293C120.46 165.968 120.759 165.738 121.093 165.755L126.764 166.086C127.063 166.104 127.321 165.873 127.339 165.566C127.339 165.549 127.339 165.531 127.339 165.513C127.192 162.627 127.462 159.658 128.159 156.6C128.241 156.234 128.581 155.986 128.95 156.015C130.684 156.151 132.518 156.364 134.458 156.641C135.178 156.747 135.805 156.789 135.899 157.733C136.18 160.555 135.788 163.79 135.53 166.564C135.5 166.859 135.629 166.977 135.916 166.912Z" fill="#E15D5F"/>
<path d="M10.9568 172.361C8.43728 176.741 8.15018 182.042 12.8083 185.011C16.6871 187.473 21.8842 186.404 25.5228 183.86C25.8099 183.653 26.2083 183.724 26.4134 184.019C26.4134 184.025 26.4251 184.037 26.431 184.043C28.0423 186.558 29.4075 189.196 30.5324 191.953C30.6086 192.142 30.5676 192.301 30.4094 192.425C26.4661 195.625 22.2768 195.513 17.4605 195.277C13.1715 195.064 9.13453 192.827 5.75962 190.07C0.767556 185.997 -0.416008 180.678 0.117182 174.551C1.06052 163.654 9.80249 156.068 20.7006 157.178C22.1186 157.326 23.4545 157.845 24.7142 158.743C25.013 158.955 25.1771 159.309 25.1361 159.675C24.8724 162.137 24.4213 164.651 23.7885 167.219C23.6244 167.886 23.2025 168.199 22.517 168.152C18.2632 167.875 13.2008 168.465 10.9568 172.361Z" fill="#E15D5F"/>
<path d="M106.896 188.701C107.851 186.983 106.45 185.601 105.238 184.149C103.404 181.965 100.861 179.551 99.6713 177.349C96.8296 172.101 99.2905 166.399 104.242 163.819C106.509 162.639 109.111 162.503 112.052 163.406C113.862 163.961 115.181 164.858 116.013 166.098C116.147 166.298 116.147 166.499 116.019 166.7L113.54 170.69C113.37 170.962 113.019 171.045 112.749 170.873C112.749 170.873 112.743 170.873 112.737 170.867C111.284 169.917 110.177 168.819 108.279 168.849C106.286 168.884 105.279 171.115 106.017 172.815C108.87 179.368 117.061 181.599 114.097 190.483C113.675 191.752 113.136 192.721 112.485 193.376C110.552 195.33 108.114 196.339 105.167 196.392C103.65 196.422 102.103 196.038 100.521 195.229C98.7807 194.35 97.269 193.482 95.98 192.638C95.6812 192.437 95.5874 192.042 95.7691 191.729C96.6304 190.218 97.7202 188.701 99.0327 187.178C99.1791 187.006 99.3549 186.971 99.56 187.071C101.206 187.886 105.302 191.552 106.896 188.701Z" fill="#E15D5F"/>
<path d="M153.371 171.546C152.768 175.873 152.48 179.327 152.504 181.906C152.51 183.181 152.967 184.616 153.863 186.21C155.299 188.754 158.029 189.208 159.992 186.965C161.117 185.678 161.627 184.456 161.855 182.674C162.435 178.234 162.752 173.695 162.804 169.049C162.81 168.276 163.203 167.81 163.976 167.65C165.634 167.314 167.369 166.954 169.179 166.57C169.625 166.476 170.07 166.724 170.234 167.149C170.849 168.772 171.078 170.537 170.919 172.444C170.668 175.525 170.351 178.701 169.976 181.977C169.701 184.344 169.045 186.593 168.007 188.736C164.838 195.247 159.664 197.49 152.492 195.46C149.469 194.604 146.903 192.042 145.865 188.889C144.805 185.649 144.36 182.685 144.53 180.005C144.723 176.989 145.063 173.813 145.555 170.49C145.672 169.705 145.86 168.949 146.112 168.223C146.246 167.857 146.574 167.597 146.961 167.556C148.994 167.355 151.051 167.491 153.119 167.963C153.383 168.022 153.57 168.258 153.576 168.53C153.582 169.527 153.518 170.531 153.371 171.546Z" fill="#E15D5F"/>
<path d="M54.6549 173.052L55.2291 168.5C55.3228 167.751 55.9439 167.178 56.6939 167.154L61.0004 167.007C61.6977 166.983 62.2777 167.532 62.3012 168.235C62.3012 168.246 62.3012 168.252 62.3012 168.264C62.3129 169.964 62.4652 171.771 62.4301 173.441C62.2953 179.669 62.1078 185.926 61.8734 192.213C61.85 192.868 61.3285 193.399 60.6782 193.435L54.1158 193.765C53.817 193.777 53.5651 193.553 53.5475 193.252L53.3248 189.781C53.319 189.639 53.1959 189.533 53.0553 189.545C52.9909 189.545 52.9323 189.574 52.8912 189.621C47.905 194.757 42.3622 195.353 36.2569 191.404C35.5128 190.92 34.798 190.058 34.1007 188.813C29.5891 180.714 34.6456 171.765 42.831 169.032C47.4304 167.503 51.2741 169.923 54.3912 173.14C54.4557 173.199 54.5553 173.199 54.6139 173.14C54.6373 173.116 54.649 173.087 54.6549 173.052ZM46.4344 186.038C48.8601 185.348 50.4362 183.866 51.1628 181.593C52.1413 178.53 51.0925 176.824 48.0164 176.469C46.1707 176.257 44.6766 176.694 43.5341 177.78C40.9794 180.218 40.874 182.674 43.2177 185.153C44.1141 186.097 45.1864 186.392 46.4344 186.038Z" fill="#E15D5F"/>
<path d="M83.1884 169.48L82.1656 193.081C82.1289 193.928 82.7805 194.645 83.6211 194.682L89.0767 194.922C89.9172 194.959 90.6284 194.302 90.6651 193.455L91.6879 169.854C91.7246 169.007 91.0729 168.29 90.2324 168.253L84.7768 168.013C83.9362 167.977 83.2251 168.633 83.1884 169.48Z" fill="#E15D5F"/>
<path d="M183.03 173.11C183.165 174.055 183.464 174.108 183.921 173.276C184.97 171.369 186.558 169.929 188.691 168.943C192.376 167.243 196.911 168.925 199.044 172.219C199.923 173.577 200.532 175.424 200.878 177.762C201.61 182.744 201.188 187.36 201.218 192.354C201.218 192.549 201.124 192.679 200.936 192.732C198.733 193.358 196.208 193.942 193.366 194.48C192.892 194.568 192.657 194.373 192.663 193.883C192.722 190.206 192.563 186.546 192.188 182.904C191.989 180.991 191.603 178.512 189.335 178.276C186.06 177.933 184.917 180.867 184.589 183.577C184.173 187.018 183.863 190.418 183.652 193.777C183.564 195.235 182.808 195.967 181.384 195.973C179.38 195.979 177.529 195.802 175.835 195.43C175.49 195.353 175.249 195.04 175.267 194.686L176.585 170.377C176.603 170.088 176.744 169.905 177.019 169.828L181.865 168.447C182.128 168.37 182.322 168.465 182.433 168.719C183.118 170.23 182.808 171.558 183.03 173.11Z" fill="#E15D5F"/>
<path d="M223.981 189.008C219.563 192.544 213.815 192.425 209.403 188.978C205.905 186.251 204.645 182.638 205.624 178.14C206.45 174.339 208.524 171.712 211.852 170.259C215.104 168.837 218.133 169.156 220.946 171.21C221.215 171.411 221.59 171.352 221.789 171.08C221.824 171.033 221.854 170.98 221.871 170.921C222.281 169.758 223.067 169.108 224.227 168.973C225.803 168.79 227.209 168.766 228.451 168.89C228.668 168.914 228.82 169.026 228.902 169.232C229.242 170.088 229.477 170.956 229.6 171.847C230.367 177.39 230.836 182.662 230.994 187.662C231.07 190.106 230.607 192.933 229.605 196.15C228.721 199.007 227.449 201.28 225.791 202.968C222.287 206.551 217.202 207.974 212.432 206.298C210.165 205.501 207.727 204.781 205.987 203.063C205.817 202.892 205.782 202.626 205.905 202.419L208.688 197.632C208.975 197.13 209.614 196.959 210.112 197.254C210.135 197.266 210.159 197.284 210.182 197.295C214.559 200.336 221.268 200.324 223.383 194.45C223.94 192.898 224.215 191.121 224.203 189.12C224.203 188.925 224.127 188.89 223.981 189.008ZM216.106 183.978C217.782 185.112 220.096 184.592 221.274 182.821C222.457 181.05 222.059 178.695 220.383 177.562C218.707 176.428 216.393 176.948 215.215 178.719C214.032 180.489 214.43 182.845 216.106 183.978Z" fill="#E15D5F"/>
</g>
<defs>
<filter id="filter0_i_227_46" x="0" y="155" width="231" height="56" filterUnits="userSpaceOnUse" color-interpolation-filters="sRGB">
<feFlood flood-opacity="0" result="BackgroundImageFix"/>
<feBlend mode="normal" in="SourceGraphic" in2="BackgroundImageFix" result="shape"/>
<feColorMatrix in="SourceAlpha" type="matrix" values="0 0 0 0 0 0 0 0 0 0 0 0 0 0 0 0 0 0 127 0" result="hardAlpha"/>
<feOffset dy="4"/>
<feGaussianBlur stdDeviation="2"/>
<feComposite in2="hardAlpha" operator="arithmetic" k2="-1" k3="1"/>
<feColorMatrix type="matrix" values="0 0 0 0 0 0 0 0 0 0 0 0 0 0 0 0 0 0 0.25 0"/>
<feBlend mode="normal" in2="shape" result="effect1_innerShadow_227_46"/>
</filter>
<clipPath id="clip0_227_46">
<rect width="135" height="137" fill="white" transform="translate(48)"/>
</clipPath>
<clipPath id="clip1_227_46">
<rect width="231" height="52" fill="white" transform="translate(0 155)"/>
</clipPath>
</defs>
</svg>
