<svg width="194" height="164" viewBox="0 0 194 164" fill="none" xmlns="http://www.w3.org/2000/svg">
<g clip-path="url(#clip0_228_67)">
<path d="M57.9597 41.3773C56.1447 42.6023 50.8626 45.5864 48.7813 44.7736C47.151 44.1292 47.4825 41.6269 48.4172 40.5529C50.7485 37.8532 53.721 36.2334 56.7207 34.5556C56.8892 34.4627 56.9815 34.3176 57.0087 34.1144C57.2098 32.4946 57.4163 31.3393 57.6282 30.6426C60.3073 22.0269 69.1868 20.3027 76.3709 22.4624C79.7781 23.49 82.2344 25.9284 83.7451 29.7833C83.8701 30.1143 84.1038 30.2942 84.4353 30.3233C86.5492 30.5265 94.2929 31.3683 94.8201 34.3292C95.5863 38.6312 86.2014 37.3539 84.2505 36.994C84.0549 36.9592 83.8647 37.0869 83.8103 37.2901C82.4355 42.5036 79.251 45.6212 74.2461 46.643C68.6162 47.7984 61.7963 46.9043 58.2749 41.4469C58.2043 41.3366 58.0684 41.3076 57.9597 41.3773ZM78.2131 29.4989C77.8272 26.5147 75.2514 24.4363 72.4582 24.8485L71.1105 25.0459C68.3173 25.4581 66.3719 28.21 66.7577 31.1941L66.9425 32.5991C67.3283 35.5832 69.9041 37.6616 72.6973 37.2494L74.045 37.052C76.8382 36.6398 78.7837 33.8879 78.3978 30.9038L78.2131 29.4989Z" fill="#A5C96A"/>
<path d="M106.33 27.13C106.737 27.1126 106.819 26.9326 106.58 26.5785C105.835 25.4696 105.52 24.4652 105.645 23.5537C105.857 21.9862 106.694 21.3476 108.15 21.6379C109.851 21.9746 111.644 26.6598 112.291 28.2796C112.373 28.4711 112.508 28.5408 112.699 28.4828C113.742 28.1693 115.253 27.31 116.215 27.7861C117.541 28.4479 117.111 30.8457 115.796 31.2927C115.334 31.4495 114.758 31.554 114.074 31.6062C113.704 31.6352 113.563 31.8384 113.655 32.2274L114.476 35.7573C114.557 36.123 114.758 36.2275 115.079 36.0708C119.524 33.9633 123.708 34.3813 127.637 37.3248C127.719 37.3887 127.784 37.3713 127.828 37.2726L129.768 32.9764C129.806 32.8893 129.773 32.779 129.691 32.7383C129.675 32.7267 129.653 32.7209 129.637 32.7209C127.735 32.5061 126.92 31.3972 127.197 29.3943C127.23 29.1388 127.409 28.9298 127.643 28.8717C128.817 28.564 129.833 28.8892 130.686 29.8355C131.115 30.3057 131.512 30.2767 131.865 29.7368C132.827 28.2912 135.729 23.7279 137.886 25.1909C140.065 26.6656 138.017 28.6918 137.06 30.0735C137.011 30.1374 137.386 30.329 138.185 30.6483C138.886 30.9211 139.332 31.6585 139.288 32.4538L139.256 33.1041C139.218 33.7659 138.685 34.271 138.066 34.2304C137.913 34.2188 137.767 34.1781 137.631 34.1085L135.164 32.8138C135.006 32.7267 134.816 32.779 134.713 32.9299L133.778 34.2768C133.653 34.4568 133.669 34.6194 133.827 34.7645L135.359 36.2624C136.098 36.9823 136.207 37.7951 135.685 38.7066L135.501 39.0375C135.137 39.6703 134.359 39.8677 133.767 39.4787C133.653 39.4032 133.55 39.3104 133.463 39.2L132.159 37.5396C132.001 37.3364 131.865 37.3538 131.762 37.5977L130.588 40.367C130.496 40.576 130.501 40.785 130.599 40.994C135.506 51.2991 134.474 64.0135 133.577 75.114C133.561 75.3114 133.642 75.4449 133.816 75.5088C141.766 78.4697 144.217 87.5149 144.587 95.6197C144.663 97.2917 147.016 97.013 147.842 98.5922C148.037 98.9754 147.907 99.4514 147.554 99.6662C147.467 99.7185 147.369 99.7475 147.271 99.7591C145.059 100.015 142.842 99.9565 140.62 99.5908C140.375 99.5501 140.207 99.3005 140.245 99.045C140.25 98.9928 140.266 98.9463 140.288 98.8999C140.679 98.0813 141.044 97.4136 141.103 96.4789C141.571 89.4366 139.087 83.8399 133.648 79.6831C133.289 79.4044 133.082 79.5031 133.023 79.9734C132.534 83.9444 131.865 88.0491 131.604 92.1479C131.262 97.4194 128.001 99.2134 123.507 99.3469C119.72 99.4572 115.943 99.3876 112.166 99.1263C109.21 98.9231 105.248 97.9361 104.004 94.8591C103.694 94.0986 103.537 92.8736 103.531 91.1841C103.52 86.9112 103.526 82.7253 103.542 78.6206C103.542 78.2084 103.368 78.0923 103.02 78.2723C95.8417 82.017 92.4888 88.1361 92.967 96.6241C93.0105 97.4659 93.3039 98.0406 93.7278 98.6909C93.9017 98.9521 93.8365 99.3179 93.5919 99.4979C93.5213 99.5501 93.4452 99.5791 93.3637 99.5966C91.1737 99.9623 88.9891 100.009 86.7991 99.7359C86.3807 99.6837 86.0818 99.2773 86.1307 98.836C86.1416 98.7315 86.1742 98.627 86.2231 98.5341C86.8372 97.3323 88.2501 97.2801 89.2174 96.5254C89.3587 96.4092 89.4456 96.2409 89.4565 96.0551C90.0053 86.7021 92.8257 75.8223 103.379 75.0037C103.558 74.9921 103.651 74.8876 103.656 74.6902C103.77 66.9686 104.645 59.3516 106.275 51.839C107.21 47.537 108.808 43.5543 111.074 39.8909C111.166 39.74 111.193 39.5774 111.161 39.4032L110.52 36.0243C110.492 35.8734 110.351 35.7747 110.21 35.8095C110.166 35.8211 110.128 35.8386 110.096 35.8676C109.427 36.4772 108.656 37.3132 107.862 37.499C107.096 37.679 106.585 37.3422 106.341 36.4772C105.645 34.0794 107.743 33.5337 109.074 32.4713C109.21 32.361 109.253 32.1694 109.177 32.0068L108.471 30.5031C108.389 30.329 108.21 30.2419 108.036 30.2825C107.188 30.4741 106.368 30.6947 105.58 30.9444C103.526 31.5946 102.548 27.281 106.33 27.13ZM128.371 54.2542C127.784 49.2381 123.507 45.6792 118.812 46.3062L116.731 46.5849C112.036 47.2119 108.705 51.781 109.291 56.7971L109.541 58.9626C110.128 63.9787 114.405 67.5376 119.1 66.9106L121.181 66.6319C125.877 66.0049 129.208 61.4358 128.621 56.4197L128.371 54.2542Z" fill="#B41D8E"/>
<path d="M78.3978 30.9038C78.7837 33.8879 76.8382 36.6398 74.045 37.052L72.6973 37.2494C69.9041 37.6616 67.3283 35.5832 66.9425 32.5991L66.7577 31.1941C66.3719 28.21 68.3173 25.4581 71.1105 25.0459L72.4582 24.8485C75.2514 24.4363 77.8272 26.5147 78.2131 29.4988L78.3978 30.9038ZM75.659 33.0984C75.659 31.8618 74.7189 30.8574 73.5614 30.8574C72.4039 30.8574 71.4638 31.8618 71.4638 33.0984C71.4638 34.335 72.4039 35.3394 73.5614 35.3394C74.7189 35.3394 75.659 34.335 75.659 33.0984Z" fill="white"/>
<path d="M73.5614 35.3394C74.7198 35.3394 75.659 34.3361 75.659 33.0984C75.659 31.8607 74.7198 30.8574 73.5614 30.8574C72.4029 30.8574 71.4637 31.8607 71.4637 33.0984C71.4637 34.3361 72.4029 35.3394 73.5614 35.3394Z" fill="#2298AC"/>
<path d="M74.4526 87.7994L63.5407 88.2116C63.3831 88.2174 63.3179 88.3045 63.3451 88.4671L64.4699 96.3802C64.5025 96.6125 64.6221 96.7692 64.8232 96.8563C66.035 97.373 67.024 98.1916 67.7902 99.3179C68.0457 99.6895 67.9587 99.8753 67.5294 99.8811L60.8018 99.9043C60.5247 99.9043 60.2964 99.6604 60.2964 99.3644V88.2232C60.2964 88.0491 60.166 87.9097 60.003 87.9039C55.4654 87.6717 51.118 85.541 49.9986 80.5772C49.9769 80.4669 49.8736 80.403 49.7649 80.4262C49.7269 80.4378 49.6943 80.4552 49.6671 80.4901C46.6131 84.1302 44.923 88.4032 44.597 93.309C44.5807 93.5471 44.6785 93.7038 44.8904 93.7851L45.8903 94.1567C46.0696 94.2205 46.2055 94.3424 46.3033 94.5108C47.1728 96.0899 45.3578 96.6415 44.3579 95.7474C44.1568 95.5674 43.8634 95.5907 43.6895 95.8055C43.684 95.8113 43.6786 95.8229 43.6732 95.8287C43.1189 96.6067 43.0319 97.4485 43.4123 98.3542C43.4884 98.5341 43.5047 98.7199 43.4558 98.9115L43.3688 99.2482C43.2547 99.7127 42.8145 99.9856 42.3798 99.8694C42.0375 99.7766 41.7929 99.4572 41.7766 99.0799L41.6788 97.5414C41.6625 97.2743 41.4506 97.0711 41.2006 97.0885C41.1843 97.0885 41.1734 97.0885 41.1571 97.0885L40.6354 97.1756C40.3746 97.2221 40.2007 97.4833 40.2387 97.762C40.2387 97.7852 40.2442 97.8026 40.255 97.8258C40.4289 98.4587 40.2985 98.9986 39.8638 99.4572C39.5703 99.7649 39.0975 99.7591 38.8095 99.4456C38.6628 99.2831 38.5867 99.0625 38.603 98.8418C38.6465 98.1568 38.7117 97.4833 38.7987 96.8215C38.8476 96.4267 38.6519 96.2409 38.2009 96.2699C38.0433 96.2815 37.8966 96.3744 37.8205 96.5254L37.4727 97.2046C37.3151 97.5065 36.9836 97.6517 36.6684 97.553C35.9783 97.3207 35.8805 96.8505 36.1141 96.148C38.5595 88.6819 40.63 82.911 45.7762 77.175C46.7978 76.0429 48.2325 74.8005 49.4769 73.6161C49.6073 73.4942 49.6943 73.3259 49.716 73.1401C50.0203 70.5798 50.8355 68.2169 52.1614 66.063C52.2918 65.8481 52.3136 65.6275 52.2212 65.3953C50.8137 61.8248 51.3517 57.4647 54.8731 55.7405C55.0633 55.6476 55.2915 55.7346 55.3785 55.9378C55.4165 56.0249 55.4219 56.1236 55.4002 56.2165C54.9329 57.9582 54.672 60.176 55.9762 61.6042C56.1067 61.7493 56.2534 61.7668 56.411 61.6681C62.7962 57.7202 71.8333 57.6679 78.2837 60.4779C78.5337 60.5882 78.8163 60.5127 78.9902 60.3037C79.8216 59.2993 80.1585 58.115 79.9955 56.7506C79.9629 56.5126 80.1205 56.292 80.3487 56.263C80.452 56.2514 80.5607 56.2804 80.6476 56.3442C82.3648 57.6796 82.5224 60.3386 81.8758 62.2951C81.816 62.4634 81.8486 62.6086 81.9681 62.7363L84.7559 65.7204C84.87 65.8423 85.0494 65.8481 85.1689 65.732C89.212 61.8538 91.5487 57.0177 92.1845 51.2236C92.2443 50.6953 92.0378 50.3354 91.565 50.1554L90.7281 49.8245C90.2445 49.6387 89.9945 49.0697 90.1684 48.553C90.2879 48.1931 90.5923 47.9376 90.9509 47.9028C91.4183 47.8505 91.853 47.9434 92.2497 48.1873C92.6953 48.4601 93.2659 48.2976 93.5267 47.8215C93.6354 47.6183 93.6735 47.3861 93.6354 47.1597L93.3039 45.0116C93.2333 44.5935 93.4996 44.193 93.8908 44.1175C94.0865 44.0826 94.2875 44.1349 94.4506 44.2626C95.0646 44.7561 95.2603 45.3947 95.0375 46.1901C94.9614 46.4688 95.1081 46.7649 95.3689 46.8461C95.4016 46.8578 95.4396 46.8636 95.4722 46.8636L95.9287 46.8984C96.2058 46.9216 96.4449 46.701 96.4667 46.4107C96.4667 46.3701 96.4667 46.3352 96.4667 46.2946C96.396 45.7431 96.4938 45.238 96.7601 44.7793C96.896 44.5471 97.1568 44.4426 97.4013 44.5181L97.5861 44.5761C98.0643 44.7213 98.3523 45.2496 98.2382 45.7663L97.9611 46.9913C97.9067 47.2293 97.9828 47.479 98.1621 47.6299L98.4012 47.8331C98.5208 47.9376 98.6947 47.9144 98.7925 47.7867C98.8142 47.7576 98.8305 47.717 98.8414 47.6822C98.9881 47.1364 99.3142 46.7591 99.8141 46.5443C100.2 46.3817 100.635 46.5849 100.787 46.9971C100.852 47.1771 100.858 47.3803 100.792 47.5661C100.026 49.778 99.2816 51.9145 98.5588 53.9697C96.2439 60.5592 92.5051 66.0223 87.348 70.3592C87.2013 70.4811 87.147 70.6436 87.1959 70.841C89.6739 80.6526 87.6795 86.1622 77.7947 87.3176C77.6316 87.335 77.5121 87.4917 77.5284 87.6717C77.5284 87.6775 77.5284 87.6833 77.5284 87.6891L78.713 96.0841C78.7728 96.4847 79.0174 96.8273 79.3652 96.9956C80.5118 97.5298 81.4465 98.3426 82.1638 99.4282C82.2507 99.5559 82.2236 99.7417 82.0986 99.8346C82.0497 99.8694 81.9953 99.8869 81.941 99.8869H75.121C74.8276 99.8927 74.5939 99.643 74.5939 99.3295L74.6102 87.9504C74.6102 87.8401 74.5613 87.7878 74.458 87.7936L74.4526 87.7994ZM82.1692 73.1517C81.6584 69.1226 78.1914 66.301 74.42 66.8409L72.806 67.0731C69.0347 67.6189 66.3937 71.3229 66.899 75.352L67.1164 77.0531C67.6272 81.0823 71.0943 83.9038 74.8656 83.3639L76.4796 83.1317C80.2509 82.5859 82.892 78.8819 82.3866 74.8528L82.1692 73.1517Z" fill="#2298AC"/>
<path d="M128.626 56.4195C129.213 61.4356 125.882 66.0047 121.187 66.6317L119.106 66.9104C114.41 67.5374 110.134 63.9785 109.547 58.9624L109.297 56.7969C108.71 51.7808 112.041 47.2117 116.736 46.5847L118.818 46.306C123.513 45.679 127.79 49.2379 128.376 54.254L128.626 56.4195ZM119.942 59.9842C119.758 58.4341 118.432 57.3426 116.981 57.54L116.345 57.6271C114.894 57.8245 113.872 59.2411 114.057 60.7912L114.139 61.4821C114.323 63.0322 115.649 64.1236 117.1 63.9263L117.736 63.8392C119.187 63.6418 120.209 62.2252 120.024 60.6751L119.942 59.9842Z" fill="white"/>
<path d="M116.981 57.5425L116.345 57.6295C114.895 57.8279 113.87 59.2444 114.056 60.7932L114.139 61.4843C114.325 63.0331 115.65 64.1279 117.1 63.9294L117.736 63.8424C119.186 63.644 120.211 62.2275 120.025 60.6787L119.942 59.9877C119.756 58.4388 118.431 57.344 116.981 57.5425Z" fill="#2298AC"/>
<path d="M82.3866 74.8586C82.8974 78.8877 80.2509 82.5975 76.4795 83.1375L74.8656 83.3697C71.0942 83.9154 67.6218 81.0881 67.1164 77.0589L66.899 75.3578C66.3882 71.3287 69.0347 67.6189 72.806 67.0789L74.42 66.8467C78.1913 66.301 81.6638 69.1283 82.1692 73.1575L82.3866 74.8586ZM79.1804 77.175C79.1804 75.6423 78.0174 74.3999 76.5828 74.3999C75.1482 74.3999 73.9852 75.6423 73.9852 77.175C73.9852 78.7077 75.1482 79.9501 76.5828 79.9501C78.0174 79.9501 79.1804 78.7077 79.1804 77.175Z" fill="white"/>
<path d="M76.5828 79.9501C78.0174 79.9501 79.1803 78.7077 79.1803 77.175C79.1803 75.6424 78.0174 74.3999 76.5828 74.3999C75.1482 74.3999 73.9852 75.6424 73.9852 77.175C73.9852 78.7077 75.1482 79.9501 76.5828 79.9501Z" fill="#2298AC"/>
<path d="M63.5438 14.6219C63.6254 14.6799 63.7395 14.6567 63.7938 14.5696C63.8101 14.5464 63.8156 14.5232 63.821 14.4941L64.2286 11.6087C64.2557 11.4229 64.4188 11.2894 64.5926 11.3184C64.6687 11.33 64.7394 11.3707 64.7883 11.4345L67.4456 14.6393C67.5434 14.7612 67.7119 14.7786 67.826 14.6741C67.8641 14.6393 67.8912 14.5986 67.9075 14.5522C68.2771 13.5246 68.815 12.5957 69.5215 11.7771C69.7008 11.5681 70.0051 11.5507 70.2062 11.7422C70.2768 11.8119 70.3258 11.899 70.3475 11.9977L72.1354 19.3999C72.206 19.696 72.0375 19.9979 71.7604 20.0734C71.7441 20.0734 71.7278 20.0792 71.7115 20.085L63.1308 21.4842C62.8211 21.5364 62.5276 21.31 62.4733 20.9791L61.3647 13.8671C61.2615 13.2111 61.4625 13.0775 61.9734 13.4549L63.5438 14.6219Z" fill="#F69520"/>
</g>
<g clip-path="url(#clip1_228_67)">
<path d="M118.54 115.029C120.762 115.029 122.562 113.232 122.562 111.015C122.562 108.797 120.762 107 118.54 107C116.319 107 114.518 108.797 114.518 111.015C114.518 113.232 116.319 115.029 118.54 115.029Z" fill="#901F7A"/>
<path d="M0.037785 107.456C0.257625 107.518 0.571927 107.549 0.982409 107.55C5.48741 107.564 10.0027 107.564 14.5249 107.549L29.0927 107.567C29.1459 107.567 29.1906 107.61 29.1906 107.663V117.938C29.1906 118.014 29.1511 118.051 29.0755 118.051H23.0179C22.9286 118.051 22.8839 118.007 22.8839 117.916V113.241C22.8839 113.175 22.8324 113.121 22.7654 113.121H13.1131L12.7421 113.116C12.6339 113.115 12.5807 113.166 12.5824 113.274L12.615 120.686C12.615 120.743 12.6442 120.77 12.7009 120.77L14.8581 120.779L20.7577 120.787C20.8178 120.787 20.8659 120.837 20.8659 120.897L20.8607 126.252C20.8607 126.315 20.8281 126.348 20.7646 126.348L12.6648 126.351C12.6219 126.351 12.5858 126.387 12.5858 126.432L12.5893 134.967C12.5893 135.034 12.6425 135.087 12.7095 135.087H22.7723C22.8393 135.087 22.8736 135.053 22.8736 134.986L22.8891 130.202C22.8891 130.155 22.9252 130.119 22.9715 130.119H29.103C29.1494 130.119 29.1872 130.157 29.1872 130.203L29.1906 140.579C29.1906 140.619 29.1597 140.649 29.1202 140.649H25.498L0.156292 140.656C0.0515249 140.656 0 140.605 0 140.5L0.00515249 135.169C0.00515249 135.113 0.0326325 135.084 0.0893099 135.084H3.90044C3.94509 135.084 3.98116 135.048 3.98116 135.005L3.9846 120.551V113.204C3.9846 113.157 3.94853 113.121 3.90216 113.121H0.166597C0.0893099 113.121 0.02748 113.06 0.02748 112.984L0.037785 107.456Z" fill="#B41D8E"/>
<path d="M104.824 135.363L107.904 135.366C107.964 135.366 108.012 135.414 108.012 135.474L108.02 140.55C108.02 140.61 107.972 140.658 107.912 140.658H93.8304C93.7703 140.658 93.7222 140.61 93.7222 140.55L93.7308 135.474C93.7308 135.414 93.7788 135.366 93.839 135.366H97.2671C97.3272 135.364 97.3753 135.316 97.3753 135.256V112.95C97.377 112.89 97.3289 112.842 97.2688 112.842L93.8321 112.845C93.772 112.845 93.7239 112.797 93.7239 112.737L93.7308 107.663C93.7308 107.603 93.7788 107.555 93.839 107.555L104.608 107.569C104.668 107.569 104.716 107.617 104.716 107.677V135.255C104.716 135.315 104.764 135.363 104.824 135.363Z" fill="#B41D8E"/>
<path d="M163.775 111.074L163.769 119.342C163.769 119.385 163.803 119.419 163.844 119.421C163.86 119.421 163.875 119.416 163.889 119.407C165.555 118.325 167.353 117.41 169.259 117.131C169.952 117.029 170.757 117.033 171.676 117.143C175.051 117.542 176.832 120.024 177.215 123.23C177.357 124.418 177.423 125.616 177.412 126.821C177.39 129.298 177.382 132.109 177.385 135.253C177.385 135.311 177.433 135.359 177.491 135.359H180.664C180.722 135.359 180.77 135.407 180.77 135.465L180.758 140.529C180.758 140.61 180.719 140.649 180.638 140.649H170.256C170.123 140.649 170.058 140.586 170.058 140.454C170.067 135.779 170.068 130.853 170.063 125.674C170.063 125.004 169.934 124.442 169.68 123.987C168.985 122.743 167.109 122.938 165.996 123.37C165.32 123.632 164.658 123.956 164.011 124.342C163.858 124.433 163.763 124.599 163.763 124.778L163.769 135.296C163.769 135.332 163.798 135.361 163.834 135.361L166.982 135.358C167.027 135.358 167.063 135.394 167.063 135.438L167.058 140.531C167.058 140.611 167.018 140.651 166.937 140.651L152.84 140.644C152.771 140.644 152.717 140.589 152.717 140.521L152.723 135.464C152.723 135.409 152.768 135.366 152.823 135.364L156.287 135.356C156.395 135.356 156.45 135.303 156.45 135.195L156.459 117.071L156.45 112.958C156.45 112.895 156.399 112.843 156.335 112.843L152.806 112.847C152.759 112.847 152.722 112.809 152.72 112.761L152.713 107.679C152.713 107.596 152.754 107.555 152.838 107.555L163.71 107.569C163.745 107.569 163.774 107.598 163.774 107.632V111.074H163.775Z" fill="#B41D8E"/>
<path d="M36.0743 122.94L32.8008 122.963C32.7304 122.963 32.6737 122.906 32.6737 122.836L32.6806 117.782C32.6806 117.678 32.7338 117.625 32.8386 117.625H43.4819C43.5145 117.626 43.542 117.654 43.542 117.686L43.5317 119.491C43.5317 119.702 43.6159 119.747 43.7876 119.625C45.5961 118.355 47.5592 117.451 49.6855 117.28C52.8989 117.021 55.6023 118.403 56.6225 121.554C57.2047 123.355 57.3146 125.194 57.3112 127.162C57.306 129.938 57.3078 132.641 57.3146 135.272C57.3146 135.324 57.3558 135.365 57.4074 135.365L60.6981 135.354C60.7376 135.354 60.7685 135.385 60.7685 135.425L60.7599 140.579C60.7599 140.62 60.7273 140.653 60.6861 140.653H50.0634C50.0101 140.653 49.9672 140.61 49.9672 140.557C49.9809 135.889 49.9809 131.213 49.9672 126.53C49.9672 125.925 49.8796 125.33 49.7095 124.745C49.5 124.024 49.0294 123.607 48.2978 123.492C46.7486 123.252 44.9521 123.984 43.6846 124.867C43.5884 124.936 43.5317 125.045 43.5317 125.162V135.267C43.5317 135.318 43.5712 135.36 43.6227 135.36L47.0114 135.354C47.0646 135.354 47.0921 135.382 47.0921 135.435V140.574C47.0921 140.617 47.056 140.653 47.0131 140.653H32.8815C32.7424 140.655 32.672 140.584 32.672 140.446V135.524C32.672 135.433 32.7475 135.36 32.8386 135.36H36.0589C36.1482 135.36 36.1928 135.313 36.1928 135.224L36.198 123.062C36.198 122.98 36.1568 122.939 36.0743 122.94Z" fill="#B41D8E"/>
<path d="M72.7893 117.271C74.986 117.169 76.925 117.779 78.6065 119.1C79.0496 119.448 79.4223 119.903 79.8345 120.292C79.8688 120.324 79.9238 120.323 79.9564 120.288C79.9719 120.273 79.9805 120.251 79.9805 120.228L79.9856 117.655C79.9856 117.628 79.9994 117.614 80.0251 117.614L91.0909 117.623C91.1201 117.623 91.1425 117.647 91.1425 117.676L91.1339 122.82C91.1339 122.896 91.0721 122.957 90.9965 122.957C90.9965 122.957 90.9965 122.957 90.9948 122.957L87.455 122.933C87.3812 122.933 87.321 122.992 87.3193 123.067C87.3193 123.067 87.3193 123.067 87.3193 123.069C87.3279 128.727 87.3262 134.406 87.3142 140.106C87.3125 141.656 87.0823 143.169 86.6237 144.645C85.789 147.343 84.0784 149.229 81.4901 150.3C80.8031 150.585 80.0646 150.804 79.2763 150.958C78.9688 151.029 78.6837 151.08 78.4175 151.116C75.6455 151.486 72.9044 151.426 70.1959 150.936C68.2877 150.592 66.6183 149.957 65.1859 149.035C65.0623 148.956 65.0262 148.793 65.1052 148.67C65.1086 148.665 65.1121 148.66 65.1155 148.656L68.4406 144.134C68.5059 144.045 68.6278 144.019 68.724 144.074C70.7918 145.261 72.8305 145.866 75.2488 145.607C76.4939 145.473 77.5897 145.005 78.5343 144.203C79.3175 143.536 79.7022 142.237 79.8328 141.256C79.9684 140.245 80.0131 139.143 79.9667 137.948C79.965 137.898 79.9221 137.859 79.8705 137.86C79.8516 137.86 79.8328 137.869 79.8173 137.881C79.5442 138.106 79.2797 138.322 79.0238 138.529C77.0006 140.164 74.4312 141.287 71.8429 140.913C69.8249 140.622 68.1898 139.784 66.7489 138.32C63.8583 135.383 62.9772 131.309 63.4049 127.303C63.7638 123.94 65.1533 121.26 67.5698 119.265C69.0108 118.077 70.7506 117.412 72.7893 117.271ZM79.8413 127.601C79.6026 125.897 78.6649 124.166 77.0006 123.496C76.3325 123.226 75.5167 123.144 74.5514 123.25C73.6652 123.348 72.7446 123.914 72.2019 124.612C71.417 125.619 70.9791 126.842 70.8915 128.28C70.7764 130.159 70.9636 131.962 72.1143 133.484C73.2118 134.933 75.2642 135.457 76.9164 134.753C78.8297 133.935 79.819 132.041 79.9427 130.033C79.9925 129.25 79.9581 128.439 79.8413 127.601Z" fill="#B41D8E"/>
<path d="M140.744 117.734L142.678 118.35C142.736 118.368 142.8 118.336 142.817 118.278C142.82 118.267 142.822 118.257 142.822 118.245L142.825 117.705C142.825 117.642 142.858 117.609 142.923 117.607L147.83 117.542C147.987 117.552 148.067 117.66 148.071 117.864C148.11 120.028 148.105 122.148 148.053 124.226C148.053 124.255 148.029 124.279 148 124.279L142.939 124.293C142.865 124.293 142.798 124.246 142.774 124.176C142.425 123.197 141.621 122.614 140.625 122.292C139.631 121.97 138.643 121.85 137.664 121.934C136.524 121.888 135.08 122.045 134.609 123.261C134.456 123.653 134.521 124.006 134.805 124.32C135.275 124.803 136.046 124.97 136.704 125.105C138.434 125.458 140.186 125.817 141.962 126.18C142.609 126.312 143.287 126.478 143.998 126.682C144.852 126.924 145.506 127.166 145.958 127.407C147.853 128.414 149.026 129.953 149.477 132.025C149.841 133.693 149.558 135.709 148.698 137.183C147.186 139.763 144.49 140.944 141.556 141.116C139.449 141.239 136.462 141.189 134.844 139.604C134.82 139.58 134.782 139.58 134.76 139.604C134.748 139.614 134.743 139.629 134.741 139.647L134.712 140.543C134.71 140.605 134.659 140.654 134.597 140.654H129.456C129.393 140.656 129.341 140.605 129.341 140.543C129.341 140.543 129.341 140.543 129.341 140.541L129.348 132.81C129.348 132.771 129.381 132.738 129.42 132.738H134.647C134.681 132.738 134.71 132.766 134.714 132.8C134.949 135.916 138.975 136.65 141.388 136.122C142.336 135.915 143.48 135.258 143.578 134.197C143.669 133.194 142.8 132.572 141.946 132.342C140.888 132.056 139.571 131.77 137.992 131.482C136.06 131.13 134.185 130.625 132.5 129.857C132.079 129.665 131.495 129.327 130.75 128.842C130.178 128.314 129.824 127.959 129.69 127.778C128.591 126.283 128.23 124.61 128.606 122.758C128.831 121.651 129.348 120.684 130.161 119.858C130.662 119.347 131.145 118.927 131.61 118.6C134.405 117.074 137.714 116.961 140.744 117.736V117.734Z" fill="#B41D8E"/>
<path d="M114.772 135.263V123.041C114.772 122.987 114.729 122.942 114.674 122.942L111.349 122.949C111.294 122.949 111.249 122.904 111.249 122.849L111.256 117.717C111.256 117.662 111.301 117.618 111.356 117.618L122.025 117.614C122.08 117.614 122.124 117.659 122.124 117.714L122.123 135.258C122.123 135.313 122.167 135.358 122.222 135.358L125.48 135.365C125.535 135.365 125.58 135.409 125.58 135.464L125.59 140.56C125.59 140.615 125.546 140.66 125.491 140.66H111.347C111.292 140.658 111.247 140.613 111.247 140.559L111.254 135.466C111.254 135.411 111.299 135.366 111.354 135.366L114.672 135.363C114.727 135.363 114.772 135.318 114.772 135.263Z" fill="#B41D8E"/>
<path d="M189.193 147.364C188.822 145.943 188.595 144.829 188.511 144.021C188.327 142.264 188.198 140.571 188.121 138.937C188.118 138.872 188.167 138.815 188.233 138.812L192.341 138.56C192.391 138.556 192.435 138.596 192.439 138.645C192.525 139.878 192.619 141.239 192.72 142.725C192.779 143.584 192.77 144.484 192.693 145.422C192.526 147.443 192.358 149.361 192.19 151.178C192.181 151.274 192.102 151.349 192.004 151.354L190.276 151.447C190.223 151.45 190.173 151.414 190.16 151.361C189.986 150.682 189.825 150.016 189.675 149.359C189.512 148.634 189.351 147.969 189.193 147.364Z" fill="#2298AC"/>
<path d="M142.193 148.048C142.336 148.043 142.399 147.971 142.381 147.829C142.291 147.131 142.276 146.461 142.332 145.814C142.657 142.103 145.857 141.044 149.084 141.457C150.078 141.584 150.971 142.038 151.763 142.821C151.822 142.88 151.822 142.974 151.763 143.034L151.76 143.037L149.201 145.365C149.094 145.463 148.929 145.456 148.831 145.35C148.813 145.329 148.795 145.305 148.785 145.278C148.593 144.848 147.998 144.078 147.445 144.277C146.935 144.46 146.667 144.841 146.643 145.422C146.618 146.068 146.637 146.793 146.702 147.597C146.705 147.643 146.745 147.678 146.791 147.674L148.742 147.558C148.814 147.553 148.852 147.587 148.857 147.659L149.039 150.556C149.044 150.631 148.986 150.696 148.91 150.702C148.91 150.702 148.91 150.702 148.909 150.702L147.037 150.796C146.953 150.799 146.913 150.844 146.918 150.928L147.406 158.009C147.409 158.069 147.459 158.114 147.519 158.112L149.503 158.038C149.577 158.035 149.616 158.071 149.62 158.146L149.752 161.062C149.755 161.122 149.709 161.172 149.649 161.175C149.646 161.175 149.644 161.175 149.64 161.175C149.275 161.167 148.907 161.177 148.536 161.206C146.255 161.381 143.913 161.54 141.51 161.684C141.396 161.691 141.336 161.638 141.331 161.527L141.187 158.652C141.183 158.604 141.221 158.563 141.271 158.559C141.271 158.559 141.273 158.559 141.274 158.559L142.98 158.518C143.04 158.518 143.088 158.469 143.086 158.409C143.086 158.407 143.086 158.403 143.086 158.402L142.614 151.29C142.611 151.221 142.552 151.168 142.484 151.171L140.852 151.238C140.795 151.242 140.749 151.199 140.745 151.142L140.586 148.243C140.581 148.168 140.639 148.103 140.716 148.098C140.716 148.098 140.718 148.098 140.72 148.098L142.195 148.048H142.193Z" fill="#2298AC"/>
<path d="M112.687 148.634C113.996 148.634 115.057 147.575 115.057 146.268C115.057 144.962 113.996 143.903 112.687 143.903C111.378 143.903 110.317 144.962 110.317 146.268C110.317 147.575 111.378 148.634 112.687 148.634Z" fill="#45919C"/>
<path d="M186.223 158.705C186.166 158.785 186.093 158.826 186 158.83C185.028 158.864 184.169 158.916 183.425 158.986C182.259 159.094 181.091 159.169 179.925 159.216C179.858 159.217 179.822 159.185 179.817 159.116L179.733 157.899C179.597 155.789 179.461 153.658 179.329 151.504C179.276 150.638 179.137 149.159 177.984 149.188C177.136 149.21 176.203 149.594 175.542 150.141C175.463 150.206 175.42 150.304 175.427 150.406L175.808 156.24C175.813 156.302 175.867 156.35 175.928 156.348L177.869 156.291C177.916 156.291 177.955 156.326 177.959 156.373L178.043 157.453L178.123 159.289C178.127 159.346 178.099 159.377 178.043 159.38L174.97 159.582L169.735 159.915C169.66 159.92 169.62 159.884 169.615 159.809L169.436 156.961C169.429 156.855 169.479 156.8 169.586 156.795L171.272 156.725C171.432 156.72 171.508 156.636 171.496 156.476L171.03 149.481C171.027 149.433 170.987 149.395 170.937 149.397L169.04 149.469C168.978 149.47 168.925 149.422 168.921 149.361L168.741 146.445C168.737 146.392 168.777 146.346 168.83 146.342L174.972 145.96C175.08 145.953 175.173 146.034 175.18 146.142C175.18 146.147 175.18 146.15 175.18 146.155L175.174 147.012C175.174 147.072 175.223 147.12 175.283 147.12C175.308 147.12 175.333 147.112 175.351 147.096C176.834 145.872 178.62 145.161 180.499 145.535C182.422 145.915 183.326 148.017 183.503 149.8C183.676 151.533 183.801 153.461 183.88 155.585C183.884 155.691 183.973 155.775 184.08 155.772H184.081L185.832 155.705C185.95 155.7 186.014 155.756 186.022 155.875L186.223 158.705Z" fill="#2298AC"/>
<path d="M160.571 150.045L158.766 150.131C158.638 150.136 158.57 150.076 158.561 149.951L158.362 147.139C158.357 147.06 158.413 146.992 158.492 146.987C158.492 146.987 158.492 146.987 158.494 146.987L164.727 146.587C164.766 146.584 164.789 146.603 164.792 146.644L165.471 156.824C165.477 156.938 165.538 156.991 165.651 156.986L167.585 156.89C167.642 156.886 167.672 156.912 167.679 156.968C167.796 158.012 167.86 159.001 167.872 159.939C167.872 159.965 167.851 159.987 167.825 159.989L161.57 160.438C161.462 160.446 161.366 160.364 161.357 160.254C161.357 160.253 161.357 160.251 161.357 160.249L161.325 159.485C161.323 159.427 161.273 159.38 161.213 159.384C161.194 159.384 161.175 159.391 161.158 159.401C160.687 159.715 160.222 159.992 159.76 160.236C158.321 160.997 156.186 161.226 154.731 160.318C153.534 159.571 153.055 158.34 152.953 156.974C152.794 154.81 152.656 152.721 152.538 150.706C152.534 150.645 152.483 150.598 152.423 150.6L150.592 150.667C150.516 150.67 150.453 150.612 150.448 150.537L150.281 147.674C150.276 147.595 150.314 147.554 150.393 147.549L156.474 147.163C156.579 147.156 156.636 147.206 156.641 147.311C156.775 149.64 156.928 152.073 157.098 154.61C157.134 155.143 157.187 155.66 157.259 156.161C157.544 158.125 160.076 156.977 160.954 156.243C161 156.204 161.029 156.156 161.039 156.096C161.06 155.978 161.067 155.858 161.06 155.738C160.957 153.998 160.837 152.14 160.699 150.16C160.694 150.079 160.651 150.041 160.571 150.045Z" fill="#2298AC"/>
<path d="M128.117 152.88C127.859 152.938 127.572 152.944 127.416 152.709C127.095 152.23 126.648 151.941 126.076 151.84C125.304 151.704 124.519 151.718 123.732 151.85C123.21 151.939 122.597 152.345 122.664 152.933C122.698 153.235 122.894 153.427 123.253 153.508C124.009 153.677 124.816 153.794 125.673 153.856C126.238 153.897 127.337 154.092 128.972 154.443C129.989 154.725 130.76 155.289 131.287 156.134C131.763 156.896 131.981 157.778 131.942 158.775C131.73 160.467 130.896 161.652 129.436 162.329C127.821 163.078 125.159 163.345 123.55 162.38C123.497 162.348 123.428 162.365 123.397 162.42C123.387 162.437 123.382 162.454 123.38 162.473L123.366 162.798C123.363 162.862 123.313 162.913 123.248 162.917L120.39 163.081C120.309 163.086 120.24 163.025 120.235 162.944L119.972 158.576C119.967 158.491 120.008 158.444 120.094 158.439L122.918 158.249C123.035 158.242 123.139 158.319 123.164 158.434C123.296 159.072 123.68 159.521 124.314 159.78C125.429 160.234 126.535 160.225 127.634 159.756C128.319 159.463 128.726 158.45 127.985 157.997C127.65 157.793 127.219 157.666 126.69 157.618C125.364 157.496 124.062 157.284 122.786 156.984C120.553 156.459 118.837 155.133 119.11 152.606C119.296 150.902 120.855 149.663 122.463 149.26C123.947 148.888 125.424 149.044 126.959 149.323C127.066 149.342 127.15 149.298 127.213 149.186C127.179 149.051 127.208 148.979 127.303 148.974C128.275 148.91 129.243 148.854 130.21 148.807C130.307 148.804 130.387 148.876 130.392 148.97L130.611 152.491C130.619 152.632 130.513 152.752 130.372 152.76C130.372 152.76 130.372 152.76 130.37 152.76L128.117 152.88Z" fill="#2298AC"/>
<path d="M110.837 153.482L109.023 153.576C108.946 153.581 108.879 153.521 108.874 153.442L108.716 150.523C108.712 150.477 108.749 150.437 108.795 150.434C110.631 150.346 112.386 150.23 114.064 150.086C114.361 150.06 114.662 150.058 114.968 150.082C115.021 150.086 115.05 150.115 115.053 150.168L115.787 160.412C115.789 160.436 115.809 160.455 115.833 160.453L117.729 160.362C117.788 160.359 117.838 160.405 117.841 160.463L117.999 163.338C118.002 163.41 117.949 163.472 117.877 163.477L109.779 164C109.664 164.008 109.604 163.954 109.597 163.839L109.441 161.057C109.436 160.959 109.48 160.907 109.578 160.902L111.385 160.791C111.428 160.787 111.46 160.751 111.457 160.709L110.964 153.595C110.959 153.514 110.916 153.476 110.837 153.482Z" fill="#2298AC"/>
<path d="M193.95 156.499L194 157.88C194.002 157.959 193.964 158 193.885 158.005L189.354 158.302L189.062 153.711C189.059 153.658 189.083 153.631 189.136 153.627L193.65 153.358C193.737 153.353 193.782 153.394 193.787 153.48L193.95 156.499Z" fill="#45919C"/>
</g>
<defs>
<clipPath id="clip0_228_67">
<rect width="122" height="99" fill="white" transform="translate(36)"/>
</clipPath>
<clipPath id="clip1_228_67">
<rect width="194" height="57" fill="white" transform="translate(0 107)"/>
</clipPath>
</defs>
</svg>
