<?xml version="1.0" encoding="UTF-8"?><svg id="Layer_1" xmlns="http://www.w3.org/2000/svg" viewBox="0 0 399.7 401.21"><defs><style>.cls-1{fill:#fefefe;}.cls-1,.cls-2{stroke-width:0px;}.cls-3{stroke:#e6ebec;}.cls-3,.cls-4{fill:none;stroke-width:2px;}.cls-4{stroke:#9fe1a8;}.cls-2{fill:#40c351;}</style></defs><path class="cls-3" d="m384.51,272.32c10.41-26.15,15.1-52.88,14.05-80.21-1.81-47.17-18.23-88.48-49.25-123.91-14.23-16.26-30.99-29.96-50.28-41.09C270.11,10.42,238.61,1.73,204.53,1.04,157.83.1,111.66,15.77,76.03,45.22c-12.27,10.14-22.48,20.43-30.64,30.86C13.71,116.55-.4,162.61,3.07,214.26c.44,6.61,1.28,13.21,2.52,19.81,3.59,19.18,9.33,36.63,17.22,52.36,1.81,3.61,3.68,7.22,5.61,10.84.28.53.34,1.09.18,1.68L1.02,399.55c-.08.28.09.56.37.64.09.02.18.02.26,0,17.41-4.57,35.35-9.31,53.8-14.22,16.08-4.27,32.12-8.22,48.61-12.68.98-.26,2.02-.23,2.93.25,25.27,13.33,51.65,20.92,79.12,22.76,46.44,3.11,88.78-8.41,127.03-34.56,5.34-3.65,10.62-7.72,15.83-12.21,25.18-21.72,43.69-47.46,55.54-77.21" vector-effect="non-scaling-stroke"/><path class="cls-4" d="m64.43,291.92c.32.48.4,1,.25,1.55-5.37,19.27-10.79,39.01-16.26,59.23-.05.19.03.36.22.51.13.09.29.13.44.09l60.62-15.89c.7-.18,1.45-.07,2.05.33,28.74,18.49,62.81,27.28,96.51,25.75,88.29-4.02,157.34-77.29,157.08-165.48-.23-80.02-58.89-149-138.04-161.65-52.7-8.42-105.35,8.53-143.17,46.14-20.2,20.09-35.62,46.15-42.84,74.17-9.48,36.81-6.82,72.68,7.97,107.59,4.1,9.67,9.4,18.94,15.17,27.66" vector-effect="non-scaling-stroke"/><path class="cls-4" d="m298.12,244.07c-12.91-6.59-26.23-13.33-39.72-19.22-4.18-1.83-8.75-2.96-11.68,1.04-4.4,5.99-9.6,12.47-15.6,19.43-2.03,2.36-4.87,4.64-8.17,3.41-27.53-10.26-49.39-27.55-65.56-51.87-2.35-3.53-4.87-6.88-6.34-10.94-1.05-2.9,1.07-5.4,2.98-7.34,3.07-3.11,5.93-6.74,8.52-10.16,2.84-3.75,6.25-9.22,4.26-14.08-4.9-11.97-9.88-24.08-14.95-36.35-1.97-4.79-4.65-9.71-9.98-10.12-8.95-.68-17.02-1.62-24.21,5.43-10.92,10.72-16.77,23.15-17.55,37.28-1.02,18.56,6.61,35.6,16.81,50.78,5.65,8.39,11.01,15.82,16.1,22.28,17.94,22.76,41.59,44.15,67.75,55.34,8.28,3.54,17.56,6.91,27.84,10.1,5.21,1.61,10.37,2.89,15.48,3.82,6.53,1.19,13.2,1.22,20.03.11,9.36-1.53,18.9-7.12,25.94-13.43,3.04-2.73,5.17-5.42,6.4-8.08,3.07-6.68,4.57-14.25,4.5-22.72-.02-2.18-.97-3.75-2.85-4.71" vector-effect="non-scaling-stroke"/><path class="cls-1" d="m384.51,272.32c-11.85,29.75-30.36,55.49-55.54,77.21-5.21,4.49-10.49,8.56-15.83,12.21-38.25,26.15-80.59,37.67-127.03,34.56-27.47-1.84-53.85-9.43-79.12-22.76-.91-.48-1.95-.51-2.93-.25-16.49,4.46-32.53,8.41-48.61,12.68-18.45,4.91-36.39,9.65-53.8,14.22-.28.07-.56-.1-.63-.38-.02-.09-.02-.18,0-.26l27.58-100.6c.16-.59.1-1.15-.18-1.68-1.93-3.62-3.8-7.23-5.61-10.84-7.89-15.73-13.63-33.18-17.22-52.36-1.24-6.6-2.08-13.2-2.52-19.81C-.4,162.61,13.71,116.55,45.39,76.08c8.16-10.43,18.37-20.72,30.64-30.86C111.66,15.77,157.83.1,204.53,1.04c34.08.69,65.58,9.38,94.5,26.07,19.29,11.13,36.05,24.83,50.28,41.09,31.02,35.43,47.44,76.74,49.25,123.91,1.05,27.33-3.64,54.06-14.05,80.21Zm-320.08,19.6c.32.48.4,1,.25,1.55-5.37,19.27-10.79,39.01-16.26,59.23-.05.19.03.36.22.51.13.09.29.13.44.09l60.62-15.89c.7-.18,1.45-.07,2.05.33,28.74,18.49,62.81,27.28,96.51,25.75,88.29-4.02,157.34-77.29,157.08-165.48-.23-80.02-58.89-149-138.04-161.65-52.7-8.42-105.35,8.53-143.17,46.14-20.2,20.09-35.62,46.15-42.84,74.17-9.48,36.81-6.82,72.68,7.97,107.59,4.1,9.67,9.4,18.94,15.17,27.66Z"/><path class="cls-2" d="m64.43,291.92c-5.77-8.72-11.07-17.99-15.17-27.66-14.79-34.91-17.45-70.78-7.97-107.59,7.22-28.02,22.64-54.08,42.84-74.17,37.82-37.61,90.47-54.56,143.17-46.14,79.15,12.65,137.81,81.63,138.04,161.65.26,88.19-68.79,161.46-157.08,165.48-33.7,1.53-67.77-7.26-96.51-25.75-.6-.4-1.35-.51-2.05-.33l-60.62,15.89c-.15.04-.31,0-.44-.09-.19-.15-.27-.32-.22-.51,5.47-20.22,10.89-39.96,16.26-59.23.15-.55.07-1.07-.25-1.55Zm233.69-47.85c-12.91-6.59-26.23-13.33-39.72-19.22-4.18-1.83-8.75-2.96-11.68,1.04-4.4,5.99-9.6,12.47-15.6,19.43-2.03,2.36-4.87,4.64-8.17,3.41-27.53-10.26-49.39-27.55-65.56-51.87-2.35-3.53-4.87-6.88-6.34-10.94-1.05-2.9,1.07-5.4,2.98-7.34,3.07-3.11,5.93-6.74,8.52-10.16,2.84-3.75,6.25-9.22,4.26-14.08-4.9-11.97-9.88-24.08-14.95-36.35-1.97-4.79-4.65-9.71-9.98-10.12-8.95-.68-17.02-1.62-24.21,5.43-10.92,10.72-16.77,23.15-17.55,37.28-1.02,18.56,6.61,35.6,16.81,50.78,5.65,8.39,11.01,15.82,16.1,22.28,17.94,22.76,41.59,44.15,67.75,55.34,8.28,3.54,17.56,6.91,27.84,10.1,5.21,1.61,10.37,2.89,15.48,3.82,6.53,1.19,13.2,1.22,20.03.11,9.36-1.53,18.9-7.12,25.94-13.43,3.04-2.73,5.17-5.42,6.4-8.08,3.07-6.68,4.57-14.25,4.5-22.72-.02-2.18-.97-3.75-2.85-4.71Z"/><path class="cls-1" d="m258.4,224.85c13.49,5.89,26.81,12.63,39.72,19.22,1.88.96,2.83,2.53,2.85,4.71.07,8.47-1.43,16.04-4.5,22.72-1.23,2.66-3.36,5.35-6.4,8.08-7.04,6.31-16.58,11.9-25.94,13.43-6.83,1.11-13.5,1.08-20.03-.11-5.11-.93-10.27-2.21-15.48-3.82-10.28-3.19-19.56-6.56-27.84-10.1-26.16-11.19-49.81-32.58-67.75-55.34-5.09-6.46-10.45-13.89-16.1-22.28-10.2-15.18-17.83-32.22-16.81-50.78.78-14.13,6.63-26.56,17.55-37.28,7.19-7.05,15.26-6.11,24.21-5.43,5.33.41,8.01,5.33,9.98,10.12,5.07,12.27,10.05,24.38,14.95,36.35,1.99,4.86-1.42,10.33-4.26,14.08-2.59,3.42-5.45,7.05-8.52,10.16-1.91,1.94-4.03,4.44-2.98,7.34,1.47,4.06,3.99,7.41,6.34,10.94,16.17,24.32,38.03,41.61,65.56,51.87,3.3,1.23,6.14-1.05,8.17-3.41,6-6.96,11.2-13.44,15.6-19.43,2.93-4,7.5-2.87,11.68-1.04Z"/></svg>