<svg width="81" height="84" viewBox="0 0 81 84" fill="none" xmlns="http://www.w3.org/2000/svg">
<g clip-path="url(#clip0_11_15)">
<path d="M48.404 2.0779C48.2493 2.53137 48.0144 2.82411 47.6993 2.96761C47.2581 2.2788 46.7081 1.89996 46.0491 1.82534C45.5392 1.77368 45.2355 1.63018 45.1381 1.39483C45.0751 1.14801 44.8402 1.04469 44.4334 1.07339C44.2386 1.08487 44.061 1.03895 43.8948 0.929889L42.4968 0C44.4678 0.218122 46.2611 0.906929 47.8826 2.06068C47.9743 2.12382 48.0717 2.14104 48.1806 2.10086C48.2436 2.0779 48.3181 2.07216 48.404 2.0779Z" fill="#10100A"/>
<path d="M42.4968 0L43.8948 0.929889C44.061 1.03895 44.2386 1.08487 44.4334 1.07339C44.8402 1.04469 45.0751 1.14801 45.1382 1.39483L43.2588 1.18819C43.064 1.17097 42.9322 1.25133 42.8692 1.43501C42.5885 2.23862 41.7978 3.53588 42.4681 4.29356C41.9066 4.09266 41.391 4.11562 40.9269 4.36244C40.7664 4.44854 40.6003 4.46002 40.4341 4.40262C40.268 4.35096 40.1247 4.2706 40.0044 4.16154L42.4968 0Z" fill="#8F8C8A"/>
<path d="M40.0044 4.16154C40.1247 4.2706 40.2679 4.35096 40.4341 4.40262C40.6003 4.46002 40.7664 4.44854 40.9268 4.36244C41.391 4.11562 41.9066 4.09266 42.4681 4.29356C43.4651 5.24067 43.6141 6.23944 42.915 7.29561C42.8119 7.45059 42.7947 7.61706 42.8635 7.78926C43.0984 8.38048 43.5338 8.54694 44.1813 8.28864C46.4903 7.35301 48.2551 6.75031 49.4812 6.46904C50.0313 6.68717 50.4209 6.54941 50.6501 6.0615C53.8071 5.80894 56.2651 5.10865 59.6513 6.02132C62.4073 6.76179 64.0803 10.1484 61.8572 12.5248C59.3935 15.1537 57.0443 17.9779 54.8155 20.9971C54.5806 21.3186 54.5405 21.7433 54.7181 22.0992C55.8297 24.3723 56.5172 26.984 57.6975 29.1537C58.2246 30.1238 58.769 31.0881 59.3247 32.041C59.9092 33.476 60.1785 34.8995 60.1326 36.3116C59.4279 38.8372 58.2132 41.0471 56.4886 42.9414L53.6868 44.9963C53.3659 45.2317 53.4003 45.3177 53.7956 45.2546C54.8671 45.0824 55.8927 44.6634 56.8725 44.0033C59.3305 43.0045 61.7484 41.7073 64.1262 40.1058L65.0315 37.6777C65.083 37.54 65.0716 37.4022 65.0028 37.2702C64.5674 36.4379 64.384 35.5195 64.4528 34.5264C64.4642 34.3198 64.3897 34.1476 64.235 34.0156L60.6311 30.9963C61.8859 27.9943 65.9425 28.9471 67.6843 30.9274C67.9421 31.4039 68.0796 31.9549 68.1026 32.5748C68.1026 32.7068 68.0796 32.8044 68.0166 32.8618C67.8963 32.9651 67.8161 32.9422 67.776 32.7929C67.0827 30.3419 65.4325 29.2973 62.8141 29.6589C62.1666 29.745 61.7484 29.9401 61.5593 30.2386C61.3129 30.6117 61.3645 30.9389 61.714 31.2202L64.5788 33.5219C64.9627 33.8319 65.106 34.3485 64.9341 34.8134C64.1033 37.0521 67.3348 38.665 69.0193 39.0668C70.5147 39.4285 71.7638 40.3526 73.3337 39.6982C73.5343 39.6121 73.6374 39.4457 73.6431 39.1931C73.6431 39.0037 73.5572 38.8831 73.3738 38.8315C72.6061 38.6421 72.2967 38.1484 72.4399 37.3391C72.4628 37.2128 72.3769 37.0865 72.2508 37.0693C72.2336 37.0693 72.2164 37.0693 72.1993 37.0693C71.0705 37.098 70.383 36.5584 70.1251 35.4563C70.0736 35.2153 70.1767 34.9742 70.446 34.7273C70.6866 34.5035 70.7554 34.5494 70.6523 34.8594L70.5548 35.1349C70.5033 35.2956 70.509 35.4736 70.572 35.6343C71.5919 38.2288 74.8234 35.1866 75.574 33.8262C75.6714 33.6425 75.6657 33.4645 75.5511 33.2923C74.9781 32.4371 74.0213 32.2706 72.6805 32.7815C72.3711 32.8963 72.3368 32.8389 72.5774 32.615C73.2764 31.9492 74.0671 31.7827 74.9438 32.1099C75.1214 32.173 75.2532 32.1271 75.3448 31.9664L78.7998 26.1C79.0175 25.7269 78.9316 25.2505 78.5935 24.9807L78.3644 24.797C77.6997 24.269 77.1267 24.3551 76.6512 25.0611L72.5488 31.1455C71.9586 32.0123 71.6549 31.9262 71.6377 30.8758C71.5976 28.9127 71.5633 26.7085 71.5289 24.2575C71.5117 23.3046 70.4116 22.5814 69.5579 23.2587C69.0365 23.672 68.75 24.2919 68.687 25.1185C68.5208 27.3686 68.5552 29.303 68.7901 30.9274C68.813 31.0939 68.7443 31.1628 68.5781 31.1283C68.3432 31.0824 68.1541 30.9561 68.0109 30.7495C68.2802 28.9528 68.3547 27.1218 68.2229 25.2563C68.1026 23.4941 69.8787 21.1521 71.6779 23.1152L71.993 30.2788C72.0102 30.7495 72.1591 30.7897 72.4284 30.4051C73.454 28.9184 74.5198 27.3686 75.6256 25.7442C76.0553 25.107 76.4105 24.6995 76.697 24.5158C78.1123 23.5974 79.9285 24.9291 79.1207 26.3813C78.393 27.6843 77.6539 29.148 76.8976 30.7839C76.5137 31.1628 76.1928 31.7196 75.9235 32.4543C75.8662 32.6093 75.8662 32.77 75.9235 32.9307C76.0954 33.4531 76.4048 33.8204 76.8575 34.0385C77.3731 34.2854 77.6768 34.8307 77.6138 35.4047C77.4018 37.3735 74.0671 39.8188 72.3597 40.5879C72.1935 40.6626 72.0675 40.7774 71.9873 40.9438C71.8497 41.2136 71.5575 41.3629 71.1164 41.3916C71.5002 41.1447 71.6664 40.8864 71.6206 40.6224C71.5919 40.433 71.4143 40.278 71.0934 40.1632C70.5892 39.9795 70.085 39.7901 69.5865 39.6007C68.4807 39.1816 67.266 39.2218 66.2003 38.269C65.9539 38.0451 65.5758 38.0623 65.3523 38.3091L65.2034 38.4699C64.9341 38.7626 64.9341 39.2161 65.2091 39.5088C66.865 41.2825 68.836 41.9082 71.1164 41.3916C70.8471 41.9483 70.3085 42.2181 69.4949 42.1894C69.2943 42.1837 69.1167 42.2296 68.9505 42.3387C63.7251 45.6622 58.0871 47.9065 52.0424 49.0717C57.6574 47.212 62.9917 44.9274 68.0453 42.2124C68.2573 42.0976 68.2573 41.9828 68.0453 41.8737L65.2893 40.4387C65.0773 40.3296 64.871 40.3469 64.682 40.4961C61.3931 43.0619 56.8037 44.9676 53.1367 45.909C51.372 46.3624 50.0141 46.9422 48.4327 47.5736C47.2065 48.0558 46.032 48.0156 44.9032 49.2784C44.6053 49.2612 44.3589 49.3702 44.1641 49.5998C44.1011 49.6802 44.1068 49.7893 44.1813 49.8581C44.1927 49.8639 44.1985 49.8696 44.2099 49.8754C44.2615 49.9041 44.3073 49.927 44.3532 49.9557C44.4792 50.0303 44.4735 50.0877 44.336 50.1394C43.1786 50.5412 43.2817 53.0324 43.3047 54.41C42.8062 54.123 42.4509 54.2493 42.2389 54.7831C42.1816 54.9266 42.09 55.0931 41.9696 55.2825C41.8149 55.5236 41.8092 55.7417 41.9525 55.9426C42.0613 56.0976 42.1129 56.264 42.1186 56.4535C42.1415 57.8483 41.7004 59.048 40.7951 60.0582C40.5945 60.2763 40.5544 60.5232 40.669 60.7929L40.9268 61.3842C41.0357 61.6425 41.1961 61.6712 41.4024 61.4818C43.3734 59.6449 44.0094 57.2858 43.3047 54.41C43.339 54.3698 43.3906 54.3469 43.4651 54.3411C43.5911 54.3411 43.6713 54.3985 43.7057 54.5248C44.5308 57.5556 43.849 60.0123 41.4941 62.1074C41.3451 62.2394 41.305 62.4002 41.3738 62.5896C42.1072 64.7019 43.1385 67.3883 40.8466 68.9496C39.2595 70.0344 36.876 71.0562 36.6353 72.6175C36.6067 72.8069 36.6583 72.9963 36.7729 73.1455C38.274 75.034 40.7263 80.1542 37.5464 81.526C38.6808 79.9418 38.8699 78.2255 38.1136 76.3772C37.5635 75.0455 36.5952 73.0135 35.0081 72.9848C34.819 72.9848 34.6586 73.0537 34.5268 73.1857L31.2781 76.4518C30.8599 76.6298 30.5848 76.8651 30.4531 77.1636C30.3843 77.3243 30.4129 77.5023 30.5275 77.6343L34.0226 81.6121C32.3553 80.8315 31.0432 79.6433 30.0749 78.0533C29.8686 77.7146 29.4275 77.6113 29.0894 77.818C29.0779 77.8237 29.0665 77.8352 29.055 77.8409L27.4049 79.0004C27.2387 79.1152 27.1413 79.2759 27.1184 79.4826C26.809 82.0599 24.5802 84.7634 21.7325 83.8106C20.7814 83.4949 20.2027 82.7142 19.4349 82.0082C19.2917 81.8762 19.1198 81.8245 18.925 81.8532C17.8937 82.0139 16.9655 82.3354 15.9571 82.387C12.0895 82.5994 9.60861 82.5937 8.5257 82.3756C6.44584 81.9623 3.1914 81.4572 1.47251 80.1943C-0.899564 78.4551 0.194798 70.4018 0.704737 68.0426C1.86785 62.6585 4.76133 58.4912 9.37369 55.5408C11.5681 54.1345 13.3902 53.2218 14.8283 52.8085C15.9284 52.4928 16.7879 52.1484 17.4067 51.7868C17.5957 51.672 17.6473 51.5687 17.5728 51.4826C17.5098 51.4022 17.3551 51.3218 17.1202 51.2472L23.9728 50.9832C24.0931 51.1726 24.0702 51.3391 23.8926 51.4711C23.8009 51.54 23.6634 51.5802 23.4858 51.5859C22.5977 51.6261 21.5664 51.7351 20.3918 51.9016C20.1798 51.936 20.0194 52.114 20.0136 52.3264L19.9965 53.1759C19.9965 53.3538 20.134 53.5031 20.3116 53.5031C20.3632 53.5031 20.409 53.4916 20.4548 53.4744L24.1791 51.7294C24.3739 51.6318 24.4255 51.4883 24.3338 51.2932L24.053 50.6847C23.8869 50.2485 23.6921 49.818 23.4801 49.3932C23.0905 48.6355 22.3284 48.2796 21.9388 47.4014C21.8643 47.2349 21.8299 47.057 21.8471 46.8676C21.8529 46.7355 21.8357 46.615 21.7956 46.5059C21.744 46.3567 21.6179 46.2419 21.4174 46.1615C20.9304 45.9606 20.1683 45.7712 19.1313 45.5933C17.9338 45.3924 15.3612 44.4682 11.402 42.8151C9.59142 42.0631 7.54593 41.845 6.87557 44.0377C5.36294 48.9971 13.4475 50.7651 16.679 51.2128C14.496 51.1669 12.3359 50.7536 10.2045 49.9672C7.57458 49.0029 4.32587 44.7954 7.43707 42.3674C8.43976 41.5867 9.78049 41.3112 10.978 42.0172C11.2129 42.1607 11.4707 42.264 11.763 42.3387L19.1026 45.1398C19.2172 45.18 19.2974 45.1398 19.349 45.0307L19.4063 44.893C19.4063 44.893 19.4063 44.8528 19.3891 44.8413L13.3271 41.139C7.85533 36.7134 0.939653 30.7495 4.90457 23.8155C5.64369 22.5297 6.81254 21.7663 8.42257 21.5195C11.6827 21.0258 13.7397 25.2276 15.0117 27.4891C15.1492 27.7245 15.4471 27.7991 15.6763 27.6671C15.6935 27.6556 15.7107 27.6441 15.7279 27.6326C19.6183 24.5961 22.2024 31.4096 22.3112 34.1533C22.3112 34.2681 22.3685 34.3026 22.4717 34.2509L23.99 33.476C24.076 33.4358 24.1046 33.367 24.0817 33.2694C23.6806 31.6564 23.5431 30.0205 23.6749 28.3674C23.6921 28.1894 23.6462 28.0344 23.5374 27.8967C22.1565 26.1115 19.7902 23.0119 19.8131 21.1062C19.8876 13.4317 24.6948 9.28167 31.599 6.98565C31.6448 7.14063 31.6162 7.23247 31.5188 7.26691C30.4416 7.62854 29.6051 8.27142 28.717 8.66175C23.8869 10.7798 21.1596 14.4362 20.5293 19.631C20.2256 22.1566 21.7841 24.6765 23.2795 26.5191C23.5889 26.9036 23.8296 26.8635 23.9957 26.3985C25.5886 22.0533 27.8289 19.1718 31.5761 16.1296C34.8649 13.4604 38.3886 11.1242 42.1473 9.11521C43.0812 8.61583 43.0239 8.32308 41.9639 8.24272C41.4081 8.1968 40.6576 8.79377 39.9184 8.1107L39.1621 7.10619C37.7125 6.01558 36.452 6.25666 34.9394 6.27962C34.4294 6.28536 34.0226 6.70439 34.0284 7.21525C34.0284 7.25543 34.0284 7.30135 34.0398 7.34153C34.206 8.44362 34.0513 9.34481 33.5757 10.0394C33.7934 8.69045 33.8106 7.43911 33.6216 6.2911C33.633 5.98688 33.8049 5.90078 34.1315 6.02706C34.3091 6.09594 34.4867 6.11316 34.6758 6.07872C35.6728 5.8893 36.3832 5.72284 37.4547 5.81468C38.0047 5.86634 38.5204 5.87782 38.996 5.84912C39.1965 6.02132 39.3627 6.27388 39.4944 6.61255C40.0903 8.06478 41.3279 8.25994 42.5254 7.14637C43.0296 6.67569 43.0583 5.8893 42.5942 5.38991C42.2905 5.06273 41.9582 4.80443 41.5972 4.62075C41.4253 4.53464 41.2477 4.52316 41.0644 4.59205L39.546 5.15457C38.2511 3.49569 35.9936 2.95039 33.9997 2.54284C33.8106 2.50266 33.7018 2.58303 33.6731 2.77819C33.5528 3.6392 33.6044 4.48298 33.8221 5.31529C33.8679 5.49897 33.8221 5.6597 33.696 5.79746L33.295 6.22796L33.0199 6.3772C32.9569 6.35998 32.8939 6.34276 32.8309 6.32554C32.7908 5.27511 32.6991 4.23616 32.5673 3.22017C32.4813 2.51988 32.5673 2.03198 32.8137 1.75072C34.206 0.206642 38.5261 3.15129 39.397 3.98934C39.483 4.07544 39.5804 4.1271 39.6778 4.15006C39.7924 4.17302 39.9012 4.17876 40.0101 4.16728L40.0044 4.16154ZM29.6566 18.5576C27.6684 20.6068 26.0985 22.9373 24.9354 25.5375C24.4025 26.7314 24.1504 27.9254 24.1734 29.1193C24.202 30.3649 24.3624 31.6048 24.6604 32.8389C24.7062 33.034 24.8265 33.1201 25.0214 33.0972C29.8858 32.5633 33.3293 36.501 34.2862 40.9094C34.5154 42.9356 33.7648 45.467 31.2953 45.3981C31.0146 45.3924 30.7796 45.5187 30.5848 45.7884C30.4187 46.0238 30.4588 46.2132 30.6994 46.3624C34.0742 48.4633 37.7526 49.3071 41.729 48.8938C41.8379 48.8823 41.9066 48.9282 41.9353 49.0373C41.9639 49.1406 41.9639 49.2038 41.9353 49.2267C37.638 49.927 33.696 49.1406 30.1093 46.8676C29.9431 46.7642 29.777 46.7585 29.6051 46.8561C29.267 47.0455 28.9863 47.2923 28.7628 47.608C28.6196 47.8089 28.6654 48.0959 28.8659 48.2394C28.9805 48.3198 29.1238 48.3428 29.2556 48.3083L30.3671 47.9984C30.8599 47.8606 31.3698 48.1419 31.5073 48.6355C31.5818 48.8938 31.536 49.1751 31.387 49.3989C31.0146 49.9672 30.5161 50.3518 29.8916 50.5584C29.7139 50.6158 29.6165 50.8052 29.6738 50.9832C29.6967 51.0578 29.7426 51.1152 29.8056 51.1611C30.3671 51.5457 30.4359 52.0394 30.0176 52.6478C29.6337 53.2046 29.2384 53.4227 28.8316 53.3136C29.2957 52.9807 29.565 52.6593 29.6509 52.3436C29.7941 51.804 29.479 51.253 28.9404 51.1037C28.7284 51.0463 28.505 51.0578 28.2987 51.1439C26.6715 51.7925 24.8437 51.9647 23.3827 52.5961C20.9476 53.6466 18.5583 55.0701 16.2149 56.8553C15.7966 57.171 15.6591 57.7392 15.8768 58.2099L15.9456 58.3592C16.0946 58.6921 16.4899 58.8356 16.8222 58.6863C16.8853 58.6576 16.9368 58.6232 16.9884 58.5773C20.2199 55.713 23.6634 53.9967 27.3132 53.4285C27.7773 53.3538 27.9664 53.4859 27.8919 53.8245C28.1268 54.674 28.5909 55.3284 29.2785 55.7934C29.4618 55.8737 29.5993 56.0287 29.6853 56.2526C30.5275 58.4223 31.0375 60.6724 31.2036 63.0029C31.4959 67.1529 26.958 69.1332 23.841 70.1263C23.6119 70.2009 23.4858 70.442 23.5546 70.6716C23.5775 70.7347 23.6119 70.7921 23.6577 70.8438L23.8812 71.0791C24.2307 71.4408 24.6375 71.5383 25.1073 71.3719C27.7143 70.442 31.2609 68.8233 32.4985 66.1829C33.8622 63.2612 32.1147 58.5543 31.4386 55.581C31.238 54.6798 30.2296 54.5076 29.5535 54.9897C29.3587 54.8233 29.4618 54.5994 29.8572 54.3239C30.3786 53.9623 31.089 54.0828 31.45 54.5994C31.5073 54.6855 31.5589 54.7774 31.5933 54.8807L32.5043 57.4981C32.6762 57.9918 33.0199 58.2673 33.5413 58.319C35.7816 58.5543 37.7584 58.0607 39.4601 56.8323C41.454 55.6097 42.577 53.8877 42.8234 51.672C42.9838 50.92 42.9838 50.1968 42.8234 49.5137C42.7603 49.2439 42.577 49.089 42.2733 49.0545L41.4998 47.786C41.4712 47.6769 41.4597 47.5793 41.4654 47.4932C41.4769 47.2521 41.5628 47.2234 41.7233 47.4014C42.9838 48.8249 44.3532 48.9455 45.8257 47.7688C45.9575 47.6597 46.1122 47.6023 46.2783 47.5851C52.5408 46.9479 61.5364 39.4457 58.7518 32.4658C57.9324 30.3993 56.6948 28.5855 55.9786 26.565C53.6868 20.1017 50.2776 14.4248 42.6114 14.4362C39.2022 14.4362 35.6384 15.4982 31.9256 17.6105C35.3576 15.1825 39.271 13.8737 43.6656 13.6843C48.3467 14.132 51.7903 16.4338 53.9904 20.5838C54.0707 20.7446 54.2712 20.8077 54.4316 20.7216C54.4775 20.6986 54.5176 20.6642 54.5462 20.624C56.5917 17.8057 58.7804 15.0504 61.1181 12.3698C63.5589 9.56293 61.5478 6.76179 58.2762 6.38294C48.2723 4.89627 36.5551 11.9336 29.6566 18.5576ZM18.1343 43.5843C18.8734 44.032 19.2573 44.2673 19.286 44.2845C20.7871 45.3522 20.9533 45.1742 19.7845 43.745C18.3864 42.0344 17.9109 39.7843 18.3578 37.0004C18.6614 35.1004 16.3753 31.9032 15.2523 30.428C15.0346 30.1468 14.9544 29.6876 15.0174 29.0504C15.0346 28.861 15.0002 28.6888 14.9143 28.5223C13.5162 25.9221 11.0353 21.1406 7.74074 22.3173C4.70976 23.408 4.24566 26.4272 4.52068 29.3891C5.01343 34.6872 13.9288 41.0357 18.1343 43.5843ZM21.4862 35.0201C22.0247 33.608 21.8185 32.2706 20.8674 31.0135C20.535 29.4695 19.6584 28.3731 18.2375 27.736C16.7764 27.0758 14.7309 28.3042 15.8195 30.0148C16.7134 31.4153 19.4235 35.3989 19.1198 36.8741C18.2432 41.1218 20.3689 44.9217 24.0588 47.1259C24.1103 47.1603 24.1218 47.2062 24.0874 47.2579C24.0874 47.2579 24.053 47.2464 23.9843 47.2177C23.5374 47.0053 23.0733 46.8618 22.592 46.7872C22.4717 46.77 22.3571 46.8503 22.3341 46.9709C22.3284 47.0168 22.3341 47.0627 22.3571 47.1029C23.3598 49.1291 26.471 49.2612 28.081 48.2394C28.207 48.1591 28.2471 47.9869 28.1612 47.8606C28.1326 47.8147 28.0924 47.7802 28.0466 47.7573C27.5137 47.5277 26.9179 47.9754 26.2876 47.7688C26.0412 47.6827 26.047 47.608 26.2933 47.5449C27.0611 47.344 27.8403 47.4358 28.5107 47.0225C29.3873 46.4772 29.989 45.8229 30.327 45.0594C30.6307 44.3764 30.4129 43.9459 29.6853 43.7679C29.6051 43.7622 29.5478 43.6933 29.5535 43.613C29.5592 43.5326 29.628 43.4752 29.7082 43.4809C29.9317 43.4637 30.1265 43.5039 30.3041 43.5957C30.4817 43.6876 30.6708 43.6991 30.8599 43.6244L32.0058 43.1767C32.1261 43.125 32.2006 43.1652 32.235 43.2915L32.2751 43.4408C32.2751 43.4408 32.2751 43.458 32.2636 43.4637C31.6391 43.6359 31.2552 43.9918 31.1062 44.5256C31.0661 44.6863 31.1578 44.8471 31.3125 44.893C31.3526 44.9045 31.3927 44.9045 31.4328 44.8987C37.0078 44.0148 31.2151 30.1066 22.7467 34.7618C22.1852 35.066 21.681 35.6458 21.1309 36.059C20.9017 36.2312 20.8273 36.1796 20.9075 35.9041C21.0049 35.5654 21.1997 35.2726 21.4862 35.0201ZM75.8891 34.492L72.7837 37.1841C72.5889 37.3506 72.5717 37.6433 72.7378 37.8385L73.0931 38.246C73.5343 38.7569 74.5943 38.556 75.4652 37.804L76.1183 37.2358C76.9892 36.4838 77.333 35.4563 76.8918 34.9455L76.5423 34.5379C76.3762 34.3428 76.084 34.3255 75.8891 34.492ZM26.7632 49.5826L24.4197 49.1004C24.1161 49.0373 24.0129 49.1521 24.1161 49.4449C24.3281 50.0533 24.6489 50.5929 25.0901 51.0578C25.2391 51.2128 25.4224 51.2874 25.6344 51.2759C27.4335 51.1726 29.0894 50.633 30.602 49.663C30.7223 49.5884 30.8083 49.4908 30.8599 49.3817C30.9286 49.2325 30.963 49.1004 30.9573 48.9914C30.9458 48.7216 30.7166 48.5035 30.4416 48.5092C29.2155 48.5207 28.1211 48.8536 27.1528 49.5023C27.0325 49.5884 26.9064 49.6113 26.7632 49.5826ZM21.9675 58.009C24.0015 61.344 26.7173 63.4334 30.115 64.2772C30.4588 64.3633 30.8083 64.1509 30.8942 63.8065C30.9114 63.7319 30.9172 63.6515 30.9057 63.5769C30.5963 61.0225 30.4359 57.4522 28.4419 55.8221C27.932 55.2251 27.5768 54.6224 27.3705 54.0197C27.2846 53.7729 27.1184 53.681 26.872 53.7442C24.9354 54.2148 23.1134 54.961 21.4117 55.9885C21.1538 56.1435 21.0679 56.4822 21.2226 56.7405L21.9675 58.009ZM5.29991 69.1332C7.95274 74.46 12.5307 79.2702 18.2203 81.2448C18.4036 81.3137 18.6099 81.2161 18.6729 81.0324C18.7073 80.9348 18.7016 80.8257 18.65 80.7339C16.9712 77.6343 15.4815 73.0882 17.6358 69.7073C17.7332 69.558 17.7218 69.3571 17.6129 69.2136C16.4441 67.6982 15.1664 66.7109 14.4387 64.8569C14.5476 64.679 14.7366 64.633 14.9945 64.7191C15.1664 64.7765 15.3268 64.7536 15.4815 64.656C17.1202 63.5884 17.4754 62.1878 16.5529 60.46C16.4555 60.2821 16.4899 60.1328 16.6618 60.0238L17.4009 59.5416C17.4869 59.4842 17.5098 59.3637 17.4468 59.2776C17.4067 59.2259 17.3436 59.1915 17.2806 59.1972C15.9112 59.3235 14.4559 58.2616 15.6305 56.8438C15.7737 56.6716 15.7336 56.5568 15.5216 56.4994C14.8169 56.3157 14.1236 56.7462 14.0892 57.5211C14.0605 58.0894 13.9345 58.1123 13.7225 57.5785C13.5391 57.125 13.2011 56.9586 12.7141 57.0906C8.92105 58.0836 7.17351 61.7286 10.5597 64.6962C11.3447 65.385 12.1239 65.695 12.8974 65.6318C13.0922 65.6146 13.2698 65.5113 13.3844 65.3505C13.6194 65.0234 13.8485 64.8741 14.0777 64.8913C14.221 65.0061 14.221 65.1324 14.0777 65.2644C12.6854 66.556 11.2817 66.3665 9.8779 64.7019C6.85265 61.7171 8.36527 58.9791 11.465 57.1193C11.677 56.993 11.7973 56.8093 11.826 56.5625L12.0322 54.8003C12.0609 54.542 11.9635 54.4674 11.7286 54.5879C9.12158 55.9139 4.47484 59.002 4.09096 62.1304C3.79302 64.5642 4.19409 66.9004 5.29991 69.1332ZM39.4715 57.7105C39.3111 57.8311 39.271 58.0549 39.3798 58.2271L40.1419 59.4326C40.2565 59.6162 40.4971 59.6679 40.6805 59.5531C40.7492 59.5129 40.8008 59.4498 40.8294 59.3752L41.9525 56.7003C42.0384 56.5051 41.9525 56.2755 41.7519 56.1894C41.6201 56.132 41.4654 56.155 41.3508 56.2411L39.4715 57.7105ZM19.7673 58.2673L17.4353 60.0295C17.252 60.1673 17.2176 60.3395 17.3322 60.5404C18.4093 62.4518 17.0571 63.9557 15.7451 65.1209C15.3669 65.4539 15.3497 65.804 15.6878 66.1771L18.0083 68.7085C18.1515 68.8692 18.3291 68.9151 18.5411 68.852C19.8876 68.4272 23.5202 68.0426 24.689 68.9266C24.8552 69.0471 25.0328 69.0758 25.2219 69.0184C26.9809 68.4961 29.4618 67.1013 30.3327 65.2989C30.4244 65.1037 30.3671 64.9832 30.1608 64.9315C25.4969 63.7491 23.9614 61.1431 20.9934 57.9172C20.8616 57.7737 20.7642 57.613 20.7012 57.435L20.5923 57.125C20.4949 56.8495 20.3574 56.8266 20.1741 57.0562C19.9392 57.3547 19.6527 57.59 19.3204 57.7565C19.2459 57.7966 19.2172 57.8942 19.2573 57.9688C19.2917 58.032 19.3605 58.0607 19.4292 58.0435C19.5266 58.0148 19.624 58.0148 19.7214 58.0377C19.899 58.0779 19.9162 58.1583 19.7673 58.2673ZM33.5528 64.3403C33.5643 64.4436 33.6559 64.5182 33.7591 64.5125C33.7762 64.5125 33.7877 64.5125 33.8049 64.501L37.6781 63.1578C37.7584 63.1349 37.8099 63.0603 37.8099 62.9742L37.7526 58.9791C37.7526 58.8758 37.6667 58.7897 37.5635 58.7897C37.5578 58.7897 37.5521 58.7897 37.5464 58.7897L33.1574 59.0652C33.0543 59.0652 32.9741 59.1628 32.9798 59.2661V59.2776L33.5528 64.3403ZM37.8443 68.7601L39.2939 67.5547C39.4429 67.4285 39.5288 67.2677 39.5575 67.0726C39.6262 66.5732 39.6033 66.0795 39.4887 65.5916C39.3512 65.0004 38.8584 64.5986 38.8871 63.8065C38.8928 63.6917 38.8413 63.6343 38.7267 63.64H38.5834C38.4746 63.64 38.4058 63.6974 38.3772 63.8065L37.2255 68.3813C37.1854 68.5363 37.237 68.6396 37.3859 68.7027C37.512 68.7544 37.6667 68.7774 37.8443 68.7601C36.8588 69.248 36.1598 70.0861 35.753 71.2628C35.69 71.4293 35.7472 71.4809 35.9134 71.4121C37.7985 70.6027 42.1014 68.6052 41.729 66.1599C41.4482 64.3173 40.6518 62.0213 39.334 59.2718C39.185 58.9561 38.9559 58.738 38.6522 58.606C38.5376 58.5601 38.4001 58.6175 38.3542 58.7323C38.3428 58.761 38.3371 58.7954 38.3371 58.8298L38.4516 62.1993C38.4574 62.4116 38.5204 62.6068 38.6407 62.7847C40.0846 64.9143 41.179 67.9967 37.8443 68.7601ZM2.0111 74.9078C1.62721 75.4875 1.69597 76.1189 2.21163 76.802C3.094 77.9787 4.05658 79.2243 5.09937 80.5445C3.17994 79.0406 1.86785 77.4219 1.16884 75.6941C0.613062 74.3223 0.395336 74.3854 0.527118 75.8836C0.664629 77.508 0.349499 79.5113 2.29758 80.3436C3.32891 80.7856 4.36025 81.0668 5.38586 81.1759C5.76974 81.0324 6.25103 81.0955 6.824 81.371C7.32821 81.6179 7.76939 81.7556 8.14755 81.7843C9.75758 81.9106 11.3733 82.0312 12.9834 82.1402C14.3184 82.2378 15.5273 81.8532 16.8394 81.6294C16.9941 81.6007 16.9998 81.5547 16.8623 81.4859C11.465 78.811 8.72624 75.5736 5.04781 69.9483C3.97636 68.0139 3.39194 66.0566 3.28308 64.0877C3.22578 63.0832 3.01378 63.0545 2.64709 63.9902C1.44386 67.0783 0.767763 70.2813 0.624522 73.599C0.595874 74.1902 0.876626 74.5174 1.46105 74.5863C1.66159 74.6093 1.84494 74.7183 2.0111 74.9078ZM25.2964 72.1296C23.8697 72.0492 22.4316 71.1021 23.8124 69.5982C24.0416 69.3456 24.0072 69.1447 23.7035 68.9897C23.1707 68.72 22.6607 68.7716 22.1623 69.1505C22.0247 69.2538 21.9961 69.449 22.105 69.5867C22.1279 69.6212 22.1565 69.6441 22.1909 69.6671C22.3112 69.7417 22.3628 69.8278 22.3456 69.9311C22.3227 70.0287 22.2769 70.0459 22.2024 69.977C21.956 69.7532 21.7612 69.4891 21.6122 69.1792C21.532 69.0242 21.4059 68.8979 21.2512 68.8233C20.5923 68.5076 20.0881 68.5707 19.7272 69.007C17.5327 69.5121 17.0743 72.0033 17.1717 73.9032C17.3494 77.2841 18.9651 82.1517 22.3628 83.6212C22.8727 83.8393 23.2624 83.7015 23.7322 83.4777C24.0072 83.5925 24.2135 83.581 24.3453 83.4432C24.4255 83.3571 24.4713 83.2767 24.477 83.1907C24.4828 83.0701 24.5458 82.984 24.6547 82.9324C25.7834 82.41 26.1444 81.3079 26.5855 80.0681C26.8147 79.4424 26.8778 78.8053 26.7804 78.1566C26.5512 76.6183 26.2017 75.0972 25.7261 73.5933C25.6631 73.4039 25.537 73.3177 25.3365 73.335C24.9641 73.3694 24.6088 73.4325 24.265 73.5244C24.0359 73.5818 23.8525 73.5875 23.7207 73.5416C23.5202 73.4727 23.3769 73.3465 23.291 73.1628C23.1993 72.9676 23.2566 72.8987 23.4686 72.9504C24.2994 73.1685 24.9182 72.9676 25.3308 72.3534C25.3136 72.2731 25.3422 72.2157 25.4167 72.187C25.5313 72.1353 25.623 72.164 25.6974 72.2673L26.2188 72.9963C26.3392 73.1628 26.4996 73.2546 26.7001 73.2718C28.9633 73.4957 31.1521 73.2144 33.2549 72.4395C34.1143 72.1238 34.7789 71.5843 35.2488 70.8323C36.3775 69.0299 37.2255 66.7052 37.7927 63.8524C37.8042 63.795 37.7698 63.7433 37.7183 63.7261C37.6953 63.7261 37.6781 63.7261 37.6552 63.7261L33.6158 65.1152C33.5299 65.1439 33.4726 65.1956 33.4439 65.2817C32.0917 69.0357 28.4878 70.1492 25.2964 72.1238V72.1296ZM35.2545 72.5601C35.6097 72.6634 35.8275 72.583 35.9077 72.3132C35.9421 72.1984 35.8848 72.0722 35.7759 72.009C35.4608 71.8426 35.2373 71.9172 35.0998 72.2271C35.0253 72.3936 35.0769 72.5084 35.2545 72.5601ZM27.72 78.1222C30.0405 76.6929 32.1089 74.9651 33.9252 72.9389C34.3034 72.5141 34.2346 72.4166 33.7132 72.6404C31.5073 73.6105 29.204 73.9951 26.8033 73.7999C26.6257 73.7884 26.5512 73.8688 26.5798 74.041L27.2616 77.9155C27.3132 78.214 27.4679 78.2829 27.72 78.1222Z" fill="#10100A"/>
<path d="M50.9022 5.48175C50.5412 5.50471 50.1287 5.69414 49.6531 6.05576C48.6504 5.72284 48.0546 5.18901 47.8655 4.44854C48.0775 4.39114 48.2379 4.4141 48.341 4.52316C51.1199 7.41041 53.4003 1.63018 49.6875 1.92866C49.3151 1.95736 48.9484 1.9344 48.5874 1.85404C51.9851 0.126281 53.4175 4.36818 50.9022 5.48175Z" fill="#10100A"/>
<path d="M48.5874 1.85404C48.9484 1.9344 49.315 1.95736 49.6875 1.92866C53.4003 1.63018 51.1199 7.41041 48.341 4.52316C48.2379 4.4141 48.0774 4.39114 47.8654 4.44854C47.6535 3.97212 47.6019 3.47847 47.6993 2.96761C48.0144 2.82411 48.2493 2.53136 48.404 2.0779L48.5874 1.85404Z" fill="#F6B801"/>
<path d="M38.9902 5.84338C39.1163 5.59656 39.2996 5.36696 39.5403 5.14883L41.0586 4.58631C41.242 4.51743 41.4196 4.52891 41.5915 4.61501C41.9525 4.79869 42.2848 5.05699 42.5885 5.38418C43.0526 5.88356 43.0239 6.66995 42.5197 7.14063C41.3222 8.2542 40.0846 8.05904 39.4887 6.60681C39.3569 6.26815 39.1908 6.01558 38.9902 5.84338Z" fill="#F6B801"/>
<path d="M50.9022 5.48175C50.7475 5.6597 50.6615 5.84912 50.6501 6.0615C50.4209 6.54941 50.0313 6.68717 49.4812 6.46904L49.6531 6.05576C50.1287 5.69414 50.5412 5.50471 50.9022 5.48175Z" fill="#8F8C8A"/>
<path d="M58.2762 6.38294C60.5452 11.5031 53.9561 13.1045 50.2776 13.4088C50.0542 13.426 48.9541 13.3801 46.9831 13.271C45.8314 13.2079 44.7256 13.3456 43.6656 13.6843C39.271 13.8737 35.3576 15.1825 31.9256 17.6105C31.2609 18.3108 30.5046 18.6265 29.6566 18.5576C36.5551 11.9336 48.2723 4.89627 58.2762 6.38294Z" fill="#47B160"/>
<path d="M39.1564 7.10045C38.7897 7.31858 38.784 7.61706 39.1449 8.00164C39.2824 8.15088 39.4486 8.20254 39.6434 8.16236L39.9127 8.10496C40.6518 8.78803 41.4024 8.19106 41.9582 8.23698C43.0182 8.31735 43.0755 8.61009 42.1415 9.10947C38.3829 11.1185 34.8591 13.4547 31.5703 16.1238C27.8231 19.1661 25.5829 22.0476 23.99 26.3928C23.8239 26.8577 23.5832 26.8979 23.2738 26.5133C21.7784 24.6708 20.2199 22.1509 20.5236 19.6253C21.1538 14.4305 23.8812 10.7741 28.7112 8.65601C29.5993 8.26568 30.4359 7.6228 31.513 7.26117C31.6104 7.22673 31.6391 7.13489 31.5933 6.97991C31.662 6.93399 31.7938 6.89381 31.9943 6.85937C32.6876 7.5941 32.7449 8.51251 32.1605 9.62034C32.0745 9.78106 32.0917 9.97622 32.2121 10.1082C32.3897 10.3149 32.4985 10.3436 32.5444 10.2001C32.722 10.3264 33.0658 10.269 33.57 10.0336C34.0455 9.33908 34.2002 8.43789 34.0341 7.3358C33.9596 6.83067 34.3034 6.35999 34.8076 6.28536C34.8477 6.27962 34.8935 6.27388 34.9336 6.27388C36.4463 6.25092 37.7068 6.00984 39.1564 7.10045Z" fill="#00903E"/>
<path d="M32.8252 6.31981C32.8882 6.33703 32.9512 6.35425 33.0142 6.37147L32.5444 10.2001C32.4986 10.3436 32.3897 10.3149 32.2121 10.1082C32.0918 9.97622 32.0746 9.78106 32.1605 9.62034C32.7449 8.51251 32.6876 7.5941 31.9944 6.85937C32.3897 6.70439 32.6705 6.52071 32.8252 6.31981Z" fill="#53411D"/>
<path d="M33.0142 6.37146L33.2892 6.22222C33.3694 6.27962 33.4783 6.30258 33.6158 6.28536C33.8049 7.43337 33.7877 8.68471 33.57 10.0336C33.0658 10.269 32.722 10.3264 32.5444 10.2001L33.0142 6.37146Z" fill="#96CEAD"/>
<path d="M58.2762 6.38294C61.5478 6.76179 63.559 9.56293 61.1181 12.3698C58.7804 15.0504 56.5917 17.8057 54.5462 20.624C54.4431 20.7733 54.2368 20.8077 54.0878 20.6986C54.0477 20.6699 54.0134 20.6298 53.9904 20.5838C51.7903 16.4338 48.3467 14.132 43.6656 13.6843C44.7256 13.3456 45.8314 13.2079 46.9831 13.271C48.9541 13.3801 50.0542 13.426 50.2776 13.4088C53.9561 13.1046 60.5452 11.5031 58.2762 6.38294Z" fill="#00903E"/>
<path d="M39.1564 7.10045L39.9127 8.10496L39.6434 8.16236C39.4486 8.20254 39.2824 8.15088 39.1449 8.00164C38.784 7.61706 38.7897 7.31857 39.1564 7.10045Z" fill="#96CEAD"/>
<path d="M41.4998 47.786C39.2767 47.3957 37.2771 46.4084 35.5009 44.8184C35.1571 44.5141 35.031 44.0377 35.1686 43.6015C35.4837 42.6142 35.1915 41.7187 34.2862 40.9094C33.3293 36.501 29.8858 32.5633 25.0214 33.0972C24.8265 33.1201 24.7062 33.034 24.6604 32.8389C24.3624 31.6048 24.202 30.3649 24.1734 29.1193C24.1504 27.9254 24.4026 26.7314 24.9354 25.5375C26.0985 22.9373 27.6685 20.6068 29.6566 18.5576C30.5046 18.6265 31.2609 18.3108 31.9256 17.6105C35.6384 15.4982 39.2022 14.442 42.6114 14.4362C50.2776 14.4248 53.6868 20.1017 55.9786 26.565C56.6948 28.5855 57.9324 30.3993 58.7518 32.4658C61.5364 39.4457 52.5408 46.9479 46.2783 47.5851C46.1122 47.6023 45.9575 47.6597 45.8257 47.7688C44.3532 48.9455 42.9838 48.8249 41.7233 47.4014C41.5628 47.2235 41.4769 47.2522 41.4654 47.4932C41.4654 47.5793 41.4712 47.6769 41.4998 47.786ZM44.3303 18.0869C44.3016 18.1501 44.3303 18.2189 44.3876 18.2476C44.4277 18.2649 44.4678 18.2591 44.5079 18.2362C45.5679 17.4153 46.0262 16.7036 47.5446 16.87C47.6477 16.8815 47.705 16.8356 47.7222 16.7323L47.7451 16.5888C47.7451 16.5543 47.7337 16.5314 47.6993 16.5256C46.1924 16.2501 45.0694 16.7724 44.3303 18.0869ZM32.7564 20.5609C33.845 19.5277 35.2087 19.1948 36.5952 19.8836C36.813 19.9926 36.8531 19.9467 36.7156 19.7458C35.7874 18.351 33.4038 19.4129 32.6246 20.4403C32.5959 20.4863 32.5959 20.5264 32.6361 20.5609C32.6762 20.6011 32.7163 20.6011 32.7564 20.5609ZM32.0975 26.7716L32.3954 27.3973C31.9141 27.8278 32.1032 28.7577 32.9569 30.187L36.5609 33.6597C36.6926 33.786 36.8416 33.8262 37.0192 33.786L41.9639 32.638C42.0728 32.615 42.09 32.5633 42.0098 32.4772C41.9639 32.4256 41.8837 32.3854 41.7691 32.3567C41.7462 32.305 41.792 32.2304 41.9009 32.1386C46.5476 26.8749 35.18 18.3337 32.0001 25.9738C31.9542 26.0886 31.8396 26.1861 31.662 26.2722C31.4844 26.3526 31.4615 26.4674 31.5875 26.6166C31.725 26.7831 31.8969 26.8348 32.0975 26.7716ZM47.1894 25.9623C48.2322 24.8544 49.6015 24.6076 51.2975 25.2103C51.3433 25.2276 51.372 25.2103 51.3835 25.1644L51.4236 25.0037C51.4522 24.8889 51.4064 24.8143 51.2975 24.7798C48.8166 23.9475 46.9945 24.6708 45.8257 26.9496C45.671 27.2538 45.7512 27.3399 46.0663 27.2194C46.2726 27.139 46.4445 27.0127 46.5763 26.8405C46.7138 26.6626 46.8914 26.565 47.1149 26.5478L49.9109 26.3296C49.9625 26.3182 49.9911 26.2722 49.9854 26.2206C49.9797 26.1861 49.9568 26.1574 49.9224 26.1517C49.0572 25.9164 48.1978 25.9336 47.3441 26.2091C46.9659 26.3354 46.9143 26.255 47.1894 25.9623ZM38.9043 39.0496C38.5777 38.3436 38.3256 37.8729 38.148 37.6376C38.062 37.5113 37.9417 37.4481 37.787 37.4424C37.5922 37.4367 37.5464 37.5113 37.6438 37.6777C38.6006 39.2333 38.6808 40.8577 37.8729 42.5625C37.7755 42.7634 37.8157 42.8036 38.0047 42.6773C38.1824 42.5568 38.274 42.3903 38.2855 42.1722C38.2969 42.0287 38.4173 41.9254 38.5605 41.9311C38.635 41.9311 38.698 41.9713 38.7439 42.0287C39.7809 43.3719 41.0357 45.3178 42.3593 46.0238C44.9204 47.3899 47.8311 45.1398 49.3208 43.171C50.6787 41.3686 51.5267 40.4387 52.7127 39.0668C52.7929 38.9692 52.9362 38.9578 53.0336 39.0381C53.0737 39.0726 53.1023 39.1185 53.1138 39.1702C53.2112 39.6121 53.4576 39.9221 53.8644 40.1115C53.9331 40.146 54.0134 40.1115 54.0477 40.0484C54.0707 39.9967 54.0649 39.9336 54.0248 39.8934C53.343 39.1185 53.0279 38.2058 53.0794 37.1554C53.0794 37.1095 53.0451 37.0693 52.9992 37.0636C52.9935 37.0636 52.9878 37.0636 52.982 37.0636L52.7987 37.0808C52.7586 37.0865 52.7299 37.121 52.7357 37.1611C52.7929 37.8557 52.6612 38.4584 52.0366 38.8889C47.9686 41.6613 43.7115 41.845 39.271 39.4399C39.1106 39.3538 38.9845 39.2161 38.9043 39.0496Z" fill="#F6B801"/>
<path d="M44.3303 18.0869C45.0694 16.7724 46.1924 16.2501 47.6993 16.5256C47.7337 16.5314 47.7509 16.5543 47.7451 16.5888L47.7222 16.7323C47.705 16.8356 47.6477 16.8815 47.5446 16.87C46.0263 16.7036 45.5679 17.4153 44.5079 18.2362C44.4506 18.2763 44.3761 18.2591 44.3417 18.2075C44.3188 18.173 44.3131 18.1271 44.3303 18.0869Z" fill="#10100A"/>
<path d="M36.5952 19.8836C35.2087 19.1948 33.845 19.5277 32.7564 20.5609C32.7163 20.6011 32.6762 20.6011 32.6361 20.5609C32.596 20.5264 32.596 20.4863 32.6246 20.4403C33.4038 19.4129 35.7874 18.351 36.7156 19.7458C36.8531 19.9467 36.813 19.9926 36.5952 19.8836Z" fill="#10100A"/>
<path d="M18.1343 43.5843C13.9288 41.0357 5.01344 34.6872 4.52069 29.3891C4.24567 26.4272 4.70977 23.408 7.74075 22.3173C11.0353 21.1406 13.5162 25.9221 14.9143 28.5223C15.0002 28.6888 15.0346 28.861 15.0174 29.0504C14.9544 29.6876 15.0346 30.1468 15.2523 30.428C16.3753 31.9032 18.6615 35.1005 18.3578 37.0004C17.9109 39.7843 18.3864 42.0344 19.7845 43.745C20.9533 45.1743 20.7872 45.3522 19.286 44.2845C19.2573 44.2673 18.8735 44.032 18.1343 43.5843Z" fill="#B3DEF8"/>
<path d="M41.9009 32.1386C42.1186 31.4957 42.3707 30.8758 42.6572 30.2845C43.5167 28.4994 40.9269 25.1185 39.3226 24.1714C36.452 22.4838 33.0085 23.2128 32.0975 26.7716C31.8969 26.8348 31.725 26.7831 31.5875 26.6166C31.4615 26.4674 31.4844 26.3526 31.662 26.2722C31.8396 26.1861 31.9542 26.0886 32.0001 25.9738C35.18 18.3337 46.5476 26.875 41.9009 32.1386Z" fill="#10100A"/>
<path d="M67.6843 30.9274C67.7359 30.8298 67.8447 30.7724 68.0109 30.7437C68.1541 30.9504 68.3432 31.0767 68.5781 31.1226C68.7443 31.157 68.813 31.0881 68.7901 30.9217C68.5552 29.2972 68.5208 27.3629 68.687 25.1127C68.75 24.2862 69.0365 23.6663 69.5579 23.253C70.4116 22.5756 71.5117 23.2989 71.5289 24.2517C71.5633 26.7027 71.5976 28.9069 71.6377 30.87C71.6549 31.9205 71.9586 32.0066 72.5488 31.1398L76.6512 25.0553C77.1267 24.3493 77.6997 24.2632 78.3644 24.7913L78.5935 24.975C78.9316 25.2448 79.0175 25.7212 78.7998 26.0943L75.3448 31.9606C75.2532 32.1214 75.1214 32.1673 74.9438 32.1041C74.0671 31.777 73.2764 31.9434 72.5774 32.6093C72.3368 32.8331 72.3711 32.8905 72.6805 32.7757C74.0213 32.2649 74.9781 32.4313 75.5511 33.2866C75.6657 33.4588 75.6714 33.6367 75.574 33.8204C74.8234 35.1808 71.5919 38.223 70.572 35.6285C70.509 35.4678 70.5033 35.2899 70.5548 35.1291L70.6522 34.8536C70.7554 34.5437 70.6866 34.4977 70.446 34.7216C70.1767 34.9684 70.0736 35.2095 70.1251 35.4506C70.383 36.5527 71.0705 37.0922 72.1993 37.0635C72.331 37.0635 72.4399 37.1611 72.4456 37.2874C72.4456 37.3046 72.4456 37.3219 72.4456 37.3391C72.3024 38.1484 72.6118 38.6421 73.3796 38.8315C73.5629 38.8831 73.6546 39.0037 73.6489 39.1931C73.6431 39.4457 73.54 39.6121 73.3395 39.6982C71.7695 40.3526 70.5205 39.4284 69.025 39.0668C67.3405 38.665 64.109 37.0521 64.9398 34.8134C65.1117 34.3485 64.9684 33.8319 64.5846 33.5219L61.7197 31.2202C61.3702 30.9389 61.3187 30.6117 61.565 30.2386C61.7541 29.9401 62.1724 29.745 62.8198 29.6589C65.4383 29.2972 67.0884 30.3419 67.7817 32.7929C67.8218 32.9422 67.902 32.9651 68.0223 32.8618C68.0854 32.8044 68.114 32.7068 68.1083 32.5748C68.0854 31.9549 67.9479 31.4039 67.69 30.9274H67.6843Z" fill="white"/>
<path d="M41.9009 32.1386C41.792 32.2304 41.7462 32.305 41.7691 32.3567C40.7091 32.4887 39.2481 32.7757 37.3859 33.2235C36.8989 33.3383 36.4692 33.2062 36.1082 32.8274C36.0968 32.615 36.3546 32.4543 36.8875 32.3337C40.7893 30.1238 35.5582 23.0521 32.3954 27.3973L32.0975 26.7716C33.0085 23.2128 36.452 22.4838 39.3226 24.1714C40.9269 25.1185 43.5167 28.4994 42.6572 30.2845C42.3707 30.8758 42.1186 31.4957 41.9009 32.1386Z" fill="white"/>
<path d="M47.1894 25.9623C46.9143 26.255 46.9659 26.3354 47.3441 26.2091C48.1978 25.9336 49.0572 25.9164 49.9224 26.1517C49.9682 26.1689 49.9969 26.2206 49.9797 26.2665C49.9682 26.3009 49.9396 26.3239 49.9109 26.3296L47.1149 26.5478C46.8914 26.565 46.7138 26.6626 46.5763 26.8405C46.4445 27.0127 46.2726 27.139 46.0663 27.2194C45.7512 27.3399 45.671 27.2538 45.8257 26.9496C46.9946 24.6708 48.8166 23.9475 51.2975 24.7798C51.4064 24.8143 51.4522 24.8889 51.4236 25.0037L51.3835 25.1644C51.372 25.2103 51.3434 25.2276 51.2975 25.2103C49.6015 24.6076 48.2322 24.8545 47.1894 25.9623Z" fill="#10100A"/>
<path d="M36.8874 32.3337C36.8416 32.2993 36.813 32.2591 36.8015 32.2075C36.7786 32.1156 36.8015 32.041 36.876 31.9779C37.7927 31.2374 38.0792 30.2558 37.7297 29.0332C37.6781 28.8438 37.5521 28.7405 37.363 28.7232C37.2312 28.7118 37.088 28.7462 36.939 28.8208C37.0192 28.3444 36.7671 27.9311 36.1884 27.5752C35.8275 27.3514 35.3519 27.4547 35.117 27.8106C34.4524 28.8036 35.3233 29.6704 36.3489 29.5785C36.4463 30.2501 36.177 30.5428 35.5524 30.4682C35.4149 29.9401 34.9737 29.8081 34.2232 30.0664C33.8851 29.7737 33.4669 29.8139 32.9569 30.187C32.1032 28.7577 31.9141 27.8278 32.3954 27.3973C35.5582 23.0521 40.7893 30.1238 36.8874 32.3337Z" fill="#10100A"/>
<path d="M36.939 28.8208C36.7843 29.1193 36.5838 29.3719 36.3489 29.5785C35.3233 29.6704 34.4524 28.8036 35.117 27.8106C35.3519 27.4547 35.8275 27.3514 36.1884 27.5752C36.7671 27.9311 37.0192 28.3444 36.939 28.8208Z" fill="white"/>
<path d="M20.8674 31.0135C20.2543 32.3797 18.9365 35.2095 21.4862 35.0201C21.1997 35.2727 21.0049 35.5654 20.9075 35.9041C20.8273 36.1796 20.9075 36.2312 21.1309 36.059C21.681 35.6458 22.1852 35.066 22.7467 34.7618C31.2151 30.1066 37.0078 44.0148 31.4328 44.8987C31.2724 44.9217 31.1234 44.8126 31.1005 44.6519C31.0948 44.6117 31.1005 44.5658 31.1062 44.5256C31.2552 43.9918 31.6391 43.6359 32.2636 43.4637C32.2751 43.4637 32.2808 43.4522 32.2751 43.4408L32.235 43.2915C32.2006 43.1652 32.1261 43.1251 32.0058 43.1767L30.8599 43.6244C30.6708 43.6991 30.4817 43.6876 30.3041 43.5957C30.1265 43.5039 29.9317 43.4637 29.7082 43.4809C29.628 43.4752 29.5592 43.5326 29.5535 43.613C29.5478 43.6933 29.6051 43.7622 29.6853 43.7679C30.413 43.9459 30.6307 44.3764 30.327 45.0595C29.989 45.8229 29.3874 46.4772 28.5107 47.0226C27.8403 47.4358 27.0611 47.344 26.2933 47.5449C26.047 47.608 26.0412 47.6827 26.2876 47.7688C26.9179 47.9754 27.5138 47.5277 28.0466 47.7573C28.1841 47.8204 28.2472 47.9869 28.1841 48.1246C28.1612 48.1706 28.1268 48.2107 28.081 48.2394C26.471 49.2612 23.3598 49.1292 22.3571 47.1029C22.2998 46.9938 22.3456 46.8618 22.4545 46.8102C22.4946 46.7872 22.5462 46.7815 22.592 46.7872C23.0733 46.8618 23.5374 47.0053 23.9843 47.2177C24.0531 47.2464 24.0874 47.2636 24.0874 47.2636C24.1218 47.2062 24.1103 47.1603 24.0588 47.1259C20.3689 44.9217 18.2432 41.1218 19.1198 36.8741C19.4235 35.3989 16.7134 31.4153 15.8196 30.0148C14.7309 28.3042 16.7764 27.0759 18.2375 27.736C19.6584 28.3731 20.535 29.4695 20.8674 31.0135Z" fill="white"/>
<path d="M36.8875 32.3337C36.3546 32.4543 36.0968 32.615 36.1082 32.8274C35.6613 32.4256 35.3462 31.9664 35.1686 31.444C35.4837 31.4039 35.6155 31.0824 35.5525 30.4682C36.177 30.5428 36.4463 30.2501 36.3489 29.5785C36.5838 29.3719 36.7843 29.1193 36.939 28.8208C37.088 28.7462 37.2313 28.7118 37.363 28.7232C37.5521 28.7405 37.6782 28.8438 37.7297 29.0332C38.0792 30.2558 37.7928 31.2374 36.876 31.9779C36.8015 32.041 36.7786 32.1156 36.8015 32.2075C36.813 32.2591 36.8416 32.2993 36.8875 32.3337Z" fill="#00903E"/>
<path d="M34.2232 30.0664C34.0971 30.4223 34.4122 30.8815 35.1686 31.444C35.3462 31.9664 35.6613 32.4256 36.1082 32.8274C36.4692 33.2062 36.8989 33.3383 37.3859 33.2235C39.2481 32.7757 40.7091 32.4887 41.7691 32.3567C41.8837 32.3854 41.9639 32.4256 42.0097 32.4772C42.09 32.5633 42.0728 32.615 41.9639 32.638L37.0192 33.786C36.8416 33.8262 36.6926 33.786 36.5609 33.6597L32.9569 30.187C33.4668 29.8139 33.8851 29.7737 34.2232 30.0664Z" fill="#53411D"/>
<path d="M35.5525 30.4682C35.6155 31.0824 35.4837 31.4039 35.1686 31.444C34.4123 30.8815 34.0971 30.4223 34.2232 30.0664C34.9738 29.8081 35.4149 29.9401 35.5525 30.4682Z" fill="white"/>
<path d="M75.8892 34.492C76.084 34.3255 76.3762 34.3428 76.5423 34.5379L76.8919 34.9455C77.333 35.4563 76.9893 36.4781 76.1184 37.2358L75.4652 37.804C74.6 38.556 73.5343 38.7569 73.0931 38.246L72.7379 37.8385C72.5717 37.6433 72.5889 37.3506 72.7837 37.1841L75.8892 34.492Z" fill="white"/>
<path d="M39.271 39.4399C43.7115 41.845 47.9686 41.6613 52.0367 38.8889C52.6612 38.4584 52.793 37.8557 52.7357 37.1611C52.7357 37.1209 52.7586 37.0865 52.7987 37.0808L52.982 37.0635C53.0279 37.0578 53.0737 37.0922 53.0794 37.1382C53.0794 37.1439 53.0794 37.1497 53.0794 37.1554C53.0279 38.2058 53.343 39.1185 54.0248 39.8934C54.0764 39.9508 54.0764 40.0369 54.0191 40.0886C53.979 40.1287 53.916 40.1345 53.8644 40.1115C53.4576 39.9221 53.2112 39.6121 53.1138 39.1701C53.0909 39.0439 52.9706 38.9635 52.8445 38.9865C52.793 38.9979 52.7471 39.0266 52.7128 39.0668C51.5267 40.4387 50.6787 41.3686 49.3208 43.171C47.8311 45.1398 44.9204 47.3899 42.3593 46.0238C41.0357 45.3178 39.7809 43.3719 38.7439 42.0287C38.6522 41.9196 38.4918 41.8967 38.3829 41.9885C38.3256 42.0344 38.2912 42.0976 38.2855 42.1722C38.274 42.3903 38.1824 42.5568 38.0048 42.6773C37.8157 42.8036 37.7756 42.7634 37.873 42.5625C38.6808 40.8577 38.6006 39.2333 37.6438 37.6777C37.5464 37.5113 37.5922 37.4367 37.787 37.4424C37.9417 37.4424 38.062 37.5113 38.148 37.6376C38.3256 37.8729 38.5777 38.3436 38.9043 39.0496C38.9845 39.2161 39.1106 39.3538 39.271 39.4399ZM51.011 40.1861C50.5584 40.387 50.1974 40.4043 49.7391 40.6166C46.3357 42.1837 42.4395 41.6039 39.2767 39.813C39.145 39.7384 38.9845 39.7843 38.91 39.9164C38.8871 39.9565 38.8757 40.0025 38.8757 40.0484L38.8871 40.6109C38.8871 41.0873 39.1048 41.4317 39.5346 41.6441C42.5484 43.1308 45.6481 43.2628 48.8395 42.0402C49.7792 41.6786 50.2948 40.8979 51.0913 40.3296C51.5095 40.0254 51.4866 39.9795 51.011 40.1861ZM41.9181 44.3362C41.729 44.3075 41.58 44.3132 41.4712 44.3477C41.2592 44.4051 41.2248 44.5141 41.3795 44.6806C42.3879 45.7483 44.5022 46.8733 45.6195 45.4383C47.0232 45.3407 48.0545 44.2673 48.8968 43.2685C49.6073 42.4362 49.4526 42.2239 48.4384 42.6314C46.7998 43.2915 44.3704 43.148 42.6114 43.0791C41.5686 43.0332 40.818 42.6142 39.8554 42.2239C39.5976 42.1148 39.5231 42.1952 39.6205 42.4535C40.033 43.5326 40.7779 44.0377 41.8551 43.9631C42.0499 43.9516 42.0957 44.0262 41.9983 44.1927L41.9181 44.3362Z" fill="#10100A"/>
<path d="M71.1107 41.3858C68.8303 41.9024 66.8593 41.2768 65.2034 39.5031C64.9284 39.2103 64.9284 38.7569 65.1977 38.4641L65.3466 38.3034C65.5701 38.0566 65.9482 38.0394 66.1946 38.2632C67.2603 39.2161 68.475 39.1759 69.5808 39.5949C70.0793 39.7843 70.5835 39.9738 71.0877 40.1574C71.4086 40.2722 71.5862 40.4272 71.6149 40.6166C71.6607 40.8807 71.4945 41.139 71.1107 41.3858Z" fill="white"/>
<path d="M49.739 40.6166C50.1974 40.4043 50.5584 40.387 51.011 40.1861C51.4866 39.9795 51.5095 40.0254 51.0912 40.3296C50.2948 40.8979 49.7792 41.6786 48.8395 42.0402C45.6481 43.2628 42.5483 43.1308 39.5346 41.6441C39.1048 41.4317 38.8928 41.0873 38.8871 40.6109L38.8756 40.0484C38.8756 39.8991 38.996 39.7786 39.1449 39.7786C39.1908 39.7786 39.2366 39.7901 39.2767 39.813C42.4395 41.6039 46.3356 42.1837 49.739 40.6166Z" fill="white"/>
<path d="M52.0367 49.066C52.0825 48.9914 52.1283 48.911 52.1742 48.8307C49.7104 49.4449 47.493 49.7204 45.5221 49.663C45.3101 49.4736 45.1038 49.3415 44.8975 49.2726C46.0263 48.0098 47.2008 48.05 48.427 47.5679C50.0084 46.9365 51.3663 46.3567 53.131 45.9032C56.798 44.9619 61.3874 43.0562 64.6763 40.4904C64.8653 40.3411 65.0716 40.3239 65.2836 40.433L68.0396 41.868C68.2516 41.977 68.2516 42.0918 68.0396 42.2066C62.986 44.9217 57.6517 47.2062 52.0367 49.066Z" fill="#F4C3AD"/>
<path d="M34.2862 40.9094C35.1915 41.7187 35.4837 42.6142 35.1686 43.6015C35.031 44.0377 35.1571 44.5141 35.5009 44.8184C37.2771 46.4084 39.2767 47.3957 41.4998 47.786L42.2733 49.0545C42.1874 49.244 42.0728 49.3014 41.9353 49.2267C41.9639 49.2038 41.9639 49.1406 41.9353 49.0373C41.9066 48.9283 41.8379 48.8823 41.729 48.8938C37.7526 49.3071 34.0742 48.4633 30.6994 46.3624C30.4588 46.2132 30.4187 46.0238 30.5848 45.7884C30.7796 45.5187 31.0146 45.3924 31.2953 45.3981C33.7648 45.467 34.5154 42.9356 34.2862 40.9094Z" fill="#E3A002"/>
<path d="M13.3214 41.1333L19.3834 44.8356C19.3834 44.8356 19.412 44.8643 19.4006 44.8872L19.3433 45.025C19.2917 45.1398 19.2115 45.1743 19.0969 45.1341L11.7572 42.3329L13.3214 41.1333Z" fill="white"/>
<path d="M45.6194 45.4383C45.5679 45.2718 45.5163 45.1685 45.4533 45.1283C45.6022 45.1054 45.6595 45.002 45.6309 44.8241C45.6194 44.7495 45.5793 44.6863 45.522 44.6404C44.8918 44.1755 44.187 43.9 43.4078 43.8253C43.1557 43.8024 43.1213 43.8713 43.3104 44.0377C43.4422 44.1583 43.5969 44.2329 43.7687 44.2731C43.0869 44.4395 42.4681 44.4625 41.9181 44.3362L41.9983 44.1927C42.0957 44.0262 42.0499 43.9516 41.855 43.9631C40.7779 44.0377 40.033 43.5326 39.6205 42.4535C39.5231 42.1952 39.5976 42.1148 39.8554 42.2239C40.818 42.6142 41.5686 43.0332 42.6114 43.0791C44.3704 43.148 46.7997 43.2915 48.4384 42.6314C49.4526 42.2239 49.6073 42.4362 48.8968 43.2686C48.0545 44.2673 47.0232 45.3407 45.6194 45.4383Z" fill="#E3A002"/>
<path d="M24.0473 50.679C24.0874 50.7479 24.0588 50.8454 23.9671 50.9775L17.1145 51.2415L16.6733 51.2071C13.4418 50.7593 5.35723 48.9914 6.86985 44.032C7.54022 41.8393 9.5857 42.0574 11.3963 42.8094C15.3555 44.4625 17.9281 45.3866 19.1256 45.5875C20.1626 45.7655 20.9247 45.9549 21.4117 46.1558C21.6122 46.2362 21.7383 46.351 21.7899 46.5002C21.83 46.6093 21.8471 46.7298 21.8414 46.8618C21.8242 47.0513 21.8586 47.2292 21.9331 47.3957C22.3227 48.2739 23.0848 48.6298 23.4744 49.3875C23.6864 49.8122 23.8812 50.2427 24.0473 50.679Z" fill="#B3DEF8"/>
<path d="M56.4886 42.9414L56.8725 44.0033C55.8927 44.6634 54.8671 45.0824 53.7956 45.2546C53.4003 45.3178 53.3659 45.2317 53.6868 44.9963L56.4886 42.9414Z" fill="#FFEFAE"/>
<path d="M45.4533 45.1283C44.9949 44.7438 44.4334 44.4567 43.7688 44.2731C43.5969 44.2329 43.4422 44.1583 43.3104 44.0377C43.1213 43.8713 43.1557 43.8024 43.4078 43.8253C44.187 43.9 44.8918 44.1755 45.522 44.6404C45.5793 44.6863 45.6194 44.7495 45.6309 44.8241C45.6596 45.002 45.6023 45.1054 45.4533 45.1283Z" fill="#332315"/>
<path d="M41.9181 44.3362C42.4681 44.4625 43.0869 44.4395 43.7688 44.2731C44.4334 44.4567 44.9949 44.7438 45.4533 45.1283C45.5163 45.1685 45.5679 45.2718 45.6195 45.4383C44.5022 46.8733 42.3879 45.7483 41.3795 44.6806C41.2248 44.5141 41.2592 44.4051 41.4712 44.3477C41.58 44.3132 41.729 44.3075 41.9181 44.3362Z" fill="#F4C3AD"/>
<path d="M41.9353 49.2267C42.0728 49.3014 42.1874 49.244 42.2733 49.0545C42.577 49.089 42.7603 49.244 42.8234 49.5137C42.9838 50.1968 42.9838 50.92 42.8234 51.672C42.7145 51.2415 42.491 50.9487 42.153 50.8052C41.9525 50.7191 41.7748 50.7478 41.6144 50.8913C40.0388 52.3091 38.5777 53.8417 37.2427 55.4777C36.1598 56.8036 36.4463 57.1652 38.1021 56.5568C38.423 56.4362 38.8756 56.5281 39.4601 56.8323C37.7584 58.0607 35.7816 58.5543 33.5413 58.319C33.0199 58.2673 32.6762 57.9918 32.5043 57.4982L31.5933 54.8807C31.387 54.2837 30.7338 53.9738 30.1379 54.1804C30.0405 54.2148 29.9431 54.2608 29.8572 54.3239C29.4618 54.5994 29.3587 54.8233 29.5535 54.9897C29.2498 55.3055 29.1582 55.5752 29.2785 55.7934C28.5909 55.3284 28.1268 54.674 27.8919 53.8245L28.8316 53.3136C29.2384 53.4227 29.6337 53.2046 30.0176 52.6478C30.4359 52.0394 30.3671 51.5457 29.8056 51.1611C29.6509 51.0578 29.6108 50.8454 29.7139 50.6904C29.754 50.6273 29.8171 50.5814 29.8916 50.5584C30.5161 50.3518 31.0146 49.9672 31.387 49.3989C31.6677 48.9742 31.5532 48.4002 31.1292 48.1189C30.9057 47.9697 30.6249 47.9237 30.3671 47.9984L29.2556 48.3083C29.0149 48.3772 28.7628 48.2394 28.6941 47.9984C28.654 47.8663 28.6826 47.7228 28.7628 47.608C28.9863 47.2923 29.267 47.0455 29.6051 46.8561C29.777 46.7585 29.9431 46.7642 30.1093 46.8676C33.696 49.1406 37.638 49.927 41.9353 49.2267Z" fill="#F6B801"/>
<path d="M27.1528 49.5023C28.1211 48.8536 29.2155 48.5207 30.4416 48.5092C30.7166 48.5092 30.9458 48.7216 30.9573 48.9914C30.9573 49.1005 30.9286 49.2325 30.8599 49.3817C30.8083 49.4908 30.7223 49.5884 30.602 49.663C29.0894 50.633 27.4335 51.1726 25.6344 51.2759C25.4224 51.2874 25.2391 51.2128 25.0901 51.0578C24.6489 50.5929 24.3281 50.0533 24.1161 49.4449C24.0129 49.1521 24.1161 49.0373 24.4197 49.1005L26.7632 49.5826C26.9064 49.6113 27.0325 49.5826 27.1528 49.5023Z" fill="#F4C3AD"/>
<path d="M52.1741 48.8307C51.8705 49.376 51.3147 49.6515 50.5126 49.663C48.7134 49.6802 47.1378 50.2312 45.2814 50.1337C45.1897 50.1279 45.121 50.0476 45.1324 49.9557C45.1324 49.927 45.1439 49.8983 45.1611 49.8696C45.2126 49.795 45.333 49.7261 45.522 49.663C47.493 49.7204 49.7104 49.4449 52.1741 48.8307Z" fill="#10100A"/>
<path d="M24.0473 50.679L24.3281 51.2874C24.4197 51.4826 24.3682 51.6261 24.1734 51.7237L20.4491 53.4686C20.2887 53.5433 20.0996 53.4744 20.0194 53.3137C19.9964 53.2677 19.985 53.2161 19.9907 53.1702L20.0079 52.3206C20.0136 52.1082 20.1741 51.9303 20.3861 51.8959C21.5606 51.7294 22.592 51.6203 23.4801 51.5802C23.6577 51.5744 23.7952 51.5342 23.8869 51.4654C24.0645 51.3333 24.0874 51.1669 23.9671 50.9775C24.0588 50.8454 24.0874 50.7479 24.0473 50.679Z" fill="#E3A002"/>
<path d="M42.8234 51.672C42.577 53.8877 41.454 55.6097 39.4601 56.8323C38.8756 56.5281 38.423 56.4362 38.1021 56.5568C36.4463 57.1652 36.1598 56.8036 37.2427 55.4777C38.5777 53.8417 40.0388 52.3091 41.6144 50.8914C41.7748 50.7479 41.9525 50.7192 42.153 50.8053C42.4911 50.9488 42.7145 51.2415 42.8234 51.672Z" fill="#FFEFAE"/>
<path d="M28.8316 53.3137L27.8919 53.8245C27.9664 53.4859 27.7773 53.3538 27.3132 53.4285C23.6634 53.9967 20.2199 55.713 16.9884 58.5773C16.7134 58.8184 16.2951 58.7954 16.0545 58.5256C16.0086 58.474 15.9742 58.4223 15.9456 58.3592L15.8768 58.2099C15.6591 57.7392 15.7966 57.171 16.2149 56.8553C18.5583 55.0701 20.9476 53.6466 23.3827 52.5961C24.8437 51.9647 26.6715 51.7925 28.2987 51.1439C28.8144 50.9373 29.4045 51.1841 29.6108 51.7007C29.691 51.9073 29.7082 52.1312 29.6509 52.3436C29.565 52.6593 29.2957 52.9807 28.8316 53.3137Z" fill="#F4C3AD"/>
<path d="M28.442 55.8221L21.9675 58.009L21.2226 56.7405C21.0679 56.4822 21.1539 56.1435 21.4117 55.9885C23.1134 54.9611 24.9354 54.2148 26.872 53.7442C27.1184 53.681 27.2846 53.7729 27.3705 54.0197C27.5768 54.6224 27.932 55.2251 28.442 55.8221Z" fill="#E3A002"/>
<path d="M43.2989 54.4043C44.0037 57.28 43.3677 59.6392 41.3967 61.476C41.1904 61.6654 41.03 61.6367 40.9211 61.3784L40.6633 60.7872C40.5487 60.5174 40.5888 60.2706 40.7893 60.0525C41.6946 59.0422 42.1358 57.8426 42.1129 56.4477C42.1129 56.2583 42.0556 56.0918 41.9467 55.9369C41.8035 55.736 41.8092 55.5178 41.9639 55.2768C42.0842 55.0873 42.1759 54.9209 42.2332 54.7774C42.4452 54.2435 42.8004 54.1173 43.2989 54.4043Z" fill="#F4C3AD"/>
<path d="M9.87792 64.7019L5.29993 69.1333C4.19411 66.9004 3.79304 64.5642 4.09098 62.1304C4.47486 59.002 9.1216 55.9139 11.7286 54.5879C11.9635 54.4674 12.0609 54.542 12.0323 54.8003L11.826 56.5625C11.7973 56.8094 11.677 56.993 11.465 57.1193C8.36529 58.9791 6.85267 61.7171 9.87792 64.7019Z" fill="#E3A002"/>
<path d="M29.2785 55.7934C29.1582 55.5752 29.2498 55.3055 29.5535 54.9898C30.2296 54.5076 31.238 54.6798 31.4386 55.581C32.1147 58.5543 33.8622 63.2612 32.4986 66.1829C31.261 68.8233 27.7143 70.442 25.1073 71.3719C24.6375 71.5383 24.2307 71.4408 23.8812 71.0791L23.6577 70.8438C23.4916 70.6716 23.4973 70.3961 23.6692 70.2296C23.715 70.1837 23.778 70.1492 23.8411 70.1263C26.958 69.1332 31.4959 67.1529 31.2037 63.0029C31.0375 60.6724 30.5276 58.4223 29.6853 56.2526C29.5994 56.0287 29.4618 55.8737 29.2785 55.7934Z" fill="#F4C3AD"/>
<path d="M28.442 55.8221C30.4359 57.4522 30.5963 61.0226 30.9057 63.5769C30.9458 63.927 30.6937 64.2485 30.3442 64.2886C30.2697 64.3001 30.1895 64.2886 30.115 64.2772C26.7173 63.4334 24.0015 61.344 21.9675 58.009L28.442 55.8221Z" fill="#F6B801"/>
<path d="M39.4715 57.7105L41.3509 56.2411C41.517 56.1033 41.7634 56.132 41.9009 56.2985C41.9926 56.4133 42.0098 56.5625 41.9525 56.7003L40.8295 59.3752C40.7435 59.5761 40.5143 59.6679 40.3195 59.5818C40.245 59.5531 40.1877 59.5014 40.1419 59.4326L39.3799 58.2271C39.271 58.0549 39.3111 57.8311 39.4715 57.7105Z" fill="white"/>
<path d="M14.4387 64.8569C14.3069 64.8282 14.1866 64.8397 14.0777 64.8914C13.8486 64.8741 13.6194 65.0234 13.3845 65.3506C13.2699 65.5113 13.0922 65.6146 12.8974 65.6318C12.1239 65.695 11.3447 65.385 10.5597 64.6962C7.17352 61.7286 8.92106 58.0836 12.7141 57.0906C13.2011 56.9586 13.5392 57.1251 13.7225 57.5785C13.9345 58.1123 14.0606 58.0894 14.0892 57.5211C14.1236 56.7462 14.8169 56.3157 15.5216 56.4994C15.7336 56.5568 15.7737 56.6716 15.6305 56.8438C14.4559 58.2616 15.9112 59.3235 17.2806 59.1972C17.3837 59.1915 17.4754 59.2718 17.4812 59.3752C17.4812 59.444 17.4525 59.5072 17.4009 59.5416L16.6618 60.0238C16.4899 60.1328 16.4555 60.2821 16.5529 60.46C17.4754 62.1878 17.1202 63.5884 15.4815 64.656C15.3268 64.7536 15.1664 64.7765 14.9945 64.7191C14.7367 64.633 14.5476 64.679 14.4387 64.8569ZM14.6049 64.1222C14.5361 63.9844 14.284 63.9729 14.0376 64.0935C13.7913 64.214 13.6423 64.4264 13.711 64.5584C13.7798 64.6962 14.0319 64.7077 14.2783 64.5871C14.5247 64.4666 14.6736 64.2542 14.6049 64.1222Z" fill="white"/>
<path d="M19.7214 58.0377C19.624 58.0148 19.5266 58.0148 19.4292 58.0435C19.3433 58.0607 19.2631 58.009 19.2459 57.9287C19.2287 57.8598 19.2631 57.7909 19.3204 57.7565C19.6527 57.59 19.9392 57.3547 20.1741 57.0562C20.3574 56.8266 20.4949 56.8495 20.5923 57.125L20.7012 57.435C20.7642 57.613 20.8616 57.7737 20.9934 57.9172C23.9614 61.1431 25.4969 63.7491 30.1609 64.9315C30.3671 64.9832 30.4244 65.1037 30.3327 65.2989C29.4618 67.1013 26.9809 68.4961 25.2219 69.0184C25.0328 69.0759 24.8552 69.0472 24.689 68.9266C23.5202 68.0426 19.8876 68.4272 18.5411 68.852C18.3291 68.9151 18.1515 68.8692 18.0083 68.7085L15.6878 66.1771C15.3497 65.804 15.3669 65.4539 15.7451 65.1209C17.0572 63.9557 18.4094 62.4518 17.3322 60.5404C17.2176 60.3395 17.252 60.1673 17.4353 60.0295L19.7673 58.2673C19.9162 58.1583 19.8991 58.0779 19.7214 58.0377Z" fill="#53411D"/>
<path d="M33.5528 64.3403L32.9798 59.2776C32.9684 59.1743 33.0429 59.0767 33.146 59.0652H33.1574L37.5464 58.7897C37.6495 58.7782 37.7412 58.8586 37.7526 58.9619C37.7526 58.9676 37.7526 58.9734 37.7526 58.9791L37.8099 62.9742C37.8099 63.0603 37.7584 63.1349 37.6781 63.1579L33.8049 64.501C33.7075 64.5355 33.5986 64.4838 33.5643 64.3862C33.5643 64.369 33.5528 64.3575 33.5528 64.3403Z" fill="#F6B801"/>
<path d="M37.8443 68.7601C41.179 67.9967 40.0846 64.9143 38.6407 62.7847C38.5204 62.6068 38.4574 62.4116 38.4517 62.1993L38.3371 58.8298C38.3313 58.7036 38.4287 58.5945 38.5548 58.5888C38.5892 58.5888 38.6235 58.5888 38.6522 58.606C38.9559 58.738 39.1851 58.9561 39.334 59.2718C40.6518 62.0213 41.4483 64.3173 41.729 66.1599C42.1014 68.6052 37.7985 70.6027 35.9134 71.4121C35.7473 71.4809 35.69 71.4293 35.753 71.2628C36.1598 70.0861 36.8588 69.2481 37.8443 68.7601Z" fill="#F4C3AD"/>
<path d="M5.0478 69.9483L2.01109 74.9078C1.84493 74.7183 1.66158 74.6093 1.46105 74.5863C0.876622 74.5174 0.59587 74.1902 0.624518 73.599C0.767759 70.2813 1.44386 67.0783 2.64708 63.9902C3.01378 63.0545 3.22578 63.0832 3.28307 64.0877C3.39194 66.0566 3.97636 68.0139 5.0478 69.9483Z" fill="#332315"/>
<path d="M25.3308 72.3534C25.2506 72.1468 25.2391 72.0722 25.2964 72.1296C28.4878 70.155 32.0918 69.0414 33.444 65.2874C33.4726 65.2013 33.5299 65.1497 33.6158 65.121L37.6552 63.7319C37.7068 63.7089 37.7698 63.7376 37.787 63.7893C37.7928 63.8065 37.7985 63.8294 37.787 63.8524C37.2198 66.7052 36.3718 69.0299 35.2431 70.8323C34.7732 71.5843 34.1086 72.1238 33.2491 72.4395C31.1464 73.2144 28.9576 73.4957 26.6944 73.2718C26.4939 73.2546 26.3335 73.1628 26.2131 72.9963L25.6917 72.2673C25.6173 72.164 25.5256 72.1353 25.411 72.187C25.3365 72.2157 25.3079 72.2731 25.325 72.3534H25.3308Z" fill="#53411D"/>
<path d="M14.2807 64.5872C14.5279 64.4658 14.6742 64.2567 14.6074 64.12C14.5405 63.9834 14.2859 63.971 14.0387 64.0923C13.7915 64.2136 13.6452 64.4228 13.7121 64.5594C13.7789 64.6961 14.0335 64.7085 14.2807 64.5872Z" fill="#10100A"/>
<path d="M9.87791 64.7019C11.2817 66.3665 12.6854 66.556 14.0777 65.2645C14.221 65.1324 14.221 65.0062 14.0777 64.8914C14.1866 64.8397 14.3069 64.8282 14.4387 64.8569C15.1664 66.7109 16.4441 67.6982 17.6129 69.2136C17.7218 69.3571 17.7333 69.558 17.6359 69.7073C15.4815 73.0882 16.9712 77.6343 18.65 80.7339C18.7474 80.9061 18.6901 81.1242 18.5182 81.2218C18.4265 81.2735 18.3177 81.2849 18.2203 81.2448C12.5307 79.2702 7.95275 74.46 5.29993 69.1333L9.87791 64.7019Z" fill="#F6B801"/>
<path d="M25.2964 72.1296C25.2391 72.0722 25.2505 72.1468 25.3308 72.3534C24.9182 72.9676 24.2994 73.1685 23.4686 72.9504C23.2566 72.8987 23.1993 72.9676 23.291 73.1628C23.3769 73.3465 23.5202 73.4727 23.7207 73.5416C23.8525 73.5875 24.0359 73.5818 24.265 73.5244C24.6088 73.4326 24.9641 73.3694 25.3365 73.335C25.537 73.3178 25.6631 73.4039 25.7261 73.5933C26.2017 75.0972 26.5512 76.6183 26.7804 78.1566C26.8778 78.8053 26.8147 79.4424 26.5855 80.0681C26.1444 81.3079 25.7834 82.41 24.6547 82.9323C24.5458 82.984 24.4828 83.0701 24.477 83.1906C24.4713 83.2767 24.4255 83.3571 24.3453 83.4432C24.2135 83.581 24.0072 83.5925 23.7322 83.4777C23.8353 83.2653 23.6749 83.0988 23.2452 82.9898C23.3884 83.0242 23.5316 83.0127 23.6692 82.961C23.7265 82.9381 23.7551 82.8692 23.7322 82.8118C23.7207 82.7774 23.6863 82.7544 23.652 82.7429C20.1855 82.0541 18.5297 74.5404 18.3234 71.9574C18.4437 71.1308 18.9135 70.1492 19.7272 69.007C20.0881 68.5707 20.5923 68.5076 21.2512 68.8233C21.4059 68.8979 21.532 69.0242 21.6122 69.1792C21.7612 69.4891 21.956 69.7532 22.2024 69.977C22.2769 70.0459 22.3227 70.0287 22.3456 69.9311C22.3628 69.8278 22.3112 69.7417 22.1909 69.6671C22.0419 69.5752 21.9961 69.3801 22.082 69.2366C22.105 69.2021 22.1279 69.1734 22.1623 69.1505C22.6607 68.7716 23.1707 68.72 23.7035 68.9898C24.0072 69.1447 24.0416 69.3456 23.8124 69.5982C22.4316 71.1021 23.8697 72.0492 25.2964 72.1296Z" fill="#00903E"/>
<path d="M19.7272 69.007C18.9136 70.1492 18.4437 71.1308 18.3234 71.9574C18.1687 76.0156 19.3777 79.4998 21.9503 82.4043C22.2196 82.7085 22.655 82.9037 23.2452 82.9898C23.6749 83.0988 23.8353 83.2653 23.7322 83.4777C23.2624 83.7015 22.8727 83.8393 22.3628 83.6212C18.9651 82.1517 17.3494 77.2841 17.1717 73.9032C17.0743 72.0033 17.5327 69.5121 19.7272 69.007Z" fill="#96CEAD"/>
<path d="M5.04781 69.9483C8.72624 75.5736 11.465 78.811 16.8623 81.4859C16.9999 81.5547 16.9941 81.6007 16.8394 81.6294C15.5273 81.8532 14.3184 82.2378 12.9834 82.1402C11.3733 82.0312 9.75758 81.9106 8.14755 81.7843C7.76939 81.7556 7.32821 81.6179 6.824 81.3711C6.25104 81.0955 5.76975 81.0324 5.38586 81.1759C5.0077 80.6248 4.9103 80.4125 5.09938 80.5445C4.05658 79.2243 3.094 77.9787 2.21164 76.802C1.69597 76.1189 1.62721 75.4875 2.0111 74.9078L5.04781 69.9483Z" fill="#53411D"/>
<path d="M35.2545 72.5601C35.0769 72.5084 35.0253 72.3936 35.0998 72.2271C35.2373 71.9172 35.4608 71.8426 35.7759 72.009C35.8848 72.0722 35.9421 72.1985 35.9077 72.3133C35.8275 72.583 35.6098 72.6634 35.2545 72.5601Z" fill="#47B160"/>
<path d="M18.3234 71.9574C18.5297 74.5404 20.1855 82.0541 23.652 82.7429C23.715 82.7601 23.7494 82.8175 23.7379 82.8807C23.7322 82.9151 23.7035 82.9496 23.6692 82.961C23.5317 83.0127 23.3884 83.0242 23.2452 82.9897C22.655 82.9036 22.2196 82.7085 21.9503 82.4043C19.3777 79.4998 18.1687 76.0156 18.3234 71.9574Z" fill="#10100A"/>
<path d="M27.72 78.1222C27.4679 78.2829 27.3132 78.214 27.2617 77.9155L26.5798 74.041C26.5512 73.8688 26.6257 73.7884 26.8033 73.7999C29.204 73.9951 31.5073 73.6105 33.7132 72.6404C34.2346 72.4166 34.3034 72.5141 33.9252 72.9389C32.1089 74.9652 30.0405 76.6929 27.72 78.1222Z" fill="#F6B801"/>
<path d="M37.5406 81.5203C37.2198 82.2321 36.5265 82.4043 35.4665 82.0369C35.4493 82.0197 35.4379 81.9967 35.4264 81.9795C35.6957 81.859 35.6155 81.6179 35.1857 81.2563C34.756 80.843 34.3435 80.4469 33.9481 80.0681C32.9111 79.0693 32.2808 77.7204 31.3927 76.5207C31.4844 76.7216 31.4443 76.6929 31.2724 76.4461L34.5211 73.18C34.6529 73.048 34.8133 72.9791 35.0024 72.9791C36.5895 73.0078 37.5578 75.0398 38.1079 76.3715C38.8642 78.2198 38.6751 79.936 37.5406 81.5203Z" fill="#00903E"/>
<path d="M5.09938 80.5445C4.9103 80.4125 5.0077 80.6249 5.38586 81.1759C4.36025 81.0668 3.32892 80.7856 2.29758 80.3436C0.349501 79.5113 0.664631 77.508 0.52712 75.8836C0.395338 74.3854 0.613065 74.3223 1.16884 75.6941C1.86786 77.4219 3.17995 79.0406 5.09938 80.5445Z" fill="#F6B801"/>
<path d="M31.2724 76.4461C31.4443 76.6929 31.4844 76.7216 31.3927 76.5207C32.1491 78.8225 33.4153 80.401 35.1858 81.2563C35.6155 81.6179 35.6957 81.859 35.4264 81.9795L34.1487 81.5605C34.1086 81.5777 34.0628 81.5892 34.0169 81.6064L30.5218 77.6285C30.4072 77.4965 30.3786 77.3186 30.4474 77.1579C30.5791 76.8594 30.8542 76.624 31.2724 76.4461Z" fill="#96CEAD"/>
<path d="M31.3927 76.5207C32.2808 77.7204 32.9111 79.0693 33.9482 80.0681C34.3435 80.4469 34.756 80.843 35.1858 81.2563C33.4153 80.401 32.149 78.8225 31.3927 76.5207Z" fill="#53411D"/>
<path d="M34.1487 81.5605L35.4264 81.9795C35.4264 81.9795 35.4493 82.0197 35.4665 82.0369C34.6815 82.2378 34.2404 82.0771 34.1487 81.5605Z" fill="#10100A"/>
</g>
<defs>
<clipPath id="clip0_11_15">
<rect width="81" height="84" fill="white"/>
</clipPath>
</defs>
</svg>
