<svg width="172" height="186" viewBox="0 0 172 186" fill="none" xmlns="http://www.w3.org/2000/svg">
<g clip-path="url(#clip0_9_118)">
<path d="M33.5933 137.478C33.5933 137.478 83.1782 191.936 139.007 137.478H128.871C128.871 137.478 89.6179 176.468 43.7428 137.478H33.5933Z" fill="#0979BD"/>
<path d="M98.4632 139.783C98.4632 139.783 129.709 130.939 166.808 135.796L152.952 94.7832L142.709 92.5282L157.341 129.812C157.341 129.812 122.913 127.556 98.4632 139.783Z" fill="#0979BD"/>
<path d="M94.988 137.478C94.988 137.478 127.772 123.795 151.749 125.749L135.411 85.7673L125.924 84.4603L142.35 120.381C142.35 120.381 122.934 121.928 94.988 137.471V137.478Z" fill="#F19D23"/>
<path d="M87.5619 137.478C87.5619 137.478 106.205 123.097 134.373 118.257L118.676 78.6976C118.676 78.6976 100.16 84.9987 86.4841 97.8325C86.4841 97.8325 73.4375 85.9575 54.2925 78.6976L38.2269 116.2C38.2269 116.2 71.3824 125.973 84.9981 137.478C84.9981 137.478 73.7722 123.606 47.5717 114.376L59.534 86.1294C59.534 86.1294 74.147 91.5313 86.4306 98.9367C86.4306 98.9367 109.097 85.9178 113.287 86.0434L125.423 114.151C125.423 114.151 105.917 121.054 87.5552 137.478H87.5619Z" fill="#58BCEB"/>
<path d="M74.137 139.783C74.137 139.783 43.1387 129.914 5.79196 133.41L21.1255 93.2483L31.4695 91.3756L15.4937 127.812C15.4937 127.812 50.0753 126.795 74.137 139.776V139.783Z" fill="#0979BD"/>
<path d="M77.6122 137.478C77.6122 137.478 45.7404 122.629 22.0094 123.758L39.5594 84.2835L48.9685 83.3078L31.479 118.713C31.479 118.713 50.5859 120.938 77.6122 137.478Z" fill="#F19D23"/>
<path d="M86.8793 57.325C86.8793 58.3046 86.1341 59.1042 85.206 59.1042H85.0976C84.1696 59.1042 83.4244 58.3118 83.4244 57.325L83.4041 45.9003C83.4041 44.9206 84.1492 44.1211 85.0773 44.1211H85.1857C86.1138 44.1211 86.8589 44.9134 86.8589 45.9003L86.8793 57.325Z" fill="#F29E23"/>
<path d="M102.995 60.3469C102.656 61.2122 101.68 61.6345 100.815 61.2884L100.684 61.2399C99.8186 60.8938 99.3964 59.9177 99.7425 59.0593L102.04 53.2513C102.379 52.386 103.355 51.9637 104.22 52.3099L104.351 52.3583C105.216 52.7044 105.639 53.6805 105.293 54.5389L102.995 60.3469Z" fill="#F29E23"/>
<path d="M70.5296 60.0628C70.8867 60.9433 70.4953 61.9682 69.6576 62.3435L69.4791 62.4229C68.6413 62.7982 67.6663 62.3868 67.3092 61.5063L65.0021 55.8405C64.645 54.96 65.0364 53.9351 65.8741 53.5598L66.0526 53.4804C66.8904 53.1051 67.8654 53.5165 68.2225 54.397L70.5296 60.0628Z" fill="#F29E23"/>
<path d="M124.584 60.7829C125.284 61.4107 125.277 62.4228 124.584 63.0506L116.629 70.1613C115.93 70.7891 114.801 70.7827 114.102 70.1613L114.044 70.1036C113.345 69.4758 113.352 68.4637 114.044 67.8359L121.999 60.7252C122.699 60.0974 123.827 60.1038 124.527 60.7252L124.584 60.7765V60.7829Z" fill="#F29E23"/>
<path d="M56.1199 71.2765C55.4503 71.9461 54.3674 71.9532 53.6906 71.2836L45.683 63.334C45.0134 62.6645 45.0062 61.5746 45.6759 60.905L45.8184 60.7625C46.4881 60.093 47.5709 60.0858 48.2477 60.7554L56.2553 68.705C56.925 69.3746 56.9321 70.4645 56.2624 71.134L56.1199 71.2765Z" fill="#F29E23"/>
<path d="M89.8909 65.0202C97.8619 65.6716 108.697 72.0863 112.348 79.6691C112.375 79.7258 112.368 79.7329 112.32 79.6833C97.9235 65.1194 74.9744 64.5034 60.2082 78.9399C58.8478 80.2639 58.7179 80.1435 59.8049 78.5788C66.8325 68.4754 76.8612 63.9511 89.8909 65.0202Z" fill="#F29E23"/>
<path d="M23.0995 91.2405C23.0995 91.2405 22.9648 33.2603 84.9229 30.0176C84.9229 30.0176 142.47 26.0544 148.43 91.2405L155.224 92.5282C155.224 92.5282 155.002 23.7192 84.9229 23.3789C84.9229 23.3789 21.0322 21.6442 16.2175 92.5282L23.0927 91.2405H23.0995Z" fill="#58BCEB"/>
<path d="M17.0912 53.2698L16.7788 53.7931L19.1547 55.1972C19.4674 55.382 19.6567 55.5869 19.7226 55.8119C19.7884 56.0368 19.7553 56.26 19.6231 56.4814C19.481 56.7195 19.2935 56.8583 19.0607 56.8977C18.8279 56.937 18.5619 56.8683 18.2626 56.6914L12.5726 53.3286C12.2498 53.1379 12.0591 52.9276 12.0006 52.6979C11.9421 52.4682 12.009 52.1924 12.2012 51.8704L13.6519 49.4405C13.8522 49.105 14.0385 48.8272 14.2109 48.607C14.38 48.3847 14.5653 48.2039 14.7669 48.0644C15.0026 47.8906 15.2643 47.7685 15.552 47.698C15.8397 47.6276 16.1317 47.6186 16.4279 47.6712C16.7227 47.7184 17.0046 47.8215 17.2736 47.9805C17.8251 48.3064 18.1726 48.7227 18.3159 49.2294C18.4613 49.7327 18.4146 50.3404 18.1761 51.0525C18.4755 50.871 18.8352 50.741 19.2551 50.6625C19.675 50.5839 20.0974 50.5432 20.5223 50.5402C20.9458 50.5319 21.3147 50.5502 21.629 50.5953C21.9419 50.6351 22.1455 50.6828 22.2397 50.7384C22.3372 50.796 22.4157 50.8855 22.4752 51.0069C22.5333 51.1229 22.5572 51.2505 22.5469 51.3896C22.54 51.5307 22.4945 51.6717 22.4104 51.8126C22.3103 51.9803 22.1858 52.0973 22.0371 52.1637C21.8916 52.232 21.7334 52.2723 21.5622 52.2846C21.3931 52.2935 21.1488 52.2989 20.8293 52.3006L19.4731 52.3091C18.9784 52.3071 18.5842 52.335 18.2904 52.3927C17.9986 52.4472 17.7653 52.5407 17.5905 52.6734C17.4158 52.8061 17.2493 53.0049 17.0912 53.2698ZM14.4945 50.5782L13.6715 51.9567L15.7044 53.1581L16.5033 51.8198C16.7175 51.4609 16.8675 51.1412 16.9531 50.8606C17.0354 50.578 17.0406 50.3292 16.9687 50.1143C16.8955 49.8941 16.7277 49.7065 16.4654 49.5514C16.2603 49.4302 16.0493 49.3759 15.8326 49.3884C15.6124 49.399 15.4086 49.4736 15.2212 49.6124C15.0431 49.7431 14.8008 50.065 14.4945 50.5782Z" fill="#0979BD"/>
<path d="M21.8616 45.9762L18.6449 43.3845C18.3712 43.1639 18.2152 42.9379 18.1769 42.7064C18.1411 42.4719 18.2046 42.2547 18.3673 42.0548C18.5375 41.8457 18.7403 41.7357 18.9758 41.7248C19.2138 41.7109 19.4697 41.8142 19.7434 42.0348L23.0331 44.6853C23.4073 44.9868 23.7539 45.1983 24.0729 45.3199C24.3914 45.436 24.7069 45.4444 25.0194 45.3451C25.3289 45.2433 25.639 45.0015 25.9497 44.6198C26.3787 44.0927 26.5421 43.6073 26.4398 43.1637C26.3344 42.7176 25.9958 42.2642 25.4239 41.8035L22.1069 39.1309C21.8301 38.9079 21.6741 38.6819 21.6389 38.4528C21.6006 38.2214 21.6641 38.0041 21.8293 37.8011C21.9945 37.5982 22.1961 37.4897 22.4341 37.4758C22.6715 37.4564 22.9286 37.5582 23.2054 37.7812L26.4221 40.3729C26.9453 40.7944 27.3398 41.1976 27.6058 41.5825C27.8742 41.9643 28.0261 42.4027 28.0614 42.8976C28.0893 43.3214 28.0242 43.7355 27.8663 44.1399C27.7083 44.5444 27.4543 44.9617 27.1041 45.392C26.6874 45.904 26.2739 46.3007 25.8635 46.582C25.4502 46.861 25.033 47.024 24.6119 47.071C24.1878 47.1156 23.7504 47.0466 23.2997 46.864C22.8459 46.679 22.3665 46.383 21.8616 45.9762Z" fill="#0979BD"/>
<path d="M33.2357 36.6689L28.5413 33.5251L32.5155 37.9259C32.7354 38.1694 32.845 38.4015 32.8443 38.6222C32.8465 38.8403 32.7573 39.03 32.5768 39.1914C32.402 39.3476 32.2057 39.4158 31.9877 39.3958C31.7671 39.373 31.5455 39.2384 31.3229 38.992L26.7675 33.9476C26.5162 33.6693 26.4202 33.4172 26.4794 33.1913C26.536 32.9626 26.688 32.7376 26.9356 32.5163L27.3375 32.157C27.5792 31.9409 27.7735 31.8065 27.9206 31.7536C28.0705 31.6982 28.2227 31.7036 28.3772 31.7698C28.5318 31.836 28.7577 31.9667 29.0551 32.1619L33.139 34.8221L30.916 30.4983C30.7526 30.1833 30.646 29.9459 30.5963 29.7859C30.5466 29.626 30.556 29.4761 30.6245 29.3363C30.6959 29.1939 30.8525 29.0147 31.0942 28.7986L31.4961 28.4393C31.7436 28.218 31.9847 28.0916 32.2193 28.06C32.4513 28.0255 32.693 28.1474 32.9443 28.4257L37.4997 33.4701C37.7196 33.7136 37.8292 33.9457 37.8285 34.1664C37.8307 34.3845 37.7401 34.5755 37.5566 34.7395C37.3848 34.8931 37.1886 34.9585 36.968 34.9357C36.7474 34.9129 36.5271 34.7797 36.3072 34.5362L32.333 30.1354L34.9743 35.1147C35.1456 35.4384 35.2656 35.6821 35.3345 35.8458C35.4037 36.004 35.4273 36.1846 35.4054 36.3876C35.3835 36.5906 35.272 36.7819 35.0711 36.9616C34.9196 37.097 34.7614 37.1782 34.5963 37.2052C34.4339 37.2352 34.2778 37.2254 34.1279 37.176C33.978 37.1266 33.8306 37.0567 33.6857 36.9662C33.5411 36.8701 33.3911 36.7711 33.2357 36.6689Z" fill="#0979BD"/>
<path d="M45.4125 27.7953L44.4785 27.1154L41.546 29.0117L41.804 30.1566C41.9045 30.6033 41.9488 30.9212 41.937 31.1103C41.9231 31.296 41.8078 31.4589 41.5913 31.5989C41.4076 31.7177 41.2015 31.7557 40.9728 31.7128C40.7442 31.6699 40.5744 31.5634 40.4633 31.3934C40.3992 31.2953 40.3494 31.1833 40.3138 31.0574C40.2782 30.9315 40.2373 30.751 40.191 30.5158L38.9856 24.6526C38.9505 24.4846 38.9082 24.284 38.8586 24.051C38.8101 23.8125 38.7863 23.6046 38.7871 23.4273C38.7912 23.2479 38.836 23.0771 38.9213 22.9149C39.0078 22.7473 39.1511 22.5988 39.3512 22.4695C39.5546 22.3379 39.7492 22.268 39.9349 22.2595C40.1218 22.2456 40.2958 22.2727 40.4568 22.3406C40.6212 22.4065 40.7771 22.4917 40.9247 22.5963C41.0735 22.6955 41.268 22.8325 41.5083 23.0074L46.424 26.4296C46.8023 26.6873 47.0438 26.8963 47.1485 27.0566C47.2574 27.2233 47.2873 27.4227 47.2381 27.6545C47.1901 27.8809 47.0677 28.0578 46.8708 28.1851C46.756 28.2593 46.6437 28.3017 46.534 28.3122C46.4263 28.326 46.3222 28.3165 46.2216 28.2839C46.1188 28.248 45.9876 28.1793 45.828 28.0779C45.6696 27.971 45.5311 27.8768 45.4125 27.7953ZM41.2152 27.6695L43.3703 26.276L40.3443 24.0113L41.2152 27.6695Z" fill="#0979BD"/>
<path d="M48.9717 18.1837L49.9922 20.4231L53.4158 18.8787L52.3953 16.6393C52.2495 16.3194 52.2114 16.0473 52.281 15.8231C52.3541 15.5973 52.5081 15.4314 52.7431 15.3254C52.9817 15.2177 53.2104 15.211 53.4293 15.3051C53.6501 15.394 53.8342 15.6002 53.9816 15.9237L56.788 22.0819C56.9354 22.4054 56.9708 22.6809 56.8941 22.9083C56.8175 23.1357 56.6616 23.3024 56.4266 23.4084C56.1881 23.5161 55.9611 23.522 55.7458 23.4263C55.5289 23.3271 55.3475 23.1175 55.2017 22.7976L54.0038 20.169L50.5802 21.7134L51.7781 24.342C51.9255 24.6655 51.9609 24.9409 51.8842 25.1684C51.8076 25.3958 51.6517 25.5625 51.4167 25.6685C51.1782 25.7761 50.9512 25.7821 50.7359 25.6864C50.519 25.5871 50.3376 25.3776 50.1918 25.0576L47.3854 18.8994C47.2397 18.5795 47.1997 18.3082 47.2657 18.0856C47.3353 17.8614 47.4911 17.6947 47.7332 17.5854C47.9718 17.4778 48.2005 17.4711 48.4194 17.5651C48.6402 17.6541 48.8243 17.8603 48.9717 18.1837Z" fill="#0979BD"/>
<path d="M69.4813 19.2528L66.9119 19.7906C66.5411 19.8682 66.258 19.8416 66.0626 19.7109C65.8703 19.5756 65.7358 19.3264 65.659 18.9633L64.3233 12.6459C64.2449 12.2752 64.2691 11.9928 64.3957 11.7987C64.5254 11.5999 64.7718 11.4625 65.135 11.3865L67.8592 10.8163C68.2607 10.7323 68.6138 10.6843 68.9187 10.6724C69.2236 10.6604 69.5077 10.7008 69.7708 10.7934C69.9947 10.8702 70.2024 10.9844 70.3942 11.1358C70.5851 11.2834 70.7441 11.4596 70.8713 11.6645C70.9976 11.8655 71.0867 12.0884 71.1384 12.3329C71.3162 13.1737 71.0257 13.8771 70.2669 14.4429C71.4462 14.5633 72.1434 15.1317 72.3583 16.1483C72.4577 16.6184 72.427 17.0678 72.2661 17.4966C72.1044 17.9215 71.838 18.2666 71.4669 18.5319C71.2333 18.6925 70.9551 18.8306 70.6321 18.9461C70.3084 19.0577 69.9248 19.16 69.4813 19.2528ZM68.566 15.5473L66.7939 15.9182L67.3126 18.3717L69.1421 17.9888C70.293 17.7479 70.7807 17.2128 70.6054 16.3835C70.5157 15.9593 70.3015 15.6829 69.9629 15.5542C69.6243 15.4255 69.1586 15.4232 68.566 15.5473ZM66.0763 12.5245L66.5357 14.6971L68.0957 14.3706C68.52 14.2818 68.8385 14.1732 69.0509 14.045C69.2672 13.9159 69.4126 13.7258 69.4873 13.4747C69.5489 13.2942 69.5588 13.1046 69.5167 12.9058C69.427 12.4816 69.2166 12.2323 68.8855 12.158C68.5535 12.0798 68.0779 12.1055 67.4585 12.2352L66.0763 12.5245Z" fill="#0979BD"/>
<path d="M77.879 10.2232L78.0261 12.6797L81.7754 12.4574L81.6282 10.0009C81.6072 9.64996 81.6694 9.38214 81.8149 9.19742C81.9643 9.01248 82.1676 8.91238 82.425 8.89712C82.6863 8.88163 82.9021 8.95688 83.0725 9.12287C83.2465 9.28473 83.3442 9.54307 83.3654 9.8979L83.77 16.6534C83.7912 17.0082 83.7252 17.2782 83.572 17.4634C83.4187 17.6486 83.2134 17.7488 82.956 17.764C82.6948 17.7795 82.4809 17.7042 82.3144 17.5379C82.1477 17.3678 82.0538 17.1073 82.0328 16.7564L81.8601 13.8729L78.1108 14.0951L78.2835 16.9786C78.3048 17.3335 78.2388 17.6035 78.0855 17.7887C77.9322 17.9738 77.7269 18.0741 77.4696 18.0893C77.2083 18.1048 76.9944 18.0294 76.828 17.8632C76.6612 17.6931 76.5674 17.4326 76.5464 17.0816L76.1418 10.3262C76.1208 9.97523 76.181 9.70752 76.3226 9.52304C76.4681 9.33832 76.6734 9.23811 76.9385 9.22239C77.1998 9.2069 77.4156 9.28215 77.586 9.44814C77.7601 9.61 77.8577 9.86834 77.879 10.2232Z" fill="#0979BD"/>
<path d="M93.5287 17.0905L93.217 15.9802L89.7387 15.6695L89.2312 16.7301C89.033 17.1438 88.8707 17.4215 88.7442 17.5631C88.618 17.7009 88.4265 17.7583 88.1697 17.7354C87.9519 17.7159 87.7665 17.619 87.6135 17.4445C87.4606 17.2701 87.3933 17.0817 87.4116 16.8794C87.4221 16.7627 87.4524 16.6438 87.5026 16.5228C87.5527 16.4018 87.6325 16.2344 87.742 16.0206L90.4319 10.6605C90.5085 10.5066 90.5996 10.3226 90.7052 10.1084C90.8151 9.8908 90.9253 9.7124 91.0359 9.57325C91.1504 9.43445 91.2915 9.32743 91.4591 9.2522C91.6309 9.17342 91.8355 9.14464 92.0728 9.16584C92.314 9.18738 92.5102 9.25197 92.6613 9.35959C92.8166 9.46366 92.9365 9.59202 93.0207 9.74465C93.1089 9.89764 93.1785 10.0607 93.2296 10.2339C93.2849 10.4036 93.3526 10.6312 93.4327 10.9168L95.1698 16.637C95.307 17.0728 95.367 17.386 95.3498 17.5767C95.3319 17.7751 95.2317 17.9505 95.0493 18.1028C94.8712 18.2516 94.6654 18.3156 94.4319 18.2947C94.2957 18.2826 94.1813 18.2469 94.0886 18.1876C93.9955 18.1322 93.9196 18.0607 93.8608 17.9731C93.8024 17.8816 93.742 17.7468 93.6797 17.5687C93.6215 17.387 93.5712 17.2276 93.5287 17.0905ZM90.3113 14.4088L92.8676 14.6371L91.8963 10.9914L90.3113 14.4088Z" fill="#0979BD"/>
<path d="M102.305 11.7163L101.59 14.6419L105.756 11.9847C105.956 11.8564 106.121 11.7657 106.251 11.7126C106.384 11.6605 106.544 11.6569 106.73 11.702C106.973 11.7608 107.151 11.8802 107.264 12.0602C107.381 12.2374 107.415 12.4284 107.365 12.6333C107.304 12.8799 107.117 13.0939 106.804 13.2752L104.272 14.7243L105.812 18.6899C105.921 18.9656 105.996 19.2027 106.036 19.4012C106.077 19.596 106.077 19.7769 106.036 19.9438C105.991 20.1298 105.877 20.2731 105.696 20.3739C105.518 20.4756 105.304 20.4961 105.053 20.4354C104.818 20.3785 104.638 20.2828 104.514 20.1483C104.391 20.01 104.299 19.845 104.237 19.6532C104.176 19.4614 104.122 19.2876 104.075 19.1317L102.828 15.5744L101.12 16.5657L100.698 18.2903C100.613 18.6394 100.469 18.88 100.268 19.0122C100.068 19.1406 99.8425 19.1744 99.5919 19.1138C99.4476 19.0789 99.3183 19.0074 99.204 18.8994C99.0896 18.7913 99.0122 18.6641 98.9716 18.5176C98.9444 18.3985 98.9423 18.2673 98.9652 18.1242C98.9881 17.981 99.0321 17.7767 99.097 17.511L100.614 11.307C100.697 10.9655 100.834 10.7273 101.024 10.5924C101.217 10.4584 101.443 10.4226 101.701 10.4851C101.956 10.5466 102.14 10.6816 102.254 10.89C102.372 11.0956 102.389 11.371 102.305 11.7163Z" fill="#0979BD"/>
<path d="M117.424 17.0822L115.66 16.3818L113.338 22.1737C113.204 22.5073 113.03 22.7261 112.815 22.8302C112.603 22.9306 112.378 22.934 112.142 22.8403C111.903 22.7452 111.739 22.5858 111.652 22.3621C111.569 22.1399 111.593 21.8638 111.726 21.5338L114.048 15.7419L112.283 15.0415C112.008 14.9319 111.826 14.7907 111.74 14.6177C111.655 14.4411 111.653 14.2531 111.733 14.0537C111.815 13.8471 111.95 13.7113 112.136 13.6464C112.325 13.583 112.553 13.6038 112.818 13.7091L117.959 15.7498C118.238 15.8607 118.421 16.0045 118.505 16.1811C118.594 16.3592 118.598 16.5479 118.518 16.7473C118.438 16.9467 118.305 17.0807 118.117 17.1492C117.931 17.214 117.7 17.1917 117.424 17.0822Z" fill="#0979BD"/>
<path d="M119.102 24.7813L122.265 18.7981C122.429 18.4873 122.623 18.2913 122.847 18.2102C123.071 18.129 123.296 18.1473 123.521 18.265C123.752 18.3864 123.898 18.5619 123.958 18.7915C124.023 19.0195 123.973 19.2907 123.806 19.605L120.644 25.5881C120.478 25.9024 120.281 26.0992 120.053 26.1786C119.829 26.2597 119.601 26.2396 119.37 26.1183C119.148 26.0024 119.006 25.8287 118.942 25.5972C118.885 25.3641 118.938 25.0922 119.102 24.7813Z" fill="#0979BD"/>
<path d="M128.543 30.4376L132.542 24.9784C132.75 24.6948 132.971 24.5291 133.204 24.4813C133.438 24.4336 133.658 24.4842 133.863 24.6333C134.075 24.7869 134.194 24.9817 134.219 25.2175C134.251 25.4525 134.161 25.7133 133.951 26.0001L129.952 31.4593C129.742 31.7461 129.518 31.9122 129.281 31.9576C129.048 32.0054 128.825 31.9525 128.613 31.7988C128.411 31.652 128.295 31.4596 128.266 31.2215C128.243 30.9825 128.335 30.7212 128.543 30.4376Z" fill="#0979BD"/>
<path d="M138.962 29.9924L134.771 34.6316L137.4 36.983C137.61 37.1705 137.724 37.3644 137.743 37.5648C137.765 37.7679 137.707 37.9462 137.568 38.0998C137.427 38.2563 137.256 38.3344 137.056 38.334C136.859 38.3307 136.654 38.234 136.442 38.0439L133.31 35.2434C133.028 34.9908 132.88 34.7462 132.868 34.5096C132.858 34.2756 132.979 34.0194 133.23 33.7412L137.665 28.8324C137.9 28.5715 138.135 28.4279 138.37 28.4016C138.607 28.3779 138.822 28.452 139.014 28.6239C139.209 28.7984 139.307 29.0042 139.309 29.2414C139.316 29.4783 139.2 29.7286 138.962 29.9924Z" fill="#0979BD"/>
<path d="M142.282 42.2719L145.618 37.7288L141.047 41.5059C140.794 41.7149 140.557 41.8147 140.336 41.8053C140.117 41.7988 139.929 41.7026 139.774 41.5167C139.624 41.3368 139.563 41.1388 139.591 40.9228C139.623 40.7044 139.766 40.4894 140.022 40.2779L145.262 35.9484C145.551 35.7095 145.808 35.624 146.032 35.6918C146.26 35.7571 146.48 35.9173 146.693 36.1722L147.038 36.586C147.246 36.8349 147.374 37.0335 147.421 37.1818C147.471 37.333 147.46 37.4842 147.387 37.6352C147.315 37.7862 147.175 38.0057 146.968 38.2936L144.14 42.2489L148.567 40.2099C148.89 40.0599 149.132 39.9634 149.295 39.9203C149.457 39.8772 149.607 39.8925 149.745 39.9662C149.886 40.0428 150.06 40.2056 150.267 40.4545L150.613 40.8683C150.826 41.1232 150.943 41.3679 150.966 41.6025C150.992 41.8345 150.86 42.07 150.571 42.3089L145.332 46.6384C145.079 46.8474 144.841 46.9472 144.62 46.9377C144.401 46.9313 144.212 46.8336 144.055 46.6447C143.907 46.4677 143.849 46.27 143.88 46.0516C143.911 45.8331 144.054 45.6194 144.307 45.4104L148.878 41.6332L143.776 44.0622C143.445 44.2196 143.196 44.3294 143.029 44.3914C142.867 44.4539 142.685 44.4702 142.482 44.4404C142.279 44.4105 142.091 44.2921 141.918 44.0852C141.788 43.9292 141.712 43.7687 141.692 43.6035C141.668 43.4408 141.683 43.2859 141.739 43.1388C141.794 42.9918 141.87 42.848 141.966 42.7075C142.068 42.5675 142.174 42.4223 142.282 42.2719Z" fill="#0979BD"/>
<path d="M150.149 48.6936L153.71 46.5993C154.013 46.4211 154.28 46.3546 154.511 46.3998C154.745 46.4484 154.927 46.5835 155.059 46.8051C155.196 47.0368 155.229 47.2644 155.158 47.4878C155.088 47.7147 154.902 47.9172 154.599 48.0954L150.957 50.2372C150.543 50.4808 150.223 50.7301 149.998 50.9852C149.777 51.2416 149.66 51.5329 149.644 51.8591C149.633 52.1833 149.752 52.5569 150.004 52.9801C150.351 53.5644 150.751 53.8864 151.205 53.946C151.661 54.0036 152.206 53.8462 152.839 53.4739L156.511 51.3142C156.817 51.134 157.085 51.0675 157.313 51.1147C157.544 51.1599 157.726 51.295 157.86 51.52C157.994 51.745 158.026 51.9709 157.956 52.1977C157.892 52.4259 157.706 52.6301 157.4 52.8103L153.839 54.9046C153.26 55.2453 152.743 55.4724 152.288 55.5859C151.835 55.7028 151.369 55.6913 150.891 55.5513C150.482 55.4292 150.115 55.2238 149.789 54.9352C149.463 54.6465 149.158 54.2638 148.875 53.7869C148.537 53.2194 148.308 52.6951 148.186 52.2141C148.067 51.7311 148.058 51.2851 148.161 50.876C148.266 50.4649 148.484 50.0811 148.812 49.7246C149.145 49.366 149.59 49.0224 150.149 48.6936Z" fill="#0979BD"/>
</g>
<defs>
<clipPath id="clip0_9_118">
<rect width="172" height="186" fill="white"/>
</clipPath>
</defs>
</svg>
