<svg width="203" height="220" viewBox="0 0 203 220" fill="none" xmlns="http://www.w3.org/2000/svg">
<g clip-path="url(#clip0_9_118)">
<path d="M39.6479 162.608C39.6479 162.608 98.1696 227.021 164.06 162.608H152.098C152.098 162.608 105.77 208.725 51.6266 162.608H39.6479Z" fill="#0979BD"/>
<path d="M116.209 165.334C116.209 165.334 153.087 154.874 196.872 160.618L180.519 112.109L168.43 109.442L185.699 153.541C185.699 153.541 145.065 150.873 116.209 165.334Z" fill="#0979BD"/>
<path d="M112.108 162.608C112.108 162.608 150.801 146.424 179.099 148.735L159.817 101.445L148.619 99.8993L168.006 142.386C168.006 142.386 145.09 144.216 112.108 162.6V162.608Z" fill="#F19D23"/>
<path d="M103.343 162.608C103.343 162.608 125.346 145.598 158.592 139.874L140.065 93.0832C140.065 93.0832 118.212 100.536 102.071 115.716C102.071 115.716 86.6733 101.67 64.0778 93.0832L45.1166 137.441C45.1166 137.441 84.2479 149 100.317 162.608C100.317 162.608 87.0683 146.2 56.1457 135.283L70.2639 101.873C70.2639 101.873 87.5108 108.263 102.008 117.022C102.008 117.022 128.759 101.623 133.705 101.772L148.029 135.017C148.029 135.017 125.007 143.182 103.335 162.608H103.343Z" fill="#58BCEB"/>
<path d="M87.4989 165.334C87.4989 165.334 50.9137 153.662 6.83588 157.797L24.933 110.294L37.1414 108.079L18.2862 151.176C18.2862 151.176 59.1005 149.973 87.4989 165.326V165.334Z" fill="#0979BD"/>
<path d="M91.6004 162.608C91.6004 162.608 53.9843 145.045 25.9762 146.381L46.6892 99.6901L57.7942 98.5361L37.1525 140.413C37.1525 140.413 59.7032 143.045 91.6004 162.608Z" fill="#F19D23"/>
<path d="M102.538 67.8037C102.538 68.9625 101.658 69.9082 100.563 69.9082H100.435C99.3397 69.9082 98.4602 68.971 98.4602 67.8037L98.4362 54.2907C98.4362 53.1319 99.3157 52.1862 100.411 52.1862H100.539C101.634 52.1862 102.514 53.1234 102.514 54.2907L102.538 67.8037Z" fill="#F29E23"/>
<path d="M121.558 71.3781C121.158 72.4016 120.006 72.901 118.985 72.4916L118.83 72.4343C117.809 72.0249 117.311 70.8704 117.719 69.8551L120.431 62.9854C120.831 61.9619 121.983 61.4625 123.004 61.8719L123.159 61.9292C124.18 62.3386 124.678 63.4931 124.27 64.5084L121.558 71.3781Z" fill="#F29E23"/>
<path d="M83.2414 71.042C83.6628 72.0835 83.2008 73.2957 82.2121 73.7397L82.0014 73.8336C81.0127 74.2775 79.8619 73.7909 79.4405 72.7494L76.7175 66.0479C76.2961 65.0064 76.7581 63.7942 77.7468 63.3503L77.9575 63.2564C78.9462 62.8125 80.097 63.2991 80.5184 64.3406L83.2414 71.042Z" fill="#F29E23"/>
<path d="M147.038 71.8937C147.864 72.6363 147.856 73.8334 147.038 74.576L137.65 82.9865C136.824 83.729 135.492 83.7214 134.666 82.9865L134.599 82.9183C133.773 82.1757 133.781 80.9786 134.599 80.236L143.987 71.8255C144.813 71.083 146.145 71.0906 146.971 71.8255L147.038 71.8861V71.8937Z" fill="#F29E23"/>
<path d="M66.2346 84.3055C65.4442 85.0975 64.1661 85.106 63.3674 84.314L53.9166 74.9112C53.1262 74.1193 53.1178 72.8302 53.9082 72.0382L54.0764 71.8697C54.8667 71.0777 56.1448 71.0693 56.9435 71.8613L66.3943 81.264C67.1847 82.056 67.1931 83.3451 66.4027 84.137L66.2346 84.3055Z" fill="#F29E23"/>
<path d="M106.092 76.9057C115.5 77.6761 128.288 85.2633 132.597 94.2323C132.629 94.2993 132.621 94.3077 132.564 94.2491C115.572 77.0229 88.4872 76.2944 71.0597 93.3698C69.4541 94.9358 69.3008 94.7934 70.5837 92.9427C78.8779 80.9924 90.7141 75.6412 106.092 76.9057Z" fill="#F29E23"/>
<path d="M27.2627 107.919C27.2627 107.919 27.1038 39.3401 100.229 35.5047C100.229 35.5047 168.148 30.8171 175.182 107.919L183.201 109.442C183.201 109.442 182.938 28.055 100.229 27.6525C100.229 27.6525 24.8228 25.6007 19.1404 109.442L27.2548 107.919H27.2627Z" fill="#58BCEB"/>
<path d="M18.7259 62.8445L18.4141 63.368L20.7886 64.7744C21.1012 64.9595 21.2904 65.1646 21.3563 65.3898C21.4223 65.615 21.3892 65.8383 21.2573 66.0598C21.1154 66.2981 20.9281 66.4369 20.6955 66.4762C20.463 66.5155 20.1971 66.4466 19.898 66.2694L14.2112 62.9013C13.8886 62.7102 13.698 62.4997 13.6394 62.2698C13.5808 62.0399 13.6475 61.7638 13.8394 61.4416L15.2878 59.0103C15.4877 58.6747 15.6738 58.3967 15.846 58.1764C16.0148 57.954 16.1999 57.7731 16.4012 57.6336C16.6366 57.4597 16.8981 57.3376 17.1855 57.2673C17.473 57.1969 17.7647 57.1881 18.0606 57.2408C18.3552 57.2881 18.637 57.3915 18.9059 57.5507C19.4571 57.8772 19.8044 58.294 19.9478 58.8012C20.0933 59.305 20.047 59.9132 19.809 60.6257C20.1081 60.4442 20.4674 60.3143 20.8869 60.2359C21.3064 60.1575 21.7285 60.1169 22.153 60.1141C22.5762 60.1059 22.9448 60.1245 23.2588 60.1697C23.5715 60.2097 23.7749 60.2575 23.869 60.3132C23.9665 60.371 24.0449 60.4606 24.1044 60.5821C24.1625 60.6982 24.1865 60.8259 24.1763 60.9651C24.1695 61.1064 24.1241 61.2475 24.0401 61.3884C23.9402 61.5562 23.8159 61.6733 23.6672 61.7396C23.522 61.8079 23.3638 61.8482 23.1929 61.8604C23.0239 61.8693 22.7798 61.8745 22.4605 61.8761L21.1055 61.8839C20.6112 61.8817 20.2173 61.9095 19.9238 61.9672C19.6322 62.0215 19.3992 62.115 19.2246 62.2477C19.0501 62.3804 18.8839 62.5793 18.7259 62.8445ZM16.1302 60.1493L15.3085 61.5286L17.3402 62.732L18.1379 61.393C18.3518 61.0339 18.5015 60.7139 18.5869 60.4331C18.669 60.1503 18.6741 59.9013 18.6022 59.6862C18.5289 59.4658 18.3612 59.2779 18.099 59.1226C17.894 59.0012 17.6832 58.9467 17.4666 58.9592C17.2467 58.9697 17.0431 59.0443 16.8558 59.1831C16.6779 59.3138 16.4361 59.6359 16.1302 60.1493Z" fill="#0979BD"/>
<path d="M24.6426 53.6662L21.4286 51.0711C21.1551 50.8502 20.9992 50.624 20.961 50.3922C20.9252 50.1575 20.9885 49.94 21.1511 49.7399C21.321 49.5307 21.5236 49.4206 21.7588 49.4098C21.9966 49.3959 22.2522 49.4994 22.5257 49.7202L25.8126 52.3742C26.1864 52.6761 26.5327 52.8879 26.8514 53.0097C27.1696 53.126 27.4848 53.1345 27.797 53.0351C28.1061 52.9333 28.4158 52.6914 28.7261 52.3093C29.1546 51.7817 29.3177 51.2958 29.2154 50.8517C29.11 50.4052 28.7717 49.9513 28.2003 49.4899L24.8861 46.8138C24.6095 46.5905 24.4536 46.3642 24.4184 46.1349C24.3801 45.9032 24.4435 45.6858 24.6085 45.4826C24.7735 45.2795 24.9748 45.1709 25.2126 45.157C25.4497 45.1377 25.7066 45.2396 25.9832 45.4629L29.1971 48.0581C29.7198 48.4801 30.1141 48.8838 30.3799 49.2691C30.6481 49.6514 30.7999 50.0903 30.8353 50.5858C30.8632 51.01 30.7983 51.4245 30.6406 51.8293C30.4829 52.2342 30.2292 52.6519 29.8795 53.0825C29.4634 53.5949 29.0504 53.992 28.6405 54.2736C28.2276 54.5527 27.8109 54.7158 27.3903 54.7627C26.9667 54.8073 26.5297 54.7381 26.0794 54.5552C25.626 54.3699 25.1471 54.0736 24.6426 53.6662Z" fill="#0979BD"/>
<path d="M37.5273 42.5268L32.8383 39.38L36.8077 43.7851C37.0274 44.0289 37.1368 44.2612 37.1361 44.4821C37.1383 44.7005 37.0492 44.8904 36.8688 45.052C36.6943 45.2084 36.4981 45.2767 36.2803 45.2567C36.0599 45.2339 35.8386 45.0992 35.6163 44.8525L31.0664 39.8032C30.8154 39.5246 30.7194 39.2723 30.7786 39.0462C30.8352 38.8172 30.9871 38.5919 31.2344 38.3704L31.6359 38.0106C31.8774 37.7943 32.0715 37.6597 32.2184 37.6068C32.3682 37.5512 32.5203 37.5566 32.6746 37.6229C32.829 37.6891 33.0547 37.8199 33.3517 38.0154L37.4309 40.6779L35.2108 36.3498C35.0476 36.0344 34.9412 35.7967 34.8916 35.6366C34.842 35.4765 34.8514 35.3265 34.9198 35.1865C34.9911 35.044 35.1475 34.8645 35.389 34.6482L35.7905 34.2884C36.0378 34.0669 36.2786 33.9403 36.513 33.9086C36.7448 33.874 36.9862 33.9961 37.2372 34.2746L41.7871 39.3239C42.0068 39.5677 42.1163 39.8 42.1155 40.021C42.1177 40.2393 42.0272 40.4306 41.8439 40.5948C41.6722 40.7486 41.4762 40.814 41.2558 40.7912C41.0354 40.7684 40.8154 40.6351 40.5958 40.3913L36.6263 35.9863L39.2643 40.9706C39.4353 41.2947 39.5552 41.5386 39.624 41.7025C39.6931 41.8609 39.7167 42.0417 39.6947 42.2449C39.6728 42.4481 39.5615 42.6396 39.3607 42.8195C39.2094 42.955 39.0513 43.0364 38.8864 43.0634C38.7242 43.0934 38.5682 43.0837 38.4185 43.0343C38.2688 42.9849 38.1216 42.9148 37.9768 42.8242C37.8324 42.7281 37.6825 42.629 37.5273 42.5268Z" fill="#0979BD"/>
<path d="M51.6235 31.9803L50.6906 31.3001L47.76 33.1993L48.0173 34.3452C48.1175 34.7922 48.1617 35.1104 48.1498 35.2996C48.1358 35.4856 48.0206 35.6487 47.8042 35.7889C47.6206 35.9078 47.4147 35.9459 47.1862 35.9031C46.9578 35.8603 46.7882 35.7538 46.6773 35.5836C46.6133 35.4854 46.5635 35.3733 46.5281 35.2474C46.4926 35.1214 46.4518 34.9407 46.4056 34.7053L45.2037 28.8373C45.1687 28.6691 45.1264 28.4684 45.077 28.2351C45.0287 27.9965 45.0049 27.7884 45.0058 27.6109C45.01 27.4313 45.0548 27.2604 45.1401 27.098C45.2266 26.9302 45.3698 26.7816 45.5698 26.652C45.7731 26.5203 45.9675 26.4501 46.1531 26.4416C46.3398 26.4276 46.5136 26.4546 46.6745 26.5226C46.8386 26.5885 46.9944 26.6737 47.1419 26.7783C47.2905 26.8775 47.4847 27.0146 47.7247 27.1896L52.6346 30.6129C53.0125 30.8707 53.2537 31.0798 53.3582 31.2401C53.467 31.407 53.4968 31.6065 53.4475 31.8386C53.3994 32.0653 53.277 32.2423 53.0803 32.3698C52.9656 32.4441 52.8534 32.4866 52.7437 32.4972C52.6362 32.511 52.5321 32.5016 52.4316 32.469C52.329 32.4331 52.1979 32.3644 52.0385 32.2629C51.8803 32.156 51.7419 32.0618 51.6235 31.9803ZM47.43 31.8561L49.5838 30.4604L46.5614 28.1948L47.43 31.8561Z" fill="#0979BD"/>
<path d="M57.1048 21.157L58.1235 23.3972L61.5458 21.8499L60.5271 19.6097C60.3816 19.2897 60.3437 19.0175 60.4133 18.7931C60.4865 18.5671 60.6405 18.401 60.8754 18.2948C61.1139 18.187 61.3425 18.1801 61.5612 18.2741C61.7818 18.363 61.9657 18.5692 62.1129 18.8928L64.9142 25.0534C65.0613 25.377 65.0965 25.6526 65.0198 25.8802C64.9431 26.1078 64.7872 26.2747 64.5523 26.3809C64.3138 26.4887 64.087 26.4948 63.8719 26.3991C63.6551 26.2999 63.474 26.0903 63.3285 25.7703L62.1328 23.1407L58.7104 24.688L59.9061 27.3176C60.0533 27.6411 60.0885 27.9167 60.0117 28.1443C59.935 28.3719 59.7792 28.5388 59.5443 28.6451C59.3058 28.7529 59.079 28.759 58.8638 28.6633C58.6471 28.5641 58.4659 28.3545 58.3204 28.0345L55.5191 21.8739C55.3736 21.5539 55.3338 21.2825 55.3999 21.0597C55.4695 20.8353 55.6253 20.6684 55.8674 20.559C56.1058 20.4512 56.3344 20.4443 56.5531 20.5383C56.7738 20.6272 56.9577 20.8334 57.1048 21.157Z" fill="#0979BD"/>
<path d="M80.7763 20.9764L78.2072 21.5153C77.8364 21.5931 77.5534 21.5666 77.3581 21.4359C77.1659 21.3007 77.0315 21.0515 76.9549 20.6884L75.6219 14.3704C75.5437 13.9997 75.568 13.7172 75.6947 13.523C75.8244 13.3241 76.0708 13.1866 76.434 13.1104L79.1579 12.5391C79.5594 12.4549 79.9125 12.4067 80.2174 12.3947C80.5222 12.3826 80.8062 12.4228 81.0692 12.5153C81.293 12.5921 81.5007 12.7062 81.6923 12.8576C81.8832 13.0051 82.0421 13.1814 82.1692 13.3862C82.2954 13.5872 82.3843 13.81 82.4359 14.0546C82.6133 14.8955 82.3226 15.5991 81.5638 16.1654C82.7429 16.2852 83.4396 16.8535 83.6541 17.8702C83.7533 18.3403 83.7224 18.7898 83.5614 19.2187C83.3995 19.6438 83.133 19.9891 82.7619 20.2545C82.5283 20.4153 82.2501 20.5535 81.9271 20.6691C81.6034 20.7809 81.2198 20.8834 80.7763 20.9764ZM79.8627 17.2705L78.0908 17.6422L78.6084 20.096L80.4378 19.7123C81.5885 19.4709 82.0764 18.9355 81.9014 18.1061C81.8119 17.6819 81.5979 17.4055 81.2594 17.2769C80.9209 17.1484 80.4553 17.1462 79.8627 17.2705ZM77.3747 14.2482L77.8331 16.4211L79.3929 16.0939C79.8173 16.0049 80.1357 15.8962 80.3481 15.7678C80.5644 15.6386 80.7099 15.4484 80.7847 15.1973C80.8464 15.0167 80.8563 14.827 80.8143 14.6283C80.7248 14.204 80.5146 13.9548 80.1835 13.8805C79.8517 13.8025 79.3761 13.8284 78.7567 13.9583L77.3747 14.2482Z" fill="#0979BD"/>
<path d="M91.3952 11.5152L91.542 13.9717L95.2913 13.749L95.1445 11.2924C95.1235 10.9415 95.1857 10.6737 95.3312 10.4889C95.4806 10.3039 95.684 10.2038 95.9414 10.1885C96.2026 10.173 96.4184 10.2482 96.5888 10.4142C96.7628 10.576 96.8604 10.8344 96.8816 11.1892L97.2853 17.9447C97.3065 18.2996 97.2405 18.5696 97.0872 18.7548C96.9339 18.94 96.7286 19.0402 96.4712 19.0555C96.21 19.071 95.9961 18.9957 95.8297 18.8295C95.663 18.6594 95.5691 18.3989 95.5482 18.048L95.3758 15.1644L91.6266 15.3872L91.7989 18.2707C91.8201 18.6255 91.7541 18.8956 91.6008 19.0808C91.4475 19.266 91.2422 19.3662 90.9848 19.3815C90.7236 19.397 90.5097 19.3217 90.3432 19.1555C90.1765 18.9854 90.0827 18.7249 90.0617 18.3739L89.658 11.6184C89.6371 11.2675 89.6974 10.9997 89.839 10.8152C89.9845 10.6305 90.1898 10.5303 90.4549 10.5145C90.7162 10.499 90.932 10.5742 91.1024 10.7402C91.2764 10.902 91.374 11.1603 91.3952 11.5152Z" fill="#0979BD"/>
<path d="M109.395 18.2858L109.083 17.1754L105.605 16.864L105.097 17.9246C104.899 18.3383 104.737 18.6159 104.611 18.7576C104.484 18.8953 104.293 18.9527 104.036 18.9297C103.818 18.9102 103.633 18.8132 103.48 18.6387C103.327 18.4642 103.26 18.2758 103.278 18.0735C103.288 17.9568 103.319 17.8379 103.369 17.7169C103.419 17.5959 103.499 17.4285 103.608 17.2148L106.297 11.855C106.374 11.7011 106.465 11.5171 106.57 11.303C106.68 11.0853 106.79 10.9069 106.901 10.7678C107.015 10.629 107.156 10.522 107.324 10.4468C107.496 10.3681 107.7 10.3393 107.938 10.3606C108.179 10.3822 108.375 10.4468 108.526 10.5545C108.681 10.6586 108.801 10.7869 108.886 10.9396C108.974 11.0926 109.043 11.2557 109.094 11.4289C109.15 11.5986 109.218 11.8263 109.298 12.1119L111.036 17.8326C111.173 18.2685 111.233 18.5817 111.216 18.7723C111.198 18.9707 111.098 19.1461 110.916 19.2984C110.738 19.4472 110.532 19.5111 110.298 19.4902C110.162 19.4781 110.048 19.4423 109.955 19.383C109.862 19.3276 109.786 19.2561 109.727 19.1685C109.669 19.077 109.608 18.9422 109.546 18.764C109.488 18.5823 109.437 18.4229 109.395 18.2858ZM106.177 15.6034L108.733 15.8322L107.761 12.1861L106.177 15.6034Z" fill="#0979BD"/>
<path d="M120.416 13.1548L119.702 16.0808L123.866 13.4248C124.066 13.2965 124.231 13.2059 124.361 13.1529C124.494 13.1008 124.654 13.0973 124.84 13.1424C125.083 13.2014 125.261 13.3209 125.374 13.501C125.491 13.6782 125.525 13.8693 125.475 14.0742C125.415 14.3209 125.228 14.5349 124.914 14.716L122.384 16.1643L123.925 20.1315C124.035 20.4073 124.11 20.6446 124.15 20.8432C124.19 21.038 124.191 21.2189 124.15 21.3859C124.104 21.5718 123.991 21.7152 123.81 21.8159C123.632 21.9175 123.418 21.9379 123.168 21.8772C122.932 21.8201 122.752 21.7243 122.628 21.5897C122.505 21.4513 122.413 21.2862 122.351 21.0944C122.289 20.9026 122.235 20.7287 122.189 20.5727L120.94 17.014L119.233 18.0048L118.812 19.7296C118.727 20.0788 118.584 20.3194 118.383 20.4515C118.183 20.5798 117.957 20.6136 117.707 20.5528C117.562 20.5178 117.433 20.4463 117.319 20.3382C117.204 20.23 117.127 20.1027 117.086 19.9562C117.059 19.8371 117.057 19.7059 117.08 19.5627C117.103 19.4195 117.146 19.2151 117.211 18.9495L118.725 12.7447C118.808 12.4031 118.944 12.1649 119.134 12.0301C119.328 11.8961 119.554 11.8604 119.812 11.923C120.066 11.9847 120.25 12.1198 120.364 12.3283C120.483 12.534 120.5 12.8095 120.416 13.1548Z" fill="#0979BD"/>
<path d="M137.756 19.1184L135.992 18.4167L133.673 24.2104C133.54 24.544 133.366 24.7629 133.152 24.8669C132.939 24.9672 132.715 24.9705 132.479 24.8766C132.24 24.7814 132.076 24.6218 131.989 24.3979C131.906 24.1755 131.93 23.8993 132.062 23.5693L134.38 17.7756L132.616 17.0739C132.34 16.9641 132.159 16.8227 132.073 16.6496C131.988 16.4729 131.985 16.2848 132.065 16.0853C132.148 15.8786 132.282 15.7428 132.468 15.678C132.657 15.6146 132.884 15.6356 133.149 15.741L138.289 17.7856C138.568 17.8968 138.751 18.0407 138.836 18.2175C138.924 18.3956 138.928 18.5845 138.849 18.7839C138.769 18.9834 138.635 19.1174 138.448 19.1858C138.262 19.2506 138.031 19.2281 137.756 19.1184Z" fill="#0979BD"/>
<path d="M141.264 27.6009L144.421 21.6149C144.585 21.3039 144.779 21.1079 145.003 21.0268C145.227 20.9457 145.451 20.9641 145.676 21.082C145.908 21.2035 146.054 21.3792 146.114 21.6091C146.179 21.8373 146.128 22.1086 145.962 22.4231L142.805 28.4091C142.639 28.7235 142.443 28.9203 142.216 28.9996C141.992 29.0807 141.764 29.0605 141.532 28.939C141.311 28.8229 141.168 28.649 141.105 28.4173C141.047 28.184 141.1 27.9119 141.264 27.6009Z" fill="#0979BD"/>
<path d="M152.646 34.4131L156.64 28.9497C156.847 28.6659 157.067 28.5001 157.301 28.4524C157.534 28.4046 157.753 28.4554 157.959 28.6047C158.17 28.7586 158.289 28.9535 158.315 29.1896C158.346 29.4248 158.257 29.6859 158.047 29.9729L154.053 35.4362C153.843 35.7232 153.62 35.8894 153.384 35.9348C153.151 35.9826 152.928 35.9295 152.716 35.7756C152.514 35.6286 152.399 35.436 152.37 35.1976C152.346 34.9584 152.438 34.6969 152.646 34.4131Z" fill="#0979BD"/>
<path d="M164.054 34.7073L159.868 39.351L162.495 41.7052C162.704 41.893 162.819 42.0871 162.838 42.2877C162.859 42.491 162.801 42.6695 162.662 42.8232C162.521 42.9799 162.351 43.0581 162.151 43.0576C161.955 43.0543 161.75 42.9575 161.538 42.7672L158.409 39.9633C158.127 39.7104 157.979 39.4655 157.967 39.2286C157.957 38.9944 158.078 38.738 158.329 38.4594L162.758 33.5458C162.994 33.2847 163.228 33.141 163.462 33.1147C163.699 33.091 163.914 33.1652 164.106 33.3373C164.301 33.512 164.399 33.718 164.4 33.9555C164.408 34.1927 164.292 34.4433 164.054 34.7073Z" fill="#0979BD"/>
<path d="M168.835 48.3409L172.168 43.7924L167.601 47.5744C167.349 47.7837 167.112 47.8836 166.89 47.8742C166.671 47.8678 166.484 47.7716 166.329 47.5855C166.179 47.4054 166.119 47.2072 166.147 46.991C166.178 46.7723 166.322 46.5571 166.578 46.3453L171.812 42.0102C172.101 41.771 172.358 41.6854 172.582 41.7532C172.809 41.8186 173.029 41.9788 173.242 42.2339L173.587 42.6482C173.794 42.8973 173.922 43.0961 173.969 43.2445C174.019 43.3959 174.008 43.5472 173.935 43.6984C173.863 43.8496 173.723 44.0693 173.516 44.3576L170.691 48.3175L175.113 46.2756C175.436 46.1254 175.678 46.0287 175.84 45.9855C176.003 45.9424 176.153 45.9577 176.29 46.0314C176.43 46.108 176.604 46.2709 176.812 46.5201L177.157 46.9343C177.369 47.1894 177.487 47.4344 177.51 47.6691C177.535 47.9014 177.404 48.1372 177.115 48.3764L171.88 52.7115C171.627 52.9208 171.39 53.0207 171.169 53.0113C170.95 53.0049 170.762 52.9071 170.604 52.718C170.457 52.5409 170.399 52.343 170.43 52.1243C170.461 51.9056 170.604 51.6916 170.856 51.4824L175.423 47.7003L170.327 50.1328C169.996 50.2905 169.747 50.4004 169.58 50.4625C169.418 50.5252 169.236 50.5415 169.034 50.5117C168.831 50.4818 168.643 50.3633 168.471 50.1562C168.341 50.0002 168.265 49.8394 168.244 49.6741C168.221 49.5112 168.236 49.3562 168.292 49.2089C168.347 49.0617 168.423 48.9178 168.519 48.7771C168.621 48.637 168.726 48.4916 168.835 48.3409Z" fill="#0979BD"/>
<path d="M178.284 56.7616L181.842 54.664C182.145 54.4854 182.412 54.4187 182.643 54.4639C182.876 54.5124 183.059 54.6475 183.19 54.8693C183.327 55.1011 183.36 55.3289 183.289 55.5526C183.219 55.7796 183.032 55.9824 182.73 56.1609L179.09 58.3062C178.676 58.5501 178.357 58.7998 178.131 59.0552C177.911 59.3119 177.793 59.6035 177.778 59.93C177.766 60.2544 177.885 60.6284 178.136 61.0517C178.483 61.6364 178.883 61.9584 179.336 62.0179C179.792 62.0753 180.337 61.9176 180.969 61.5447L184.639 59.3816C184.945 59.201 185.212 59.1344 185.44 59.1815C185.671 59.2266 185.853 59.3618 185.987 59.5869C186.12 59.812 186.152 60.0381 186.082 60.2651C186.018 60.4935 185.833 60.698 185.527 60.8785L181.968 62.9761C181.389 63.3173 180.872 63.5448 180.418 63.6587C179.965 63.776 179.5 63.7646 179.021 63.6247C178.613 63.5027 178.246 63.2973 177.921 63.0086C177.595 62.7198 177.291 62.3369 177.008 61.8598C176.671 61.2919 176.442 60.7673 176.32 60.286C176.201 59.8026 176.193 59.3562 176.296 58.9468C176.401 58.5353 176.619 58.1511 176.947 57.794C177.28 57.435 177.725 57.0909 178.284 56.7616Z" fill="#0979BD"/>
</g>
<defs>
<clipPath id="clip0_9_118">
<rect width="203" height="220" fill="white"/>
</clipPath>
</defs>
</svg>
