<svg width="81" height="84" viewBox="0 0 81 84" fill="none" xmlns="http://www.w3.org/2000/svg">
<g clip-path="url(#clip0_22_2934)">
<path d="M19.8174 3.09812C19.8764 3.15257 19.959 3.13079 19.9983 3.04912C20.0101 3.02734 20.014 3.00557 20.018 2.97834L20.3129 0.272396C20.3325 0.0981699 20.4505 -0.027055 20.5763 0.00016781C20.6314 0.0110569 20.6825 0.0491689 20.7179 0.109059L22.6406 3.11446C22.7114 3.22879 22.8333 3.24513 22.9159 3.14713C22.9434 3.11446 22.9631 3.07635 22.9748 3.03279C23.2422 2.0691 23.6315 1.19797 24.1427 0.430288C24.2724 0.234284 24.4926 0.21795 24.6381 0.397621C24.6892 0.462956 24.7246 0.544624 24.7403 0.637182L26.034 7.579C26.0851 7.85667 25.9632 8.13979 25.7627 8.21057C25.7509 8.21057 25.7391 8.21601 25.7273 8.22146L19.5186 9.5336C19.2945 9.5826 19.0821 9.37026 19.0428 9.05992L18.2407 2.39033C18.166 1.7751 18.3114 1.64987 18.6811 2.00377L19.8174 3.09812Z" fill="#F69520"/>
<path d="M15.8893 29.9614C14.576 31.1102 10.7541 33.9087 9.24813 33.1465C8.06852 32.5421 8.30838 30.1955 8.98469 29.1883C10.6715 26.6566 12.8224 25.1375 14.9928 23.5641C15.1147 23.4769 15.1816 23.3408 15.2012 23.1503C15.3467 21.6312 15.4961 20.5478 15.6495 19.8944C17.588 11.8147 24.0129 10.1977 29.2111 12.223C31.6765 13.1867 33.4538 15.4734 34.5469 19.0886C34.6373 19.399 34.8064 19.5678 35.0462 19.595C36.5758 19.7855 42.179 20.575 42.5604 23.3517C43.1148 27.3861 36.3242 26.1883 34.9125 25.8508C34.771 25.8181 34.6334 25.9379 34.5941 26.1285C33.5992 31.0177 31.2951 33.9414 27.6737 34.8996C23.6001 35.9831 18.6654 35.1446 16.1174 30.0268C16.0663 29.9233 15.968 29.8961 15.8893 29.9614ZM30.5441 18.8218C30.2649 16.0233 28.4011 14.0742 26.38 14.4608L25.4049 14.6459C23.3838 15.0324 21.9761 17.6132 22.2553 20.4117L22.389 21.7292C22.6682 24.5278 24.532 26.4769 26.553 26.0903L27.5282 25.9052C29.5492 25.5187 30.9569 22.9379 30.6777 20.1394L30.5441 18.8218Z" fill="#A5C96A"/>
<path d="M50.8885 16.6005C51.1834 16.5841 51.2424 16.4154 51.0693 16.0832C50.5307 15.0433 50.3026 14.1014 50.393 13.2466C50.5464 11.7766 51.1519 11.1777 52.2057 11.4499C53.4364 11.7657 54.734 16.1595 55.2019 17.6785C55.2609 17.8582 55.3592 17.9235 55.4968 17.8691C56.2518 17.575 57.3449 16.7693 58.0408 17.2157C59.0003 17.8364 58.6896 20.085 57.7381 20.5042C57.4039 20.6512 56.9871 20.7492 56.4916 20.7982C56.2242 20.8254 56.122 21.016 56.1889 21.3808L56.7826 24.6911C56.8416 25.0341 56.9871 25.1321 57.2191 24.9851C60.4355 23.0087 63.4631 23.4007 66.306 26.1611C66.365 26.221 66.4122 26.2047 66.4436 26.1121L67.8473 22.0831C67.8749 22.0015 67.8513 21.898 67.7923 21.8599C67.7805 21.849 67.7648 21.8436 67.753 21.8436C66.3768 21.6421 65.787 20.6022 65.9875 18.7238C66.0111 18.4843 66.1408 18.2883 66.3099 18.2338C67.1592 17.9453 67.8945 18.2502 68.5119 19.1376C68.8225 19.5786 69.1095 19.5514 69.3651 19.0451C70.0611 17.6894 72.1608 13.41 73.7218 14.782C75.2986 16.1649 73.8162 18.0651 73.1241 19.3609C73.0888 19.4208 73.3601 19.6004 73.9381 19.8999C74.4453 20.1558 74.7677 20.8472 74.7363 21.5931L74.7127 22.2029C74.6852 22.8236 74.2998 23.2973 73.8516 23.2592C73.7415 23.2483 73.6353 23.2102 73.537 23.1448L71.7519 21.9307C71.6378 21.849 71.5002 21.898 71.4255 22.0396L70.7492 23.3027C70.6588 23.4715 70.6706 23.624 70.7846 23.7601L71.8934 25.1648C72.4282 25.8399 72.5068 26.6021 72.1293 27.4569L71.9957 27.7673C71.7322 28.3607 71.1699 28.5458 70.7413 28.1811C70.6588 28.1103 70.584 28.0232 70.5211 27.9197L69.5774 26.3626C69.4634 26.172 69.3651 26.1883 69.2904 26.417L68.4411 29.0141C68.3742 29.2101 68.3782 29.4061 68.449 29.6021C71.9996 39.2662 71.2525 51.1898 70.6037 61.5998C70.5919 61.7849 70.6509 61.9101 70.7767 61.97C76.5293 64.7467 78.3026 73.2294 78.57 80.83C78.6251 82.398 80.3276 82.1367 80.9253 83.6176C81.0669 83.9769 80.9725 84.4234 80.7169 84.6248C80.654 84.6738 80.5832 84.7011 80.5124 84.712C78.9121 84.9515 77.3078 84.8971 75.6996 84.5541C75.5227 84.516 75.4008 84.2818 75.4283 84.0423C75.4323 83.9933 75.444 83.9497 75.4598 83.9062C75.7429 83.1385 76.0063 82.5124 76.0496 81.6358C76.3877 75.0315 74.5908 69.783 70.6548 65.8847C70.3953 65.6233 70.2459 65.7159 70.2026 66.1569C69.8488 69.881 69.3651 73.7303 69.1764 77.5741C68.9287 82.5178 66.5694 84.2002 63.3176 84.3254C60.577 84.4288 57.8442 84.3635 55.1115 84.1185C52.9724 83.9279 50.106 83.0024 49.2056 80.1167C48.9814 79.4035 48.8674 78.2547 48.8635 76.6703C48.8556 72.6631 48.8595 68.7376 48.8713 64.8883C48.8713 64.5017 48.7455 64.3928 48.4939 64.5616C43.2996 68.0734 40.8736 73.8119 41.2196 81.7719C41.251 82.5614 41.4634 83.1004 41.7701 83.7102C41.8959 83.9552 41.8487 84.2982 41.6718 84.4669C41.6207 84.5159 41.5656 84.5432 41.5066 84.5595C39.922 84.9025 38.3413 84.9461 36.7567 84.6902C36.454 84.6412 36.2377 84.2601 36.2731 83.8463C36.2809 83.7483 36.3045 83.6503 36.3399 83.5631C36.7842 82.4361 37.8066 82.3871 38.5065 81.6793C38.6087 81.5704 38.6716 81.4126 38.6795 81.2383C39.0766 72.4671 41.1173 62.264 48.7534 61.4963C48.8831 61.4854 48.95 61.3874 48.9539 61.2023C49.0365 53.9611 49.6695 46.8178 50.8491 39.7725C51.5255 35.7381 52.6815 32.0031 54.3211 28.5676C54.388 28.4261 54.4076 28.2736 54.384 28.1103L53.9201 24.9415C53.9004 24.8 53.7982 24.7074 53.6959 24.7401C53.6645 24.751 53.637 24.7673 53.6134 24.7945C53.1297 25.3662 52.5714 26.1502 51.9973 26.3245C51.4429 26.4932 51.0733 26.1775 50.8963 25.3662C50.393 23.1176 51.9108 22.6058 52.8741 21.6095C52.9724 21.506 53.0039 21.3263 52.9489 21.1739L52.4377 19.7638C52.3787 19.6004 52.249 19.5188 52.1231 19.5569C51.5097 19.7365 50.916 19.9434 50.3458 20.1775C48.8595 20.7873 48.1518 16.742 50.8885 16.6005ZM66.8368 42.0375C66.4122 37.3334 63.3176 33.9958 59.9204 34.5839L58.4144 34.8452C55.0171 35.4332 52.6068 39.7181 53.0314 44.4222L53.2123 46.453C53.637 51.1571 56.7315 54.4946 60.1288 53.9066L61.6347 53.6453C65.032 53.0573 67.4423 48.7724 67.0177 44.0683L66.8368 42.0375Z" fill="#B41D8E"/>
<path d="M30.6778 20.1394C30.957 22.9379 29.5493 25.5187 27.5282 25.9052L26.5531 26.0903C24.532 26.4769 22.6682 24.5278 22.3891 21.7292L22.2554 20.4117C21.9762 17.6132 23.3839 15.0324 25.4049 14.6459L26.3801 14.4608C28.4012 14.0742 30.2649 16.0233 30.5441 18.8219L30.6778 20.1394ZM28.6961 22.1975C28.6961 21.0378 28.0158 20.0959 27.1783 20.0959C26.3408 20.0959 25.6605 21.0378 25.6605 22.1975C25.6605 23.3572 26.3408 24.2991 27.1783 24.2991C28.0158 24.2991 28.6961 23.3572 28.6961 22.1975Z" fill="white"/>
<path d="M27.1783 24.2991C28.0165 24.2991 28.6961 23.3582 28.6961 22.1975C28.6961 21.0368 28.0165 20.0959 27.1783 20.0959C26.3401 20.0959 25.6605 21.0368 25.6605 22.1975C25.6605 23.3582 26.3401 24.2991 27.1783 24.2991Z" fill="#2298AC"/>
<path d="M27.8231 73.4962L19.9276 73.8827C19.8136 73.8882 19.7664 73.9698 19.786 74.1223L20.6 81.5432C20.6236 81.761 20.7101 81.908 20.8556 81.9897C21.7324 82.4742 22.448 83.2419 23.0025 84.2982C23.1873 84.6466 23.1243 84.8209 22.8137 84.8263L17.9459 84.8481C17.7453 84.8481 17.5802 84.6194 17.5802 84.3417V73.8936C17.5802 73.7303 17.4858 73.5996 17.3678 73.5942C14.0846 73.3764 10.939 71.3782 10.129 66.7231C10.1132 66.6197 10.0385 66.5598 9.95988 66.5816C9.93236 66.5925 9.90877 66.6088 9.88911 66.6415C7.6793 70.0552 6.45644 74.0624 6.22052 78.663C6.20872 78.8863 6.2795 79.0333 6.43285 79.1095L7.15634 79.458C7.2861 79.5178 7.3844 79.6322 7.45518 79.7901C8.0843 81.271 6.771 81.7882 6.04751 80.9498C5.90202 80.781 5.68969 80.8028 5.56387 81.0042C5.55993 81.0097 5.556 81.0206 5.55207 81.026C5.151 81.7556 5.08809 82.545 5.36333 83.3944C5.41838 83.5632 5.43018 83.7374 5.39479 83.9171L5.33188 84.2328C5.2493 84.6684 4.93081 84.9243 4.61624 84.8154C4.36853 84.7283 4.19158 84.4288 4.17979 84.0749L4.10901 82.6321C4.09722 82.3817 3.94387 82.1911 3.76299 82.2075C3.7512 82.2075 3.74333 82.2075 3.73154 82.2075L3.35406 82.2891C3.16532 82.3327 3.0395 82.5777 3.06702 82.839C3.06702 82.8608 3.07095 82.8771 3.07882 82.8989C3.20464 83.4924 3.11027 83.9987 2.79571 84.4288C2.58338 84.7174 2.24129 84.712 2.0329 84.418C1.92673 84.2655 1.87168 84.0586 1.88348 83.8517C1.91493 83.2093 1.96212 82.5777 2.02503 81.957C2.06042 81.5868 1.91887 81.4126 1.59251 81.4398C1.47848 81.4507 1.37231 81.5378 1.31726 81.6793L1.06561 82.3164C0.951585 82.5995 0.71173 82.7356 0.483672 82.643C-0.0156969 82.4252 -0.0864736 81.9842 0.0826041 81.3254C1.85202 74.3237 3.35013 68.9118 7.07377 63.5326C7.81299 62.4709 8.85105 61.3058 9.75149 60.1951C9.84586 60.0808 9.90877 59.9229 9.9245 59.7486C10.1447 57.3476 10.7345 55.1316 11.6939 53.1117C11.7883 52.9103 11.804 52.7034 11.7372 52.4856C10.7188 49.1372 11.108 45.0483 13.656 43.4313C13.7936 43.3442 13.9588 43.4258 14.0217 43.6164C14.0492 43.6981 14.0531 43.7906 14.0374 43.8777C13.6993 45.5111 13.5105 47.5909 14.4542 48.9303C14.5486 49.0664 14.6547 49.0827 14.7688 48.9902C19.3889 45.2879 25.9279 45.2389 30.5952 47.874C30.7761 47.9775 30.9806 47.9067 31.1064 47.7107C31.708 46.7688 31.9518 45.6581 31.8338 44.3786C31.8102 44.1554 31.9243 43.9485 32.0894 43.9213C32.1641 43.9104 32.2427 43.9376 32.3057 43.9975C33.5482 45.2498 33.6622 47.7434 33.1943 49.5782C33.151 49.7361 33.1746 49.8722 33.2611 49.992L35.2783 52.7905C35.3609 52.9048 35.4906 52.9103 35.5771 52.8014C38.5026 49.1644 40.1933 44.6291 40.6534 39.1954C40.6966 38.7 40.5472 38.3624 40.2051 38.1936L39.5996 37.8833C39.2496 37.709 39.0688 37.1755 39.1946 36.6909C39.2811 36.3533 39.5013 36.1138 39.7608 36.0811C40.099 36.0321 40.4135 36.1192 40.7006 36.3479C41.023 36.6038 41.4359 36.4514 41.6246 36.0049C41.7032 35.8143 41.7308 35.5966 41.7032 35.3842L41.4634 33.3697C41.4123 32.9777 41.6049 32.602 41.888 32.5313C42.0296 32.4986 42.1751 32.5476 42.293 32.6674C42.7374 33.1302 42.8789 33.7291 42.7177 34.475C42.6627 34.7363 42.7688 35.014 42.9576 35.0902C42.9811 35.1011 43.0087 35.1065 43.0323 35.1065L43.3626 35.1392C43.5631 35.161 43.7361 34.9541 43.7518 34.6819C43.7518 34.6438 43.7518 34.6111 43.7518 34.573C43.7007 34.0557 43.7715 33.5821 43.9642 33.1519C44.0625 32.9342 44.2512 32.8362 44.4281 32.9069L44.5618 32.9614C44.9078 33.0975 45.1162 33.593 45.0337 34.0775L44.8331 35.2263C44.7938 35.4496 44.8489 35.6837 44.9786 35.8252L45.1516 36.0158C45.2381 36.1138 45.364 36.092 45.4347 35.9722C45.4505 35.945 45.4623 35.9069 45.4701 35.8742C45.5763 35.3624 45.8122 35.0085 46.174 34.8071C46.4531 34.6546 46.7677 34.8452 46.8778 35.2318C46.925 35.4006 46.9289 35.5911 46.8817 35.7653C46.3273 37.8397 45.7886 39.8433 45.2657 41.7707C43.5906 47.9503 40.8854 53.0736 37.1539 57.1407C37.0477 57.255 37.0084 57.4075 37.0438 57.5926C38.8368 66.7939 37.3937 71.9608 30.2413 73.0443C30.1234 73.0606 30.0369 73.2076 30.0487 73.3764C30.0487 73.3818 30.0487 73.3873 30.0487 73.3927L30.9059 81.2655C30.9491 81.6412 31.1261 81.9625 31.3777 82.1203C32.2074 82.6212 32.8837 83.3835 33.4027 84.4016C33.4656 84.5214 33.446 84.6956 33.3555 84.7827C33.3201 84.8154 33.2808 84.8317 33.2415 84.8317H28.3068C28.0944 84.8372 27.9254 84.6031 27.9254 84.3091L27.9372 73.6377C27.9372 73.5343 27.9018 73.4853 27.8271 73.4907L27.8231 73.4962ZM33.4066 59.7595C33.037 55.981 30.5284 53.3349 27.7995 53.8413L26.6317 54.0591C23.9029 54.5709 21.9919 58.0445 22.3576 61.823L22.5149 63.4183C22.8845 67.1968 25.3931 69.8429 28.122 69.3365L29.2898 69.1187C32.0186 68.6069 33.9296 65.1333 33.5639 61.3548L33.4066 59.7595Z" fill="#2298AC"/>
<path d="M67.0216 44.0683C67.4463 48.7724 65.0359 53.0573 61.6386 53.6453L60.1327 53.9066C56.7354 54.4946 53.6409 51.1571 53.2162 46.453L53.0353 44.4222C52.6107 39.7181 55.021 35.4332 58.4183 34.8452L59.9243 34.5839C63.3215 33.9959 66.4161 37.3334 66.8407 42.0375L67.0216 44.0683ZM60.7382 47.4113C60.6045 45.9576 59.6451 44.934 58.5952 45.1191L58.1352 45.2008C57.0853 45.3859 56.3461 46.7144 56.4798 48.1681L56.5388 48.816C56.6725 50.2697 57.6319 51.2932 58.6817 51.1081L59.1418 51.0265C60.1916 50.8413 60.9309 49.5129 60.7972 48.0592L60.7382 47.4113Z" fill="white"/>
<path d="M58.5953 45.1212L58.1351 45.2029C57.0861 45.3889 56.3447 46.7173 56.479 48.1698L56.539 48.8178C56.6734 50.2704 57.6327 51.297 58.6817 51.1109L59.1419 51.0293C60.1909 50.8432 60.9324 49.5149 60.798 48.0624L60.738 47.4143C60.6036 45.9618 59.6443 44.9352 58.5953 45.1212Z" fill="#2298AC"/>
<path d="M33.5639 61.3602C33.9335 65.1388 32.0186 68.6178 29.2897 69.1242L28.1219 69.342C25.3931 69.8537 22.8805 67.2022 22.5148 63.4237L22.3575 61.8285C21.9879 58.0499 23.9028 54.5709 26.6317 54.0645L27.7995 53.8467C30.5283 53.3349 33.0409 55.9864 33.4066 59.765L33.5639 61.3602ZM31.244 63.5326C31.244 62.0952 30.4025 60.9301 29.3644 60.9301C28.3264 60.9301 27.4849 62.0952 27.4849 63.5326C27.4849 64.97 28.3264 66.1351 29.3644 66.1351C30.4025 66.1351 31.244 64.97 31.244 63.5326Z" fill="white"/>
<path d="M29.3645 66.1351C30.4025 66.1351 31.244 64.9699 31.244 63.5326C31.244 62.0953 30.4025 60.9301 29.3645 60.9301C28.3265 60.9301 27.485 62.0953 27.485 63.5326C27.485 64.9699 28.3265 66.1351 29.3645 66.1351Z" fill="#2298AC"/>
</g>
<defs>
<clipPath id="clip0_22_2934">
<rect width="81" height="84" fill="white"/>
</clipPath>
</defs>
</svg>
