<svg width="179" height="59" viewBox="0 0 179 59" fill="none" xmlns="http://www.w3.org/2000/svg">
<g clip-path="url(#clip0_22_3021)">
<path d="M72.03 1.83001L72.69 2.03001C73.03 2.13001 73.19 2.36001 73.17 2.71001C72.67 11.34 72.66 19.96 73.13 28.59C73.15 29.04 73.54 29.39 73.99 29.37C74.1 29.37 74.22 29.33 74.32 29.28L77.31 27.79C78.28 27.3 79.47 27.59 80.1 28.48C81.78 30.83 87.68 35.33 90.06 31.33C93.34 25.84 69.95 21.09 77.4 8.16001C79.77 4.05001 83.23 1.35001 87.78 0.0700096C88.1 -0.0199904 88.42 -0.0199904 88.74 0.0900096C92.56 1.35001 95.55 2.51001 97.72 3.56001C100.54 4.94001 101.93 7.35001 102.03 10.57C102.12 13.17 102.69 16.53 99.37 16.57C93.66 16.64 91.39 15.5 90.97 9.47001C90.95 9.14001 90.79 8.91001 90.5 8.77001C89.55 8.30001 88.77 8.45001 88.18 9.22001C83.48 15.29 92.61 20.05 97.9 23.34C106.17 28.47 100.66 39.55 92.75 40.45C85.08 41.33 79.29 39.01 75.36 33.48C73.84 31.34 73.06 31.58 73.02 34.21L72.93 39.95C72.93 40.28 72.67 40.55 72.34 40.59C70.43 40.8 68.17 40.76 65.55 40.47C62.54 40.14 61.95 38.88 61.95 35.94C61.96 24.39 62.04 12.96 62.19 1.64001C62.19 1.18001 62.51 0.79001 62.96 0.68001C65.87 -0.00999039 68.67 0.29001 71.38 1.58001C71.59 1.68001 71.81 1.76001 72.03 1.83001Z" fill="#D9251C"/>
<path d="M28.32 17.46C24.65 23.98 19.49 26.71 12.51 28.75C12.16 28.86 11.98 29.09 11.98 29.46L11.87 40.32C11.87 40.89 11.4 41.36 10.82 41.35C10.75 41.35 10.68 41.35 10.62 41.33L2.86001 39.74C1.87001 39.54 1.15001 38.66 1.16001 37.65L1.21002 3.81998C1.21002 2.17998 2.54001 0.849976 4.18001 0.849976C4.19001 0.849976 4.20002 0.849976 4.21002 0.849976C8.72002 0.879976 14.58 0.249976 18.47 1.46998C23.12 2.92998 24.95 5.33998 28.23 8.59998C28.44 8.80998 28.78 8.81998 29 8.59998C29.1 8.49998 29.16 8.36998 29.16 8.22998L29.3 3.54998C29.31 3.09998 29.61 2.70998 30.04 2.56998C38.73 -0.150024 52.56 -2.14002 58.37 7.36998C63.14 15.17 56.76 19.41 51.47 23.53C50.7 24.12 50.63 24.8 51.24 25.55C53.78 28.65 58.46 32.74 60.02 36.33C60.15 36.62 60.15 36.92 60.02 37.21C59.16 39.25 57.2 41.5 54.86 40C49.93 36.83 45.95 33.59 42.92 30.27C39.87 26.91 38.68 27.48 39.36 31.97C39.75 34.5 39.83 37.04 39.61 39.59C39.56 40.09 39.29 40.38 38.8 40.46C36.77 40.8 29.66 40.09 29.44 36.98C28.99 30.77 28.9 24.56 29.15 18.34C29.15 18.1 29 17.69 28.91 17.49C28.83 17.32 28.63 17.25 28.46 17.33C28.4 17.36 28.35 17.41 28.31 17.46H28.32ZM12.58 7.26998L12.4 19.81C12.4 19.88 12.45 19.93 12.52 19.93H12.57C15.38 19.98 17.7 17.2 17.75 13.72V13.52C17.8 10.05 15.56 7.19998 12.75 7.15998H12.7C12.64 7.15998 12.59 7.20998 12.58 7.26998ZM41.61 7.78998C40.72 8.00998 40.08 8.78998 40.05 9.70998L39.72 18.98C39.7 19.53 40.13 20 40.68 20.02C40.86 20.02 41.05 19.98 41.21 19.89C43.91 18.36 50.91 14.01 49.49 10.02C48.44 7.09998 43.98 7.20998 41.61 7.78998Z" fill="#D9251C"/>
<path d="M140.66 38.54C140.66 38.62 140.7 38.66 140.78 38.67L141.04 38.69C141.29 38.7 141.43 38.59 141.46 38.35C142.03 34.1 142.88 29.9 144.02 25.75C146.16 17.94 148.48 10.32 150.98 2.90998C151.59 1.09998 152.84 0.299981 154.75 0.509981C157.94 0.859981 161.1 1.36998 164.24 2.04998C168.19 2.89998 168 4.44998 168.75 8.27998C170.69 18.19 172.59 27.76 174.44 36.98C174.76 38.6 174.1 39.45 172.45 39.53L167.73 39.77C166.13 39.85 165.08 39.13 164.59 37.6L163.24 33.4C162.98 32.59 162.21 32.05 161.36 32.09L154.37 32.44C153.56 32.48 152.88 33.07 152.73 33.86L151.22 41.68C151.14 42.11 150.78 42.43 150.35 42.47C146.86 42.81 143.84 41.8 141.29 39.45C141.12 39.29 141.01 39.32 140.97 39.55C140.84 40.26 140.37 40.62 139.56 40.63C136.65 40.63 134.48 40.73 131.66 39.66C131.34 39.54 131.13 39.24 131.14 38.9C131.32 31.29 131.63 23.66 132.07 15.99C132.1 15.47 132.05 15.17 131.93 15.1C131.52 14.86 130.97 15.06 130.71 15.55C130.67 15.62 130.64 15.7 130.61 15.79L124.94 35.69C124.81 36.16 124.5 36.42 124.02 36.48C122.09 36.71 120.32 36.29 118.69 35.23C118.41 35.04 118.23 34.79 118.14 34.46L113.48 16.88C113.44 16.73 113.28 16.64 113.13 16.67L112.81 16.73C112.61 16.78 112.51 16.9 112.52 17.1L113.06 39.84C113.06 40.26 112.86 40.49 112.43 40.52C109.05 40.74 103.61 40.12 103.55 35.62C103.39 23.03 103.61 12.74 104.21 4.73998C104.49 0.909981 114.57 3.41998 116.63 4.02998C117.36 4.23998 117.82 4.71998 118 5.46998L120.83 17.02C120.99 17.71 121.68 18.13 122.37 17.97C122.84 17.86 123.21 17.49 123.32 17.02L126.98 1.93998C127.18 1.08998 127.95 0.509981 128.82 0.529981C132.7 0.619981 136.41 1.44998 139.94 3.01998C140.48 3.25998 140.83 3.79998 140.84 4.39998C140.98 15.75 140.72 26.78 140.66 38.54ZM154.97 23.79C154.87 24.22 155.13 24.66 155.57 24.77C155.64 24.79 155.7 24.79 155.77 24.79L159.79 24.74C160.24 24.74 160.59 24.36 160.59 23.92C160.59 23.89 160.59 23.85 160.59 23.82L159.11 13.37C159.05 12.93 158.64 12.62 158.2 12.68C157.87 12.73 157.6 12.97 157.52 13.29L154.98 23.79H154.97Z" fill="#D9251C"/>
<path d="M2.71999 57.85L0.299994 57.39C0.129994 57.36 0.00999365 57.22 0.00999365 57.05V45.9C-6.35319e-06 45.71 0.149994 45.55 0.349994 45.55C0.359994 45.55 0.379994 45.55 0.389994 45.55L2.96999 45.83C3.13999 45.85 3.27999 46 3.27999 46.17L3.29999 49.69C3.29999 49.88 3.45999 50.04 3.64999 50.04C3.76999 50.04 3.88999 49.98 3.94999 49.87L7.16999 44.89C7.26999 44.73 7.48999 44.68 7.64999 44.78C7.64999 44.78 7.66999 44.79 7.67999 44.8L9.27999 46.1C9.41999 46.21 9.45999 46.4 9.36999 46.55L6.37999 51.6C6.31999 51.72 6.31999 51.86 6.39999 51.97L9.22999 56.1C9.32999 56.25 9.29999 56.46 9.15999 56.57L7.88999 57.6C7.74999 57.72 7.54999 57.71 7.41999 57.58L3.99999 54.13C3.85999 54 3.63999 54 3.50999 54.13C3.45999 54.18 3.41999 54.25 3.40999 54.33L3.12999 57.52C3.11999 57.71 2.94999 57.86 2.75999 57.84C2.74999 57.84 2.73999 57.84 2.71999 57.84V57.85Z" fill="white"/>
<path d="M35.84 50.13L38.67 45.32C39.03 44.72 39.47 44.66 39.98 45.13L40.76 45.84C41.13 46.19 41.19 46.58 40.93 47.01L38.29 51.37C38.12 51.66 38.13 51.95 38.33 52.22L40.81 55.68C41.07 56.03 41.04 56.36 40.73 56.67L40.06 57.32C39.83 57.55 39.58 57.57 39.31 57.38C38.18 56.59 37.24 55.65 36.51 54.55C35.56 53.13 35.08 53.27 35.05 54.98L35.02 57.02C35.01 57.75 34.65 58.01 33.96 57.79L32.91 57.46C32.24 57.25 31.91 56.79 31.92 56.09L31.96 46.23C31.96 45.86 32.15 45.69 32.51 45.7L34.29 45.76C34.78 45.78 35.02 46.04 35.03 46.53L35.05 49.92C35.05 50.15 35.23 50.35 35.46 50.35C35.62 50.35 35.77 50.27 35.84 50.13Z" fill="white"/>
<path d="M140 50.98V45.51C140 45.04 140.25 44.82 140.72 44.85L142.46 44.97C142.92 45 143.15 45.25 143.15 45.7V57.19C143.15 57.5 142.99 57.66 142.67 57.66C139.59 57.68 138.96 54.92 137.66 53C137.52 52.79 137.23 52.74 137.02 52.88C136.89 52.97 136.82 53.12 136.82 53.27L136.96 56.87C136.99 57.57 136.65 57.94 135.95 57.98L135.48 58C134.42 58.06 133.9 57.56 133.91 56.5L134.01 46.26C134.01 45.95 134.17 45.77 134.48 45.74C135.43 45.64 136.33 45.81 137.18 46.25C137.51 46.42 137.74 46.69 137.87 47.04L139.29 51.2C139.32 51.3 139.39 51.34 139.49 51.31C139.58 51.29 139.68 51.27 139.78 51.25C139.91 51.22 140 51.11 140 50.98Z" fill="white"/>
<path d="M172.31 53.63C172.29 54.41 172.36 55.48 172.52 56.84C172.61 57.67 172.24 58.06 171.41 58.03L170.64 58C169.76 57.97 169.33 57.51 169.35 56.63L169.58 46.37C169.59 45.92 169.97 45.56 170.42 45.57C170.45 45.57 170.49 45.57 170.52 45.57C173.06 45.96 174.34 47.51 174.36 50.21C174.36 50.64 174.65 51.02 175.07 51.14L175.5 51.27C175.65 51.31 175.81 51.23 175.86 51.08C175.87 51.05 175.87 51.01 175.87 50.98L175.49 45.71C175.45 45.21 175.83 44.77 176.33 44.73C176.39 44.73 176.46 44.73 176.52 44.73L177.96 44.92C178.55 44.99 178.84 45.33 178.84 45.92L178.82 56.99C178.82 57.37 178.52 57.67 178.14 57.67C178.14 57.67 178.13 57.67 178.12 57.67C175.38 57.59 174.55 55.41 173.41 53.34C172.72 52.08 172.35 52.17 172.31 53.61V53.63Z" fill="white"/>
<path d="M80.24 48.06L80 57.45C80 57.69 79.79 57.89 79.55 57.88C79.52 57.88 79.5 57.88 79.47 57.88L77.33 57.4C77.13 57.35 76.99 57.18 76.99 56.97L76.93 48.26C76.93 48.04 76.76 47.85 76.54 47.82L74.94 47.66C74.8 47.65 74.68 47.57 74.61 47.45L73.95 46.34C73.83 46.13 73.9 45.86 74.11 45.74C74.16 45.71 74.22 45.69 74.28 45.68L82.48 44.91C82.72 44.88 82.94 45.06 82.97 45.3C82.97 45.32 82.97 45.34 82.97 45.35L82.95 46.86C82.95 47.07 82.8 47.25 82.59 47.29L80.6 47.65C80.4 47.69 80.25 47.86 80.24 48.07V48.06Z" fill="white"/>
<path d="M114.57 47.76L113.22 47.72C113.03 47.72 112.87 47.59 112.81 47.42L112.39 46.27C112.31 46.04 112.43 45.78 112.66 45.69C112.7 45.68 112.73 45.67 112.77 45.67L120.24 44.9C120.44 44.88 120.63 45 120.7 45.18L121.27 46.55C121.37 46.78 121.26 47.04 121.03 47.14C121.01 47.14 120.99 47.16 120.96 47.16L118.79 47.69C118.59 47.74 118.44 47.91 118.44 48.12L118.21 57.45C118.21 57.7 118 57.9 117.75 57.89C117.73 57.89 117.71 57.89 117.7 57.89L115.43 57.56C115.21 57.53 115.05 57.33 115.05 57.11L115 48.2C115 47.96 114.81 47.77 114.57 47.76Z" fill="white"/>
<path d="M13.33 56.07L12.99 57.77C12.84 58.5 12.42 58.73 11.72 58.45L10.72 58.05C10.08 57.8 9.74 57.11 9.93 56.45L12.92 45.9C13.07 45.38 13.58 45.06 14.11 45.16L17.47 45.79C17.91 45.87 18.18 46.13 18.27 46.57L20.3 56.78C20.38 57.21 20.11 57.62 19.69 57.7C18.16 57.98 17.24 57.36 16.93 55.85C16.86 55.53 16.61 55.29 16.29 55.23C15.48 55.09 14.69 55.15 13.92 55.41C13.6 55.52 13.41 55.74 13.34 56.07H13.33ZM15.68 50.27C15.64 50.06 15.44 49.92 15.23 49.95C15.12 49.97 15.02 50.04 14.96 50.14C14.54 50.85 14.25 51.61 14.09 52.42C14.03 52.72 14.15 52.86 14.46 52.84L15.58 52.75C15.85 52.73 16.06 52.5 16.04 52.23C16.04 52.21 16.04 52.18 16.04 52.16L15.69 50.27H15.68Z" fill="white"/>
<path d="M26.77 54.69L28.99 55.32C29.44 55.45 29.7 55.92 29.57 56.37C29.49 56.66 29.26 56.88 28.97 56.96L25.43 57.86C24.35 58.14 23.26 57.49 22.98 56.41C22.94 56.24 22.91 56.06 22.92 55.89L23.03 45.99C23.03 45.33 23.36 45.07 24.01 45.21L25.23 45.47C25.91 45.61 26.25 46.03 26.25 46.72V54C26.25 54.36 26.42 54.59 26.77 54.69Z" fill="white"/>
<path d="M47.27 55.37C48.16 55.05 48.64 54.19 48.71 52.8C48.83 50.35 48.82 48.09 48.69 46.01C48.64 45.26 48.98 44.96 49.72 45.12L51.2 45.45C51.78 45.58 52.18 46.09 52.17 46.68L52.04 54.82C52.04 55.19 51.9 55.5 51.64 55.76L49.81 57.57C49.58 57.79 49.27 57.9 48.95 57.88C46.82 57.71 44.91 56.92 43.23 55.51C42.93 55.26 42.78 54.94 42.79 54.55L42.91 46.29C42.91 45.81 43.31 45.43 43.79 45.43C43.85 45.43 43.9 45.43 43.96 45.45L45.46 45.76C45.97 45.87 46.22 46.18 46.2 46.7L45.97 54.43C45.95 54.97 46.38 55.41 46.91 55.43C47.03 55.43 47.15 55.41 47.27 55.37Z" fill="white"/>
<path d="M59.14 54.7C59.87 54.89 60.57 55.09 61.24 55.3C61.75 55.46 62.01 55.76 62.03 56.21C62.05 56.54 61.83 56.83 61.51 56.91L57.69 57.85C56.62 58.12 55.54 57.47 55.28 56.4C55.24 56.24 55.22 56.08 55.22 55.91L55.28 46.23C55.28 45.4 55.7 45.07 56.51 45.24L57.59 45.47C58.32 45.62 58.69 46.08 58.7 46.83L58.75 54.2C58.75 54.47 58.88 54.63 59.14 54.7Z" fill="white"/>
<path d="M66.79 55.99L66.13 58.32C66.06 58.56 65.81 58.7 65.57 58.63C65.54 58.63 65.51 58.61 65.48 58.59L63.87 57.71C63.41 57.46 63.25 57.08 63.39 56.58L66.31 46.09C66.43 45.67 66.82 45.37 67.26 45.37C68.61 45.37 69.89 45.6 71.11 46.08C71.47 46.22 71.69 46.48 71.76 46.85L73.62 56.5C73.77 57.29 73.45 57.7 72.64 57.73H72.19C71.48 57.77 71.03 57.44 70.84 56.75C70.37 55.04 69.23 54.54 67.44 55.27C67.11 55.4 66.89 55.64 66.79 55.99ZM67.79 51.88L67.64 52.09C67.33 52.52 67.44 52.75 67.97 52.76L69.01 52.8C69.42 52.81 69.58 52.62 69.47 52.22L68.87 49.94C68.81 49.73 68.58 49.61 68.37 49.67C68.22 49.72 68.11 49.85 68.09 50.01L67.99 51.33C67.98 51.53 67.91 51.71 67.79 51.88Z" fill="white"/>
<path d="M88.7 58.07C85.81 58 83.53 55.07 83.61 51.51C83.69 47.95 86.1 45.12 88.99 45.19C91.88 45.26 94.16 48.19 94.08 51.75C94 55.31 91.59 58.14 88.7 58.07ZM88.3 55.79C89.21 55.9 90.16 54.15 90.42 51.89C90.68 49.63 90.16 47.71 89.24 47.61C88.33 47.5 87.38 49.25 87.12 51.51C86.86 53.77 87.38 55.69 88.3 55.79Z" fill="white"/>
<path d="M99.4 54.61L99.46 57.28C99.47 57.69 99.28 57.89 98.87 57.9C96.87 57.94 95.93 56.89 96.06 54.74C96.19 52.32 96.26 49.71 96.25 46.92C96.25 46.41 96.58 45.95 97.07 45.79C99.86 44.89 103.81 44.6 105.62 47.58C107.09 50 104.83 51.17 103.42 52.5C103.13 52.77 103.12 53.05 103.39 53.34L105.97 56.16C106.39 56.61 106.38 57.06 105.95 57.5L105.68 57.77C105.37 58.08 104.88 58.1 104.55 57.83L100.15 54.25C99.95 54.09 99.66 54.12 99.5 54.32C99.43 54.4 99.4 54.51 99.4 54.61ZM100.13 47.63C100.07 47.66 100.02 47.72 99.99 47.79C99.62 48.84 99.5 49.91 99.63 51.01C99.66 51.26 99.89 51.43 100.13 51.4C100.19 51.4 100.24 51.38 100.29 51.35C101.35 50.76 102.23 49.98 102.93 48.99C103.11 48.73 103.08 48.39 102.87 48.16C102.08 47.29 101.17 47.12 100.13 47.63Z" fill="white"/>
<path d="M127.46 55.2L125.13 55.23C124.76 55.23 124.44 55.5 124.37 55.87L123.93 58.21C123.87 58.52 123.57 58.72 123.26 58.66C123.22 58.66 123.18 58.64 123.14 58.63L121.34 57.85C120.92 57.67 120.71 57.22 120.83 56.79L124.02 45.79C124.13 45.41 124.5 45.17 124.88 45.23L128.52 45.8C128.89 45.85 129.19 46.13 129.26 46.5L131.27 56.43C131.39 57.02 131 57.59 130.41 57.71C130.35 57.72 130.3 57.73 130.24 57.73C128.78 57.77 128.03 57.1 127.98 55.71C127.98 55.36 127.8 55.19 127.46 55.2ZM125.97 49.86L125.08 52.26C124.94 52.65 125.08 52.84 125.49 52.81L126.57 52.75C126.85 52.74 127.07 52.5 127.05 52.22C127.05 52.2 127.05 52.19 127.05 52.17L126.71 49.93C126.68 49.72 126.48 49.58 126.27 49.62C126.13 49.64 126.02 49.74 125.97 49.86Z" fill="white"/>
<path d="M150.94 53.71C150.3 53.6 150.03 53.21 150.13 52.54C150.18 52.19 150.38 52.01 150.73 51.99L154.71 51.72C155.06 51.7 155.25 51.86 155.29 52.21C156.04 59.53 145.37 60.24 145.64 52.23C145.74 49.18 147.17 44.66 151.08 45.34C152.67 45.61 153.91 46.58 154.79 48.25C155.21 49.06 154.97 50.06 154.23 50.59C153.7 50.97 153.16 50.97 152.61 50.58C151.87 50.05 151.84 48.99 151.58 48.16C151.49 47.86 151.18 47.68 150.87 47.77C150.74 47.81 150.63 47.89 150.56 48C149.11 50.15 148.64 52.52 149.17 55.11C149.24 55.48 149.46 55.72 149.83 55.81C150.52 55.98 151.08 55.75 151.53 55.11C152.06 54.34 151.87 53.87 150.94 53.71Z" fill="white"/>
<path d="M160.11 55.72L159.39 58.24C159.29 58.6 158.92 58.8 158.56 58.7C158.5 58.68 158.45 58.66 158.4 58.63L156.67 57.57C156.42 57.41 156.3 57.11 156.38 56.82L159.5 45.64C159.59 45.31 159.91 45.11 160.25 45.16L164.22 45.82C164.49 45.87 164.7 46.07 164.76 46.34L166.97 56.84C167.05 57.2 166.82 57.56 166.46 57.64C166.43 57.64 166.4 57.65 166.37 57.65L164.68 57.78C164.37 57.8 164.08 57.6 163.99 57.3L163.5 55.63C163.41 55.34 163.14 55.14 162.83 55.15L160.73 55.23C160.44 55.24 160.19 55.44 160.11 55.72ZM160.83 52.25C160.79 52.48 160.94 52.7 161.17 52.74C161.2 52.74 161.22 52.74 161.25 52.74H162.19C162.68 52.75 162.85 52.51 162.7 52.04L161.92 49.64C161.86 49.47 161.68 49.37 161.5 49.43C161.38 49.47 161.29 49.57 161.28 49.69L160.83 52.24V52.25Z" fill="white"/>
</g>
<defs>
<clipPath id="clip0_22_3021">
<rect width="178.84" height="58.72" fill="white"/>
</clipPath>
</defs>
</svg>
