<svg width="214" height="133" viewBox="0 0 214 133" fill="none" xmlns="http://www.w3.org/2000/svg">
<path d="M107.03 69.83L107.69 70.03C108.03 70.13 108.19 70.36 108.17 70.71C107.67 79.34 107.66 87.96 108.13 96.59C108.15 97.04 108.54 97.39 108.99 97.37C109.1 97.37 109.22 97.33 109.32 97.28L112.31 95.79C113.28 95.3 114.47 95.59 115.1 96.48C116.78 98.83 122.68 103.33 125.06 99.33C128.34 93.84 104.95 89.09 112.4 76.16C114.77 72.05 118.23 69.35 122.78 68.07C123.1 67.98 123.42 67.98 123.74 68.09C127.56 69.35 130.55 70.51 132.72 71.56C135.54 72.94 136.93 75.35 137.03 78.57C137.12 81.17 137.69 84.53 134.37 84.57C128.66 84.64 126.39 83.5 125.97 77.47C125.95 77.14 125.79 76.91 125.5 76.77C124.55 76.3 123.77 76.45 123.18 77.22C118.48 83.29 127.61 88.05 132.9 91.34C141.17 96.47 135.66 107.55 127.75 108.45C120.08 109.33 114.29 107.01 110.36 101.48C108.84 99.34 108.06 99.58 108.02 102.21L107.93 107.95C107.93 108.28 107.67 108.55 107.34 108.59C105.43 108.8 103.17 108.76 100.55 108.47C97.54 108.14 96.95 106.88 96.95 103.94C96.96 92.39 97.04 80.96 97.19 69.64C97.19 69.18 97.51 68.79 97.96 68.68C100.87 67.99 103.67 68.29 106.38 69.58C106.59 69.68 106.81 69.76 107.03 69.83Z" fill="#D9251C"/>
<path d="M63.32 85.46C59.65 91.98 54.49 94.71 47.51 96.75C47.16 96.86 46.98 97.09 46.98 97.46L46.87 108.32C46.87 108.89 46.4 109.36 45.82 109.35C45.75 109.35 45.68 109.35 45.62 109.33L37.86 107.74C36.87 107.54 36.15 106.66 36.16 105.65L36.21 71.82C36.21 70.18 37.54 68.85 39.18 68.85C39.19 68.85 39.2 68.85 39.21 68.85C43.72 68.88 49.58 68.25 53.47 69.47C58.12 70.93 59.95 73.34 63.23 76.6C63.44 76.81 63.78 76.82 64 76.6C64.1 76.5 64.16 76.37 64.16 76.23L64.3 71.55C64.31 71.1 64.61 70.71 65.04 70.57C73.73 67.85 87.56 65.86 93.37 75.37C98.14 83.17 91.76 87.41 86.47 91.53C85.7 92.12 85.63 92.8 86.24 93.55C88.78 96.65 93.46 100.74 95.02 104.33C95.15 104.62 95.15 104.92 95.02 105.21C94.16 107.25 92.2 109.5 89.86 108C84.93 104.83 80.95 101.59 77.92 98.27C74.87 94.91 73.68 95.48 74.36 99.97C74.75 102.5 74.83 105.04 74.61 107.59C74.56 108.09 74.29 108.38 73.8 108.46C71.77 108.8 64.66 108.09 64.44 104.98C63.99 98.77 63.9 92.56 64.15 86.34C64.15 86.1 64 85.69 63.91 85.49C63.83 85.32 63.63 85.25 63.46 85.33C63.4 85.36 63.35 85.41 63.31 85.46H63.32ZM47.58 75.27L47.4 87.81C47.4 87.88 47.45 87.93 47.52 87.93H47.57C50.38 87.98 52.7 85.2 52.75 81.72V81.52C52.8 78.05 50.56 75.2 47.75 75.16H47.7C47.64 75.16 47.59 75.21 47.58 75.27ZM76.61 75.79C75.72 76.01 75.08 76.79 75.05 77.71L74.72 86.98C74.7 87.53 75.13 88 75.68 88.02C75.86 88.02 76.05 87.98 76.21 87.89C78.91 86.36 85.91 82.01 84.49 78.02C83.44 75.1 78.98 75.21 76.61 75.79Z" fill="#D9251C"/>
<path d="M175.66 106.54C175.66 106.62 175.7 106.66 175.78 106.67L176.04 106.69C176.29 106.7 176.43 106.59 176.46 106.35C177.03 102.1 177.88 97.9 179.02 93.75C181.16 85.94 183.48 78.32 185.98 70.91C186.59 69.1 187.84 68.3 189.75 68.51C192.94 68.86 196.1 69.37 199.24 70.05C203.19 70.9 203 72.45 203.75 76.28C205.69 86.19 207.59 95.76 209.44 104.98C209.76 106.6 209.1 107.45 207.45 107.53L202.73 107.77C201.13 107.85 200.08 107.13 199.59 105.6L198.24 101.4C197.98 100.59 197.21 100.05 196.36 100.09L189.37 100.44C188.56 100.48 187.88 101.07 187.73 101.86L186.22 109.68C186.14 110.11 185.78 110.43 185.35 110.47C181.86 110.81 178.84 109.8 176.29 107.45C176.12 107.29 176.01 107.32 175.97 107.55C175.84 108.26 175.37 108.62 174.56 108.63C171.65 108.63 169.48 108.73 166.66 107.66C166.34 107.54 166.13 107.24 166.14 106.9C166.32 99.29 166.63 91.66 167.07 83.99C167.1 83.47 167.05 83.17 166.93 83.1C166.52 82.86 165.97 83.06 165.71 83.55C165.67 83.62 165.64 83.7 165.61 83.79L159.94 103.69C159.81 104.16 159.5 104.42 159.02 104.48C157.09 104.71 155.32 104.29 153.69 103.23C153.41 103.04 153.23 102.79 153.14 102.46L148.48 84.88C148.44 84.73 148.28 84.64 148.13 84.67L147.81 84.73C147.61 84.78 147.51 84.9 147.52 85.1L148.06 107.84C148.06 108.26 147.86 108.49 147.43 108.52C144.05 108.74 138.61 108.12 138.55 103.62C138.39 91.03 138.61 80.74 139.21 72.74C139.49 68.91 149.57 71.42 151.63 72.03C152.36 72.24 152.82 72.72 153 73.47L155.83 85.02C155.99 85.71 156.68 86.13 157.37 85.97C157.84 85.86 158.21 85.49 158.32 85.02L161.98 69.94C162.18 69.09 162.95 68.51 163.82 68.53C167.7 68.62 171.41 69.45 174.94 71.02C175.48 71.26 175.83 71.8 175.84 72.4C175.98 83.75 175.72 94.78 175.66 106.54ZM189.97 91.79C189.87 92.22 190.13 92.66 190.57 92.77C190.64 92.79 190.7 92.79 190.77 92.79L194.79 92.74C195.24 92.74 195.59 92.36 195.59 91.92C195.59 91.89 195.59 91.85 195.59 91.82L194.11 81.37C194.05 80.93 193.64 80.62 193.2 80.68C192.87 80.73 192.6 80.97 192.52 81.29L189.98 91.79H189.97Z" fill="#D9251C"/>
<path d="M37.72 125.85L35.3 125.39C35.13 125.36 35.01 125.22 35.01 125.05V113.9C35 113.71 35.15 113.55 35.35 113.55C35.36 113.55 35.38 113.55 35.39 113.55L37.97 113.83C38.14 113.85 38.28 114 38.28 114.17L38.3 117.69C38.3 117.88 38.46 118.04 38.65 118.04C38.77 118.04 38.89 117.98 38.95 117.87L42.17 112.89C42.27 112.73 42.49 112.68 42.65 112.78C42.65 112.78 42.67 112.79 42.68 112.8L44.28 114.1C44.42 114.21 44.46 114.4 44.37 114.55L41.38 119.6C41.32 119.72 41.32 119.86 41.4 119.97L44.23 124.1C44.33 124.25 44.3 124.46 44.16 124.57L42.89 125.6C42.75 125.72 42.55 125.71 42.42 125.58L39 122.13C38.86 122 38.64 122 38.51 122.13C38.46 122.18 38.42 122.25 38.41 122.33L38.13 125.52C38.12 125.71 37.95 125.86 37.76 125.84C37.75 125.84 37.74 125.84 37.72 125.84V125.85Z" fill="white"/>
<path d="M70.84 118.13L73.67 113.32C74.03 112.72 74.47 112.66 74.98 113.13L75.76 113.84C76.13 114.19 76.19 114.58 75.93 115.01L73.29 119.37C73.12 119.66 73.13 119.95 73.33 120.22L75.81 123.68C76.07 124.03 76.04 124.36 75.73 124.67L75.06 125.32C74.83 125.55 74.58 125.57 74.31 125.38C73.18 124.59 72.24 123.65 71.51 122.55C70.56 121.13 70.08 121.27 70.05 122.98L70.02 125.02C70.01 125.75 69.65 126.01 68.96 125.79L67.91 125.46C67.24 125.25 66.91 124.79 66.92 124.09L66.96 114.23C66.96 113.86 67.15 113.69 67.51 113.7L69.29 113.76C69.78 113.78 70.02 114.04 70.03 114.53L70.05 117.92C70.05 118.15 70.23 118.35 70.46 118.35C70.62 118.35 70.77 118.27 70.84 118.13Z" fill="white"/>
<path d="M175 118.98V113.51C175 113.04 175.25 112.82 175.72 112.85L177.46 112.97C177.92 113 178.15 113.25 178.15 113.7V125.19C178.15 125.5 177.99 125.66 177.67 125.66C174.59 125.68 173.96 122.92 172.66 121C172.52 120.79 172.23 120.74 172.02 120.88C171.89 120.97 171.82 121.12 171.82 121.27L171.96 124.87C171.99 125.57 171.65 125.94 170.95 125.98L170.48 126C169.42 126.06 168.9 125.56 168.91 124.5L169.01 114.26C169.01 113.95 169.17 113.77 169.48 113.74C170.43 113.64 171.33 113.81 172.18 114.25C172.51 114.42 172.74 114.69 172.87 115.04L174.29 119.2C174.32 119.3 174.39 119.34 174.49 119.31C174.58 119.29 174.68 119.27 174.78 119.25C174.91 119.22 175 119.11 175 118.98Z" fill="white"/>
<path d="M207.31 121.63C207.29 122.41 207.36 123.48 207.52 124.84C207.61 125.67 207.24 126.06 206.41 126.03L205.64 126C204.76 125.97 204.33 125.51 204.35 124.63L204.58 114.37C204.59 113.92 204.97 113.56 205.42 113.57C205.45 113.57 205.49 113.57 205.52 113.57C208.06 113.96 209.34 115.51 209.36 118.21C209.36 118.64 209.65 119.02 210.07 119.14L210.5 119.27C210.65 119.31 210.81 119.23 210.86 119.08C210.87 119.05 210.87 119.01 210.87 118.98L210.49 113.71C210.45 113.21 210.83 112.77 211.33 112.73C211.39 112.73 211.46 112.73 211.52 112.73L212.96 112.92C213.55 112.99 213.84 113.33 213.84 113.92L213.82 124.99C213.82 125.37 213.52 125.67 213.14 125.67C213.14 125.67 213.13 125.67 213.12 125.67C210.38 125.59 209.55 123.41 208.41 121.34C207.72 120.08 207.35 120.17 207.31 121.61V121.63Z" fill="white"/>
<path d="M115.24 116.06L115 125.45C115 125.69 114.79 125.89 114.55 125.88C114.52 125.88 114.5 125.88 114.47 125.88L112.33 125.4C112.13 125.35 111.99 125.18 111.99 124.97L111.93 116.26C111.93 116.04 111.76 115.85 111.54 115.82L109.94 115.66C109.8 115.65 109.68 115.57 109.61 115.45L108.95 114.34C108.83 114.13 108.9 113.86 109.11 113.74C109.16 113.71 109.22 113.69 109.28 113.68L117.48 112.91C117.72 112.88 117.94 113.06 117.97 113.3C117.97 113.32 117.97 113.34 117.97 113.35L117.95 114.86C117.95 115.07 117.8 115.25 117.59 115.29L115.6 115.65C115.4 115.69 115.25 115.86 115.24 116.07V116.06Z" fill="white"/>
<path d="M149.57 115.76L148.22 115.72C148.03 115.72 147.87 115.59 147.81 115.42L147.39 114.27C147.31 114.04 147.43 113.78 147.66 113.69C147.7 113.68 147.73 113.67 147.77 113.67L155.24 112.9C155.44 112.88 155.63 113 155.7 113.18L156.27 114.55C156.37 114.78 156.26 115.04 156.03 115.14C156.01 115.14 155.99 115.16 155.96 115.16L153.79 115.69C153.59 115.74 153.44 115.91 153.44 116.12L153.21 125.45C153.21 125.7 153 125.9 152.75 125.89C152.73 125.89 152.71 125.89 152.7 125.89L150.43 125.56C150.21 125.53 150.05 125.33 150.05 125.11L150 116.2C150 115.96 149.81 115.77 149.57 115.76Z" fill="white"/>
<path d="M48.33 124.07L47.99 125.77C47.84 126.5 47.42 126.73 46.72 126.45L45.72 126.05C45.08 125.8 44.74 125.11 44.93 124.45L47.92 113.9C48.07 113.38 48.58 113.06 49.11 113.16L52.47 113.79C52.91 113.87 53.18 114.13 53.27 114.57L55.3 124.78C55.38 125.21 55.11 125.62 54.69 125.7C53.16 125.98 52.24 125.36 51.93 123.85C51.86 123.53 51.61 123.29 51.29 123.23C50.48 123.09 49.69 123.15 48.92 123.41C48.6 123.52 48.41 123.74 48.34 124.07H48.33ZM50.68 118.27C50.64 118.06 50.44 117.92 50.23 117.95C50.12 117.97 50.02 118.04 49.96 118.14C49.54 118.85 49.25 119.61 49.09 120.42C49.03 120.72 49.15 120.86 49.46 120.84L50.58 120.75C50.85 120.73 51.06 120.5 51.04 120.23C51.04 120.21 51.04 120.18 51.04 120.16L50.69 118.27H50.68Z" fill="white"/>
<path d="M61.77 122.69L63.99 123.32C64.44 123.45 64.7 123.92 64.57 124.37C64.49 124.66 64.26 124.88 63.97 124.96L60.43 125.86C59.35 126.14 58.26 125.49 57.98 124.41C57.94 124.24 57.91 124.06 57.92 123.89L58.03 113.99C58.03 113.33 58.36 113.07 59.01 113.21L60.23 113.47C60.91 113.61 61.25 114.03 61.25 114.72V122C61.25 122.36 61.42 122.59 61.77 122.69Z" fill="white"/>
<path d="M82.27 123.37C83.16 123.05 83.64 122.19 83.71 120.8C83.83 118.35 83.82 116.09 83.69 114.01C83.64 113.26 83.98 112.96 84.72 113.12L86.2 113.45C86.78 113.58 87.18 114.09 87.17 114.68L87.04 122.82C87.04 123.19 86.9 123.5 86.64 123.76L84.81 125.57C84.58 125.79 84.27 125.9 83.95 125.88C81.82 125.71 79.91 124.92 78.23 123.51C77.93 123.26 77.78 122.94 77.79 122.55L77.91 114.29C77.91 113.81 78.31 113.43 78.79 113.43C78.85 113.43 78.9 113.43 78.96 113.45L80.46 113.76C80.97 113.87 81.22 114.18 81.2 114.7L80.97 122.43C80.95 122.97 81.38 123.41 81.91 123.43C82.03 123.43 82.15 123.41 82.27 123.37Z" fill="white"/>
<path d="M94.14 122.7C94.87 122.89 95.57 123.09 96.24 123.3C96.75 123.46 97.01 123.76 97.03 124.21C97.05 124.54 96.83 124.83 96.51 124.91L92.69 125.85C91.62 126.12 90.54 125.47 90.28 124.4C90.24 124.24 90.22 124.08 90.22 123.91L90.28 114.23C90.28 113.4 90.7 113.07 91.51 113.24L92.59 113.47C93.32 113.62 93.69 114.08 93.7 114.83L93.75 122.2C93.75 122.47 93.88 122.63 94.14 122.7Z" fill="white"/>
<path d="M101.79 123.99L101.13 126.32C101.06 126.56 100.81 126.7 100.57 126.63C100.54 126.63 100.51 126.61 100.48 126.59L98.87 125.71C98.41 125.46 98.25 125.08 98.39 124.58L101.31 114.09C101.43 113.67 101.82 113.37 102.26 113.37C103.61 113.37 104.89 113.6 106.11 114.08C106.47 114.22 106.69 114.48 106.76 114.85L108.62 124.5C108.77 125.29 108.45 125.7 107.64 125.73H107.19C106.48 125.77 106.03 125.44 105.84 124.75C105.37 123.04 104.23 122.54 102.44 123.27C102.11 123.4 101.89 123.64 101.79 123.99ZM102.79 119.88L102.64 120.09C102.33 120.52 102.44 120.75 102.97 120.76L104.01 120.8C104.42 120.81 104.58 120.62 104.47 120.22L103.87 117.94C103.81 117.73 103.58 117.61 103.37 117.67C103.22 117.72 103.11 117.85 103.09 118.01L102.99 119.33C102.98 119.53 102.91 119.71 102.79 119.88Z" fill="white"/>
<path d="M123.7 126.07C120.81 126 118.53 123.07 118.61 119.51C118.69 115.95 121.1 113.12 123.99 113.19C126.88 113.26 129.16 116.19 129.08 119.75C129 123.31 126.59 126.14 123.7 126.07ZM123.3 123.79C124.21 123.9 125.16 122.15 125.42 119.89C125.68 117.63 125.16 115.71 124.24 115.61C123.33 115.5 122.38 117.25 122.12 119.51C121.86 121.77 122.38 123.69 123.3 123.79Z" fill="white"/>
<path d="M134.4 122.61L134.46 125.28C134.47 125.69 134.28 125.89 133.87 125.9C131.87 125.94 130.93 124.89 131.06 122.74C131.19 120.32 131.26 117.71 131.25 114.92C131.25 114.41 131.58 113.95 132.07 113.79C134.86 112.89 138.81 112.6 140.62 115.58C142.09 118 139.83 119.17 138.42 120.5C138.13 120.77 138.12 121.05 138.39 121.34L140.97 124.16C141.39 124.61 141.38 125.06 140.95 125.5L140.68 125.77C140.37 126.08 139.88 126.1 139.55 125.83L135.15 122.25C134.95 122.09 134.66 122.12 134.5 122.32C134.43 122.4 134.4 122.51 134.4 122.61ZM135.13 115.63C135.07 115.66 135.02 115.72 134.99 115.79C134.62 116.84 134.5 117.91 134.63 119.01C134.66 119.26 134.89 119.43 135.13 119.4C135.19 119.4 135.24 119.38 135.29 119.35C136.35 118.76 137.23 117.98 137.93 116.99C138.11 116.73 138.08 116.39 137.87 116.16C137.08 115.29 136.17 115.12 135.13 115.63Z" fill="white"/>
<path d="M162.46 123.2L160.13 123.23C159.76 123.23 159.44 123.5 159.37 123.87L158.93 126.21C158.87 126.52 158.57 126.72 158.26 126.66C158.22 126.66 158.18 126.64 158.14 126.63L156.34 125.85C155.92 125.67 155.71 125.22 155.83 124.79L159.02 113.79C159.13 113.41 159.5 113.17 159.88 113.23L163.52 113.8C163.89 113.85 164.19 114.13 164.26 114.5L166.27 124.43C166.39 125.02 166 125.59 165.41 125.71C165.35 125.72 165.3 125.73 165.24 125.73C163.78 125.77 163.03 125.1 162.98 123.71C162.98 123.36 162.8 123.19 162.46 123.2ZM160.97 117.86L160.08 120.26C159.94 120.65 160.08 120.84 160.49 120.81L161.57 120.75C161.85 120.74 162.07 120.5 162.05 120.22C162.05 120.2 162.05 120.19 162.05 120.17L161.71 117.93C161.68 117.72 161.48 117.58 161.27 117.62C161.13 117.64 161.02 117.74 160.97 117.86Z" fill="white"/>
<path d="M185.94 121.71C185.3 121.6 185.03 121.21 185.13 120.54C185.18 120.19 185.38 120.01 185.73 119.99L189.71 119.72C190.06 119.7 190.25 119.86 190.29 120.21C191.04 127.53 180.37 128.24 180.64 120.23C180.74 117.18 182.17 112.66 186.08 113.34C187.67 113.61 188.91 114.58 189.79 116.25C190.21 117.06 189.97 118.06 189.23 118.59C188.7 118.97 188.16 118.97 187.61 118.58C186.87 118.05 186.84 116.99 186.58 116.16C186.49 115.86 186.18 115.68 185.87 115.77C185.74 115.81 185.63 115.89 185.56 116C184.11 118.15 183.64 120.52 184.17 123.11C184.24 123.48 184.46 123.72 184.83 123.81C185.52 123.98 186.08 123.75 186.53 123.11C187.06 122.34 186.87 121.87 185.94 121.71Z" fill="white"/>
<path d="M195.11 123.72L194.39 126.24C194.29 126.6 193.92 126.8 193.56 126.7C193.5 126.68 193.45 126.66 193.4 126.63L191.67 125.57C191.42 125.41 191.3 125.11 191.38 124.82L194.5 113.64C194.59 113.31 194.91 113.11 195.25 113.16L199.22 113.82C199.49 113.87 199.7 114.07 199.76 114.34L201.97 124.84C202.05 125.2 201.82 125.56 201.46 125.64C201.43 125.64 201.4 125.65 201.37 125.65L199.68 125.78C199.37 125.8 199.08 125.6 198.99 125.3L198.5 123.63C198.41 123.34 198.14 123.14 197.83 123.15L195.73 123.23C195.44 123.24 195.19 123.44 195.11 123.72ZM195.83 120.25C195.79 120.48 195.94 120.7 196.17 120.74C196.2 120.74 196.22 120.74 196.25 120.74H197.19C197.68 120.75 197.85 120.51 197.7 120.04L196.92 117.64C196.86 117.47 196.68 117.37 196.5 117.43C196.38 117.47 196.29 117.57 196.28 117.69L195.83 120.24V120.25Z" fill="white"/>
</svg>
