<svg width="213" height="199" viewBox="0 0 213 199" fill="none" xmlns="http://www.w3.org/2000/svg">
<g clip-path="url(#clip0_44_2)">
<path d="M39.5962 163.417C39.5962 163.417 98.0414 225.687 163.846 163.417H151.899C151.899 163.417 105.632 208 51.5592 163.417H39.5962Z" fill="#0979BD"/>
<path d="M116.058 166.053C116.058 166.053 152.887 155.941 196.615 161.494L180.283 114.598L168.21 112.02L185.457 154.651C185.457 154.651 144.876 152.073 116.058 166.053Z" fill="#0979BD"/>
<path d="M111.962 163.417C111.962 163.417 150.604 147.772 178.865 150.006L159.608 104.289L148.425 102.795L167.787 143.868C167.787 143.868 144.901 145.637 111.962 163.41V163.417Z" fill="#F19D23"/>
<path d="M103.208 163.417C103.208 163.417 125.183 146.973 158.385 141.439L139.882 96.2053C139.882 96.2053 118.058 103.41 101.938 118.085C101.938 118.085 86.5601 104.507 63.9942 96.2053L45.0577 139.088C45.0577 139.088 84.1378 150.262 100.187 163.417C100.187 163.417 86.9546 147.556 56.0724 137.001L70.1722 104.703C70.1722 104.703 87.3965 110.88 101.875 119.348C101.875 119.348 128.591 104.461 133.53 104.605L147.835 136.744C147.835 136.744 124.843 144.637 103.201 163.417H103.208Z" fill="#58BCEB"/>
<path d="M87.3846 166.053C87.3846 166.053 50.8472 154.769 6.82692 158.766L24.9004 112.843L37.0928 110.702L18.2623 152.365C18.2623 152.365 59.0233 151.202 87.3846 166.045V166.053Z" fill="#0979BD"/>
<path d="M91.4808 163.417C91.4808 163.417 53.9138 146.438 25.9423 147.73L46.6283 102.592L57.7188 101.477L37.104 141.96C37.104 141.96 59.6252 144.505 91.4808 163.417Z" fill="#F19D23"/>
<path d="M102.404 71.7668C102.404 72.887 101.526 73.8013 100.432 73.8013H100.304C99.21 73.8013 98.3316 72.8953 98.3316 71.7668L98.3077 58.7033C98.3077 57.5831 99.186 56.6689 100.28 56.6689H100.408C101.502 56.6689 102.38 57.5749 102.38 58.7033L102.404 71.7668Z" fill="#F29E23"/>
<path d="M121.399 75.2223C121 76.2117 119.85 76.6946 118.83 76.2988L118.675 76.2434C117.655 75.8476 117.158 74.7315 117.566 73.75L120.274 67.1089C120.673 66.1194 121.824 65.6366 122.843 66.0323L122.998 66.0877C124.018 66.4835 124.515 67.5996 124.107 68.5811L121.399 75.2223Z" fill="#F29E23"/>
<path d="M83.1327 74.8974C83.5535 75.9042 83.0922 77.0762 82.1048 77.5053L81.8943 77.5961C80.9069 78.0252 79.7576 77.5548 79.3368 76.548L76.6173 70.0695C76.1965 69.0626 76.6578 67.8907 77.6452 67.4616L77.8557 67.3708C78.8431 66.9416 79.9924 67.412 80.4132 68.4189L83.1327 74.8974Z" fill="#F29E23"/>
<path d="M146.846 75.7208C147.671 76.4386 147.662 77.5959 146.846 78.3138L137.47 86.4445C136.645 87.1623 135.315 87.155 134.491 86.4445L134.423 86.3786C133.598 85.6607 133.607 84.5034 134.423 83.7855L143.799 75.6548C144.624 74.937 145.954 74.9443 146.779 75.6548L146.846 75.7134V75.7208Z" fill="#F29E23"/>
<path d="M66.1481 87.7197C65.3587 88.4853 64.0824 88.4935 63.2846 87.7278L53.8462 78.6379C53.0569 77.8723 53.0485 76.6261 53.8378 75.8604L54.0058 75.6975C54.7951 74.9319 56.0715 74.9237 56.8692 75.6894L66.3076 84.7793C67.097 85.5449 67.1054 86.7911 66.316 87.5568L66.1481 87.7197Z" fill="#F29E23"/>
<path d="M105.954 80.566C115.349 81.3108 128.121 88.6456 132.423 97.3162C132.456 97.381 132.448 97.3891 132.391 97.3324C115.422 80.6793 88.3717 79.975 70.9669 96.4824C69.3634 97.9963 69.2103 97.8586 70.4915 96.0695C78.7749 84.5167 90.5956 79.3435 105.954 80.566Z" fill="#F29E23"/>
<path d="M27.2271 110.547C27.2271 110.547 27.0684 44.2501 100.098 40.5423C100.098 40.5423 167.929 36.0106 174.953 110.547L182.962 112.02C182.962 112.02 182.7 33.3404 100.098 32.9513C100.098 32.9513 24.7904 30.9678 19.1154 112.02L27.2192 110.547H27.2271Z" fill="#58BCEB"/>
<path d="M18.8045 66.938L18.4851 67.457L20.8793 68.8297C21.1945 69.0103 21.3846 69.2116 21.4498 69.4335C21.515 69.6554 21.48 69.8761 21.3449 70.0957C21.1995 70.3319 21.009 70.4702 20.7732 70.5106C20.5375 70.5509 20.2688 70.4846 19.9672 70.3117L14.2334 67.0244C13.9081 66.8378 13.7166 66.6313 13.6589 66.4047C13.6012 66.1781 13.6706 65.9051 13.8672 65.5857L15.3504 63.1755C15.5552 62.8428 15.7455 62.5671 15.9213 62.3484C16.0938 62.1278 16.2824 61.9479 16.4872 61.8088C16.7268 61.6356 16.9923 61.5133 17.2838 61.4419C17.5753 61.3705 17.8707 61.3598 18.1699 61.4099C18.4679 61.4547 18.7524 61.5548 19.0235 61.7102C19.5793 62.0288 19.928 62.438 20.0697 62.9378C20.2134 63.4343 20.1623 64.0351 19.9164 64.7402C20.2205 64.559 20.5851 64.4282 21.0104 64.348C21.4357 64.2678 21.8633 64.2249 22.2931 64.2193C22.7215 64.2084 23.0946 64.2243 23.4122 64.2669C23.7285 64.3042 23.9341 64.35 24.029 64.4044C24.1272 64.4608 24.2061 64.5487 24.2654 64.6683C24.3235 64.7826 24.3468 64.9085 24.3356 65.046C24.3276 65.1855 24.2807 65.3251 24.1947 65.4648C24.0923 65.6312 23.9657 65.7476 23.8148 65.8141C23.6672 65.8825 23.5068 65.9233 23.3337 65.9365C23.1625 65.9464 22.9154 65.9533 22.5922 65.957L21.2202 65.9738C20.7198 65.9749 20.3208 66.0049 20.0233 66.0638C19.7277 66.1194 19.4912 66.2133 19.3135 66.3455C19.1359 66.4777 18.9662 66.6752 18.8045 66.938ZM16.1953 64.2945L15.3539 65.6618L17.4024 66.8363L18.2193 65.5089C18.4383 65.1529 18.5921 64.836 18.6806 64.5582C18.7656 64.2784 18.7725 64.0326 18.7012 63.8207C18.6285 63.6035 18.46 63.4192 18.1957 63.2676C17.989 63.1491 17.776 63.0967 17.5566 63.1105C17.3339 63.1223 17.1272 63.1973 16.9367 63.3356C16.7557 63.4659 16.5086 63.7855 16.1953 64.2945Z" fill="#0979BD"/>
<path d="M24.7038 58.1481L21.4492 55.6042C21.1722 55.3877 21.0147 55.1655 20.9766 54.9375C20.941 54.7066 21.0061 54.4923 21.1718 54.2948C21.3451 54.0884 21.5511 53.9794 21.7901 53.9679C22.0315 53.9535 22.2907 54.0545 22.5677 54.271L25.8962 56.8726C26.2748 57.1685 26.6257 57.3759 26.9489 57.4947C27.2716 57.6082 27.5916 57.6155 27.9089 57.5167C28.2231 57.4155 28.5384 57.1763 28.8548 56.7993C29.2916 56.2786 29.4589 55.7998 29.3565 55.363C29.251 54.9239 28.909 54.4782 28.3304 54.0259L24.9742 51.4027C24.6941 51.1838 24.5366 50.9615 24.5016 50.736C24.4635 50.508 24.5286 50.2938 24.6968 50.0933C24.865 49.8928 25.0698 49.7853 25.3113 49.7709C25.5521 49.751 25.8126 49.8506 26.0927 50.0695L29.3473 52.6133C29.8767 53.0271 30.2756 53.4232 30.5442 53.8016C30.8153 54.1769 30.968 54.6084 31.0022 55.096C31.0291 55.5134 30.9618 55.9216 30.8003 56.3206C30.6389 56.7196 30.3799 57.1316 30.0233 57.5566C29.599 58.0623 29.1783 58.4544 28.7612 58.7329C28.3411 59.009 27.9174 59.1708 27.4901 59.2184C27.0598 59.2636 26.6164 59.197 26.1597 59.0184C25.7 58.8375 25.2147 58.5474 24.7038 58.1481Z" fill="#0979BD"/>
<path d="M37.6475 47.4257L32.8783 44.3221L36.9186 48.6623C37.1422 48.9025 37.2538 49.1313 37.2534 49.3486C37.256 49.5634 37.1659 49.7501 36.9829 49.9088C36.8058 50.0623 36.6067 50.1291 36.3854 50.1092C36.1615 50.0863 35.9364 49.9534 35.7102 49.7104L31.079 44.7354C30.8235 44.461 30.7256 44.2126 30.7853 43.9903C30.8424 43.7651 30.9963 43.5437 31.2472 43.3262L31.6544 42.973C31.8994 42.7606 32.0964 42.6285 32.2455 42.5766C32.3976 42.5223 32.552 42.5278 32.709 42.5933C32.8659 42.6587 33.0954 42.7878 33.3975 42.9805L37.5462 45.6067L35.2832 41.3451C35.1169 41.0347 35.0084 40.8006 34.9577 40.6431C34.907 40.4855 34.9163 40.3379 34.9855 40.2003C35.0578 40.0602 35.2163 39.8839 35.4613 39.6715L35.8685 39.3183C36.1194 39.1008 36.3638 38.9766 36.6019 38.9459C36.8372 38.9123 37.0827 39.0327 37.3382 39.3072L41.9694 44.2821C42.1929 44.5223 42.3045 44.751 42.3042 44.9684C42.3068 45.1831 42.2151 45.3711 42.0292 45.5324C41.8551 45.6834 41.6561 45.7475 41.4321 45.7246C41.2082 45.7018 40.9845 45.5703 40.7609 45.3301L36.7206 40.9899L39.4092 45.8978C39.5836 46.2168 39.7058 46.457 39.776 46.6183C39.8465 46.7742 39.8707 46.9521 39.8488 47.152C39.8269 47.3519 39.7141 47.5402 39.5105 47.7167C39.357 47.8498 39.1966 47.9296 39.0291 47.9559C38.8643 47.9852 38.7058 47.9753 38.5537 47.9265C38.4015 47.8776 38.2518 47.8084 38.1046 47.7191C37.9577 47.6243 37.8053 47.5265 37.6475 47.4257Z" fill="#0979BD"/>
<path d="M51.7465 37.2953L50.7969 36.6189L47.8386 38.4747L48.1063 39.6063C48.2107 40.0479 48.2574 40.3619 48.2465 40.5485C48.2335 40.7318 48.1177 40.892 47.8993 41.029C47.714 41.1452 47.5055 41.1815 47.2737 41.1379C47.042 41.0944 46.8694 40.9883 46.756 40.8198C46.6905 40.7226 46.6394 40.6118 46.6027 40.4874C46.566 40.3629 46.5235 40.1845 46.4752 39.952L45.2211 34.1574C45.1846 33.9914 45.1406 33.7931 45.089 33.5628C45.0386 33.3271 45.0133 33.1218 45.0131 32.9467C45.0162 32.7696 45.0605 32.6013 45.146 32.4417C45.2326 32.2767 45.3769 32.1309 45.5787 32.0043C45.7839 31.8756 45.9805 31.8076 46.1685 31.8002C46.3577 31.7876 46.534 31.8153 46.6974 31.8832C46.8642 31.9492 47.0226 32.0341 47.1727 32.1382C47.3239 32.2369 47.5216 32.3733 47.7659 32.5473L52.7628 35.9526C53.1473 36.2091 53.393 36.4168 53.4999 36.5756C53.6112 36.7408 53.6426 36.9377 53.5941 37.1663C53.5468 37.3896 53.4238 37.5635 53.2253 37.688C53.1095 37.7607 52.996 37.8019 52.8849 37.8117C52.776 37.8247 52.6705 37.8148 52.5685 37.782C52.4642 37.7461 52.331 37.6775 52.1688 37.5765C52.0078 37.4701 51.867 37.3764 51.7465 37.2953ZM47.4959 37.1479L49.67 35.7842L46.5931 33.5318L47.4959 37.1479Z" fill="#0979BD"/>
<path d="M57.0857 26.748L58.1321 28.9754L61.5729 27.4696L60.5265 25.2422C60.377 24.924 60.3365 24.654 60.4049 24.4322C60.4769 24.2089 60.631 24.0456 60.8672 23.9422C61.1069 23.8373 61.3375 23.8323 61.559 23.9272C61.7824 24.017 61.9696 24.2227 62.1208 24.5445L64.9982 30.6699C65.1493 30.9916 65.1871 31.2649 65.1116 31.4898C65.036 31.7147 64.8801 31.8788 64.6439 31.9821C64.4042 32.0871 64.1754 32.0913 63.9575 31.9949C63.7379 31.8949 63.5534 31.6858 63.4039 31.3676L62.1757 28.753L58.735 30.2588L59.9632 32.8734C60.1143 33.1951 60.1521 33.4684 60.0765 33.6933C60.001 33.9182 59.8451 34.0823 59.6089 34.1857C59.3691 34.2906 59.1403 34.2948 58.9224 34.1984C58.7029 34.0984 58.5184 33.8893 58.3689 33.5711L55.4915 27.4457C55.342 27.1275 55.2997 26.8583 55.3645 26.6381C55.4329 26.4164 55.5888 26.2522 55.8321 26.1457C56.0719 26.0408 56.3025 26.0358 56.524 26.1307C56.7473 26.2205 56.9346 26.4262 57.0857 26.748Z" fill="#0979BD"/>
<path d="M80.7575 26.8376L78.1849 27.3599C77.8136 27.4353 77.5297 27.4073 77.3331 27.2758C77.1396 27.1397 77.0033 26.8904 76.9243 26.5278L75.5492 20.2189C75.4685 19.8487 75.4911 19.5671 75.617 19.3742C75.7458 19.1766 75.992 19.0409 76.3557 18.9671L79.0833 18.4133C79.4852 18.3316 79.839 18.2857 80.1446 18.2755C80.4501 18.2652 80.7351 18.307 80.9994 18.4008C81.2242 18.4787 81.4332 18.5937 81.6262 18.7458C81.8185 18.8941 81.9789 19.0708 82.1075 19.2758C82.2353 19.4771 82.3259 19.6998 82.3791 19.9441C82.5621 20.7837 82.2749 21.4837 81.5176 22.044C82.7004 22.1705 83.4025 22.7414 83.6238 23.7566C83.7261 24.2261 83.6978 24.6742 83.539 25.101C83.3794 25.524 83.1143 25.8668 82.7438 26.1293C82.5106 26.2883 82.2325 26.4245 81.9094 26.5379C81.5855 26.6475 81.2015 26.7474 80.7575 26.8376ZM79.8188 23.1362L78.0445 23.4965L78.5785 25.9468L80.4103 25.5749C81.5626 25.3409 82.0484 24.8098 81.8679 23.9816C81.7756 23.558 81.5593 23.281 81.2191 23.1508C80.879 23.0206 80.4122 23.0158 79.8188 23.1362ZM77.3058 20.1073L77.7787 22.2771L79.3406 21.96C79.7655 21.8737 80.0841 21.7672 80.2963 21.6404C80.5124 21.5128 80.6571 21.324 80.7305 21.0739C80.7913 20.8942 80.8 20.7051 80.7568 20.5066C80.6644 20.083 80.4521 19.8332 80.1197 19.7572C79.7865 19.6774 79.3098 19.7004 78.6897 19.8263L77.3058 20.1073Z" fill="#0979BD"/>
<path d="M91.2865 17.4604L91.4381 19.9167L95.1878 19.701L95.0361 17.2448C95.0145 16.8939 95.0762 16.6262 95.2214 16.4418C95.3704 16.2572 95.5737 16.1575 95.8311 16.1426C96.0923 16.1276 96.3083 16.2032 96.4791 16.3695C96.6535 16.5316 96.7516 16.7901 96.7735 17.1449L97.1905 23.8996C97.2124 24.2544 97.1469 24.5242 96.9939 24.7091C96.8409 24.8939 96.6358 24.9938 96.3784 25.0086C96.1171 25.0236 95.903 24.9479 95.7362 24.7814C95.5692 24.611 95.4748 24.3504 95.4531 23.9995L95.2751 21.1163L91.5255 21.332L91.7035 24.2152C91.7254 24.57 91.6598 24.8398 91.5069 25.0247C91.3539 25.2095 91.1487 25.3094 90.8914 25.3242C90.6301 25.3392 90.416 25.2635 90.2492 25.097C90.0821 24.9266 89.9878 24.666 89.9661 24.3151L89.5491 17.5604C89.5274 17.2095 89.5872 16.9419 89.7285 16.7577C89.8737 16.5733 90.0788 16.4735 90.344 16.4582C90.6053 16.4432 90.8213 16.5188 90.992 16.6851C91.1664 16.8472 91.2646 17.1056 91.2865 17.4604Z" fill="#0979BD"/>
<path d="M109.231 24.2266L108.923 23.1177L105.443 22.8162L104.933 23.8776C104.733 24.2917 104.57 24.5696 104.443 24.7115C104.317 24.8496 104.125 24.9074 103.868 24.8852C103.65 24.8663 103.465 24.7699 103.312 24.5959C103.16 24.4219 103.093 24.2338 103.112 24.0316C103.123 23.9149 103.153 23.796 103.204 23.6749C103.254 23.5538 103.335 23.3863 103.445 23.1724L106.151 17.8079C106.228 17.6538 106.319 17.4696 106.426 17.2554C106.536 17.0375 106.647 16.8589 106.758 16.7196C106.873 16.5805 107.014 16.4732 107.182 16.3976C107.354 16.3184 107.559 16.2891 107.796 16.3096C108.038 16.3306 108.234 16.3946 108.385 16.5018C108.54 16.6054 108.659 16.7334 108.743 16.8857C108.831 17.0384 108.9 17.2012 108.951 17.3742C109.006 17.5436 109.073 17.771 109.152 18.0562L110.875 23.7691C111.011 24.2043 111.07 24.5172 111.052 24.7078C111.034 24.9062 110.933 25.0817 110.75 25.2345C110.571 25.3837 110.365 25.4482 110.132 25.4279C109.996 25.4161 109.881 25.3807 109.789 25.3217C109.696 25.2666 109.62 25.1954 109.561 25.108C109.503 25.0167 109.443 24.8821 109.381 24.7042C109.323 24.5228 109.274 24.3636 109.231 24.2266ZM106.02 21.5547L108.577 21.7762L107.615 18.1347L106.02 21.5547Z" fill="#0979BD"/>
<path d="M120.241 19.039L119.505 21.9594L123.701 19.2856C123.903 19.1565 124.069 19.0651 124.199 19.0114C124.334 18.9586 124.494 18.9541 124.68 18.9979C124.923 19.055 125.101 19.173 125.213 19.3517C125.33 19.5276 125.363 19.7178 125.311 19.9223C125.249 20.1685 125.06 20.3829 124.744 20.5655L122.195 22.0253L123.715 25.9687C123.823 26.2428 123.897 26.4787 123.935 26.6764C123.975 26.8703 123.974 27.0505 123.932 27.2172C123.885 27.4028 123.771 27.5464 123.588 27.6479C123.409 27.7504 123.194 27.7721 122.943 27.7132C122.707 27.6579 122.528 27.5635 122.404 27.4302C122.282 27.2931 122.19 27.1292 122.129 26.9384C122.069 26.7477 122.016 26.5747 121.97 26.4196L120.741 22.8814L119.021 23.8799L118.587 25.6015C118.5 25.9499 118.354 26.1907 118.152 26.3236C117.95 26.4528 117.724 26.4879 117.473 26.429C117.328 26.3951 117.199 26.3246 117.085 26.2176C116.971 26.1106 116.894 25.9842 116.854 25.8385C116.828 25.7199 116.826 25.5892 116.85 25.4464C116.874 25.3036 116.92 25.0996 116.986 24.8344L118.547 18.6413C118.633 18.3004 118.771 18.0621 118.963 17.9265C119.158 17.7917 119.385 17.7547 119.643 17.8154C119.898 17.8752 120.082 18.0087 120.195 18.2157C120.313 18.4199 120.328 18.6943 120.241 19.039Z" fill="#0979BD"/>
<path d="M137.568 24.8166L135.796 24.1344L133.412 29.9014C133.275 30.2335 133.098 30.4521 132.881 30.557C132.666 30.6582 132.44 30.6633 132.203 30.572C131.963 30.4794 131.799 30.3223 131.713 30.1009C131.631 29.8809 131.658 29.6067 131.794 29.2782L134.177 23.5112L132.406 22.8289C132.129 22.7223 131.947 22.5834 131.862 22.4123C131.778 22.2376 131.777 22.051 131.859 21.8525C131.944 21.6467 132.08 21.5109 132.268 21.4451C132.459 21.3807 132.688 21.3998 132.954 21.5023L138.116 23.49C138.397 23.598 138.579 23.7394 138.663 23.9141C138.751 24.0902 138.754 24.2775 138.672 24.4761C138.59 24.6746 138.454 24.8086 138.265 24.878C138.077 24.9438 137.845 24.9233 137.568 24.8166Z" fill="#0979BD"/>
<path d="M140.96 33.1374L144.198 27.1947C144.367 26.8859 144.564 26.6907 144.791 26.6088C145.018 26.5269 145.245 26.5435 145.471 26.6584C145.704 26.7768 145.85 26.9495 145.909 27.1763C145.973 27.4015 145.92 27.6702 145.75 27.9823L142.512 33.9251C142.342 34.2372 142.142 34.4333 141.912 34.5134C141.685 34.5953 141.454 34.577 141.221 34.4585C140.998 34.3454 140.856 34.1745 140.793 33.9459C140.737 33.7156 140.792 33.4461 140.96 33.1374Z" fill="#0979BD"/>
<path d="M152.322 39.6713L156.401 34.2708C156.613 33.9902 156.837 33.8259 157.074 33.7778C157.311 33.7297 157.533 33.7787 157.741 33.9248C157.955 34.0754 158.075 34.2669 158.1 34.4993C158.13 34.7309 158.039 34.9885 157.824 35.2722L153.746 40.6727C153.532 40.9563 153.304 41.1211 153.064 41.167C152.827 41.2151 152.602 41.1638 152.388 41.0132C152.183 40.8694 152.067 40.6801 152.039 40.4454C152.016 40.2099 152.111 39.9518 152.322 39.6713Z" fill="#0979BD"/>
<path d="M163.828 39.8438L159.567 44.4192L162.232 46.7307C162.444 46.915 162.56 47.1058 162.579 47.3031C162.601 47.503 162.541 47.6787 162.4 47.8302C162.256 47.9846 162.083 48.0617 161.881 48.0617C161.681 48.0587 161.473 47.9638 161.257 47.777L158.084 45.0239C157.798 44.7756 157.649 44.5349 157.636 44.3019C157.627 44.0715 157.75 43.8191 158.005 43.5446L162.514 38.7034C162.753 38.4461 162.992 38.3044 163.23 38.2781C163.47 38.2544 163.688 38.3271 163.883 38.496C164.081 38.6675 164.18 38.8701 164.181 39.1037C164.188 39.337 164.07 39.5837 163.828 39.8438Z" fill="#0979BD"/>
<path d="M168.557 53.096L171.929 48.6293L167.302 52.3381C167.046 52.5433 166.806 52.6409 166.581 52.631C166.359 52.6241 166.169 52.5288 166.011 52.3453C165.858 52.1676 165.795 51.9724 165.823 51.7597C165.855 51.5446 166 51.3332 166.259 51.1255L171.562 46.8743C171.855 46.6398 172.115 46.5562 172.343 46.6236C172.574 46.6886 172.798 46.847 173.014 47.0986L173.366 47.5073C173.577 47.753 173.707 47.949 173.756 48.0952C173.807 48.2444 173.796 48.3933 173.723 48.5418C173.65 48.6904 173.509 48.9063 173.299 49.1894L170.442 53.0783L174.927 51.0815C175.254 50.9346 175.5 50.8401 175.665 50.7981C175.829 50.7561 175.982 50.7716 176.122 50.8445C176.264 50.9204 176.441 51.0812 176.653 51.327L177.004 51.7356C177.221 51.9873 177.341 52.2287 177.365 52.4598C177.391 52.6885 177.259 52.9201 176.966 53.1546L171.663 57.4058C171.407 57.611 171.166 57.7087 170.941 57.6988C170.719 57.6919 170.528 57.5951 170.367 57.4086C170.217 57.2339 170.157 57.039 170.189 56.8238C170.22 56.6087 170.363 56.3985 170.619 56.1933L175.246 52.4845L170.078 54.8637C169.742 55.0179 169.489 55.1253 169.32 55.186C169.156 55.2471 168.972 55.2627 168.765 55.2328C168.559 55.2028 168.369 55.0857 168.193 54.8814C168.06 54.7274 167.983 54.569 167.962 54.4062C167.937 54.2459 167.952 54.0933 168.008 53.9486C168.064 53.8039 168.14 53.6624 168.238 53.5243C168.341 53.3866 168.447 53.2439 168.557 53.096Z" fill="#0979BD"/>
<path d="M178.002 61.1471L181.59 59.0999C181.895 58.9256 182.165 58.8616 182.399 58.9077C182.636 58.9572 182.821 59.0918 182.956 59.3117C183.096 59.5415 183.131 59.7666 183.06 59.987C182.991 60.2107 182.804 60.4096 182.499 60.5839L178.829 62.6776C178.412 62.9157 178.09 63.16 177.864 63.4107C177.643 63.6627 177.525 63.9498 177.512 64.272C177.502 64.5923 177.626 64.9623 177.883 65.3821C178.238 65.9617 178.645 66.2823 179.104 66.3441C179.566 66.4039 180.117 66.2518 180.754 65.8879L184.454 63.7767C184.763 63.6006 185.033 63.5365 185.264 63.5846C185.498 63.6307 185.683 63.7654 185.82 63.9886C185.957 64.2117 185.991 64.4352 185.922 64.6589C185.858 64.884 185.672 65.0846 185.363 65.2608L181.775 67.308C181.192 67.641 180.67 67.8621 180.211 67.9715C179.753 68.0842 179.282 68.0699 178.797 67.9285C178.383 67.8053 178.01 67.6 177.678 67.3127C177.347 67.0255 177.036 66.6453 176.746 66.1723C176.401 65.6093 176.166 65.0898 176.039 64.6137C175.915 64.1357 175.904 63.6949 176.005 63.2913C176.109 62.8857 176.326 62.5078 176.657 62.1575C176.99 61.8052 177.439 61.4684 178.002 61.1471Z" fill="#0979BD"/>
</g>
<defs>
<clipPath id="clip0_44_2">
<rect width="213" height="199" fill="white"/>
</clipPath>
</defs>
</svg>
